<?xml version="1.0" encoding="UTF-8"?>
<svg width="24px" height="35px" viewBox="0 0 24 35" version="1.1" xmlns="http://www.w3.org/2000/svg" xmlns:xlink="http://www.w3.org/1999/xlink">
    <!-- Generator: Sketch 64 (93537) - https://sketch.com -->
    <title>pin</title>
    <desc>Created with Sketch.</desc>
    <g id="Page-1" stroke="none" stroke-width="1" fill="none" fill-rule="evenodd">
        <g id="Expendios-sabropollo" transform="translate(-783.000000, -1102.000000)" fill="#000000" fill-rule="nonzero">
            <g id="pin" transform="translate(795.000000, 1119.500000) scale(-1, 1) translate(-795.000000, -1119.500000) translate(783.000000, 1102.000000)">
                <path d="M12,0 C5.3832,0 0,5.51988281 0,12.3046875 C0,14.5970508 0.619266667,16.8341797 1.79126667,18.7750391 L11.3169333,34.5152637 C11.4994,34.8167969 11.8208667,35 12.1666,35 C12.1692667,35 12.1718667,35 12.1745333,35 C12.5232667,34.9971973 12.8454,34.8083203 13.0245333,34.5015234 L22.3074,18.6087891 C23.4147333,16.7089453 24,14.5290332 24,12.3046875 C24,5.51988281 18.6168,0 12,0 Z M20.5910667,17.555918 L12.1514667,32.0049023 L3.49113333,17.6945508 C2.5156,16.079082 1.98666667,14.215332 1.98666667,12.3046875 C1.98666667,6.65068359 6.486,2.03710938 12,2.03710938 C17.514,2.03710938 22.0066667,6.65068359 22.0066667,12.3046875 C22.0066667,14.1586621 21.5126,15.9747656 20.5910667,17.555918 Z" id="Shape"></path>
                <path d="M11,7 C7.6916,7 5,9.6916 5,13 C5,16.2872667 7.6478,19 11,19 C14.3935333,19 17,16.2511333 17,13 C17,9.6916 14.3084,7 11,7 Z M11,17.0133333 C8.78286667,17.0133333 6.98666667,15.2111333 6.98666667,13 C6.98666667,10.7944 8.7944,8.98666667 11,8.98666667 C13.2056,8.98666667 15.0066667,10.7944 15.0066667,13 C15.0066667,15.1788667 13.2522667,17.0133333 11,17.0133333 Z" id="Shape"></path>
            </g>
        </g>
    </g>
</svg>