<?xml version="1.0" encoding="utf-8"?>
<!-- Generator: Adobe Illustrator 25.1.0, SVG Export Plug-In . SVG Version: 6.00 Build 0)  -->
<svg version="1.1" id="Layer_1" xmlns="http://www.w3.org/2000/svg" xmlns:xlink="http://www.w3.org/1999/xlink" x="0px" y="0px"
	 viewBox="0 0 431.6 284.9" style="enable-background:new 0 0 431.6 284.9;" xml:space="preserve">
<style type="text/css">
	.st0{fill:#FFFFFF;}
</style>
<g>
	<g>
		<path class="st0" d="M401.3,239.7h-36.2c-6.2,0-11.2-5-11.2-11.2c0-6.2,5-11.2,11.2-11.2h26.3l7.1-57.2l-23.3-23.3
			c-1.4-1.4-2.5-3.2-2.9-5.2l-25-100.2H94l-1.5,8.8c-1.1,6.1-6.8,10.2-12.9,9.1c-6.1-1.1-10.2-6.9-9.1-12.9l3.1-18
			c0.9-5.4,5.6-9.3,11-9.3h271.5c5.1,0,9.6,3.5,10.9,8.5l26.4,105.7l25,25c2.4,2.4,3.6,5.9,3.2,9.3l-9,72.5
			C411.7,235.5,407,239.7,401.3,239.7z"/>
	</g>
	<g>
		<path class="st0" d="M72,103.7c-0.6,0-1.3-0.1-1.9-0.2c-6.1-1.1-10.2-6.9-9.1-12.9l4.7-27.1c1.1-6.1,6.8-10.2,12.9-9.1
			c6.1,1.1,10.2,6.9,9.1,12.9L83,94.5C82,99.9,77.3,103.7,72,103.7z"/>
	</g>
	<g>
		<path class="st0" d="M62.5,157.9c-0.6,0-1.3-0.1-1.9-0.2c-6.1-1.1-10.2-6.9-9.1-12.9l4.7-26.9c1.1-6.1,6.8-10.2,12.9-9.1
			c6.1,1.1,10.2,6.9,9.1,12.9l-4.7,26.9C72.6,154.1,67.9,157.9,62.5,157.9z"/>
	</g>
	<g>
		<path class="st0" d="M93.6,239.7H48.3c-3.3,0-6.4-1.5-8.6-4c-2.1-2.5-3-5.9-2.5-9.1l9.5-54.3c1.1-6.1,6.8-10.1,12.9-9.1
			c6.1,1.1,10.2,6.9,9.1,12.9l-7.2,41.2h32c6.2,0,11.2,5,11.2,11.2C104.8,234.7,99.8,239.7,93.6,239.7z"/>
	</g>
	<g>
		<path class="st0" d="M292.7,239.7H166c-6.2,0-11.2-5-11.2-11.2c0-6.2,5-11.2,11.2-11.2h126.7c6.2,0,11.2,5,11.2,11.2
			C303.9,234.7,298.9,239.7,292.7,239.7z"/>
	</g>
	<g>
		<path class="st0" d="M166,131H21.2C15,131,10,126,10,119.8c0-6.2,5-11.2,11.2-11.2H166c6.2,0,11.2,5,11.2,11.2
			C177.2,126,172.2,131,166,131z"/>
	</g>
	<g>
		<path class="st0" d="M238.4,76.7H21.2c-6.2,0-11.2-5-11.2-11.2c0-6.2,5-11.2,11.2-11.2h217.2c6.2,0,11.2,5,11.2,11.2
			C249.6,71.6,244.6,76.7,238.4,76.7z"/>
	</g>
	<g>
		<path class="st0" d="M93.6,185.3H21.2c-6.2,0-11.2-5-11.2-11.2c0-6.2,5-11.2,11.2-11.2h72.4c6.2,0,11.2,5,11.2,11.2
			C104.8,180.3,99.8,185.3,93.6,185.3z"/>
	</g>
	<g>
		<path class="st0" d="M129.8,275.9c-26.1,0-47.4-21.3-47.4-47.4s21.3-47.4,47.4-47.4c26.1,0,47.4,21.3,47.4,47.4
			S155.9,275.9,129.8,275.9z M129.8,203.4c-13.8,0-25,11.2-25,25c0,13.8,11.2,25,25,25c13.8,0,25-11.2,25-25
			C154.8,214.7,143.6,203.4,129.8,203.4z"/>
	</g>
	<g>
		<path class="st0" d="M328.9,275.9c-26.1,0-47.4-21.3-47.4-47.4s21.3-47.4,47.4-47.4c26.1,0,47.4,21.3,47.4,47.4
			S355.1,275.9,328.9,275.9z M328.9,203.4c-13.8,0-25,11.2-25,25c0,13.8,11.2,25,25,25c13.8,0,25-11.2,25-25
			C353.9,214.7,342.7,203.4,328.9,203.4z"/>
	</g>
	<g>
		<path class="st0" d="M383.2,140c-0.9,0-1.8-0.1-2.7-0.3l-72.4-18.1c-5.6-1.4-9.2-6.8-8.4-12.4l9-63.4c0.9-6.1,6.6-10.4,12.7-9.5
			c6.1,0.9,10.4,6.5,9.5,12.7l-7.6,53.4l62.6,15.7c6,1.5,9.6,7.6,8.1,13.6C392.8,136.7,388.2,140,383.2,140z"/>
	</g>
</g>
</svg>
