<?xml version="1.0" encoding="utf-8"?>
<!-- Generator: Adobe Illustrator 24.1.0, SVG Export Plug-In . SVG Version: 6.00 Build 0)  -->
<svg version="1.1" id="Layer_1" xmlns="http://www.w3.org/2000/svg" xmlns:xlink="http://www.w3.org/1999/xlink" x="0px" y="0px"
	 viewBox="0 0 353.6 193.9" style="enable-background:new 0 0 353.6 193.9;" xml:space="preserve">
<style type="text/css">
	.st0{fill:#FFFFFF;}
	.st1{fill-rule:evenodd;clip-rule:evenodd;fill:#FFDD00;}
	.st2{fill:#010101;}
	.st3{fill:#FFDD00;}
</style>
<g>
	<path class="st0" d="M3.1,190.7V29.8c0-14.7,11.9-26.6,26.6-26.6h320.7V164c0,14.7-11.9,26.6-26.6,26.6H3.1z"/>
	<path d="M347.6,6.1v158c0,13.1-10.6,23.8-23.8,23.8H6v-158C6,16.7,16.6,6.1,29.7,6.1H347.6 M353.3,0.4h-5.7H29.7
		C13.5,0.4,0.3,13.6,0.3,29.8v158v5.7H6h317.9c16.2,0,29.5-13.2,29.5-29.5V6.1V0.4L353.3,0.4z"/>
</g>
<g>
	<path class="st1" d="M78.6,60.8L122.3,50c13.5-3.2,19.9,6.7,19.6,15.2V126c0,8.3-4.7,17.3-15,19.8L22.9,171.1v-25.3l89.4-22.1
		c11.8-3,16-6.4,16-23.5c0-17-6.9-19.6-16-22.1l-33.6-8.7V60.8z"/>
	<path class="st2" d="M138,52.1c-2.5-2.3-5.9-3.9-10.1-3.9c-1.7-0.2-3.7,0-5.9,0.5l-15,3.7l5.6-11.5l-27.2,6.4
		c-7.6,1.8-8.3,5.3-8.3,11.5v1.8l-17.2,4.6l17.2,4.6v4.4c0,5.8,3.4,7.8,6.6,8.7l16.4,3.9c4.4,1.2,6.1-3.7,6.1-5.5v-3.2l5.4,1.4
		c4.4,1.2,8.1,2.3,10.8,5.1c2.7,3,4.2,7.6,4.2,15.6c0,8.3-1,13.1-3.2,16.1c-2.2,3.2-6.1,4.6-11.8,6l-89.1,22.1l-1,0.2v28.3l1.7-0.5
		l103.8-25.3c5.2-1.2,9.1-3.9,11.8-7.6c2.9-3.9,4.4-9,4.4-13.6V65.2c0-1.6-0.2-3.2-0.5-4.8C142.2,57.2,140.5,54.2,138,52.1z
		 M140.5,126c0,4.1-1.2,8.5-3.9,12c-2.2,3-5.4,5.3-9.8,6.4L24.3,169.5v-22.6l88.1-21.9c6.4-1.4,10.6-3.2,13.3-6.9
		c2.7-3.7,3.9-9.2,3.9-18c0-9-2-14.3-4.9-17.5c-3.2-3.5-7.4-4.6-12.3-6l-32.4-8.3V62l42.5-10.4c2-0.7,3.7-0.7,5.4-0.7
		c3.4,0,6.1,1.4,8.1,3.2c2,1.8,3.4,4.4,3.9,6.9c0.5,1.4,0.5,2.8,0.5,3.9V126z M169.2,68.7c-13.3,1.2-10.8-4.6-1-6.9
		c4.9-1.2,10.3-0.2,14,3.9l3.2-0.9v-6.4c-8.6-3.5-35.8-2.3-35.8,13.1c0,5.8,10.1,9.9,18.7,10.1c10.6,0,8.1,6.7-0.7,7.4
		c-5.4,0.2-11.3-0.2-13-3.9l-4.9,1.2v8.1c8.8,0.9,38.8,2.1,39-17.5C188.6,69.8,179,67.7,169.2,68.7z M34.7,118.4l71.7-17.5l-57.7-14
		c-14-3.5-14-11.3-14-21.9c0.2-9.9,0.2-18.6,14-21.9l93.3-22.6H34.7c-5.6,0-11.5,5.8-11.5,11.5v76.4C23.1,117.2,29,120,34.7,118.4z
		 M287.5,33.7v-5.8l-15.2,10.1v3.2c3.2-1.6,3.2,0,3.2,4.1v14.7c0,3.5,0,5.1-3.2,5.8v2.8l19.4-4.8v-3c-4.2,1.2-4.2-1.1-4.2-3.5V43.8
		c0-6,5.4-7.4,6.1-3l3.7-0.9l2.9-15.2C294.4,25.9,290,28.9,287.5,33.7z M225.9,55.1c0-11-15-10.6-24.8-4.8l-10.6,6.4v6.9l4.4-1.2
		c0.7-7.1,17.9-13.6,17.9-8.1c0,3.9-22.3,12.4-22.3,25.5c0,8.5,11.8,7.8,18.9,2.5l3.2-2.3v3.2l16.9-4.1v-5.1l-3.7,1.2V55.1z
		 M212.6,69.8c0,4.6-4.9,7.6-6.6,5.8c-3.4-3.9,3.2-9,6.6-12.7V69.8z M315.5,21.3c-12.8,3.2-16.2,12-16.4,22.3
		c0,11.5,3.2,18.2,16.9,14.5c13-3.5,14.7-10.6,15-22.6C331,24.7,329,18,315.5,21.3z M315.5,49.1c-2.7,0.7-4.9-2.8-4.9-8.1
		c0-5.1,2.2-9.7,4.9-10.4c2.5-0.7,4.7,3,4.7,8.1C320.2,43.8,318,48.4,315.5,49.1z M249.2,40.4l-0.2-14l-16,3.9v3.5
		c3.2-0.9,3.4,2.1,3.4,3v32.5c0,5.3-3.2,5.3-3.2,5.3v3.9l15.7-3.9v-2.1c16.4,2.8,21.6-8.7,21.6-20.9C270.6,36.4,262,29.1,249.2,40.4
		z M254.1,64.1c-2.7,0.7-5.2-2.8-5.2-7.6c0-5.1,2.5-9.9,5.2-10.6c2.7-0.7,4.7,3,4.7,8.1C258.8,58.8,256.6,63.6,254.1,64.1z
		 M92.9,61.9c-1.8,0-3.3,1.5-3.3,3.3c0,1.8,1.5,3.3,3.3,3.3c1.8,0,3.3-1.5,3.3-3.3C96.2,63.4,94.8,61.9,92.9,61.9z"/>
	<g>
		<path class="st2" d="M309.6,145.1v-8.6h2.2l1.3,5.9l1.3-5.9h2.2v8.6h-1.4v-6.8l-1.5,6.8h-1.4l-1.5-6.8v6.8H309.6z"/>
		<path class="st2" d="M318.2,145.1v-8.6h3.1c0.8,0,1.4,0.1,1.7,0.2c0.3,0.2,0.6,0.4,0.8,0.8c0.2,0.4,0.3,0.8,0.3,1.4
			c0,0.7-0.2,1.2-0.5,1.6c-0.3,0.4-0.8,0.7-1.4,0.8c0.3,0.2,0.6,0.5,0.8,0.7c0.2,0.3,0.5,0.7,0.8,1.4l0.9,1.7H323l-1.1-1.9
			c-0.4-0.7-0.6-1.1-0.8-1.3c-0.1-0.2-0.3-0.3-0.4-0.4c-0.2-0.1-0.4-0.1-0.7-0.1h-0.3v3.6H318.2z M319.7,140.1h1.1
			c0.7,0,1.1,0,1.3-0.1c0.2-0.1,0.3-0.2,0.4-0.3c0.1-0.2,0.2-0.4,0.2-0.7c0-0.3-0.1-0.5-0.2-0.7c-0.1-0.2-0.3-0.3-0.5-0.3
			c-0.1,0-0.5-0.1-1.2-0.1h-1.2V140.1z"/>
	</g>
	<path class="st3" d="M152.9,155.6h172.7c2.3,0,4.2,1.8,4.2,4.2v8.5c0,2.3-1.9,4.2-4.2,4.2H152.9c-2.3,0-4.2-1.9-4.2-4.2v-8.5
		C148.7,157.4,150.5,155.6,152.9,155.6z"/>
	<path class="st2" d="M152.9,154.5c-2.9,0-5.2,2.3-5.2,5.2v8.5c0,2.9,2.3,5.2,5.2,5.2h172.7c2.9,0,5.2-2.3,5.2-5.2v-8.5
		c0-2.9-2.3-5.2-5.2-5.2H152.9z M149.8,168.2v-8.5c0-1.7,1.4-3.1,3.1-3.1h172.7c1.7,0,3.1,1.4,3.1,3.1v8.5c0,1.7-1.4,3.1-3.1,3.1
		H152.9C151.2,171.3,149.8,169.9,149.8,168.2z"/>
	<g>
		<path class="st3" d="M258.4,109.5c0.1-4.8-0.3-9.4-2.1-11.9c-1.8-2.3-5.7-3.4-11.9-2.1c-12.4,2.5-16.2,10.7-16.4,19.6
			c-0.5,10.1,3.3,16.2,15.6,13.6c9.9-2,13.4-7.4,14.5-15.2c-3.1,0.7-6.2,1.5-9.3,2.2c-1.7,5.2-2.5,6.8-5.7,7.7
			c-6.1,0.9-5.3-4.5-5.7-9.2C244.3,112.7,251.3,111.1,258.4,109.5L258.4,109.5z M248.8,107.9l-11.1,2.5c0.6-4.3,2.8-8,6.1-8.8
			C247,101,248.2,104,248.8,107.9z"/>
		<path class="st2" d="M244,94.5c-11.2,2.3-17.1,9.2-17.4,20.7c-0.3,6.1,0.9,10.4,3.9,12.9c2.9,2.5,7.3,3.1,13.2,1.9
			c9.3-1.9,14.1-6.8,15.4-16.2l0.2-1.7l-11.6,2.7l-0.2,0.6c-1.7,5-2.3,6.2-4.9,7c-1.3,0.2-2.3,0-2.8-0.4c-1.1-0.9-1.2-3.2-1.3-5.6
			c0,0,0-0.6-0.1-1.2c1.7-0.4,21-4.8,21-4.8l0-0.9c0-0.6,0-1.1,0-1.6c0-5.1-0.8-8.8-2.4-11C255.6,94.9,252,92.8,244,94.5z
			 M232.1,126.3c-2.3-2-3.3-5.7-3.1-11c0.3-10.4,5.4-16.5,15.5-18.6c5.3-1.1,9.1-0.5,10.8,1.7c1.3,1.7,1.9,5,1.9,9.6
			c0,0.2,0,0.4,0,0.6c-1.6,0.4-21.2,4.8-21.2,4.8l0.2,3.1c0.1,2.8,0.2,5.7,2.1,7.3c1.1,0.9,2.7,1.2,4.7,0.9l0.1,0l0.1,0
			c3.7-1.1,4.7-3.3,6.3-7.9c0.9-0.2,4.8-1.1,7-1.6c-1.5,7.2-5.4,10.9-13.2,12.5C238.1,128.8,234.3,128.3,232.1,126.3z"/>
		<path class="st2" d="M243.5,100.5c-3.6,0.8-6.3,4.6-7,9.7l-0.2,1.7l13.8-3.1l-0.1-1.1c-0.5-3.5-1.4-5.6-2.9-6.6
			C246.1,100.4,244.9,100.2,243.5,100.5z M244,102.8c0.9-0.2,1.4,0.1,1.7,0.3c0.8,0.6,1.4,1.9,1.7,4c-1.5,0.3-6,1.3-8.2,1.8
			C240,105.6,241.8,103.3,244,102.8z"/>
		<path class="st3" d="M299.6,98.8c0.3-9,4.2-17.2,16.7-19.8c12.8-2.5,14.8,4.1,14.5,13.6c-0.6,10.3-3.3,17.2-15.4,19.6
			C302.8,114.9,299,108.8,299.6,98.8L299.6,98.8z M315.7,85.2c-4.3,0.9-6.2,6.6-6.3,11.9c-0.1,5.4,0.2,10.6,5.2,10.1
			c5-0.6,6.3-7,6.5-12.3C321.2,89.5,320,84.2,315.7,85.2z"/>
		<path class="st2" d="M316.1,77.9c-11.3,2.3-17.2,9.3-17.7,20.9c0,0.6,0,1.2,0,1.8c0,5.1,1.3,8.8,3.9,11c2.9,2.5,7.4,3.1,13.4,1.9
			c12.7-2.6,15.6-9.8,16.3-20.7c0.2-4.9-0.1-10.2-3.6-13.2C325.7,77.3,321.7,76.8,316.1,77.9z M303.8,109.8c-2.3-2-3.3-5.7-3-10.9v0
			c0.4-10.5,5.6-16.6,15.8-18.7c4.9-1,8.2-0.6,10.3,1.1c2.1,1.8,3,5.3,2.8,11.3c-0.6,10-3.2,16.2-14.5,18.5
			C309.9,112.2,306.1,111.8,303.8,109.8z M298.4,98.8C298.4,98.7,298.4,98.7,298.4,98.8L298.4,98.8z"/>
		<path class="st2" d="M315.5,84L315.5,84c-5.2,1.1-7.2,7.7-7.3,13.1c-0.1,3.8,0,8,2.3,10.1c1.1,1,2.5,1.3,4.2,1.1
			c4.6-0.5,7.3-5.3,7.5-13.5c0.1-3.4-0.2-7.9-2.7-9.9C318.4,84,317,83.7,315.5,84z M318,86.7c1.3,1.1,2,4.1,1.8,8.1
			c-0.1,4-1,10.7-5.5,11.2c-1,0.1-1.8-0.1-2.3-0.6c-1.3-1.2-1.5-4-1.5-7.1c0-0.4,0-0.8,0-1.3c0.1-4.8,1.8-10.1,5.4-10.8
			C316.8,86.1,317.5,86.2,318,86.7z"/>
		<path class="st3" d="M262.9,98.7c-0.5-1.4-1.8-2.3-3.6-1.7l0.2-4.2l17.2-3.8l-0.3,3.9c-2.8,0.5-4.3,1.2-2.7,4.4l6.2,12.9l5-13.4
			c1-4.1,0.4-6-4-4.9l0.3-3.9l15.8-3.6l-0.1,3.5c-2.8,0.6-4.7,4.2-5.3,5.6L281,120l-7.1,1.7L262.9,98.7z"/>
		<path class="st2" d="M296.7,83.2L280.1,87l-0.6,6.3l1.6-0.4c2-0.5,2.5-0.1,2.7,0c0.1,0.1,0.3,0.4,0.3,1.1c0,0.5-0.1,1.3-0.4,2.5
			c0,0-2.7,7.3-4,10.7c-1.5-3.2-5-10.4-5-10.4c-0.4-0.9-0.5-1.4-0.5-1.6c0-0.1,0-0.2,0-0.2c0.2-0.4,1.8-0.7,2.4-0.8l0.9-0.2l0.6-6.3
			l-19.6,4.4l-0.3,6.7l1.6-0.5c1.4-0.4,2,0.6,2.2,1.1l0,0.1l11.4,23.8l8.6-2.1l10.8-27.1c0.5-1.2,2.2-4.4,4.4-4.9l0.9-0.2l0.2-5.9
			L296.7,83.2z M295.7,85.8c0,0.6,0,0.9-0.1,1.3c-2.6,1.1-4.5,4.1-5.2,5.9c0,0-9.9,24.9-10.3,26c-0.8,0.2-4.3,1-5.6,1.3
			c-0.8-1.6-10.6-22.1-10.6-22.1l0,0.1c-0.6-1.6-1.9-2.5-3.4-2.6c0-0.8,0.1-1.3,0.1-1.9c1.4-0.3,12.3-2.7,14.8-3.3
			c-0.1,0.7-0.1,0.9-0.1,1.4c-1.4,0.3-2.6,0.8-3.2,1.9c-0.2,0.4-0.3,0.8-0.3,1.3c0,1,0.4,1.9,0.8,2.7l7.4,15.4l5.9-15.9
			c0.5-2.2,0.9-4.6-0.5-5.9c-0.9-0.9-2.1-0.9-3.3-0.8c0.1-0.7,0.1-1,0.1-1.6C283.6,88.6,293.4,86.3,295.7,85.8z"/>
		<path class="st3" d="M221.8,127.1c0,2.5,3,1.8,5.1,1.2l-0.5,4.1l-13.8,3.3l0.1-6.3c-2.1,4.3-5.9,7.7-10.8,8.7
			c-6.1,1.3-9.5-1.6-9.4-8.1l0.2-14.8c0-2.5-1.8-2.1-3.1-1.8l-1.3,0.3l0.4-4.5l14-3.1l-0.7,19.3c-0.1,3,0.3,5.6,4.2,4.7
			c5.3-1.2,6.5-7.8,6.5-12.6l0.1-6.8c0-2.3-2.1-2.1-3.3-1.8l-2,0.4l0.4-4.4l14.4-3.3L221.8,127.1z"/>
		<path class="st2" d="M222.2,100.4l-15.2,3.5l-0.7,6.9l3.5-0.8c1.3-0.3,1.7-0.1,1.7,0c0.2,0.1,0.2,0.5,0.2,0.7l-0.1,6.8
			c0,2.4-0.4,10.3-5.6,11.5c-0.7,0.2-1.7,0.3-2.1-0.1c-0.6-0.5-0.7-2-0.7-3.4l0.7-20.8l-16.3,3.7l-0.7,6.9l2.9-0.6
			c0.4-0.1,1.4-0.3,1.6-0.1c0,0,0.1,0.3,0.1,0.8l-0.2,14.8c-0.1,3.6,0.9,6.3,2.9,7.9c1.9,1.6,4.6,2,7.9,1.3c3.6-0.7,6.9-2.8,9.3-5.7
			c0,1-0.1,3.7-0.1,3.7l16.1-3.8l0.9-6.7l-1.7,0.6c-2.7,0.8-3.4,0.5-3.5,0.4c-0.1-0.1-0.1-0.3-0.1-0.5c0-0.1,0.7-27.1,0.7-27.1
			L222.2,100.4z M221.2,103c-0.1,2.7-0.6,24.2-0.6,24.2c0,1.3,0.6,2,1.1,2.3c0.9,0.6,2.1,0.8,3.8,0.4c-0.1,0.8-0.1,1.1-0.2,1.6
			c-1.2,0.3-9.4,2.2-11.6,2.8c0-1.8,0.1-4.8,0.1-4.8l-2.2-0.5c-2.1,4.3-5.7,7.2-10,8.1c-2.6,0.5-4.6,0.3-6-0.8
			c-1.4-1.1-2.1-3.2-2-6.1l0.2-14.8c0-1.2-0.3-2.1-1-2.6c-1-0.8-2.3-0.6-3.3-0.4c0.1-1,0.1-1.5,0.2-2.1c1.3-0.3,9.5-2.1,11.7-2.6
			c-0.1,2.6-0.6,17.8-0.6,17.8c0,0.2,0,0.4,0,0.5c0,1.8,0.2,3.7,1.5,4.8c1,0.8,2.3,1,4.1,0.6c6.7-1.5,7.4-10.1,7.4-13.7l0.1-6.8
			c0-1.4-0.6-2.1-1.1-2.5c-0.8-0.7-2.1-0.8-3.7-0.5c0,0-0.3,0.1-0.4,0.1c0.1-0.9,0.1-1.4,0.2-2C210.4,105.5,219,103.5,221.2,103z"/>
		<path class="st3" d="M149.6,149.9l0.3-3.5c2.1-0.4,4.8-0.5,4.9-3.4l0.9-36.8c0-1-0.2-1.6-0.6-1.8c-0.4-0.3-1.3-0.4-2.6-0.1
			c0,0-0.4,0.1-0.9,0.2c-0.4,0.1-0.9,0.2-0.9,0.2l0.1-4l15.5-3.5l-0.6,22.5c2.2-3.7,5.4-7.1,10.5-8.2c3.2-0.7,5.8-0.2,7.2,1.2
			c1.5,1.4,2.4,5.3,2.4,8.3l-0.3,15.1c0,2.2,1.8,1.9,4.5,1.3l-0.1,3.3l-18,4.2l0.1-3.4c2.1-0.4,4.1-0.4,4.1-3.2l0.2-14.4
			c0-2.8-0.7-6.3-4.4-5.5c-2.1,0.5-3.9,1.8-4.8,3.6c-0.9,1.8-1.8,5.5-1.7,8.3l-0.1,10.4c0,2.3,2,1.9,4.2,1.4l0,3.4L149.6,149.9z"/>
		<path class="st2" d="M166.1,96.1l-16.4,3.7l-0.2,6.4l3.2-0.7c1.2-0.3,1.6-0.1,1.6-0.1c0,0,0,0,0,0c0,0.1,0.1,0.3,0.1,0.8
			l-0.9,36.8c0,1.4-0.9,1.7-3.1,2.1l-1.7,0.3l-0.1,0.9l-0.4,5.1l22.4-5l0.1-5.8l-1.4,0.3c-0.8,0.2-2.4,0.5-2.7,0.3
			c0,0-0.1-0.2-0.1-0.5l0.1-10.4c0-2.7,0.8-6.1,1.6-7.8c0.8-1.5,2.2-2.6,4-3c1.2-0.3,1.6,0.1,1.8,0.2c0.7,0.6,1.1,2.1,1.1,4.1
			l-0.2,14.3c0,1.5-0.5,1.6-2.4,2l-1.7,0.3l0,0.9l-0.1,4.9l20.4-4.7l0.2-5.8l-1.5,0.3c-1.8,0.4-2.8,0.5-3,0.3c0,0-0.1-0.2-0.1-0.5
			l0.3-15.1c0-3.2-0.9-7.4-2.7-9.2c-1.8-1.7-4.8-2.3-8.3-1.5c-3.6,0.8-6.5,2.7-9,5.6c0.1-5.3,0.5-20.2,0.5-20.2L166.1,96.1z
			 M156.8,106.2c0-0.6-0.1-2.2-1.3-2.8c-0.8-0.5-1.9-0.5-3.3-0.2c0,0-0.2,0-0.3,0.1c0-0.7,0-1,0.1-1.6c1.4-0.3,10.9-2.5,13.2-3
			c-0.1,2.6-0.7,25.4-0.7,25.4l2.3-3.8c2.5-4.3,5.7-6.8,9.8-7.7c2.7-0.6,4.9-0.3,6.1,0.9c1.1,1.1,2,4.4,2,7.5l-0.3,15.1
			c0,1.1,0.3,1.8,1,2.3c0.9,0.7,2,0.7,3.5,0.4c0,0.5,0,0.6,0,1c-1.4,0.3-13.4,3.1-15.7,3.6c0-0.5,0-0.6,0-1c1.8-0.3,4.1-0.9,4.1-4.2
			l0.2-14.3c0-2.9-0.7-4.9-2-6c-1-0.8-2.3-1-3.8-0.7c-2.5,0.6-4.5,2.1-5.6,4.2c-1,1.9-1.9,5.7-1.9,8.8l-0.1,10.4
			c0,1.1,0.3,1.9,1,2.4c0.9,0.7,2,0.6,3.2,0.4c0,0.5,0,0.7,0,1.1c-1.5,0.3-15,3.4-17.5,3.9c0-0.5,0.1-0.6,0.1-1c2-0.3,4.8-0.9,5-4.3
			 M155.5,103.4c0,0,0.1,0,0.1,0l-0.3-0.1C155.4,103.4,155.5,103.4,155.5,103.4z"/>
	</g>
	<g>
		<path class="st2" d="M160.3,160.9h1v-0.5c0-0.6,0.1-1,0.2-1.3c0.1-0.3,0.4-0.5,0.7-0.7c0.3-0.2,0.7-0.3,1.3-0.3
			c0.5,0,1,0.1,1.5,0.2l-0.2,1.3c-0.3-0.1-0.6-0.1-0.8-0.1c-0.3,0-0.4,0.1-0.6,0.2c-0.1,0.1-0.2,0.4-0.2,0.7v0.5h1.3v1.5h-1.3v5.5
			h-1.8v-5.5h-1V160.9z"/>
		<path class="st2" d="M168.7,167.9h-1.8v-7h1.7v1c0.3-0.5,0.6-0.8,0.8-0.9c0.2-0.2,0.5-0.2,0.8-0.2c0.4,0,0.8,0.1,1.2,0.4l-0.6,1.6
			c-0.3-0.2-0.6-0.3-0.9-0.3c-0.3,0-0.5,0.1-0.7,0.2c-0.2,0.1-0.3,0.4-0.4,0.8c-0.1,0.4-0.2,1.2-0.2,2.4V167.9z"/>
		<path class="st2" d="M177.4,165.7l1.8,0.3c-0.2,0.7-0.6,1.2-1.1,1.5c-0.5,0.4-1.1,0.5-1.9,0.5c-1.2,0-2.1-0.4-2.7-1.2
			c-0.5-0.6-0.7-1.5-0.7-2.4c0-1.2,0.3-2.1,0.9-2.7c0.6-0.7,1.4-1,2.3-1c1,0,1.8,0.3,2.4,1c0.6,0.7,0.9,1.8,0.9,3.2h-4.6
			c0,0.6,0.2,1,0.4,1.3c0.3,0.3,0.6,0.5,1.1,0.5c0.3,0,0.5-0.1,0.7-0.2C177.2,166.3,177.3,166.1,177.4,165.7z M177.6,163.8
			c0-0.5-0.2-1-0.4-1.2c-0.3-0.3-0.6-0.4-0.9-0.4c-0.4,0-0.7,0.2-1,0.4c-0.3,0.3-0.4,0.7-0.4,1.2H177.6z"/>
		<path class="st2" d="M181.6,166l1.8-0.3c0.1,0.4,0.2,0.6,0.5,0.8c0.2,0.2,0.6,0.3,1,0.3c0.5,0,0.8-0.1,1.1-0.3
			c0.2-0.1,0.2-0.3,0.2-0.5c0-0.1,0-0.3-0.1-0.4c-0.1-0.1-0.3-0.2-0.6-0.2c-1.5-0.3-2.4-0.6-2.8-0.9c-0.6-0.4-0.8-0.9-0.8-1.6
			c0-0.6,0.2-1.1,0.7-1.5c0.5-0.4,1.2-0.6,2.2-0.6c1,0,1.7,0.2,2.1,0.5c0.5,0.3,0.8,0.8,1,1.4l-1.7,0.3c-0.1-0.3-0.2-0.5-0.4-0.6
			c-0.2-0.1-0.5-0.2-0.9-0.2c-0.5,0-0.8,0.1-1,0.2c-0.1,0.1-0.2,0.2-0.2,0.4c0,0.1,0.1,0.2,0.2,0.3c0.2,0.1,0.7,0.3,1.7,0.5
			c1,0.2,1.7,0.5,2.1,0.8c0.4,0.3,0.6,0.8,0.6,1.4c0,0.6-0.3,1.2-0.8,1.7c-0.5,0.5-1.3,0.7-2.4,0.7c-0.9,0-1.7-0.2-2.2-0.6
			S181.8,166.6,181.6,166z"/>
		<path class="st2" d="M197,163l-1.8,0.3c-0.1-0.4-0.2-0.6-0.4-0.8c-0.2-0.2-0.5-0.3-0.8-0.3c-0.5,0-0.8,0.2-1.1,0.5
			c-0.3,0.3-0.4,0.9-0.4,1.6c0,0.8,0.1,1.4,0.4,1.8c0.3,0.3,0.7,0.5,1.1,0.5c0.4,0,0.6-0.1,0.9-0.3c0.2-0.2,0.4-0.6,0.5-1.1l1.8,0.3
			c-0.2,0.8-0.6,1.5-1.1,1.9c-0.5,0.4-1.2,0.6-2.1,0.6c-1,0-1.8-0.3-2.4-1c-0.6-0.7-0.9-1.6-0.9-2.7c0-1.2,0.3-2.1,0.9-2.7
			c0.6-0.6,1.4-1,2.5-1c0.8,0,1.5,0.2,2,0.5C196.5,161.6,196.8,162.2,197,163z"/>
		<path class="st2" d="M199.3,164.3c0-0.6,0.1-1.2,0.4-1.8c0.3-0.6,0.7-1,1.3-1.3c0.6-0.3,1.2-0.5,1.8-0.5c1,0,1.9,0.3,2.6,1
			c0.7,0.7,1,1.6,1,2.6c0,1.1-0.3,2-1,2.7c-0.7,0.7-1.5,1.1-2.6,1.1c-0.6,0-1.2-0.1-1.8-0.4c-0.6-0.3-1-0.7-1.3-1.3
			C199.5,165.8,199.3,165.1,199.3,164.3z M201.2,164.4c0,0.7,0.2,1.2,0.5,1.6c0.3,0.4,0.7,0.6,1.2,0.6c0.5,0,0.9-0.2,1.2-0.6
			c0.3-0.4,0.5-0.9,0.5-1.6c0-0.7-0.2-1.2-0.5-1.6c-0.3-0.4-0.7-0.6-1.2-0.6c-0.5,0-0.9,0.2-1.2,0.6
			C201.4,163.2,201.2,163.7,201.2,164.4z"/>
		<path class="st2" d="M218.8,166l1.8-0.3c0.1,0.4,0.2,0.6,0.5,0.8c0.2,0.2,0.6,0.3,1,0.3c0.5,0,0.8-0.1,1.1-0.3
			c0.2-0.1,0.2-0.3,0.2-0.5c0-0.1,0-0.3-0.1-0.4c-0.1-0.1-0.3-0.2-0.6-0.2c-1.5-0.3-2.4-0.6-2.8-0.9c-0.5-0.4-0.8-0.9-0.8-1.6
			c0-0.6,0.2-1.1,0.7-1.5c0.5-0.4,1.2-0.6,2.2-0.6c0.9,0,1.7,0.2,2.1,0.5c0.5,0.3,0.8,0.8,1,1.4l-1.7,0.3c-0.1-0.3-0.2-0.5-0.4-0.6
			c-0.2-0.1-0.5-0.2-0.9-0.2c-0.5,0-0.8,0.1-1,0.2c-0.1,0.1-0.2,0.2-0.2,0.4c0,0.1,0.1,0.2,0.2,0.3c0.2,0.1,0.7,0.3,1.7,0.5
			c1,0.2,1.7,0.5,2.1,0.8c0.4,0.3,0.6,0.8,0.6,1.4c0,0.6-0.3,1.2-0.8,1.7c-0.5,0.5-1.3,0.7-2.4,0.7c-0.9,0-1.7-0.2-2.2-0.6
			C219.3,167.1,218.9,166.6,218.8,166z"/>
		<path class="st2" d="M232.2,165.7l1.8,0.3c-0.2,0.7-0.6,1.2-1.1,1.5c-0.5,0.4-1.1,0.5-1.9,0.5c-1.2,0-2.1-0.4-2.7-1.2
			c-0.5-0.6-0.7-1.5-0.7-2.4c0-1.2,0.3-2.1,0.9-2.7c0.6-0.7,1.4-1,2.3-1c1,0,1.8,0.3,2.4,1c0.6,0.7,0.9,1.8,0.9,3.2h-4.6
			c0,0.6,0.2,1,0.4,1.3c0.3,0.3,0.6,0.5,1.1,0.5c0.3,0,0.5-0.1,0.7-0.2C231.9,166.3,232.1,166.1,232.2,165.7z M232.3,163.8
			c0-0.5-0.2-1-0.4-1.2c-0.3-0.3-0.6-0.4-1-0.4c-0.4,0-0.7,0.2-1,0.4c-0.3,0.3-0.4,0.7-0.4,1.2H232.3z"/>
		<path class="st2" d="M237,167.9v-9.7h1.8v9.7H237z"/>
		<path class="st2" d="M246,165.7l1.8,0.3c-0.2,0.7-0.6,1.2-1.1,1.5c-0.5,0.4-1.1,0.5-1.9,0.5c-1.2,0-2.1-0.4-2.7-1.2
			c-0.5-0.6-0.7-1.5-0.7-2.4c0-1.2,0.3-2.1,0.9-2.7c0.6-0.7,1.4-1,2.3-1c1,0,1.8,0.3,2.4,1c0.6,0.7,0.9,1.8,0.9,3.2h-4.6
			c0,0.6,0.2,1,0.4,1.3c0.3,0.3,0.6,0.5,1,0.5c0.3,0,0.5-0.1,0.7-0.2C245.8,166.3,245.9,166.1,246,165.7z M246.2,163.8
			c0-0.5-0.2-1-0.4-1.2c-0.3-0.3-0.6-0.4-1-0.4c-0.4,0-0.7,0.2-1,0.4c-0.3,0.3-0.4,0.7-0.4,1.2H246.2z"/>
		<path class="st2" d="M256.9,163l-1.8,0.3c-0.1-0.4-0.2-0.6-0.4-0.8c-0.2-0.2-0.5-0.3-0.8-0.3c-0.5,0-0.8,0.2-1.1,0.5
			c-0.3,0.3-0.4,0.9-0.4,1.6c0,0.8,0.1,1.4,0.4,1.8c0.3,0.3,0.7,0.5,1.1,0.5c0.4,0,0.6-0.1,0.9-0.3c0.2-0.2,0.4-0.6,0.5-1.1l1.8,0.3
			c-0.2,0.8-0.5,1.5-1.1,1.9c-0.5,0.4-1.2,0.6-2.1,0.6c-1,0-1.8-0.3-2.4-1c-0.6-0.7-0.9-1.6-0.9-2.7c0-1.2,0.3-2.1,0.9-2.7
			c0.6-0.6,1.4-1,2.5-1c0.8,0,1.5,0.2,2,0.5C256.3,161.6,256.7,162.2,256.9,163z"/>
		<path class="st2" d="M265.7,163l-1.8,0.3c-0.1-0.4-0.2-0.6-0.4-0.8c-0.2-0.2-0.5-0.3-0.8-0.3c-0.5,0-0.8,0.2-1.1,0.5
			c-0.3,0.3-0.4,0.9-0.4,1.6c0,0.8,0.1,1.4,0.4,1.8c0.3,0.3,0.7,0.5,1.1,0.5c0.4,0,0.6-0.1,0.9-0.3c0.2-0.2,0.4-0.6,0.5-1.1l1.8,0.3
			c-0.2,0.8-0.5,1.5-1.1,1.9c-0.5,0.4-1.2,0.6-2.1,0.6c-1,0-1.8-0.3-2.4-1c-0.6-0.7-0.9-1.6-0.9-2.7c0-1.2,0.3-2.1,0.9-2.7
			c0.6-0.6,1.4-1,2.5-1c0.8,0,1.5,0.2,2,0.5C265.1,161.6,265.4,162.2,265.7,163z"/>
		<path class="st2" d="M268.4,160v-1.7h1.8v1.7H268.4z M268.4,167.9v-7h1.8v7H268.4z"/>
		<path class="st2" d="M273,164.3c0-0.6,0.2-1.2,0.5-1.8c0.3-0.6,0.7-1,1.3-1.3c0.6-0.3,1.2-0.5,1.8-0.5c1,0,1.9,0.3,2.6,1
			c0.7,0.7,1,1.6,1,2.6c0,1.1-0.3,2-1,2.7c-0.7,0.7-1.5,1.1-2.6,1.1c-0.6,0-1.2-0.1-1.8-0.4c-0.6-0.3-1-0.7-1.3-1.3
			C273.2,165.8,273,165.1,273,164.3z M274.9,164.4c0,0.7,0.2,1.2,0.5,1.6c0.3,0.4,0.7,0.6,1.2,0.6s0.9-0.2,1.2-0.6
			c0.3-0.4,0.5-0.9,0.5-1.6c0-0.7-0.2-1.2-0.5-1.6c-0.3-0.4-0.7-0.6-1.2-0.6s-0.9,0.2-1.2,0.6C275.1,163.2,274.9,163.7,274.9,164.4z
			"/>
		<path class="st2" d="M289.3,167.9h-1.8v-3.6c0-0.8,0-1.2-0.1-1.5c-0.1-0.2-0.2-0.4-0.4-0.5c-0.2-0.1-0.4-0.2-0.6-0.2
			c-0.3,0-0.6,0.1-0.9,0.3c-0.3,0.2-0.4,0.4-0.5,0.7c-0.1,0.3-0.1,0.8-0.1,1.6v3.2h-1.8v-7h1.7v1c0.6-0.8,1.4-1.2,2.3-1.2
			c0.4,0,0.8,0.1,1.1,0.2c0.3,0.1,0.6,0.3,0.8,0.6c0.2,0.2,0.3,0.5,0.4,0.8c0.1,0.3,0.1,0.7,0.1,1.3V167.9z"/>
		<path class="st2" d="M293.8,163l-1.7-0.3c0.2-0.7,0.5-1.2,1-1.5c0.5-0.3,1.1-0.5,2-0.5c0.8,0,1.4,0.1,1.8,0.3
			c0.4,0.2,0.7,0.4,0.8,0.8c0.2,0.3,0.2,0.9,0.2,1.7l0,2.2c0,0.6,0,1.1,0.1,1.4c0.1,0.3,0.2,0.6,0.3,0.9h-1.8c0-0.1-0.1-0.3-0.2-0.5
			c0-0.1,0-0.2-0.1-0.2c-0.3,0.3-0.7,0.5-1,0.7c-0.4,0.2-0.7,0.2-1.1,0.2c-0.7,0-1.3-0.2-1.7-0.6c-0.4-0.4-0.6-0.9-0.6-1.5
			c0-0.4,0.1-0.8,0.3-1.1c0.2-0.3,0.4-0.6,0.8-0.7c0.3-0.2,0.8-0.3,1.5-0.4c0.9-0.2,1.5-0.3,1.8-0.5v-0.2c0-0.4-0.1-0.6-0.3-0.8
			c-0.2-0.2-0.5-0.2-1-0.2c-0.3,0-0.6,0.1-0.8,0.2C294.1,162.5,294,162.7,293.8,163z M296.3,164.5c-0.2,0.1-0.6,0.2-1.1,0.3
			c-0.5,0.1-0.9,0.2-1,0.3c-0.2,0.2-0.4,0.4-0.4,0.7c0,0.3,0.1,0.5,0.3,0.7c0.2,0.2,0.4,0.3,0.7,0.3c0.3,0,0.7-0.1,1-0.3
			c0.2-0.2,0.4-0.4,0.4-0.6c0-0.2,0.1-0.5,0.1-0.9V164.5z"/>
		<path class="st2" d="M307.6,167.9h-1.7v-1c-0.3,0.4-0.6,0.7-1,0.9c-0.4,0.2-0.8,0.3-1.2,0.3c-0.8,0-1.5-0.3-2.1-1
			c-0.6-0.7-0.9-1.6-0.9-2.7c0-1.2,0.3-2.1,0.8-2.7c0.6-0.6,1.3-0.9,2.1-0.9c0.8,0,1.5,0.3,2,1v-3.5h1.8V167.9z M302.7,164.3
			c0,0.8,0.1,1.3,0.3,1.6c0.3,0.5,0.7,0.7,1.3,0.7c0.4,0,0.8-0.2,1.1-0.5c0.3-0.4,0.4-0.9,0.4-1.6c0-0.8-0.1-1.4-0.4-1.8
			c-0.3-0.4-0.7-0.5-1.1-0.5c-0.4,0-0.8,0.2-1.1,0.5C302.9,163,302.7,163.6,302.7,164.3z"/>
		<path class="st2" d="M310.3,164.3c0-0.6,0.1-1.2,0.5-1.8c0.3-0.6,0.7-1,1.3-1.3c0.5-0.3,1.2-0.5,1.8-0.5c1,0,1.9,0.3,2.6,1
			c0.7,0.7,1,1.6,1,2.6c0,1.1-0.3,2-1,2.7c-0.7,0.7-1.5,1.1-2.6,1.1c-0.6,0-1.2-0.1-1.8-0.4c-0.6-0.3-1-0.7-1.3-1.3
			C310.5,165.8,310.3,165.1,310.3,164.3z M312.2,164.4c0,0.7,0.2,1.2,0.5,1.6c0.3,0.4,0.7,0.6,1.2,0.6c0.5,0,0.9-0.2,1.2-0.6
			c0.3-0.4,0.5-0.9,0.5-1.6c0-0.7-0.2-1.2-0.5-1.6c-0.3-0.4-0.7-0.6-1.2-0.6c-0.5,0-0.9,0.2-1.2,0.6
			C312.4,163.2,312.2,163.7,312.2,164.4z"/>
	</g>
</g>
</svg>
