<?xml version="1.0" encoding="utf-8"?>
<!-- Generator: Adobe Illustrator 24.1.0, SVG Export Plug-In . SVG Version: 6.00 Build 0)  -->
<svg version="1.1" id="Layer_1" xmlns="http://www.w3.org/2000/svg" xmlns:xlink="http://www.w3.org/1999/xlink" x="0px" y="0px"
	 viewBox="0 0 353.6 193.9" style="enable-background:new 0 0 353.6 193.9;" xml:space="preserve">
<style type="text/css">
	.st0{fill:#FFFFFF;}
	.st1{fill:#23282B;}
	.st2{font-family:'TimesNewRomanPSMT';}
	.st3{font-size:13.0076px;}
	.st4{fill-rule:evenodd;clip-rule:evenodd;fill:#FFDD00;stroke:#141006;stroke-width:0.349;}
	.st5{fill-rule:evenodd;clip-rule:evenodd;}
	.st6{fill-rule:evenodd;clip-rule:evenodd;fill:none;stroke:#000000;stroke-width:0.349;}
	.st7{font-size:13.6663px;}
</style>
<g>
	<path class="st0" d="M3.1,190.7V29.8c0-14.7,11.9-26.6,26.6-26.6h320.7V164c0,14.7-11.9,26.6-26.6,26.6H3.1z"/>
	<path d="M347.6,6.1v158c0,13.1-10.6,23.8-23.8,23.8H6v-158C6,16.7,16.6,6.1,29.7,6.1H347.6 M353.3,0.4h-5.7H29.7
		C13.5,0.4,0.3,13.6,0.3,29.8v158v5.7H6h317.9c16.2,0,29.5-13.2,29.5-29.5V6.1V0.4L353.3,0.4z"/>
</g>
<g>
	<text transform="matrix(1 0 0 1 17.4463 47.7826)" class="st1 st2 st3"> </text>
	<polygon class="st4" points="176,25 297.2,41.3 330.6,64.8 330.6,95.8 297.2,116.9 174.4,134 54.1,116.9 23.1,93.3 23.1,64.8 
		54.1,42.1 	"/>
	<g>
		<path class="st5" d="M310.2,49.5l21.9,15.3v30.9L310.2,110V89.3h2.4l3.3-15.5v15.5h5.7V68.9h-9l-2.4,9.8V49.5z M175.6,24.2
			l121.6,16.2l13.1,9.1v29.1l-0.8,3.3l-3.3-13h-7.3v20.4h4.9V73.8l4.1,15.5h2.5V110l-13.1,8.5l-121.6,17v-6.8l2.8-4.5l4.1,6.5h7.4
			l-7.4-10.6l6.5-10.6h-6.5l-4.1,7.3l-2.8-6.4v-5.8l99.6-8.9l13.1-9V69.7l-13.1-8.2l-99.6-8.1v-6.9l2-3.7l3.3,7.3h8.1l-8.1-10.6
			l7.3-10.6h-8.2l-2.4,6.5l-2-3.3V24.2z M53.2,40.4l122-16.3l0.4,0v8.1l-2.1-3.3h-8.1l8.1,10.6l-8.1,10.6h8.1l2.1-3.6v6.9l-0.4,0
			L76,61.6L63,69.7v17.1l13.1,9l99.2,9l0.4,0v5.8l-0.4-0.9h-7.3l6.5,10.6l-7.4,10.6h7.4l1.2-2v6.8l-0.4,0l-122-17.1l-9.8-7.8V91.7
			h2.5L50,74.6v17.1h4.9V69.7h-9l-2.5,13.8V47.5L53.2,40.4z M43.5,110.8l-22-17.4V63.2l22-15.7v36.1l0,0l-4.1-13.8h-7.3v21.9H37
			V74.6l3.3,17.1h3.3V110.8z"/>
		<path class="st6" d="M53.2,40.4l122-16.3l122,16.3l35,24.4v30.9l-35,22.8l-122,17.1l-122-17.1L21.5,93.3V63.2L53.2,40.4L53.2,40.4
			z M76,61.6l99.2-8.2l100,8.2l13.1,8.2v17.1l-13.1,9l-100,9l-99.2-9l-13.1-9V69.7L76,61.6L76,61.6z M167.9,109.6h7.3l3.3,7.3
			l4.1-7.3h6.5l-6.5,10.6l7.4,10.6h-7.4l-4.1-6.5l-4.1,6.5H167l7.4-10.6L167.9,109.6L167.9,109.6z M32.1,69.7h7.3l4.1,13.8l2.5-13.8
			h9v21.9H50V74.6l-4.1,17.1h-5.7L37,74.6v17.1h-4.9V69.7L32.1,69.7z M165.5,29.1h8.1l4.1,6.5l2.4-6.5h8.2l-7.3,10.6l8.1,10.6h-8.1
			l-3.3-7.3l-4.1,7.3h-8.1l8.1-10.6L165.5,29.1L165.5,29.1z M298.8,68.9h7.3l3.3,13l3.3-13h9v20.4h-5.7V73.8l-3.3,15.5h-4.9
			l-4.1-15.5v15.5h-4.9V68.9z"/>
	</g>
	<text transform="matrix(1 0 0 1 17.8716 34.4916)" class="st2 st7"> </text>
	<path class="st5" d="M256.2,87.8V82h3l-3-9.7v-7.1h4.6L271,92.3h-8.8l-1.3-4.5H256.2z M256.2,65.2v7.1v0l-3,9.7h3v5.8h-4.8
		l-1.3,4.5h-8.5l10.2-27.1H256.2L256.2,65.2z M163.9,87.8V82h2.9l-2.9-9.7v-7.1h4.6l10.2,27.1h-8.8l-1.3-4.5H163.9L163.9,87.8z
		 M181.2,65.2h11l4.2,16.4l4.2-16.4h10.9v27.1h-6.8V71.6l-5.3,20.6h-6.2l-5.3-20.6v20.6h-6.8V65.2L181.2,65.2z M215.5,83.3l8-0.5
		c0.2,1.3,0.5,2.3,1,2.9c0.9,1.1,2.1,1.7,3.7,1.7c1.2,0,2.1-0.3,2.7-0.8c0.7-0.6,1-1.2,1-1.9c0-0.7-0.3-1.3-0.9-1.9
		c-0.6-0.6-2-1.1-4.3-1.6c-3.7-0.8-6.3-1.9-7.8-3.3c-1.6-1.4-2.4-3.1-2.4-5.2c0-1.4,0.4-2.7,1.2-3.9c0.8-1.2,2-2.2,3.7-2.9
		c1.6-0.7,3.8-1.1,6.6-1.1c3.4,0,6.1,0.7,7.9,1.9c1.8,1.3,2.9,3.3,3.3,6.1l-7.9,0.5c-0.2-1.2-0.7-2.1-1.3-2.6
		c-0.7-0.6-1.6-0.8-2.8-0.8c-1,0-1.7,0.2-2.2,0.6c-0.5,0.4-0.7,0.9-0.7,1.5c0,0.4,0.2,0.8,0.6,1.2c0.4,0.4,1.3,0.7,2.8,1
		c3.7,0.8,6.3,1.6,7.9,2.4c1.6,0.8,2.7,1.8,3.4,3c0.7,1.2,1.1,2.5,1.1,4c0,1.7-0.5,3.3-1.5,4.8c-0.9,1.5-2.3,2.6-4,3.3
		c-1.7,0.8-3.9,1.1-6.5,1.1c-4.6,0-7.8-0.9-9.6-2.7C216.7,88.3,215.7,86.1,215.5,83.3z M99.3,87.8h-4.8V82h3l-3-9.7v-7.1h4.7
		l10.2,27.1h-8.8L99.3,87.8L99.3,87.8z M163.9,65.2v7.1l0,0l-3,9.7h3v5.8h-4.8l-1.3,4.5h-8.5l10.2-27.1H163.9L163.9,65.2z M112,65.2
		h8.4v20.4h13v6.6H112V65.2L112,65.2z M137.6,65.2h8.4v27.1h-8.4V65.2z M94.6,87.8h-4.8l-1.3,4.5h-8.5l10.1-27.1h4.5v7.1v0l-3,9.7h3
		V87.8z"/>
	<path class="st5" d="M274,153.9v-1.4c1.2,0,2.2-0.4,2.9-1.3c0.8-0.8,1.1-2,1.1-3.5c0-1.6-0.4-2.7-1.1-3.6c-0.8-0.8-1.7-1.3-2.9-1.3
		l0,0v-1.4l0,0c1.7,0,3.1,0.6,4.1,1.7c1.1,1.1,1.6,2.6,1.6,4.5c0,1.8-0.5,3.3-1.6,4.4C277,153.4,275.6,153.9,274,153.9L274,153.9
		L274,153.9z M288.9,145.3c-0.1-0.8-0.4-1.3-0.8-1.7c-0.5-0.4-1.2-0.6-2.1-0.6c-0.8,0-1.5,0.1-2,0.4c-0.5,0.3-0.8,0.8-0.8,1.3
		c0,0.5,0.2,0.9,0.6,1.2c0.4,0.2,1.1,0.5,2.3,0.8c1,0.2,1.8,0.4,2.4,0.7c0.7,0.2,1.2,0.6,1.6,1.1c0.4,0.5,0.7,1.1,0.7,1.9
		c0,1-0.4,1.9-1.2,2.5c-0.8,0.7-1.9,1-3.2,1c-1.7,0-3-0.4-3.8-1.1c-0.8-0.8-1.3-1.7-1.4-2.9l1.5-0.1c0.1,0.9,0.5,1.7,1.1,2.1
		c0.7,0.4,1.5,0.7,2.4,0.7c0.9,0,1.6-0.2,2.2-0.6c0.6-0.4,0.8-0.8,0.8-1.5c0-0.6-0.3-1.1-0.8-1.4c-0.6-0.3-1.5-0.6-2.9-0.9
		c-1.3-0.3-2.3-0.7-2.9-1.2c-0.6-0.5-0.9-1.2-0.9-2c0-1,0.4-1.7,1.1-2.4c0.8-0.6,1.8-0.9,3.1-0.9c1.4,0,2.4,0.3,3.3,0.9
		c0.8,0.6,1.2,1.5,1.3,2.7L288.9,145.3z M274,141.6v1.4c-1.2,0-2.2,0.4-3,1.2c-0.8,0.8-1.1,2.1-1.1,3.8c0,1.4,0.4,2.5,1.1,3.3
		c0.8,0.8,1.7,1.3,2.9,1.3c0,0,0,0,0,0v1.4c-1.7,0-3.1-0.6-4.2-1.7c-1-1.2-1.6-2.5-1.6-4.2c0-2,0.5-3.5,1.6-4.7
		C270.9,142.1,272.3,141.6,274,141.6L274,141.6z M261.6,153.7v-1.4c0.2,0,0.4,0,0.6,0c0.4-0.1,0.8-0.3,1.3-0.6
		c0.4-0.3,0.8-0.8,1-1.4c0.3-0.6,0.4-1.5,0.4-2.5c0-0.6,0-1.2-0.2-1.7c-0.1-0.5-0.3-1-0.6-1.4c-0.3-0.4-0.6-0.8-1-0.9
		c-0.4-0.2-0.7-0.3-1.1-0.4c-0.1,0-0.3,0-0.5,0v-1.4c0.4,0,0.8,0,1.1,0.1c0.5,0.1,1,0.2,1.5,0.5c0.5,0.3,0.9,0.7,1.2,1.2
		c0.4,0.5,0.7,1.1,0.8,1.7c0.2,0.7,0.3,1.5,0.3,2.4c0,1.8-0.4,3.2-1.2,4.3C264.6,153,263.3,153.6,261.6,153.7z M261.6,141.8v1.4
		c-0.2,0-0.5,0-0.8,0h-2.5v9.1h2.5c0.3,0,0.6,0,0.8,0v1.4c-0.2,0-0.4,0-0.6,0h-4.3v-11.9h4.1C261.1,141.8,261.4,141.8,261.6,141.8
		L261.6,141.8z M249.7,150.1v-1.2h2c-1-2.6-1.5-4.1-1.7-4.4c-0.1-0.3-0.2-0.8-0.4-1.3v-1.4h0.8l4.9,11.9h-1.8l-1.4-3.7H249.7z
		 M249.7,141.8v1.4c0,0,0-0.1,0-0.1h0c-0.1,0.8-0.3,1.6-0.6,2.3l-1.3,3.6h2v1.2h-2.5l-1.3,3.7h-1.6l4.6-11.9H249.7L249.7,141.8z
		 M208.3,166.9v-1.3h2c-1-2.6-1.5-4.1-1.6-4.4c-0.1-0.3-0.2-0.8-0.4-1.3v-1.4h0.8l4.9,12h-1.8l-1.4-3.6H208.3L208.3,166.9z
		 M208.3,153.7v-1.5l0.6,1.5H208.3L208.3,153.7z M219.6,153.7H218l-6.3-9.4l0,0v9.4h-1.5v-11.9h1.6l6.3,9.3h0v-9.3h1.5V153.7
		L219.6,153.7z M232.4,149.9c-0.4,1.4-1,2.4-1.8,3c-0.9,0.7-1.9,1-3.2,1c-1.9,0-3.3-0.6-4.2-1.8c-0.9-1.2-1.4-2.6-1.4-4.4
		c0-1.9,0.5-3.4,1.6-4.5c1-1.1,2.4-1.6,4.1-1.6c1.2,0,2.2,0.3,3,0.9c0.8,0.6,1.4,1.5,1.7,2.6l-1.6,0.3c-0.2-0.8-0.7-1.5-1.2-1.9
		c-0.5-0.4-1.2-0.6-2-0.6c-1.3,0-2.3,0.4-3,1.3c-0.7,0.9-1,2-1,3.5c0,1.7,0.3,2.8,1.1,3.6c0.7,0.8,1.6,1.2,2.7,1.2
		c0.9,0,1.7-0.2,2.3-0.8c0.6-0.5,1-1.3,1.2-2.2L232.4,149.9L232.4,149.9z M243.3,153.7h-9v-11.9h8.7v1.4H236v3.6h6.6v1.5H236v4h7.4
		V153.7L243.3,153.7z M222.7,170.5h-7.5v-12h1.6v10.6h5.9V170.5L222.7,170.5z M233.6,170.5h-9v-12h8.7v1.5h-7.1v3.6h6.6v1.4h-6.6
		v4.1h7.4V170.5L233.6,170.5z M242.8,162.1c0-0.8-0.3-1.3-0.8-1.7c-0.5-0.4-1.2-0.6-2.1-0.6c-0.8,0-1.5,0.1-2,0.5
		c-0.5,0.3-0.8,0.8-0.8,1.3c0,0.5,0.2,0.9,0.6,1.2c0.4,0.2,1.2,0.5,2.3,0.8c1,0.2,1.8,0.4,2.4,0.7c0.6,0.2,1.2,0.6,1.6,1.1
		c0.5,0.5,0.7,1.1,0.7,1.9c0,1-0.4,1.9-1.2,2.5c-0.8,0.7-1.9,1-3.2,1c-1.6,0-2.9-0.4-3.8-1.1c-0.8-0.8-1.3-1.7-1.3-2.9l1.5-0.1
		c0,0.9,0.4,1.6,1.1,2.1c0.7,0.4,1.5,0.7,2.5,0.7c0.9,0,1.6-0.2,2.2-0.6c0.5-0.4,0.8-0.8,0.8-1.5c0-0.7-0.3-1.1-0.8-1.4
		c-0.6-0.3-1.6-0.6-2.9-0.9c-1.4-0.3-2.3-0.7-2.9-1.2c-0.6-0.5-0.9-1.2-0.9-2.1c0-0.9,0.4-1.7,1.1-2.4c0.8-0.6,1.8-0.9,3.1-0.9
		c1.3,0,2.4,0.3,3.2,0.9c0.8,0.6,1.2,1.5,1.3,2.6L242.8,162.1z M208.3,152.2v1.5h-1.2l-1.4-3.7h-2.5v-1.2h2c-1-2.6-1.6-4.1-1.6-4.4
		c-0.1-0.3-0.2-0.8-0.4-1.3v-1.4h0.8L208.3,152.2L208.3,152.2z M208.3,158.5v1.4c0,0,0-0.1,0-0.1h0c-0.1,0.8-0.3,1.6-0.6,2.2
		l-1.3,3.6h2v1.3h-2.5l-1.3,3.6h-1.3v-1l4.2-11H208.3z M203.2,141.8v1.4c0,0,0-0.1,0-0.1h0c-0.1,0.8-0.3,1.6-0.6,2.3l-1.3,3.6h2v1.2
		h-2.5l-1.3,3.7h-1.6l4.6-11.9H203.2L203.2,141.8z M203.2,169.5v1h-0.4L203.2,169.5L203.2,169.5z M182.7,170.5v-12h0.1v12H182.7
		L182.7,170.5z M182.7,150.1v-1.2h2c-1-2.6-1.6-4.1-1.7-4.4c-0.1-0.3-0.2-0.8-0.4-1.3v-1.4h0.8l4.9,11.9h-1.8l-1.4-3.7H182.7
		L182.7,150.1z M197.2,153.7h-7.5v-11.9h1.6v10.5h5.9V153.7L197.2,153.7z M187.4,170.5h-1.6v-12h1.6V170.5L187.4,170.5z
		 M201.5,170.5H200v-10h0l-3.4,10h-1.4l-3.4-10.2h0v10.2h-1.5v-12h2.4l2.8,8.5c0.3,0.9,0.5,1.6,0.5,1.8h0c0.1-0.5,0.4-1.1,0.7-1.9
		l2.8-8.3h2.1V170.5z M182.7,141.8v1.4c0,0,0-0.1,0-0.1h0c-0.1,0.8-0.4,1.6-0.6,2.3l-1.4,3.6h2.1v1.2h-2.5l-1.3,3.7h-1.7l4.6-11.9
		H182.7L182.7,141.8z M182.7,158.5v12h-1.5l-6.3-9.4h0v9.4h-1.5v-12h1.6l6.3,9.4l0,0v-9.4H182.7L182.7,158.5z M171.6,170.5v-1.4
		l0.6,1.4H171.6L171.6,170.5z M171.6,153.7v-1.4h0.3c1.1,0,1.8-0.2,2.2-0.6c0.4-0.4,0.6-0.8,0.6-1.5c0-0.6-0.2-1.1-0.7-1.5
		c-0.4-0.4-1.2-0.6-2.4-0.6h-0.1v-1.4c0.5,0,0.9,0,1.3-0.1c0.4,0,0.7-0.2,1-0.5c0.3-0.2,0.4-0.7,0.4-1.2c0-0.6-0.1-1-0.4-1.3
		c-0.3-0.2-0.6-0.4-1-0.5c-0.3,0-0.7-0.1-1.2-0.1v-1.4h0.3c1.4,0,2.5,0.3,3.1,0.9c0.6,0.6,0.9,1.3,0.9,2.1c0,0.5-0.1,1-0.4,1.4
		c-0.3,0.5-0.7,0.8-1.2,1.1c0.8,0.2,1.3,0.6,1.6,1.1c0.4,0.5,0.6,1.1,0.6,1.7c0,0.7-0.1,1.3-0.5,1.8c-0.4,0.6-0.8,1-1.5,1.2
		c-0.6,0.3-1.5,0.4-2.5,0.4H171.6z M171.6,141.8v1.4c-0.1,0-0.1,0-0.2,0h-2.4v3.6h2.6h0v1.4h-2.6v4.1h2.6v1.4h-4.2v-11.9H171.6
		L171.6,141.8z M171.6,169.1v1.4h-1.2l-1.4-3.6h-2.5v-1.3h2c-1-2.6-1.6-4.1-1.6-4.4c-0.1-0.3-0.3-0.8-0.3-1.3v-1.4h0.8L171.6,169.1z
		 M166.5,158.5v1.4c0,0,0-0.1,0-0.1h0c-0.1,0.8-0.4,1.6-0.6,2.2l-1.4,3.6h2.1v1.3H164l-1.3,3.6H161l4.6-12H166.5L166.5,158.5z
		 M150.7,166.9v-1.3h2c-0.9-2.6-1.5-4.1-1.7-4.4c-0.1-0.3-0.2-0.8-0.4-1.3v-1.4h0.8l4.9,12h-1.8l-1.4-3.6H150.7L150.7,166.9z
		 M158.8,145.3c-0.1-0.8-0.4-1.3-0.8-1.7c-0.5-0.4-1.2-0.6-2.1-0.6c-0.8,0-1.5,0.1-2,0.4c-0.5,0.3-0.8,0.8-0.8,1.3
		c0,0.5,0.2,0.9,0.6,1.2c0.4,0.2,1.1,0.5,2.3,0.8c1,0.2,1.8,0.4,2.5,0.7c0.6,0.2,1.1,0.6,1.6,1.1c0.4,0.5,0.7,1.1,0.7,1.9
		c0,1-0.4,1.9-1.2,2.5c-0.8,0.7-1.9,1-3.2,1c-1.7,0-3-0.4-3.8-1.1c-0.8-0.8-1.3-1.7-1.4-2.9l1.5-0.1c0.1,0.9,0.5,1.7,1.1,2.1
		c0.7,0.4,1.5,0.7,2.4,0.7c0.9,0,1.6-0.2,2.2-0.6c0.6-0.4,0.8-0.8,0.8-1.5c0-0.6-0.3-1.1-0.9-1.4c-0.6-0.3-1.5-0.6-2.9-0.9
		c-1.3-0.3-2.3-0.7-2.9-1.2c-0.6-0.5-0.9-1.2-0.9-2c0-1,0.4-1.7,1.1-2.4c0.8-0.6,1.8-0.9,3.1-0.9s2.4,0.3,3.2,0.9
		c0.8,0.6,1.2,1.5,1.3,2.7L158.8,145.3z M150.7,158.5v1.4c0,0,0-0.1,0-0.1h0c-0.1,0.8-0.3,1.6-0.6,2.2l-1.3,3.6h2v1.3h-2.5l-1.3,3.6
		h-1.6l4.6-12H150.7L150.7,158.5z M143.9,170.5v-1.8l1.2,1.8H143.9L143.9,170.5z M143.9,163.1v-2.5c0.1,0.4,0.2,0.8,0.2,1.2
		C144,162.3,144,162.7,143.9,163.1L143.9,163.1z M143.9,153.9v-1.4c1.2,0,2.2-0.4,2.9-1.3c0.8-0.8,1.1-2,1.1-3.5
		c0-1.6-0.4-2.7-1.1-3.6c-0.8-0.8-1.7-1.3-2.9-1.3l0,0v-1.4l0,0c1.7,0,3.1,0.6,4.1,1.7c1.1,1.1,1.6,2.6,1.6,4.5
		c0,1.8-0.5,3.3-1.6,4.4C146.9,153.4,145.5,153.9,143.9,153.9L143.9,153.9z M143.9,141.6v1.4c-1.2,0-2.2,0.4-3,1.2
		c-0.8,0.8-1.1,2.1-1.1,3.8c0,1.4,0.4,2.5,1.1,3.3c0.8,0.8,1.7,1.3,3,1.3l0,0v1.4c-1.7,0-3.1-0.6-4.2-1.7c-0.1-0.2-0.3-0.4-0.4-0.6
		v-7.8c0.1-0.2,0.3-0.4,0.5-0.6C140.7,142.1,142.2,141.6,143.9,141.6L143.9,141.6z M143.9,160.6v2.5c-0.1,0.4-0.4,0.7-0.7,0.9
		c-0.6,0.6-1.4,0.9-2.5,1v0c0.8,0.4,1.6,1.1,2.3,2.2l0.9,1.4v1.8h-0.8c-1.2-1.8-1.9-3-2.2-3.4c-0.3-0.4-0.6-0.8-0.9-1.1
		c-0.2-0.2-0.4-0.4-0.7-0.5v-1.6h0.2c0.7,0,1.2,0,1.7-0.2c0.4-0.1,0.7-0.3,0.9-0.7c0.2-0.3,0.4-0.7,0.4-1.1c0-0.6-0.2-1-0.6-1.4
		c-0.4-0.4-1-0.6-2-0.6h-0.6v-1.3h0.6c0.7,0,1.3,0,1.8,0.1c0.5,0.1,0.9,0.3,1.3,0.6c0.4,0.3,0.7,0.7,0.8,1.1
		C143.8,160.5,143.8,160.5,143.9,160.6z M139.2,143.8v7.8c-0.8-1-1.1-2.3-1.1-3.7C138.1,146.3,138.5,144.9,139.2,143.8L139.2,143.8z
		 M139.2,158.5v1.3h-3.2v4h3.2v1.6c0,0-0.1-0.1-0.2-0.1c-0.3-0.1-0.6-0.1-1.1-0.1h-1.8v5.3h-1.6v-12H139.2L139.2,158.5z
		 M127.5,166.9v-1.3h2c-1-2.6-1.5-4.1-1.6-4.4c-0.1-0.3-0.2-0.8-0.4-1.3v-1.4h0.8l4.9,12h-1.8l-1.4-3.6H127.5L127.5,166.9z
		 M137,143.2h-4v10.5h-1.6v-10.5h-4v-1.4h9.5V143.2z M127.5,158.5v1.4c0,0,0-0.1,0-0.1h0c-0.1,0.8-0.3,1.6-0.6,2.2l-1.3,3.6h2v1.3
		H125l-1.3,3.6H122l4.6-12H127.5L127.5,158.5z M116.7,165.7v-1.5h0.1c1.9,0,2.8-0.7,2.8-2.2c0-0.5-0.1-0.9-0.4-1.3
		c-0.2-0.4-0.6-0.6-0.9-0.7c-0.4,0-0.9-0.1-1.6-0.1h-0.1v-1.5c0.7,0,1.3,0,1.8,0.1c0.5,0,1,0.2,1.4,0.5c0.4,0.3,0.8,0.7,1,1.2
		c0.2,0.5,0.3,1,0.3,1.6c0,1.1-0.3,2-1,2.6C119.5,165.3,118.4,165.7,116.7,165.7L116.7,165.7L116.7,165.7z M116.7,153.7v-11.9h1.3
		l6.2,9.3h0v-9.3h1.5v11.9h-1.6l-6.3-9.4h0v9.4H116.7z M76,153.7h-1.8l-1.4-3.7h-2.5v-1.2h2c-1-2.6-1.6-4.1-1.6-4.4
		c-0.1-0.3-0.2-0.8-0.4-1.3v-1.4h0.8L76,153.7L76,153.7z M116.7,141.8v11.9h-0.3v-11.9H116.7L116.7,141.8z M116.7,158.5v1.5h-3v4.2
		h3v1.5h-3v4.8h-1.6v-12H116.7L116.7,158.5L116.7,158.5z M84.7,153.7h-7.5v-11.9h1.6v10.5h5.9V153.7L84.7,153.7z M88.4,153.7h-1.6
		v-11.9h1.6V153.7L88.4,153.7z M102.6,153.7h-1.5v-10l0,0l-3.4,10h-1.5l-3.4-10.1h0v10.1h-1.5v-11.9h2.4l2.8,8.4
		c0.3,0.9,0.5,1.5,0.6,1.7l0,0c0.2-0.5,0.4-1.1,0.7-1.9l2.9-8.2h2.1V153.7L102.6,153.7z M114.1,153.7h-8.9v-11.9h8.6v1.4h-7.1v3.6
		h6.6v1.5h-6.6v4h7.4V153.7z M70.3,150.1h-2.5l-1.3,3.7h-1.7l4.6-11.9h0.9v1.4c0,0,0-0.1,0-0.1h0c-0.1,0.8-0.3,1.6-0.6,2.3l-1.3,3.6
		h2V150.1z"/>
	<g>
		<path d="M307.1,134.3v-7.7h2.3l1.4,5.2l1.4-5.2h2.3v7.7h-1.4v-6.1l-1.5,6.1h-1.5l-1.5-6.1v6.1H307.1z"/>
		<path d="M316.1,134.3v-7.7h3.3c0.8,0,1.4,0.1,1.8,0.2c0.4,0.1,0.7,0.4,0.9,0.7c0.2,0.4,0.3,0.8,0.3,1.2c0,0.6-0.2,1.1-0.5,1.4
			c-0.3,0.4-0.8,0.6-1.5,0.7c0.3,0.2,0.6,0.4,0.8,0.6c0.2,0.2,0.5,0.7,0.9,1.2l0.9,1.5h-1.9l-1.1-1.7c-0.4-0.6-0.7-1-0.8-1.1
			c-0.1-0.2-0.3-0.3-0.5-0.3c-0.2-0.1-0.4-0.1-0.8-0.1h-0.3v3.2H316.1z M317.6,129.9h1.1c0.7,0,1.2,0,1.4-0.1
			c0.2-0.1,0.3-0.2,0.4-0.3c0.1-0.2,0.2-0.3,0.2-0.6c0-0.3-0.1-0.5-0.2-0.6c-0.1-0.2-0.3-0.3-0.6-0.3c-0.1,0-0.5,0-1.1,0h-1.2V129.9
			z"/>
	</g>
</g>
</svg>
