<?xml version="1.0" encoding="utf-8"?>
<!-- Generator: Adobe Illustrator 24.1.2, SVG Export Plug-In . SVG Version: 6.00 Build 0)  -->
<svg version="1.1" id="Layer_1" xmlns="http://www.w3.org/2000/svg" xmlns:xlink="http://www.w3.org/1999/xlink" x="0px" y="0px"
	 viewBox="0 0 286.9 156.9" style="enable-background:new 0 0 286.9 156.9;" xml:space="preserve">
<style type="text/css">
	.st0{fill:#FFFFFF;}
	.st1{fill-rule:evenodd;clip-rule:evenodd;fill:#FFDD00;}
	.st2{fill-rule:evenodd;clip-rule:evenodd;}
	.st3{fill:#FFDD00;}
</style>
<g>
	<g>
		<path class="st0" d="M2.3,154.6V23.9C2.3,12,12,2.3,23.9,2.3h260.7V133c0,11.9-9.7,21.6-21.6,21.6L2.3,154.6L2.3,154.6z"/>
		<path d="M282.3,4.6V133c0,10.7-8.7,19.3-19.3,19.3H4.6V23.9c0-10.7,8.6-19.3,19.3-19.3L282.3,4.6 M286.9,0h-4.6H23.9
			C10.7,0,0,10.7,0,23.9v128.4v4.6h4.6H263c13.2,0,23.9-10.7,23.9-23.9V4.6V0L286.9,0z"/>
	</g>
	<g>
		<g>
			<path class="st1" d="M150.3,92.3v-2.9l-12.6,3.1v3.7c2.8-0.7,2.8,1.8,2.8,3.1V126c0,0,0,3.3-2.8,3.5v2.9l12.6-2.9v-11.6
				c11,5,18.1-4.2,18.1-16.4C168.4,90.5,160.9,81.5,150.3,92.3z M154.3,111.5c-2.2,0.6-3.9-2.4-3.9-6.4c0-4.1,1.8-7.7,3.9-8.3
				c2.2-0.6,3.9,2.2,3.9,6.3C158.2,107.1,156.4,110.9,154.3,111.5z M214.2,100.3V62.9L201.6,66v2.4c1.6-0.6,2.6,0,2.6,2l0.2,32.2
				c0,1.7-1,2.6-2.8,2.9v2.9l15.1-3.7l0.2-3.1C216.9,101.7,214.2,102.8,214.2,100.3z M186.3,80.4c-10.8,2.8-14.1,10.7-14.1,19.3
				c-0.2,9.6,2.6,15.5,13.9,12.5c10.8-2.8,12.8-9.4,13-19.2C199.3,83.9,197.3,77.6,186.3,80.4z M189.6,95.7c0,4.2-1.8,8.1-4.1,8.7
				c-2,0.6-3.9-2.4-3.9-6.6c0-4.4,2-8.1,4.1-8.7C187.9,88.5,189.8,91.4,189.6,95.7z M233.2,95.7V58.3l-12.6,3.1v2.2
				c1.6-0.4,2.8,0.2,2.8,2.2V98c0,1.5-1,2.6-2.8,2.8v3.1l15.3-3.7v-3.1C236,97.1,233.2,98.2,233.2,95.7z M252.5,64.5
				c-10.8,2.6-14,10.7-14.1,19.2c-0.2,9.6,2.8,15.7,14.1,12.5c10.8-2.8,12.6-9.2,13-19.2C265.5,68,263.5,61.8,252.5,64.5z
				 M251.9,88.5c-2.2,0.4-3.9-2.6-3.9-6.8s1.8-8.1,3.9-8.7c2.2-0.5,4.1,2.4,4.1,6.6C256,83.9,254.1,87.9,251.9,88.5z"/>
			<path class="st1" d="M63.5,49.8l35-8.7c10.8-2.6,15.9,5.3,15.7,12.2v48.6c0,6.6-3.7,13.8-12,15.8L18.9,138v-20.3l71.5-17.7
				c9.4-2.4,12.8-5.2,12.8-18.8c0-13.6-5.5-15.7-12.8-17.7l-26.9-7L63.5,49.8"/>
			<path d="M200.4,110v-1.5v-2.9v-1.1l1-0.2c0.6,0,1-0.2,1.4-0.4c0.2-0.4,0.4-0.7,0.4-1.3L203,70.4l0,0c0.2-0.4,0-0.6,0-0.7
				c0-0.2,0-0.4-0.2-0.4c0,0,0,0-0.2,0c-0.2,0-0.4,0-0.6,0.2l-1.6,0.4v-1.5V66v-0.9l1-0.2l12.6-3.1l1.4-0.4v1.5v37.4
				c0,0.9,1,0.6,1,0.6l1.6-0.7v1.7v3.1v0.9l-0.8,0.2l-15.3,3.7L200.4,110 M202.8,107.1l13-3.1v-0.7c-1.2,0-2.8-0.4-2.8-2.9V64.3
				l-10.2,2.6v0.2c0.6,0,1,0.2,1.4,0.4c0.4,0.4,0.8,0.9,1,1.5c0.2,0.4,0.2,0.9,0.2,1.7v32c0,1.1-0.2,2-1,2.8c-0.4,0.4-1,0.7-1.6,1.1
				L202.8,107.1"/>
			<path d="M219.5,105.4v-1.5v-3.1v-0.9l1.2-0.2c0.6,0,1-0.2,1.2-0.6c0.2-0.2,0.4-0.6,0.4-1.1V65.8l0,0c0-0.4,0-0.6-0.2-0.7
				c0-0.2,0-0.4-0.2-0.4c0,0,0,0-0.2,0s-0.4,0-0.6,0l-1.4,0.6v-1.7v-2.2v-0.9l0.8-0.2l12.6-3.1l1.4-0.4v1.5v37.4c0,0.9,1,0.4,1,0.4
				l1.8-0.6v1.7v3.1v0.7l-1,0.4l-15.1,3.7L219.5,105.4 M221.8,102.5l13-3.1v-0.7c-1.2,0-2.6-0.4-2.6-2.9V59.7l-10.4,2.6l0,0
				c0.6,0.2,1,0.2,1.4,0.5c0.6,0.4,0.8,0.7,1,1.5c0.2,0.4,0.2,0.9,0.2,1.5l0.2,32.2c0,1.1-0.4,2-1.2,2.8c-0.4,0.4-0.8,0.7-1.6,0.9
				V102.5"/>
			<path d="M138.9,93.3v1.7c1.2,0,1.8,0.7,2.2,1.5c0.6,1.1,0.6,2.2,0.6,2.9v26.7c0,0,0,3.5-2.8,4.4v0.6l10.2-2.4V118v-1.7l1.8,0.7
				c2,0.7,3.7,1.3,5.3,1.3c2-0.2,3.7-0.7,5.3-1.8c1.6-1.3,2.8-2.9,3.7-5c1.4-2.8,2-6.3,2-9.9l0,0c0-3.3-0.8-6.4-2-8.8
				c-1-1.7-2.2-2.9-3.3-3.5c-1.4-0.7-2.8-0.9-4.5-0.4c-1.8,0.6-5.9,3.1-8.2,5.5v-3.5L138.9,93.3 M136.6,92.5v-0.9l1-0.4l12.6-2.9
				l1.4-0.4v1.5v0.2c1.8-1.5,3.5-2.4,5.3-2.9c2.2-0.7,4.3-0.4,6.1,0.6c1.8,0.9,3.1,2.4,4.3,4.4c1.4,2.6,2.4,6.3,2.4,9.9l0,0l0,0l0,0
				c0,4.1-0.8,7.9-2.2,10.9c-1.2,2.4-2.6,4.4-4.5,5.9c-1.8,1.5-4.1,2.2-6.7,2.2c-1.4,0-2.9-0.2-4.7-0.7v9.8v0.9l-0.8,0.2l-12.8,3.1
				l-1.4,0.2v-1.5v-3.1v-0.9l1.2-0.2c1.6,0,1.6-2.2,1.6-2.2l0,0V99.3c0-0.6,0-1.5-0.2-1.8c-0.2-0.2-0.4-0.4-1.2-0.2l-1.4,0.4v-1.5
				L136.6,92.5 M154.1,110.4c3.4-1.1,4.5-12.8,0.6-12.5C151,98.7,150,110.4,154.1,110.4 M154.5,112.6c-0.2,0-1.8,0.4-3.3-1.3
				c-0.7-0.8-1.2-1.8-1.6-3.1c-0.2-0.9-0.2-2-0.2-3.1c0-2.2,0.3-4.3,1.2-5.9c2-3.7,3.9-3.7,4.3-3.7c1,0,2,0.6,2.8,1.5
				c0.6,0.7,1.2,1.8,1.4,3.1c0.2,0.9,0.4,2,0.4,2.9c0,2.2-0.4,4.4-1.2,6.1C157.2,110.9,156,112.2,154.5,112.6"/>
			<path d="M171,99.7c0-6.2,1.9-12.7,6.9-16.6c2.4-1.9,5.2-3.1,8.1-3.8c2.7-0.7,5.7-1.1,8.4-0.1c5.6,2.1,5.9,8.9,5.9,13.9
				c-0.1,5.7-1,12.1-5.4,16.1c-2.2,2-5,3.3-7.9,4.1c-2.9,0.8-6.1,1.4-9.1,0.6C171.6,112.1,171,105.1,171,99.7 M173.3,99.7
				c-0.2,4.7,0.4,11.2,6.1,12c3,0.4,6.3-0.4,9.1-1.4c2.4-0.9,4.6-2.4,6.2-4.5c1.8-2.3,2.5-5.2,2.9-8.1c0.4-3.3,0.4-6.9-0.1-10.2
				c-0.3-2.2-1-4.7-3.1-5.8c-2.2-1.2-5.2-0.8-7.5-0.3c-3.9,0.8-7.4,2.8-9.9,5.9C174.2,90.7,173.3,95.4,173.3,99.7 M185.3,87.9
				c1.6-0.8,3.1,0.7,4,1.8c1.2,1.4,1.5,3.4,1.5,5.2c0.1,3.7-0.6,9.1-4.6,10.5C179.1,107.8,178.5,89.7,185.3,87.9 M185.9,90.1
				c-2.2,0.5-2.9,4.5-3.1,6.3c-0.1,1.4,0,7.1,2.5,6.8c1.1-0.1,1.9-1.8,2.3-2.7c0.5-1.4,1-2.9,1-4.4
				C188.7,94.3,188.4,90.1,185.9,90.1"/>
			<path d="M237.4,83.7c0-6.3,1.8-12.5,6.9-16.5c2.3-1.9,5.1-3.1,8.1-3.8c2.7-0.7,5.7-1.2,8.4-0.2c5.5,2,5.9,8.9,5.7,13.9
				c-0.1,5.8-0.6,12.2-5.3,16.2c-2.3,2-5.2,3.1-8.1,3.9c-2.9,0.8-6.1,1.4-9.1,0.6C238,96.1,237.2,88.9,237.4,83.7 M239.5,83.7
				c0,4.9,0.5,11.8,6.7,12.2c3.1,0.2,6.4-0.7,9.2-1.9c2.4-1,4.5-2.5,6-4.7c1.6-2.3,2.2-5.3,2.5-8.1c0.4-3.4,0.5-6.8-0.1-10.2
				c-0.4-2.2-1.3-4.5-3.5-5.5c-2.6-1.1-5.7-0.4-8.3,0.3c-3.5,1-6.8,2.7-9,5.6C240.5,75,239.7,79.4,239.5,83.7 M251.7,71.9
				c1.8,0,3.1,0.5,4.1,2.1c1.1,1.8,1.4,3.9,1.4,6c-0.1,3.2-1.4,8.6-5.1,9.5c-4.3,0.8-5.4-5.3-5.3-8.4C246.9,78,248,72.8,251.7,71.9
				 M252.3,74.1c-0.9-0.1-1.6,1.4-2,2c-0.7,1.3-1,2.8-1.1,4.3c-0.1,1.3-0.2,2.7,0.1,4c0.1,0.6,1.1,3.4,2.2,2.9
				c2.4-1.1,3.2-4.5,3.3-6.9C254.9,79.1,254.7,73.8,252.3,74.1"/>
			<path class="st2" d="M111,42.8c-2-1.8-4.7-3.1-8.1-3.1c-1.4-0.2-2.9,0-4.7,0.4l-12,3l4.5-9.2L69,38.9c-6.1,1.5-6.7,4.2-6.7,9.2
				v1.5l-13.8,3.7L62.3,57v3.5c0,4.6,2.8,6.3,5.3,7l13.2,3.1c3.5,0.9,4.9-2.9,4.9-4.4v-2.6l4.3,1.1c3.5,0.9,6.5,1.8,8.6,4.1
				c2.2,2.4,3.3,6.1,3.3,12.5c0,6.6-0.8,10.5-2.6,12.9c-1.8,2.6-4.9,3.7-9.4,4.8l-71.3,17.7l-0.8,0.2v22.7l1.4-0.4l83.1-20.3
				c4.1-0.9,7.3-3.1,9.4-6.1c2.4-3.1,3.5-7.2,3.5-10.9V53.3c0-1.3-0.2-2.6-0.4-3.9C114.4,46.8,113,44.5,111,42.8z M113,101.9
				c0,3.3-1,6.8-3.1,9.6c-1.8,2.4-4.3,4.2-7.9,5.2l-81.9,20.1v-18.1l70.5-17.5c5.1-1.1,8.4-2.6,10.6-5.5c2.2-2.9,3.1-7.4,3.1-14.4
				c0-7.2-1.6-11.4-3.9-14c-2.6-2.8-5.9-3.7-9.8-4.8l-25.9-6.6v-5.2l34-8.3c1.6-0.6,2.9-0.6,4.3-0.6c2.8,0,4.9,1.1,6.5,2.6
				c1.6,1.5,2.8,3.5,3.1,5.5c0.4,1.1,0.4,2.2,0.4,3.1L113,101.9L113,101.9z M136,56c-10.6,0.9-8.6-3.7-0.8-5.5
				c3.9-0.9,8.2-0.2,11.2,3.1l2.6-0.7v-5.2c-6.9-2.8-28.7-1.8-28.7,10.5c0,4.6,8.1,7.9,14.9,8.1c8.4,0,6.5,5.3-0.6,5.9
				c-4.3,0.2-9-0.2-10.4-3.1l-3.9,0.9v6.4c7.1,0.7,31.1,1.7,31.2-14C151.5,57,143.8,55.3,136,56z M28.3,95.8l57.4-14L39.5,70.6
				c-11.2-2.8-11.2-9-11.2-17.5c0.2-7.9,0.2-14.9,11.2-17.5l74.7-18H28.3c-4.5,0-9.2,4.6-9.2,9.2v61.2
				C19.1,94.9,23.8,97.1,28.3,95.8z M200.1,33.4l-0.2-11.2l-12.8,3.1v2.8c2.6-0.7,2.8,1.6,2.8,2.4v26c0,4.2-2.6,4.2-2.6,4.2v3.1
				l12.6-3.1V59c13.2,2.2,17.3-7,17.3-16.8C217.1,30.3,210.3,24.4,200.1,33.4z M204,52.4c-2.2,0.5-4.1-2.2-4.1-6.1
				c0-4,2-7.9,4.1-8.5c2.2-0.5,3.7,2.4,3.7,6.5C207.7,48.1,205.9,52,204,52.4z M253.1,18.1c-10.2,2.6-13,9.6-13.2,17.9
				c0,9.2,2.5,14.5,13.5,11.6c10.4-2.8,11.8-8.5,12-18C265.5,20.9,263.9,15.5,253.1,18.1z M253.1,40.4c-2.2,0.5-3.9-2.2-3.9-6.5
				c0-4,1.8-7.7,3.9-8.3c2-0.5,3.7,2.4,3.7,6.5C256.8,36.2,255.1,39.8,253.1,40.4z M181.4,45.2c0-8.8-12-8.5-19.8-3.9l-8.4,5.2V52
				l3.5-0.9c0.6-5.7,14.3-10.9,14.3-6.5c0,3.1-17.9,10-17.9,20.4c0,6.8,9.4,6.3,15.1,2l2.6-1.8v2.6l13.6-3.3v-4l-2.9,0.9L181.4,45.2
				L181.4,45.2z M170.8,57c0,3.7-3.9,6.1-5.3,4.6c-2.8-3.1,2.6-7.2,5.3-10.1V57z M230.7,28.1v-4.6l-12.2,8.1v2.6
				c2.6-1.3,2.6,0,2.6,3.3v11.8c0,2.8,0,4-2.6,4.6V56l15.5-3.9v-2.4c-3.3,0.9-3.3-0.9-3.3-2.8V36.2c0-4.8,4.3-5.9,4.9-2.4l3-0.7
				l2.4-12.1C236.2,21.8,232.7,24.2,230.7,28.1z M75,50.6c-1.5,0-2.7,1.2-2.7,2.6s1.2,2.6,2.7,2.6s2.6-1.2,2.6-2.6
				C77.6,51.8,76.4,50.6,75,50.6z"/>
			<g>
				<path d="M252.6,111.5v-6.7h1.7l1,4.6l1-4.6h1.7v6.7H257v-5.3l-1.1,5.3h-1.1l-1.1-5.3v5.3H252.6z"/>
				<path d="M259.2,111.5v-6.7h2.4c0.6,0,1.1,0.1,1.3,0.2s0.5,0.3,0.7,0.6c0.2,0.3,0.2,0.7,0.2,1.1c0,0.5-0.1,0.9-0.4,1.2
					c-0.3,0.3-0.6,0.5-1.1,0.6c0.2,0.2,0.5,0.4,0.6,0.6c0.2,0.2,0.4,0.6,0.7,1.1l0.7,1.3h-1.4l-0.8-1.4c-0.3-0.5-0.5-0.8-0.6-1
					c-0.1-0.1-0.2-0.2-0.3-0.3c-0.1-0.1-0.3-0.1-0.6-0.1h-0.2v2.8H259.2z M260.3,107.7h0.8c0.5,0,0.9,0,1-0.1c0.2,0,0.3-0.1,0.4-0.3
					c0.1-0.1,0.1-0.3,0.1-0.5c0-0.2,0-0.4-0.1-0.5c-0.1-0.1-0.2-0.2-0.4-0.3c-0.1,0-0.4-0.1-0.9-0.1h-0.9V107.7L260.3,107.7z"/>
			</g>
			<g>
				<path class="st3" d="M207.1,117.9H262c1.9,0,3.5,1.5,3.5,3.4v13.2c0,1.9-1.6,3.4-3.5,3.4h-54.9c-1.9,0-3.5-1.5-3.5-3.4v-13.2
					C203.6,119.4,205.1,117.9,207.1,117.9z"/>
				<path d="M207.1,116.8c-2.5,0-4.6,2-4.6,4.4v13.2c0,2.4,2.1,4.4,4.6,4.4h54.9c2.5,0,4.6-2,4.6-4.4v-13.2c0-2.4-2-4.4-4.6-4.4
					H207.1z M204.7,134.4v-13.2c0-1.2,1.1-2.3,2.4-2.3h54.9c1.3,0,2.4,1.1,2.4,2.3v13.2c0,1.3-1.1,2.3-2.4,2.3h-54.9
					C205.8,136.7,204.7,135.7,204.7,134.4z"/>
				<path d="M210,133v-6.2h-1.1v-1.4h1.1v-0.7c0-0.7,0.3-1.2,0.5-1.6c0.4-0.3,1-0.5,1.8-0.5c0.1,0,0.3,0,0.4,0
					c0.2,0,0.3,0.1,0.6,0.1v1.6h-0.6c-0.3,0-0.4,0-0.5,0.1c-0.1,0.1-0.2,0.3-0.2,0.4v0.6h1.3v1.4H212v6.2L210,133L210,133z
					 M216.4,133v-7.7h1.9v1.3c0.3-0.5,0.6-0.9,0.9-1.2c0.4-0.3,0.8-0.3,1.4-0.3h0.1c0.1,0,0.2,0,0.2,0v2.1h-0.7
					c-0.5,0-0.9,0.1-1.2,0.4c-0.3,0.3-0.5,0.8-0.5,1.4v4.1H216.4L216.4,133z M228.6,130.6h2.1c-0.2,0.8-0.6,1.5-1.3,2
					c-0.6,0.3-1.5,0.6-2.4,0.6c-1.1,0-2-0.4-2.6-1.1c-0.6-0.7-1-1.8-1-3c0-1.3,0.3-2.4,1-3.1c0.6-0.7,1.5-1.1,2.6-1.1
					c1.2,0,2.1,0.3,2.7,1.1c0.6,0.7,1,1.7,1,3.1c0,0.1,0,0.1,0,0.3c0,0.1-0.1,0.1-0.1,0.1h-5.1c0,0.6,0.2,1.1,0.5,1.4
					c0.2,0.3,0.6,0.5,1.1,0.5c0.4,0,0.7-0.1,0.9-0.2C228.2,131.2,228.5,131,228.6,130.6L228.6,130.6z M225.6,128.3h3
					c0-0.5-0.2-0.8-0.4-1.1c-0.3-0.3-0.7-0.4-1.2-0.4c-0.4,0-0.8,0.2-1,0.4C225.8,127.4,225.6,127.8,225.6,128.3L225.6,128.3z
					 M233.3,130.5h2.1c0,0.4,0.1,0.7,0.4,0.8c0.3,0.2,0.6,0.3,1.2,0.3c0.5,0,0.7,0,0.9-0.2c0.3-0.1,0.4-0.4,0.4-0.5
					c0-0.3-0.4-0.6-1.2-0.7c-0.3-0.1-0.6-0.2-0.8-0.3c-1-0.2-1.7-0.6-2.1-0.9c-0.4-0.3-0.5-0.8-0.5-1.4c0-0.8,0.3-1.4,0.8-1.9
					c0.5-0.5,1.4-0.7,2.3-0.7c1.1,0,1.9,0.3,2.5,0.7c0.5,0.4,0.9,1.1,0.9,1.9h-1.9c0-0.3-0.2-0.5-0.4-0.7c-0.3-0.2-0.6-0.3-1-0.3
					c-0.5,0-0.7,0-0.9,0.2c-0.1,0.1-0.3,0.3-0.3,0.5c0,0.3,0.5,0.5,1.5,0.8c0.2,0,0.5,0.1,0.6,0.1c1,0.3,1.7,0.5,2.1,0.9
					c0.4,0.3,0.5,0.8,0.5,1.4c0,0.8-0.3,1.5-0.9,2c-0.6,0.3-1.6,0.6-2.7,0.6c-1,0-1.9-0.3-2.5-0.6c-0.6-0.6-0.9-1.2-0.9-2
					L233.3,130.5L233.3,130.5z M248.1,130.1h2.1c-0.1,1-0.5,1.8-1.1,2.4c-0.6,0.5-1.5,0.8-2.5,0.8c-1.1,0-1.9-0.4-2.5-1
					c-0.6-0.8-1-1.8-1-3.1c0-1.3,0.4-2.4,1-3.1c0.6-0.7,1.5-1.1,2.7-1.1c1,0,1.8,0.3,2.3,0.8c0.6,0.5,1,1.3,1.1,2.2h-2.1
					c0-0.4-0.3-0.7-0.5-0.9c-0.1-0.2-0.5-0.3-0.9-0.3c-0.6,0-1,0.2-1.2,0.6c-0.2,0.5-0.4,1.1-0.4,1.8c0,0.7,0.2,1.3,0.4,1.7
					c0.3,0.4,0.6,0.5,1.2,0.5c0.4,0,0.6-0.1,0.8-0.3C247.8,131,248,130.5,248.1,130.1L248.1,130.1z M254.6,129.2
					c0,0.7,0.2,1.3,0.5,1.7c0.3,0.4,0.8,0.6,1.3,0.6c0.5,0,1-0.2,1.4-0.6c0.3-0.4,0.5-1,0.5-1.7c0-0.7-0.2-1.4-0.5-1.8
					c-0.3-0.5-0.8-0.6-1.4-0.6c-0.5,0-1,0.2-1.3,0.6C254.8,127.8,254.6,128.4,254.6,129.2L254.6,129.2z M252.5,129.2
					c0-1.3,0.4-2.3,1.1-3c0.6-0.7,1.6-1.1,2.8-1.1c1.2,0,2.2,0.3,2.8,1.1c0.8,0.7,1.2,1.8,1.2,3.1c0,1.1-0.4,2.2-1.1,3
					s-1.7,1.1-2.9,1.1c-1.2,0-2.2-0.4-2.8-1.1C252.9,131.4,252.5,130.3,252.5,129.2z"/>
			</g>
		</g>
	</g>
</g>
</svg>
