<?xml version="1.0" encoding="UTF-8"?>
<svg width="37px" height="32px" viewBox="0 0 37 32" version="1.1" xmlns="http://www.w3.org/2000/svg" xmlns:xlink="http://www.w3.org/1999/xlink">
    <!-- Generator: Sketch 64 (93537) - https://sketch.com -->
    <title>phone</title>
    <desc>Created with Sketch.</desc>
    <g id="Page-1" stroke="none" stroke-width="1" fill="none" fill-rule="evenodd">
        <g id="Expendios-sabropollo" transform="translate(-782.000000, -1167.000000)" fill="#000000" fill-rule="nonzero">
            <g id="phone" transform="translate(783.000000, 1168.000000)">
                <path d="M34.0815846,23.1439821 L26.9974573,19.0942941 C26.0984595,18.5845092 24.8933937,18.7522502 24.2287655,19.4797527 L22.165233,21.7540697 C21.9000378,22.0538122 21.4179705,22.1407586 21.0343261,21.9580774 L20.6417963,21.7725839 C19.3405631,21.1646034 17.7215058,20.407689 14.4594007,17.6104045 C11.1972956,14.81312 10.3125144,13.4242036 9.60325414,12.3108323 L9.38802232,11.9743544 C9.17197031,11.6455516 9.27148684,11.230564 9.62129835,11.0014215 L12.2727028,9.23308118 C13.1210538,8.66330086 13.3170112,7.63060698 12.7229878,6.8597484 L7.99868692,0.787208425 C7.38990006,0.00222983834 6.16849879,-0.23341607 5.22603085,0.252230109 L2.26370558,1.77760087 C1.33292536,2.2466663 0.650047904,3.00633433 0.358264914,3.89741803 C-0.708461984,7.22915353 0.0940266754,12.9792184 9.97541586,21.4505774 C17.8358541,28.1880466 23.687576,30 27.7096566,30 C28.6353106,30.0033169 29.5573421,29.9000827 30.4509403,29.6929698 C31.4906693,29.4431453 32.3770225,28.8577216 32.9238849,28.059619 L34.7051349,25.5218263 C35.2725022,24.7137635 34.9977381,23.6661294 34.0815846,23.1439821 Z M33.7001274,25.0088189 L31.9229783,27.548135 C31.5303118,28.1241844 30.8928183,28.547726 30.1440521,28.7300557 C26.5559211,29.5745023 20.2872003,28.875064 10.8006648,20.743171 C1.31412931,12.6112779 0.498244198,7.23817628 1.48336208,4.16194843 C1.69633837,3.51934169 2.19105032,2.97217681 2.86388043,2.63505435 L5.8262057,1.11167561 C6.23513932,0.900754365 6.76525618,1.00299258 7.02942607,1.3436304 L9.59573572,4.64636423 L11.7496943,7.41564307 C12.0076444,7.75001184 11.9228913,8.19816091 11.5548989,8.44558326 L8.90287928,10.2139236 C8.09581122,10.7429258 7.86533751,11.7000981 8.36223663,12.4597662 L8.5728207,12.7877487 C9.31823773,13.9596506 10.2449853,15.4175266 13.6284104,18.3173423 C17.0118355,21.2170993 18.7120233,22.0115694 20.07853,22.650485 L20.461696,22.8314671 C21.3478442,23.2573523 22.4645344,23.059848 23.0816598,22.3680263 L25.1445772,20.0947053 C25.4332845,19.7794366 25.9558829,19.7068446 26.3460888,19.927726 L33.4296011,23.977414 C33.8272571,24.2036856 33.9465265,24.6583381 33.7001274,25.0088189 Z" id="Shape" stroke="#000000" stroke-width="0.5"></path>
                <path d="M19.5999789,3.09996133 C25.2306962,3.10569768 29.793714,7.28852847 29.8000422,12.4500193 C29.8000422,12.7537881 30.068637,13 30.4000211,13 C30.7314052,13 31,12.7537881 31,12.4500193 C30.993039,6.68124875 25.8931832,2.00631643 19.5999789,2 C19.2685948,2 19,2.2462119 19,2.54998066 C19,2.85374943 19.2685948,3.09996133 19.5999789,3.09996133 Z" id="Path"></path>
                <path d="M19.6428356,5.99996652 C23.5464065,6.00354076 26.7097333,8.46390605 26.7143288,11.5000167 C26.7143288,11.7761706 27.0021847,12 27.3571644,12 C27.7122194,12 28,11.7761706 28,11.5000167 C27.9946512,7.91183266 24.2561398,5.00410159 19.6428356,5 C19.2877806,5 19,5.22382937 19,5.49998326 C19,5.77613714 19.2877806,5.99996652 19.6428356,5.99996652 Z" id="Path"></path>
                <path d="M18.8749744,10.2499634 C21.2899979,10.2520142 23.2470776,11.6499282 23.2500513,13.3750183 C23.2500513,13.7202121 23.6418569,14 24.1250256,14 C24.6081944,14 25,13.7202121 25,13.3750183 C24.9961035,10.9599068 22.2561304,9.00270999 18.8749744,9 C18.391703,9 18,9.27978789 18,9.62498169 C18,9.97017549 18.391703,10.2499634 18.8749744,10.2499634 Z" id="Path"></path>
            </g>
        </g>
    </g>
</svg>