<?xml version="1.0" encoding="utf-8"?>
<!-- Generator: Adobe Illustrator 24.2.1, SVG Export Plug-In . SVG Version: 6.00 Build 0)  -->
<svg version="1.1" id="Layer_1" xmlns="http://www.w3.org/2000/svg" xmlns:xlink="http://www.w3.org/1999/xlink" x="0px" y="0px"
	 viewBox="0 0 24 24" style="enable-background:new 0 0 24 24;" xml:space="preserve">
<style type="text/css">
	.st0{fill-rule:evenodd;clip-rule:evenodd;fill:#FFAE00;}
</style>
<path class="st0" d="M21.3,21.3c-0.5,0.5-1.4,0.5-2,0l-3.9-3.9c-1.4,1-3,1.6-4.8,1.6c-4.6,0-8.4-3.7-8.4-8.4S6,2.3,10.6,2.3
	S19,6,19,10.6c0,1.8-0.6,3.5-1.6,4.8l3.9,3.9C21.9,19.9,21.9,20.8,21.3,21.3z M17.6,10.6c0-3.8-3.1-7-7-7s-7,3.1-7,7s3.1,7,7,7
	S17.6,14.5,17.6,10.6z"/>
</svg>
