<?xml version="1.0" encoding="utf-8"?>
<!-- Generator: Adobe Illustrator 24.1.3, SVG Export Plug-In . SVG Version: 6.00 Build 0)  -->
<svg version="1.1" id="Layer_1" xmlns="http://www.w3.org/2000/svg" xmlns:xlink="http://www.w3.org/1999/xlink" x="0px" y="0px"
	 viewBox="0 0 471.5 308.7" style="enable-background:new 0 0 471.5 308.7;" xml:space="preserve">
<style type="text/css">
	.st0{fill:#FFAE00;}
</style>
<g>
	<g>
		<path class="st0" d="M60.1,262.3h388.1C446.1,147.1,351.8,54,236.1,53.8C137,70.7,62.1,159.9,60.1,262.3z"/>
		<path class="st0" d="M238.1,45.8c12.6,0,22.9-10.3,22.9-22.9C261,10.3,250.7,0,238.1,0c-12.6,0-22.9,10.3-22.9,22.9
			C215.2,35.6,225.5,45.8,238.1,45.8z"/>
		<path class="st0" d="M104.6,121.9c23.4-28.1,52.9-49.7,85.6-63.1C96.1,79.4,25.1,162.5,23.3,262.3h28.9
			C53.1,211.2,71.6,161.5,104.6,121.9z"/>
		<path class="st0" d="M452.3,270.3H19.2C8.6,270.3,0,278.9,0,289.5c0,10.6,8.6,19.2,19.2,19.2h433.1c10.6,0,19.2-8.6,19.2-19.2
			C471.5,278.9,462.9,270.3,452.3,270.3z"/>
	</g>
</g>
</svg>
