<?xml version="1.0" encoding="UTF-8"?>
<svg width="119px" height="14px" viewBox="0 0 119 14" version="1.1" xmlns="http://www.w3.org/2000/svg" xmlns:xlink="http://www.w3.org/1999/xlink">
    <!-- Generator: sketchtool 53 (72520) - https://sketchapp.com -->
    <title>942B024D-AF23-433A-9A2A-E6FC7C0E0C14</title>
    <desc>Created with sketchtool.</desc>
    <g id="Page-1" stroke="none" stroke-width="1" fill="none" fill-rule="evenodd">
        <g id="index-sabropollo" transform="translate(-878.000000, -1556.000000)" fill="#FFFFFF">
            <g id="footer" transform="translate(0.000000, 1525.000000)">
                <g id="siempre-fresco-blanco" transform="translate(878.000000, 31.000000)">
                    <path d="M105.955225,11.1130073 L105.955225,9.38230576 L105.955225,9.38230576 C106.505894,9.4104491 107.033658,9.17453545 107.353362,8.75733021 C107.695673,8.22058214 107.857926,7.60130307 107.819408,6.97855364 C107.85732,6.34059923 107.695454,5.7060998 107.353362,5.15170203 C107.018524,4.75151781 106.501,4.52018148 105.955225,4.52672648 L105.955225,4.52672648 L105.955225,2.79602496 L105.955225,2.79602496 C107.063649,2.75392486 108.137967,3.15677463 108.903971,3.90175093 C109.674924,4.76153776 110.063812,5.86185561 109.991411,6.97855364 C110.064004,8.08064466 109.6743,9.16604567 108.903971,10.0072813 C108.151746,10.770892 107.067675,11.1773987 105.955225,11.1130073 L105.955225,11.1130073 Z M105.955225,2.79602496 L105.955225,4.52672648 C105.424041,4.52088417 104.922547,4.75367667 104.608871,5.15170203 C104.248308,5.70083767 104.068331,6.33577858 104.091042,6.97855364 C104.067558,7.60627907 104.247983,8.22605068 104.608871,8.75733021 C104.906998,9.17207493 105.418963,9.40972801 105.955225,9.38230576 L105.955225,11.1130073 C104.85539,11.1878468 103.781639,10.7783179 103.056104,10.0072813 C102.285776,9.16604567 101.896071,8.08064466 101.968664,6.97855364 C101.896264,5.86185561 102.285151,4.76153776 103.056104,3.90175093 C103.795669,3.14911849 104.859347,2.74343114 105.955225,2.79602496 L105.955225,2.79602496 Z M80.8930427,11.1130073 L80.8930427,9.38230576 L81.0483913,9.38230576 C81.2778603,9.40136128 81.5088801,9.36836465 81.7215684,9.28615567 C81.9357896,9.23898459 82.1324816,9.13938009 82.2911798,8.99770542 C82.2911798,8.94963037 82.3429626,8.90155533 82.4465283,8.85348029 C82.6873276,8.59583655 83.0185062,8.42554816 83.3814965,8.37272987 C83.5978557,8.38086715 83.8022407,8.46711731 83.9511079,8.61310508 C84.1185985,8.76454265 84.2121364,8.97295944 84.2100222,9.19000559 C84.1997976,9.35938664 84.1465657,9.5241209 84.0546736,9.67075601 C83.9581693,9.84502937 83.8372523,10.0066823 83.6950705,10.1515064 C83.334093,10.4632141 82.9122593,10.7079822 82.452282,10.8726321 C81.9518632,11.0302272 81.4272195,11.1114068 80.8987964,11.1130073 L80.8930427,11.1130073 Z M80.8930427,7.50737911 L80.8930427,6.16127792 L82.4465283,6.16127792 C82.4784639,5.72627916 82.3302846,5.29637541 82.0322655,4.95940187 C81.747129,4.65663703 81.3249929,4.49631029 80.8930427,4.52672648 L80.8930427,2.79602496 C81.9063203,2.75147801 82.8899632,3.12027478 83.5857511,3.80560085 C84.3224892,4.58614624 84.6950313,5.60645353 84.6214082,6.64202835 C84.6514089,6.87616277 84.5967634,7.11291539 84.4660597,7.31507894 C84.3107111,7.45930406 84.000014,7.50737911 83.4821854,7.50737911 L80.8930427,7.50737911 L80.8930427,7.50737911 Z M88.5569051,7.74775432 C87.7935269,7.61320202 87.0802461,7.2986534 86.485591,6.83432851 C86.0496112,6.46491212 85.8046186,5.94002668 85.8124139,5.39207725 C85.7842647,4.66161303 86.1067225,3.95721577 86.6927224,3.46907555 C87.3840393,3.00509055 88.2222111,2.76826043 89.0747337,2.79602496 C89.8510647,2.76616435 90.6215876,2.93231042 91.3042732,3.27677539 C91.809079,3.50136825 92.1451805,3.96024415 92.1845818,4.47865144 C92.186696,4.69569759 92.093158,4.90411438 91.9256675,5.05555195 C91.7768014,5.22950239 91.5421374,5.32027796 91.3042732,5.29592716 C90.9260007,5.24699197 90.57801,5.07695332 90.320399,4.81517674 C90.2424241,4.77928408 90.172215,4.73039766 90.1132676,4.67095161 C89.9671513,4.58908279 89.8105903,4.52448246 89.6472219,4.47865144 C89.4627282,4.42349943 89.2712074,4.39117084 89.0776105,4.38250136 C88.7697621,4.3599036 88.461998,4.42713354 88.197302,4.57480153 C87.9901736,4.67849376 87.8683699,4.88581114 87.8866049,5.10362699 C87.8953101,5.30251985 88.0123698,5.48364965 88.197302,5.58437741 C88.5955122,5.74187574 89.0128188,5.85397823 89.4400905,5.91823188 L90.0614847,6.062457 C90.8314048,6.19715639 91.5577515,6.49412096 92.1845818,6.9304786 C92.6150178,7.31989486 92.8418088,7.86382121 92.805976,8.42080491 C92.8555641,9.20310244 92.4877083,9.95803309 91.8221018,10.4399567 C91.0106675,10.9358729 90.0469872,11.1722028 89.0776105,11.1130073 C88.2639503,11.1329792 87.4593634,10.950385 86.7473821,10.5841818 C86.1957148,10.3020961 85.8416193,9.77408726 85.8124139,9.19000559 C85.8194677,8.94580859 85.9101602,8.71005233 86.0713281,8.51695499 C86.2748536,8.35991171 86.5316519,8.27476502 86.7962881,8.27657978 C87.175493,8.31946078 87.5163022,8.51222519 87.7312563,8.80540525 C87.834822,8.90155533 87.8866049,8.99770542 87.9383877,9.04578046 C88.0946384,9.20016916 88.2906709,9.31506561 88.5079991,9.37963492 C88.7747347,9.46171786 89.0562331,9.49438565 89.3365248,9.475785 C89.6780939,9.50914231 90.0223089,9.44186481 90.320399,9.28348484 C90.5327623,9.15565743 90.6664313,8.94121626 90.6800022,8.70658433 C90.6800022,8.37272987 90.2657393,8.12968382 89.4372137,7.93738365 L89.3854308,7.93738365 L88.5569051,7.74508348 L88.5569051,7.74775432 Z M100.725876,5.01014774 C100.742178,5.22942231 100.64656,5.44306649 100.467681,5.58704825 C100.297334,5.76255309 100.046886,5.85188665 99.7937845,5.82742346 C99.634149,5.81859169 99.4770594,5.78613238 99.328458,5.73127338 C99.1426024,5.5835887 98.969243,5.4228656 98.8099103,5.25052295 C98.6586328,5.01255083 98.4448419,4.81406799 98.188516,4.67362245 C97.9801459,4.57531055 97.749041,4.52579738 97.5153389,4.52939732 C97.0404238,4.52643224 96.6024123,4.76672456 96.3761161,5.15437287 C96.0715399,5.72025668 95.928881,6.34936615 95.9618533,6.98122448 C95.9269301,7.58243601 96.0702106,8.18103098 96.3761161,8.711926 C96.5954258,9.10576376 97.0379542,9.34853405 97.5153389,9.33690155 C97.7332752,9.34693422 97.9495218,9.29674355 98.1367332,9.19267642 C98.3154652,9.11279135 98.4742153,8.99906983 98.6027788,8.85882196 C98.6533789,8.75229677 98.7234571,8.6547063 98.8099103,8.57037171 C99.0049795,8.21436153 99.3697428,7.96483357 99.7937845,7.89732112 C100.054601,7.89053328 100.303867,7.99722713 100.467681,8.18577137 C100.656937,8.34346316 100.753006,8.57600375 100.725876,8.81074692 C100.724598,9.05816712 100.671849,9.30302843 100.570527,9.53187255 C100.426604,9.78668381 100.233536,10.014812 100.000916,10.2049231 C99.6635602,10.5210722 99.257554,10.7668993 98.8099103,10.9260488 C98.3779127,11.0673267 97.921317,11.1325424 97.4635561,11.1183489 C96.4247075,11.1834889 95.4178206,10.7700238 94.7708476,10.012623 C94.0565203,9.14798494 93.7066723,8.07102353 93.7869734,6.98389531 C93.6989186,5.88113178 94.0489158,4.78660938 94.7708476,3.90709261 C95.4603408,3.17450566 96.4680527,2.76850939 97.5153389,2.80136663 C98.3371155,2.76527303 99.1455695,3.00408955 99.7937845,3.47441723 C100.354429,3.8143937 100.702069,4.38617462 100.725876,5.00747691 L100.725876,5.01014774 Z M80.8930427,2.79602496 L80.8930427,4.52672648 L80.8930427,4.52672648 C80.4778123,4.50610953 80.0758876,4.66602911 79.8056028,4.95940187 C79.5112427,5.30109113 79.3473292,5.7238044 79.3395571,6.16127792 L80.8930427,6.16127792 L80.8930427,7.50737911 L79.3366803,7.50737911 C79.3299607,8.01378742 79.5130114,8.50662414 79.8545088,8.90155533 C80.1046156,9.19787387 80.484764,9.37433817 80.8901659,9.38230576 L80.8901659,11.1130073 L80.8901659,11.1130073 C79.8428797,11.1458645 78.8351678,10.7398682 78.1456746,10.0072813 C77.4612466,9.11046145 77.1153438,8.02874327 77.1618004,6.9304786 C77.0814992,5.84335038 77.4313473,4.76638897 78.1456746,3.90175093 C78.7996523,3.15280425 79.8015594,2.74138402 80.838383,2.79602496 L80.8930427,2.79602496 Z M53.8623928,11.1130073 L53.8623928,9.38230576 L54.0206182,9.38230576 C54.2499432,9.397652 54.4800435,9.36478671 54.6937953,9.28615567 C54.892652,9.23815019 55.0724196,9.13801276 55.2116239,8.99770542 L55.3669724,8.85348029 C55.6151488,8.60442821 55.9428812,8.43591181 56.3019406,8.37272987 C56.5207096,8.37091732 56.7291749,8.45888938 56.871552,8.61310508 C57.0389718,8.76458727 57.1324966,8.97297467 57.1304663,9.19000559 C57.1161966,9.35344921 57.0814398,9.51478961 57.0269006,9.67075601 C56.9233349,9.81498114 56.7679863,9.95920626 56.6126378,10.1515064 C56.2600756,10.4732638 55.8358692,10.7194087 55.3698493,10.8726321 C54.8861831,11.0261974 54.3792784,11.1073369 53.8681465,11.1130073 L53.8623928,11.1130073 Z M53.8623928,7.50737911 L53.8623928,6.16127792 L55.4158785,6.16127792 C55.4081063,5.7238044 55.2441928,5.30109113 54.9498328,4.95940187 C54.679548,4.66602911 54.2776232,4.50610953 53.8623928,4.52672648 L53.8623928,2.79602496 C54.8739348,2.76082525 55.8535705,3.12811962 56.5551012,3.80560085 C57.2702578,4.59755805 57.6397739,5.60957793 57.5907583,6.64202835 C57.5907583,6.97588281 57.5389755,7.21892885 57.3836269,7.31507894 C57.2800612,7.45930406 56.9693641,7.50737911 56.4486587,7.50737911 L53.859516,7.50737911 L53.8623928,7.50737911 Z M65.5653179,9.81498114 C65.5882331,10.1374887 65.4973412,10.4581468 65.3064036,10.7284069 C65.0863587,10.9286668 64.7854986,11.0334109 64.4778779,11.0168572 C64.1636109,11.0178373 63.863214,10.8967924 63.6493523,10.6830027 C63.4642737,10.4272427 63.3734332,10.1226957 63.390438,9.81498114 L63.390438,1.97874924 C63.3380589,1.51083489 63.4468371,1.0395514 63.7011351,0.63264806 C63.8564837,0.392272848 64.2189637,0.298793599 64.7367922,0.298793599 L69.8115119,0.298793599 C70.1259579,0.282818395 70.4367616,0.367685805 70.6918204,0.539168811 C70.9044847,0.703930743 71.0198734,0.952900597 71.0025176,1.20954857 C71.0321512,1.46880633 70.9144752,1.72372303 70.6918204,1.88259916 C70.4483925,2.07502112 70.1283897,2.16240041 69.8115119,2.12297437 L65.5681947,2.12297437 L65.5681947,4.52672648 L69.1383348,4.52672648 C69.4697591,4.51113239 69.79773,4.59545191 70.073303,4.7671017 C70.2715647,4.93950142 70.3679878,5.19015443 70.3322173,5.44015229 C70.367628,5.70449234 70.2724681,5.96953101 70.073303,6.16127792 C69.7911983,6.31509913 69.4640207,6.38239158 69.1383348,6.35357809 L65.5653179,6.35357809 L65.5653179,9.81498114 L65.5653179,9.81498114 Z M73.7987917,4.52672648 C73.9883296,4.07997563 74.2697397,3.67175641 74.6273174,3.32485043 C74.8858717,3.07855406 75.2407459,2.93983234 75.6111916,2.94025009 C75.9086763,2.93124382 76.2006894,3.01596383 76.4397173,3.1806253 C76.6560544,3.40394757 76.7678356,3.69798328 76.7504144,3.99790102 C76.7661715,4.14867221 76.7299037,4.3001912 76.6468487,4.4305764 C76.609674,4.56849211 76.5170258,4.68795651 76.3879344,4.76443086 C76.2843687,4.90865599 76.0283312,4.95673103 75.6629744,4.95673103 C75.5110133,4.99392434 75.3539776,5.01012338 75.1969288,5.00480607 C74.8227825,5.09092252 74.4923654,5.29479876 74.2619606,5.58170658 C74.0378946,5.92936583 73.9297806,6.33085668 73.9512634,6.73550759 L73.9512634,9.8123103 C73.9936123,10.1221635 73.9003465,10.4348413 73.6923492,10.6803319 C73.4996701,10.8934574 73.2153134,11.0165389 72.9156063,11.0165389 C72.6158992,11.0165389 72.3315426,10.8934574 72.1388635,10.6803319 C71.9132088,10.4418582 71.8011328,10.1287417 71.8281664,9.8123103 L71.8281664,4.0940511 C71.8111094,3.78633124 71.9019545,3.48176918 72.0870807,3.22602951 C72.2920235,3.0344826 72.5731269,2.93009238 72.8638235,2.93757925 C73.1320229,2.91312389 73.3979495,3.00129726 73.5887835,3.17795447 C73.7503811,3.36945597 73.8256645,3.6116874 73.7987917,3.85367589 L73.7987917,3.85367589 L73.7987917,4.52672648 Z M53.8623928,2.79602496 L53.8623928,4.52672648 L53.8623928,4.52672648 C53.4471426,4.50600587 53.0451705,4.6659443 52.7749529,4.95940187 C52.4591211,5.28959795 52.2922438,5.71995432 52.3089072,6.16127792 L53.8623928,6.16127792 L53.8623928,7.50737911 L52.3089072,7.50737911 C52.2623988,8.01075446 52.4296449,8.51107137 52.7749529,8.90155533 C53.0386111,9.20841795 53.439602,9.3856935 53.8623928,9.38230576 L53.8623928,11.1130073 L53.81061,11.1130073 C52.7782069,11.1457776 51.7863348,10.7384781 51.1179016,10.0072813 C50.3935769,9.126719 50.0268608,8.03725303 50.0822445,6.9304786 C50.0176841,5.8373839 50.3860489,4.76011947 51.1179016,3.90175093 C51.7648745,3.14435016 52.7717614,2.73088505 53.81061,2.79602496 L53.8623928,2.79602496 Z M39.5185422,11.0649322 L39.5185422,9.33423071 L39.5185422,9.33423071 C40.0354029,9.33966995 40.5210729,9.10520477 40.8131136,8.70925516 C41.1309811,8.20005999 41.2754001,7.61346781 41.2273764,7.02662868 C41.2859193,6.39310017 41.1418153,5.75761788 40.8131136,5.19977708 C40.5055974,4.82041513 40.0296639,4.59065043 39.5185422,4.57480153 L39.5185422,2.8441 C39.7048019,2.80198232 39.8967666,2.78578056 40.0881536,2.79602496 C41.0399606,2.78415477 41.9346601,3.21652701 42.4701649,3.94715514 C43.0893616,4.83194486 43.3969912,5.87355347 43.3504734,6.92780776 C43.3965508,7.99710093 43.0893854,9.05391255 42.4701649,9.95653543 C41.9354062,10.6882716 41.0405353,11.1217301 40.0881536,11.1103364 C39.8968185,11.118164 39.7052203,11.1019932 39.5185422,11.0622614 L39.5185422,11.0649322 Z M46.7681418,4.52672648 C46.9404044,4.08301738 47.2042461,3.67476775 47.5448846,3.32485043 C47.8180286,3.06929595 48.1929103,2.93008034 48.5805417,2.94025009 C48.8780264,2.93124382 49.1700395,3.01596383 49.4090674,3.1806253 C49.6089059,3.41029272 49.7020665,3.70435896 49.6679816,3.99790102 C49.6763287,4.14378487 49.6588353,4.28995177 49.6161988,4.4305764 C49.4609816,4.79811685 49.0529324,5.01744046 48.6323246,4.95940187 C48.4799258,4.99436723 48.3232278,5.01053144 48.1662789,5.00747691 C47.7863592,5.08110689 47.4515511,5.28769253 47.2313107,5.58437741 C47.0072045,5.93202121 46.8990874,6.33352357 46.9206135,6.73817843 L46.9206135,9.81498114 C46.9374103,10.1226744 46.8465876,10.4271616 46.6616993,10.6830027 C46.4477857,10.8967243 46.1474226,11.0177557 45.8331736,11.0168572 C45.5313712,11.028596 45.2420535,10.9042434 45.0564308,10.6830027 C44.8713999,10.4272224 44.7805638,10.1226904 44.7975165,9.81498114 L44.7975165,4.0940511 C44.7804595,3.78633124 44.8713046,3.48176918 45.0564308,3.22602951 C45.2494082,3.01832397 45.5391383,2.91073013 45.8331736,2.93757925 C46.0860483,2.91322602 46.3362277,3.00255904 46.5063507,3.17795447 C46.6835145,3.36258226 46.7763672,3.60395384 46.765265,3.85100506 L46.765265,3.85100506 L46.7681418,4.52672648 Z M39.5185422,2.8441 L39.5185422,4.57480153 L39.5185422,4.57480153 C39.0017123,4.56948173 38.5160992,4.80391939 38.2239709,5.19977708 C37.8746166,5.71609894 37.711386,6.32227016 37.7579252,6.9304786 C37.7194065,7.55322803 37.8816598,8.1725071 38.2239709,8.70925516 C38.5160992,9.10511285 39.0017123,9.33955051 39.5185422,9.33423071 L39.5185422,11.0649322 C39.2524004,11.0065524 38.9924423,10.9261043 38.7417994,10.824557 C38.3522846,10.5831656 38.017934,10.2727555 37.7579252,9.91113122 L37.7579252,12.8437088 C37.7985253,13.1675856 37.7060686,13.4937643 37.4990109,13.7571346 C37.2846518,13.9296788 37.0052664,14.016139 36.7222681,13.9975098 C36.4315561,14.0050769 36.1504197,13.9006744 35.9455253,13.7090596 C35.7604944,13.4532792 35.6696583,13.1487472 35.686611,12.841038 L35.686611,4.0940511 C35.6695018,3.78632592 35.7603514,3.48174881 35.9455253,3.22602951 C36.1655209,3.02569779 36.4664165,2.92094132 36.774051,2.93757925 C37.0175151,2.91166791 37.2615665,2.98138378 37.4472281,3.12987942 C37.6167617,3.33720214 37.7077817,3.59071018 37.7061423,3.85100506 L37.7579252,4.13945531 C37.9509914,3.72205197 38.277326,3.36967686 38.6928934,3.12987942 C38.9461193,2.98440211 39.2275985,2.88640546 39.521419,2.84142917 L39.5185422,2.8441 Z M17.4590463,11.1130073 L17.4590463,9.38230576 L17.6143949,9.38230576 C17.8438639,9.40136128 18.0748837,9.36836465 18.287572,9.28615567 C18.5018313,9.23907682 18.6985481,9.13945974 18.8571834,8.99770542 C18.8571834,8.94963037 18.9089663,8.90155533 19.012532,8.85348029 C19.2607718,8.60450329 19.5884756,8.43600154 19.9475002,8.37272987 C20.1638414,8.38093722 20.3681993,8.46717595 20.5171116,8.61310508 C20.6845314,8.76458727 20.7780561,8.97297467 20.7760258,9.19000559 C20.7658823,9.35939985 20.7126449,9.52415133 20.6206773,9.67075601 C20.5241512,9.84501726 20.4032361,10.0066676 20.2610741,10.1515064 C19.900129,10.4632534 19.4782868,10.7080265 19.0182856,10.8726321 C18.5178761,11.0302617 17.9932263,11.1114422 17.4648,11.1130073 L17.4590463,11.1130073 Z M17.4590463,7.50737911 L17.4590463,6.16127792 L19.012532,6.16127792 C19.0443206,5.72629573 18.8961582,5.2964411 18.5982691,4.95940187 C18.3131326,4.65663703 17.8909965,4.49631029 17.4590463,4.52672648 L17.4590463,2.79602496 C18.4875092,2.75148358 19.4870441,3.11916787 20.2035376,3.80560085 C20.9020925,4.60354423 21.2531395,5.61558337 21.1874118,6.64202835 C21.2174677,6.87616515 21.1628185,7.11293424 21.0320633,7.31507894 C20.7555951,7.48178449 20.4235332,7.55008152 20.0970951,7.50737911 L17.4590463,7.50737911 L17.4590463,7.50737911 Z M29.0066228,3.94715514 C29.2666148,3.5979353 29.6015875,3.30240617 29.9904971,3.07913354 C30.3887248,2.88270111 30.8341897,2.78344474 31.2850684,2.79068329 C31.9803714,2.7699288 32.6543431,3.01519292 33.1492512,3.46907555 C33.6385751,3.98591517 33.8977618,4.6562365 33.8742111,5.3440022 L33.8742111,9.81765197 C33.8971263,10.1401595 33.8062345,10.4608177 33.6152968,10.7310778 C33.410354,10.9226247 33.1292506,11.0270149 32.838554,11.019528 C32.5367516,11.0312668 32.247434,10.9069142 32.0618112,10.6856736 C31.8363743,10.447084 31.7243297,10.1340552 31.7511141,9.81765197 L31.7511141,5.77667758 C31.7781477,5.46024617 31.6660717,5.14712965 31.440417,4.90865599 C31.2265034,4.6949344 30.9261403,4.57390305 30.6118913,4.57480153 C30.2260696,4.55454996 29.8555507,4.71749193 29.6280171,5.00747691 C29.3646413,5.30323703 29.2356619,5.6825861 29.2684139,6.06512784 L29.2684139,9.81498114 C29.2852107,10.1226744 29.194388,10.4271616 29.0094996,10.6830027 C28.8096274,10.8869225 28.5295528,11.0073023 28.2327568,11.0168572 C27.938704,11.0438212 27.6489187,10.936207 27.456014,10.7284069 C27.2648822,10.4582271 27.1739729,10.1375075 27.1970998,9.81498114 L27.1970998,5.77667758 C27.2241334,5.46024617 27.1120574,5.14712965 26.8864026,4.90865599 C26.6663577,4.70839613 26.3654976,4.60365204 26.057877,4.62020573 C25.6821097,4.59249109 25.3152447,4.73590008 25.0740027,5.00480607 C24.8106269,5.30056619 24.6816476,5.67991527 24.7143996,6.062457 L24.7143996,9.8123103 C24.7314044,10.1200248 24.6405639,10.4245719 24.4554853,10.6803319 C24.2625702,10.8928801 23.9781239,11.0151389 23.6787425,11.0141864 C23.3769401,11.0259252 23.0876224,10.9015726 22.9019997,10.6803319 C22.6940023,10.4348413 22.6007365,10.1221635 22.6430854,9.8123103 L22.6430854,4.0940511 C22.6006545,3.7841924 22.6939289,3.47148559 22.9019997,3.22602951 C23.0799381,3.0276248 23.3494903,2.92037419 23.6269596,2.93757925 C23.8951718,2.91302803 24.1611413,3.00121561 24.3519196,3.17795447 C24.5376317,3.37703866 24.6307404,3.63636401 24.6108339,3.8990801 C24.8861485,3.57652122 25.2189134,3.30010306 25.5947081,3.08180438 C25.9736987,2.88684897 26.4014219,2.78826576 26.8346198,2.79602496 C27.2697861,2.78238671 27.700351,2.88232048 28.0774083,3.08447522 C28.4819789,3.26794681 28.8090009,3.57155306 29.0066228,3.94715514 L29.0066228,3.94715514 Z M7.98278402,2.45949967 C7.99388624,2.70655089 7.90103357,2.94792247 7.72386975,3.13255026 C7.5394543,3.32272567 7.2744273,3.42817578 6.99890979,3.42100051 C6.63595034,3.42100051 6.27347037,3.1806253 5.91146986,2.69987488 C5.80790415,2.60372479 5.75612129,2.50757471 5.70433844,2.45949967 C5.49970025,2.24340309 5.25394918,2.0641388 4.97937848,1.9306742 C4.64540707,1.82865535 4.29523552,1.77989062 3.9437214,1.78644907 C3.466981,1.75113417 2.99164974,1.86900171 2.59736719,2.12030353 C2.28297411,2.35146622 2.10917066,2.71004085 2.1313215,3.08180438 C2.1313215,3.61062985 2.75271575,4.04330523 3.99550425,4.33175548 C4.22248084,4.37099166 4.44716298,4.42091164 4.66868136,4.48132228 C5.23084729,4.60766989 5.78343564,4.76826787 6.32285587,4.9620727 C6.65143827,5.05137858 6.96582925,5.1807037 7.25782407,5.34667304 C7.67313137,5.57898851 8.01307801,5.91120474 8.2416983,6.30817388 C8.46396265,6.76016172 8.57031343,7.2538404 8.55239542,7.75042515 C8.60604311,8.70055677 8.18719462,9.62101729 7.41604945,10.2476565 C6.55964955,10.9031319 5.4652817,11.2290572 4.35798423,11.1584115 C3.74454459,11.1596041 3.13412671,11.0786455 2.54558434,10.9180363 C2.02248249,10.7541118 1.53246359,10.5103983 1.09566442,10.1969106 C0.77283666,9.9843232 0.507058713,9.70558999 0.318921605,9.38230576 C0.160868227,9.09937159 0.07243643,8.78739232 0.0600073342,8.46887995 C0.0501354397,8.19267448 0.141406728,7.92151934 0.318921605,7.69967928 C0.503337058,7.50950386 0.768364059,7.40405375 1.04388156,7.41122902 C1.40636154,7.41122902 1.76884152,7.65160423 2.1313215,8.13235466 C2.21002955,8.29069819 2.31485477,8.43667732 2.44201863,8.56503004 C2.62251578,8.83392147 2.89657443,9.03746964 3.21876144,9.14193054 C3.56019629,9.28368411 3.93254465,9.34952927 4.30620138,9.33423071 C4.84962954,9.38670287 5.39637018,9.26920465 5.859687,9.00037625 C6.20869208,8.76959834 6.40451829,8.38780899 6.37751554,7.99080036 C6.37751554,7.36582482 5.49720702,6.83699935 3.68480713,6.40432397 L3.53233539,6.40432397 C2.50851696,6.22169529 1.54845772,5.80904897 0.736061264,5.20244791 C0.211261901,4.64637189 -0.0509783348,3.91790742 0.00822448003,3.1806253 C-0.0389016601,2.29647009 0.363732238,1.44304969 1.09566442,0.875694107 C1.92905417,0.255682932 2.98138254,-0.0537887866 4.04728711,0.00767251 C4.59296439,0.00541008495 5.13531574,0.0866225564 5.65255559,0.248047721 C6.13146151,0.330612086 6.57818928,0.529687617 6.94712694,0.824948229 C7.25705168,1.03244199 7.52081194,1.29364116 7.72386975,1.59414891 C7.88154471,1.86092134 7.97018722,2.15809927 7.98278402,2.4621705 L7.98278402,2.45949967 Z M17.4590463,2.79335413 L17.4590463,4.52672648 L17.4590463,4.52672648 C17.0438358,4.50621304 16.6419583,4.66611382 16.3716064,4.95940187 C16.0773905,5.30116598 15.9134953,5.72383202 15.9055607,6.16127792 L17.4590463,6.16127792 L17.4590463,7.50737911 L15.9026839,7.50737911 C15.8959643,8.01378742 16.079015,8.50662414 16.4205124,8.90155533 C16.6705529,9.19794923 17.0507425,9.37443264 17.4561695,9.38230576 L17.4561695,11.1130073 L17.4561695,11.1130073 C16.4216686,11.1559876 15.425169,10.7467878 14.7634611,10.0072813 C14.039192,9.1266923 13.6724824,8.0372456 13.727804,6.9304786 C13.6725649,5.84609743 14.01987,4.77696429 14.7116782,3.90175093 C15.3655819,3.15271446 16.3675413,2.74127279 17.4043867,2.79602496 L17.4590463,2.79335413 Z M12.2289781,9.81498114 C12.271327,10.1248344 12.1780611,10.4375122 11.9700638,10.6830027 C11.777523,10.8963416 11.4931154,11.0195812 11.193321,11.0195812 C10.8935266,11.0195812 10.609119,10.8963416 10.4165782,10.6830027 C10.2085808,10.4375122 10.115315,10.1248344 10.1576639,9.81498114 L10.1576639,4.0940511 C10.1152329,3.7841924 10.2085074,3.47148559 10.4165782,3.22602951 C10.6095555,3.01832397 10.8992857,2.91073013 11.193321,2.93757925 C11.4873739,2.9106152 11.7771591,3.01822948 11.9700638,3.22602951 C12.1781345,3.47148559 12.271409,3.7841924 12.2289781,4.0940511 L12.2289781,9.81498114 L12.2289781,9.81498114 Z M10.0540982,1.25762361 C10.0638251,0.968010329 10.1924798,0.692814438 10.4137013,0.488422933 C10.6061034,0.274870194 10.8905622,0.151472044 11.1904442,0.151472044 C11.4903261,0.151472044 11.7747849,0.274870194 11.967187,0.488422933 C12.1884085,0.692814438 12.3170632,0.968010329 12.3267901,1.25762361 C12.3170632,1.54723689 12.1884085,1.82243278 11.967187,2.02682429 C11.7746461,2.24016312 11.4902385,2.36340271 11.1904442,2.36340271 C10.8906498,2.36340271 10.6062422,2.24016312 10.4137013,2.02682429 C10.200998,1.81713137 10.0738138,1.54508098 10.0540982,1.25762361 Z" id="Shape"></path>
                    <path d="M112,12 L112,8 L112.437934,8 L112.9375,10.8656716 C112.969184,11.1044776 113,11.2802653 113.031684,11.4626866 C113.062934,11.2835821 113.094184,11.0480929 113.125434,10.8059701 L113.625,8 L114,8 L114,12 L113.750434,12 L113.750434,8.65671642 L113.125,12 L112.875,12 L112.281684,8.60033167 L112.281684,12 L112,12 Z" id="Path"></path>
                    <path d="M117.882603,8.00016662 L117.984441,8.00016662 C118.145549,7.99706447 118.305978,8.03729636 118.46016,8.11946571 C118.565587,8.16968757 118.652317,8.30136106 118.695898,8.47736298 C118.760534,8.65585982 118.795783,8.86231846 118.797737,9.07385843 C118.810804,9.33519568 118.761641,9.59436038 118.661952,9.78965297 C118.530861,10.0425136 118.347297,10.191844 118.152758,10.2038859 C118.223928,10.2512447 118.292172,10.3112029 118.356436,10.3828346 C118.451368,10.5376474 118.531028,10.7190581 118.592174,10.9196805 L119,11.9966861 L118.62612,11.9966861 L118.321075,11.1615925 C118.248363,10.9749204 118.169656,10.7956812 118.085337,10.6247466 C118.048436,10.5144189 118.002707,10.4139774 117.949552,10.3264989 L117.881188,10.3264989 L117.881188,9.79296683 L117.949552,9.79296683 C118.055149,9.79576076 118.159642,9.75489516 118.254597,9.67366774 C118.330705,9.6505009 118.394759,9.56045761 118.424328,9.43506956 C118.472363,9.33564648 118.496537,9.20732027 118.491749,9.07717229 C118.493822,8.91959963 118.456624,8.76829608 118.38991,8.66293934 C118.292284,8.48906601 118.155366,8.40146819 118.016973,8.42434116 L117.880717,8.42434116 L117.882603,8.00016662 Z M117,11.9966861 L117,8.00016662 L117.882603,8.00016662 L117.882603,8.41439957 L117.269684,8.41439957 L117.269684,9.79296683 L117.882603,9.79296683 L117.882603,10.3298127 C117.849128,10.2701632 117.849128,10.2701632 117.815182,10.2701632 C117.764335,10.2159253 117.704258,10.194812 117.64545,10.2105136 L117.272041,10.2105136 L117.272041,12 L117,11.9966861 Z" id="Shape"></path>
                </g>
            </g>
        </g>
    </g>
</svg>