<?xml version="1.0" encoding="utf-8"?>
<!-- Generator: Adobe Illustrator 24.1.0, SVG Export Plug-In . SVG Version: 6.00 Build 0)  -->
<svg version="1.1" id="Capa_1" xmlns="http://www.w3.org/2000/svg" xmlns:xlink="http://www.w3.org/1999/xlink" x="0px" y="0px"
	 viewBox="0 0 300 225" style="enable-background:new 0 0 300 225;" xml:space="preserve">
<style type="text/css">
	.st0{fill:#D9CCBC;}
	.st1{fill:#EBE5DD;}
</style>
<g id="Page-1">
	<g id="tips-sabrohuevo" transform="translate(-415.000000, -4114.000000)">
		
			<g id="egg-_x28_2_x29_" transform="translate(473.500000, 4199.500000) scale(1, -1) rotate(-180.000000) translate(-473.500000, -4199.500000) translate(415.000000, 4114.000000)">
			<path id="Path" class="st0" d="M-105,96.7c0-57.5,27.4-85.5,62.5-89.9c3.3-0.4,6.6-0.6,10-0.6c39.7,0,71.3,27.6,71.3,90.5
				C39,159.6-1.5,219.5-33,218.9c-3.4-0.1-6.8-0.6-10.1-1.7C-75.4,207.2-105,153.7-105,96.7z"/>
			<path id="Path_1_" class="st1" d="M-105,97.1c0-58.1,27.1-86.4,61.7-90.9c34.5,4.4,60.5,32.7,60.5,90.9
				c0,57-32.2,111.6-61.2,121.8C-75.7,208.8-105,154.7-105,97.1z"/>
			<path id="Path_2_" d="M34.8,84.8c2.6,33.9-6.2,67.9-22.4,94.7c-9.1,15-26.5,35.9-44,35.6c-5.4-0.1-10.9-1.7-16.4-4.8
				c-1.5-0.8-3.4-0.3-4.3,1.2c-0.8,1.5-0.3,3.5,1.2,4.3c6,3.3,12.8,5.6,19.9,5.6c16,0,34.3-14.5,49-38.7
				c16.9-27.8,26-63.1,23.3-98.5c-0.1-1.7-1.5-2.9-3.1-2.9C36.1,81.4,34.6,83,34.8,84.8z"/>
			<path id="Path_3_" d="M-90.8,39.7c1.5,1,3.5,0.5,4.4-1c12-18.6,30.6-28.5,54-28.5c34.8,0,58.5,22.7,65.1,62.2
				c0.3,1.8,1.9,2.9,3.7,2.6c1.7-0.3,2.9-2,2.6-3.7C31.4,25.9,3.4,3.7-32.3,3.7c-25.2,0-46.3,11.2-59.3,31.5
				C-92.7,36.7-92.2,38.7-90.8,39.7z"/>
			<path id="Path_4_" d="M-65.5,209.2c1.3,1.2,3.2,1,4.3-0.3c1.1-1.3,1-3.3-0.3-4.5C-96.8,172.7-112.2,95.9-93,50.2
				c0.7-1.6,0-3.5-1.6-4.2s-3.4,0-4.1,1.7C-118.8,95.5-103.3,175.3-65.5,209.2z"/>
		</g>
	</g>
</g>
</svg>
