<?xml version="1.0" encoding="utf-8"?>
<!-- Generator: Adobe Illustrator 24.1.2, SVG Export Plug-In . SVG Version: 6.00 Build 0)  -->
<svg version="1.1" id="Capa_1" xmlns="http://www.w3.org/2000/svg" xmlns:xlink="http://www.w3.org/1999/xlink" x="0px" y="0px"
	 viewBox="0 0 300 225" style="enable-background:new 0 0 300 225;" xml:space="preserve">
<style type="text/css">
	.st0{fill:#AAE1F9;}
	.st1{fill:#C4F236;}
	.st2{fill:#57B7EB;}
	.st3{fill:#A1D51C;}
	.st4{fill:#F9E109;}
	.st5{fill:#FCBC04;}
	.st6{fill:#E59730;}
	.st7{fill:#F89C8D;}
	.st8{fill:#F8664F;}
	.st9{fill:#D0D8DA;}
	.st10{fill:#CC5144;}
	.st11{fill:#93999A;}
	.st12{fill:#4891D3;}
	.st13{fill:#323232;}
</style>
<desc>Created with Sketch.</desc>
<g id="Page-1">
	<g id="tips-sabropollo" transform="translate(-363.000000, -1936.000000)">
		<g id="Group-2" transform="translate(363.000000, 1936.000000)">
			<g id="canned-food">
				<g id="Color" transform="translate(3.000000, 3.000000)">
					<g id="Group">
						<g id="Path" transform="translate(91.582701, 0.000000)">
							<path class="st0" d="M149.6,134.7H47.5V79.7l0.4-3.2c1.8-12.9,1.7-26.1-0.4-38.9h102.1v0.7c0,3.9-0.4,7.7-1.1,11.5
								c-1.4,6.9-1.5,14.1-0.3,21.1l0.7,4.1c0.5,3.2,0.8,6.4,0.8,9.6V134.7z"/>
							<polygon class="st1" points="47.5,24.6 149.6,24.6 149.6,37.6 47.5,37.6 							"/>
							<path class="st0" d="M149.6,24.6H47.5L41.1,8.5l16.5,1.9c8.1,0.9,16.4,0.9,24.5-0.2l1.6-0.2c7.8-1,15.6-1.1,23.4-0.3l7.6,0.8
								c8.4,0.8,16.8,0.7,25.2-0.5l9.8-1.4V24.6z"/>
							<path class="st2" d="M69.8,44.1v-6.5H47.5c2.1,12.9,2.3,26,0.4,38.9l-0.4,3.2v55.1h102.1v-25.9h-16
								C98.4,108.8,69.8,79.8,69.8,44.1z"/>
							<polygon class="st3" points="47.5,24.6 69.8,24.6 69.8,37.6 47.5,37.6 							"/>
							<path class="st2" d="M69.8,11c-4.1,0-8.2-0.2-12.3-0.6L41.1,8.5l6.4,16.2h22.3V11z"/>
							<path class="st4" d="M69.8,53.8c5.3,0,9.6,4.3,9.6,9.7v48.6H60.3V63.5C60.3,58.1,64.6,53.8,69.8,53.8z"/>
							<path class="st5" d="M60.3,63.5v48.6h19.2v-34c-4.5-7.4-7.5-15.6-8.8-24.2c-0.3,0-0.5-0.1-0.8-0.1
								C64.6,53.8,60.3,58.1,60.3,63.5L60.3,63.5z"/>
							<g transform="translate(43.959696, 52.031488)">
								<path class="st4" d="M45,1.8c5.3,0,9.6,4.3,9.6,9.7v48.6H35.5V11.5C35.5,6.1,39.7,1.8,45,1.8z"/>
								<path class="st4" d="M64.2,1.8c5.3,0,9.6,4.3,9.6,9.7v48.6H54.6V11.5C54.6,6.1,58.9,1.8,64.2,1.8z"/>
								<path class="st4" d="M83.3,1.8c5.3,0,9.6,4.3,9.6,9.7v48.6H73.8V11.5C73.8,6.1,78,1.8,83.3,1.8z"/>
							</g>
							<path class="st5" d="M127.3,70V53.8c-5.3,0-9.6,4.3-9.6,9.7v48.6h19.2V79.7C131.6,79.7,127.3,75.3,127.3,70z"/>
							<path class="st5" d="M108.1,70V53.8c-5.3,0-9.6,4.3-9.6,9.7v48.6h19.2V79.7C112.4,79.7,108.1,75.3,108.1,70z"/>
							<path class="st5" d="M89,73.2V53.8c-5.3,0-9.6,4.3-9.6,9.7v48.6h19.2V82.9C93.3,82.9,89,78.6,89,73.2z"/>
							<path class="st6" d="M79.4,112.1h19.2V98.2C90.8,93,84.3,86.1,79.4,78.1V112.1z"/>
							<path class="st6" d="M69.8,76.5V53.8c-5.3,0-9.6,4.3-9.6,9.7v48.6h19.2V86.2C74.1,86.2,69.8,81.8,69.8,76.5z"/>
							<path class="st1" d="M149.6,134.7H47.5V86.2l5.7,1.9c14.9,5,31,4.3,45.4-1.9c14.4-6.3,30.5-6.9,45.4-1.9l5.7,1.9V134.7z"/>
							<path class="st3" d="M88.3,89.6c-11.6,2.8-23.8,2.3-35.1-1.5l-5.7-1.9v48.6h102.1v-25.9h-16
								C116.6,108.9,100.3,101.9,88.3,89.6z"/>
						</g>
						<g transform="translate(0.000000, 74.330697)">
							<path id="Path_1_" class="st7" d="M62.5,11.8h89.4V109c0,7.2-5.7,13-12.8,13H75.2c-7.1,0-12.8-5.8-12.8-13V11.8z"/>
							<path id="Path_2_" class="st8" d="M88,21.6h63.8v-9.7H62.5V109c0,7.2,5.7,13,12.8,13h63.8c7.1,0,12.8-5.8,12.8-13v-6.5h-9.6
								c-37,0-67-30.4-67-68C75.2,27.4,81,21.6,88,21.6z"/>
							<polygon id="Path_3_" class="st0" points="62.5,31.3 151.8,31.3 151.8,96 62.5,96 							"/>
							<ellipse id="Oval" class="st7" cx="107.2" cy="73.4" rx="9.6" ry="9.7"/>
							<path id="Rectangle" class="st9" d="M59.4-1.1h95.6c3.6,0,6.5,2.9,6.5,6.5l0,0c0,3.6-2.9,6.5-6.5,6.5H59.4
								c-3.6,0-6.5-2.9-6.5-6.5l0,0C52.9,1.8,55.8-1.1,59.4-1.1z"/>
							<path id="Path_4_" class="st8" d="M113.5,73.4c-5.1,0-9.2-4-9.5-9.1c-4.6,1.6-7.3,6.5-6.2,11.3c1.1,4.8,5.6,8,10.4,7.5
								s8.5-4.7,8.5-9.7c0-0.2,0-0.4-0.1-0.6C115.7,73.2,114.6,73.4,113.5,73.4z"/>
							<ellipse id="Oval_1_" class="st7" cx="94.4" cy="73.4" rx="9.6" ry="9.7"/>
							<path id="Path_5_" class="st8" d="M97.6,76.6c-5.3,0-9.6-4.3-9.6-9.7c0-0.3,0.1-0.5,0.1-0.8c-3.2,2.9-4.2,7.6-2.3,11.5
								c1.9,3.9,6.1,6.1,10.4,5.3c4.2-0.8,7.4-4.4,7.7-8.8C102.2,75.7,99.9,76.6,97.6,76.6L97.6,76.6z"/>
							<path id="Path_6_" class="st2" d="M75.2,34.5c0-1.1,0.2-2.2,0.5-3.2H62.5V96h51.4C90.3,84.9,75.3,60.9,75.2,34.5L75.2,34.5z"
								/>
							<path id="Path_7_" class="st10" d="M94.4,83.1c0.3,0,0.7,0,1-0.1c-3.8-3.8-7.2-8-10-12.7c-0.3,1-0.5,2-0.5,3
								C84.8,78.7,89.1,83.1,94.4,83.1L94.4,83.1z"/>
							<path id="Path_8_" class="st11" d="M65.7-1.1h-6.4c-3.5,0-6.4,2.9-6.4,6.5s2.9,6.5,6.4,6.5H155c3.5,0,6.4-2.9,6.4-6.5H72
								C68.5,5.4,65.7,2.5,65.7-1.1z"/>
						</g>
						<g transform="translate(76.929469, 126.362185)">
							<path id="Rectangle_1_" class="st9" d="M70.9-7.8h65.5c15.4,0,27.9,12.5,27.9,27.9v22c0,15.4-12.5,27.9-27.9,27.9H70.9
								C55.5,69.9,43,57.4,43,42v-22C43,4.7,55.5-7.8,70.9-7.8z"/>
							<path id="Path_9_" class="st11" d="M106.8,50.5c-24.7,0-44.7-20.3-44.7-45.3v-13h-6.4C48.7-7.8,43-2,43,5.1V57
								c0,7.2,5.7,13,12.8,13h95.8c7.1,0,12.8-5.8,12.8-13v-6.5H106.8z"/>
							<g transform="translate(17.400713, 26.015744)">
								<ellipse id="Oval_2_" class="st4" cx="70.3" cy="5" rx="29.4" ry="16.2"/>
								<path id="Path_10_" class="st4" d="M124.5,5c0-5.5,1-11,3-16.2C115.7-11.1,104.8-5,98.3,5c6.4,10,17.4,16.1,29.2,16.2
									C125.6,16.1,124.6,10.6,124.5,5z"/>
								<path id="Path_11_" class="st5" d="M76.7,11.5C65.4,11.5,54.9,6,48.3-3.2c-2.9,2.3-5.4,5.1-7.4,8.3
									c6.5,10.1,17.5,16.2,29.4,16.2S93.2,15.1,99.7,5c-0.3-0.5-0.7-1-1.1-1.5C92.4,8.7,84.7,11.5,76.7,11.5L76.7,11.5z"/>
								<path id="Path_12_" class="st6" d="M70.3,21.2c0.8,0,1.5-0.1,2.2-0.1C61.6,16.5,52.9,7.8,48.3-3.2c-2.9,2.3-5.4,5.1-7.4,8.2
									C47.3,15.1,58.4,21.2,70.3,21.2L70.3,21.2z"/>
								<path id="Path_13_" class="st5" d="M102.5-0.1c-1.5,1.6-2.9,3.3-4.1,5.2c6.4,10,17.4,16.1,29.2,16.2c-0.8-2.3-1.5-4.6-2-6.9
									C116.2,12.8,107.9,7.6,102.5-0.1z"/>
								<path id="Path_14_" class="st0" d="M40.9,5c6.5,10.1,17.5,16.2,29.4,16.2c0.2,0,0.4,0,0.6,0c3.4-10.5,3.4-21.8,0-32.3
									c-0.2,0-0.4,0-0.6,0C58.4-11.2,47.3-5.1,40.9,5L40.9,5z"/>
								<path id="Path_15_" class="st2" d="M48.3-3.2c-2.9,2.3-5.4,5.1-7.4,8.3c6.5,10.1,17.5,16.2,29.4,16.2c0.2,0,0.4,0,0.6,0
									c1-3.2,1.7-6.5,2.1-9.9C63.2,10.2,54.2,5,48.3-3.2L48.3-3.2z"/>
								<path id="Path_16_" class="st2" d="M70.3,21.2c0.2,0,0.4,0,0.6,0c0.4-1.2,0.7-2.4,1-3.6c-9.8-4.3-17.8-12-22.5-21.7
									C46-1.6,43.2,1.5,40.9,5C47.3,15.1,58.4,21.2,70.3,21.2L70.3,21.2z"/>
								<path id="Path_17_" class="st12" d="M70.3,21.2c0.2,0,0.4,0,0.6,0c0.1-0.2,0.1-0.5,0.2-0.7C60.9,15.8,52.7,7.3,48.3-3.2
									c-2.9,2.3-5.4,5.1-7.4,8.2C47.3,15.1,58.4,21.2,70.3,21.2L70.3,21.2z"/>
							</g>
						</g>
					</g>
				</g>
				<g id="Outlines_copy" transform="translate(0.000000, -0.000000)">
					<g id="Group_1_">
						<path id="Shape" class="st13" d="M226.9,142.5c-0.6-0.8-1.6-1.3-2.6-1.4c-10.9,0.1-21.2,4.9-28.3,13.2
							c-7.8-9.1-19.4-13.9-31.3-13.1c-11.9,0.9-22.7,7.3-29.1,17.4c-0.7,1.1-0.7,2.5,0,3.5c6.5,10.1,17.3,16.6,29.1,17.4
							s23.4-4,31.3-13.1c7.1,8.3,17.5,13.1,28.3,13.2h0c1,0,2-0.5,2.6-1.4c0.6-0.9,0.7-2,0.3-3c-3.7-9.6-3.7-20.2,0-29.8
							C227.6,144.5,227.5,143.4,226.9,142.5L226.9,142.5z M142.1,160.5c5.6-7.6,14.3-12.3,23.6-12.8c2.3,8.3,2.3,17.2,0,25.5
							C156.3,172.7,147.7,168,142.1,160.5L142.1,160.5z M172.3,172.9c1.9-8.2,1.9-16.7,0-24.9c8.1,1.3,15.4,5.8,20.4,12.4
							C187.8,167.1,180.5,171.6,172.3,172.9L172.3,172.9z M219.8,173c-8.2-1.3-15.6-5.8-20.6-12.5c5-6.7,12.4-11.2,20.6-12.5
							C217.6,156.1,217.6,164.8,219.8,173L219.8,173z"/>
						<ellipse id="Oval_3_" class="st13" cx="154.8" cy="157.2" rx="3.2" ry="3.2"/>
						<path id="Shape_1_" class="st13" d="M230.9,118.6h-95.1c-8.8,0-15.8,7.2-15.9,16.1v7.7c-1.8-2.1-4.3-3.6-7-4.2
							c-0.5-4.1,0.2-8.2,2-11.8l1.5-3.1c0.6-1.2,0.4-2.6-0.4-3.6s-2.2-1.4-3.4-0.9c-8.8,3-15.5,10.3-17.7,19.5
							c-6.2,1.5-10.4,7.5-9.6,14s6.1,11.4,12.5,11.4c2.2,0,4.4-0.6,6.3-1.8c5.2,3.2,11.9,2,15.9-2.7v27c0,8.9,7.1,16.1,15.9,16.1
							h95.1c8.8,0,15.8-7.2,15.9-16.1V154c0-1.8-1.4-3.2-3.2-3.2c-1.8,0-3.2,1.4-3.2,3.2v32.2c0,5.3-4.3,9.7-9.5,9.7h-95.1
							c-5.3,0-9.5-4.3-9.5-9.7v-51.5c0-5.3,4.3-9.7,9.5-9.7h95.1c5.3,0,9.5,4.3,9.5,9.7v6.4c0,1.8,1.4,3.2,3.2,3.2
							c1.8,0,3.2-1.4,3.2-3.2v-6.4C246.7,125.8,239.6,118.6,230.9,118.6L230.9,118.6z M107.1,129.3c-0.7,3-0.9,6.2-0.6,9.3
							c-0.9,0.3-1.7,0.7-2.5,1.1c-0.8-0.5-1.7-0.9-2.7-1.2C102.4,135,104.4,131.8,107.1,129.3L107.1,129.3z M91.3,150.8
							c0-3.4,2.7-6.3,6.1-6.4l0.3,0c3.5,0,6.3,2.9,6.3,6.5c0,3.5-2.9,6.4-6.4,6.4C94.2,157.2,91.3,154.3,91.3,150.8z M110.4,157.2
							c-0.6,0-1.1-0.1-1.6-0.2c2.2-3.8,2.2-8.5,0-12.4c0.5-0.2,1.1-0.2,1.6-0.2c3.5,0,6.3,2.9,6.3,6.4S113.9,157.2,110.4,157.2
							L110.4,157.2z"/>
						<path id="Shape_2_" class="st13" d="M113.5,195.8H78.7c-5.3,0-9.5-4.3-9.5-9.7v-9.7h41.2c1.8,0,3.2-1.4,3.2-3.2
							c0-1.8-1.4-3.2-3.2-3.2H69.1v-57.9h85.6c1.8,0,3.2-1.4,3.2-3.2V92.9c5.3,0,9.5-4.3,9.5-9.7c0-5.3-4.3-9.7-9.5-9.7H91.3
							c-1.8,0-3.2,1.4-3.2,3.2c0,1.8,1.4,3.2,3.2,3.2h66.6c1.8,0,3.2,1.4,3.2,3.2s-1.4,3.2-3.2,3.2H62.8c-1.8,0-3.2-1.4-3.2-3.2
							S61,80,62.8,80h15.9c1.8,0,3.2-1.4,3.2-3.2c0-1.8-1.4-3.2-3.2-3.2H62.8c-5.3,0-9.5,4.3-9.5,9.7c0,5.3,4.3,9.7,9.5,9.7v93.3
							c0,8.9,7.1,16.1,15.9,16.1h34.9c1.8,0,3.2-1.4,3.2-3.2C116.7,197.3,115.3,195.8,113.5,195.8z M151.6,92.9v12.9H69.1V92.9
							H151.6z"/>
						<path id="Shape_3_" class="st13" d="M245.6,10c-0.7-0.6-1.6-0.9-2.5-0.8l-9.7,1.4c-8,1.2-16.2,1.3-24.2,0.5l-7.6-0.8
							c-8-0.8-16-0.7-23.9,0.3l-1.6,0.2c-7.8,1-15.8,1-23.6,0.2l-16.4-1.8c-1.1-0.1-2.2,0.3-2.9,1.2s-0.8,2.1-0.4,3.1l6.1,15.5v12.2
							c0,0.1,0,0.2,0.1,0.3c0,0.1,0,0.2,0,0.3c1.2,7.6,1.8,15.3,1.6,23c0,0.9,0.3,1.7,0.9,2.3c0.6,0.6,1.4,1,2.2,1h0.1
							c1.7,0,3.1-1.4,3.2-3.1c0.1-6.8-0.3-13.7-1.2-20.5h94.5c-0.1,2.8-0.4,5.5-0.9,8.2c-1.4,7.3-1.6,14.8-0.4,22.1l0.7,4.1
							c0.3,2,0.5,4.1,0.6,6.1l-1.3-0.5c-1.6-0.5-3.2-1-4.9-1.4V67.2c0-5.4-3.3-10.2-8.2-12.1c-5-1.9-10.5-0.4-14,3.6
							c-0.2-0.2-0.3-0.5-0.5-0.7c-2.5-2.5-5.9-3.9-9.4-3.8c-3.5,0.1-6.8,1.7-9.1,4.4c-0.2-0.2-0.3-0.5-0.5-0.7
							c-2.5-2.5-5.9-3.9-9.4-3.8c-3.5,0.1-6.8,1.7-9.1,4.4c-0.2-0.2-0.3-0.5-0.5-0.7c-3.6-3.7-9.1-4.8-13.8-2.8
							c-4.7,2-7.8,6.7-7.8,11.9c0,1.8,1.4,3.2,3.2,3.2s3.2-1.4,3.2-3.2c0-3.6,2.8-6.4,6.3-6.4s6.3,2.9,6.3,6.4v27.4
							c0,1.8,1.4,3.2,3.2,3.2c0.1,0,0.2,0,0.2,0h0.3c6.8-0.7,13.4-2.4,19.7-5.1c13.6-5.9,28.8-6.6,42.9-1.8l3.5,1.2v20.2
							c0,1.8,1.4,3.2,3.2,3.2c1.8,0,3.2-1.4,3.2-3.2V88.1c0-3.4-0.3-6.8-0.8-10.1l-0.7-4.1c-1.1-6.6-1-13.3,0.3-19.8
							c0.8-4,1.2-8,1.2-12V12.5C246.7,11.5,246.3,10.6,245.6,10L245.6,10z M202.3,60.7c3.5,0,6.3,2.9,6.3,6.4v14.7
							c-4.3,0.6-8.6,1.7-12.7,3.1V67.2C196,63.6,198.8,60.7,202.3,60.7z M183.3,60.7c3.5,0,6.3,2.9,6.3,6.4v20.3
							c-4.1,1.6-8.3,2.8-12.7,3.4V67.2C177,63.6,179.8,60.7,183.3,60.7z M215,81.3V67.2c0-3.6,2.8-6.4,6.3-6.4
							c3.5,0,6.3,2.9,6.3,6.4V82C223.5,81.4,219.2,81.1,215,81.3L215,81.3z M145.2,31.8h95.1v6.4h-95.1V31.8z M151.7,17.5
							c8.3,0.9,16.8,0.9,25.1-0.2l1.6-0.2c7.5-0.9,15-1,22.5-0.3l7.6,0.8c8.6,0.9,17.2,0.7,25.8-0.6l6.1-0.9v9.2h-96.2l-3.6-9.1
							L151.7,17.5z"/>
						<path id="Path_18_" class="st13" d="M170.6,112.2h31.7c1.8,0,3.2-1.4,3.2-3.2c0-1.8-1.4-3.2-3.2-3.2h-31.7
							c-1.8,0-3.2,1.4-3.2,3.2C167.4,110.8,168.9,112.2,170.6,112.2z"/>
						<path id="Path_19_" class="st13" d="M230.9,112.2c1.8,0,3.2-1.4,3.2-3.2c0-1.8-1.4-3.2-3.2-3.2H215c-1.8,0-3.2,1.4-3.2,3.2
							c0,1.8,1.4,3.2,3.2,3.2H230.9z"/>
					</g>
				</g>
			</g>
			<polygon id="X" points="149.6,112.5 190.3,48.1 216.7,48.1 163,131.4 218,216.2 191.4,216.2 149.6,150.6 107.6,216.2 81.2,216.2 
				136.2,131.4 82.4,48.1 108.7,48.1 			"/>
		</g>
	</g>
</g>
</svg>
