<?xml version="1.0" encoding="utf-8"?>
<!-- Generator: Adobe Illustrator 24.1.2, SVG Export Plug-In . SVG Version: 6.00 Build 0)  -->
<svg version="1.1" id="Capa_1" xmlns="http://www.w3.org/2000/svg" xmlns:xlink="http://www.w3.org/1999/xlink" x="0px" y="0px"
	 viewBox="0 0 300 225" style="enable-background:new 0 0 300 225;" xml:space="preserve">
<style type="text/css">
	.st0{fill:#FFE0B2;}
	.st1{fill:#DFC49C;}
	.st2{fill:#02A9F4;}
	.st3{fill:#F5F5F5;}
	.st4{fill:#CFD8DC;}
</style>
<desc>Created with Sketch.</desc>
<g id="Page-1">
	<g id="tips-sabropollo" transform="translate(-1323.000000, -1210.000000)">
		<g id="hand-wash" transform="translate(1323.000000, 1210.000000)">
			<g id="Icons" transform="translate(6.000000, 5.000000)">
				<path id="Shape" class="st0" d="M205.9,145.2c0,6.3-5.2,11.5-11.5,11.5h-11.5c6.4,0,11.5,5.1,11.5,11.5
					c0,6.3-5.2,11.5-11.5,11.5h-15.3c6.4-0.5,11.9,4.2,12.4,10.6c0.5,6.3-4.2,11.9-10.6,12.4c-0.6,0.1-1.2,0.1-1.8,0H79.3
					c-16,0-30.8-8.2-39.2-21.8c-8.4-13.6-9.1-30.5-2-44.8l3.8-5.9l45.7-69.2c3.4-5.6,10-8.2,16.3-6.5c1,0.2,2,0.6,2.9,1
					c6.4,3.1,9.6,10.3,7.7,17.2l-11,38.1h79.5c6.4,0,11.5,5.1,11.5,11.5s-5.2,11.5-11.5,11.5h11.5
					C200.7,133.7,205.9,138.8,205.9,145.2L205.9,145.2z"/>
				<path id="Shape_1_" class="st0" d="M244.3,175c-3.1,0-6-1.2-8.1-3.4l8.1,8c3.3,3.3,4.3,8.2,2.5,12.5c-1.8,4.3-6,7.1-10.6,7.1
					c-3.1,0-6-1.2-8.1-3.4l-8.2-8.1c4.5,4.5,4.5,11.8,0,16.3c-4.5,4.5-11.8,4.5-16.3,0l-10.9-10.8c3.1,2.9,4.3,7.2,3.3,11.2
					c-1,4.1-4.2,7.2-8.3,8.3c-4.1,1-8.4-0.2-11.3-3.3l-7.1-6.8c6.4-0.5,11.1-6.1,10.6-12.4c-0.5-6.3-6.1-11.1-12.4-10.6h15.3
					c6.4,0,11.5-5.1,11.5-11.5c0-6.3-5.2-11.5-11.5-11.5h11.5c6.4,0,11.5-5.1,11.5-11.5s-5.2-11.5-11.5-11.5h-11.5
					c6.4,0,11.5-5.1,11.5-11.5s-5.2-11.5-11.5-11.5h-4.2c0.3-1.3,0.4-2.5,0.4-3.8c0-9.6-7.1-17.7-16.7-19c5.8-6.3,9-14.6,9-23.2
					l48.9-11.9c7.3-2.1,15,1.7,17.8,8.8c2.8,7.1-0.4,15.1-7.2,18.5l-34.5,19.1l56.1,56.1c3.3,3.3,4.3,8.2,2.5,12.5
					S248.9,175,244.3,175L244.3,175z"/>
				<path id="Shape_2_" class="st1" d="M252.4,155.4l-56.2-56.1l34.5-19.1c6.4-3.6,9.3-11.3,6.6-18.2c-2.7-6.8-10-10.6-17.2-8.9
					l-2.6,0.7c5.3,2,9,7,9.3,12.6s-2.6,11-7.6,13.8l-34.5,19.1l56.2,56.1c4.5,4.5,4.5,11.8,0,16.2c-0.7,0.7-1.5,1.3-2.4,1.8
					c4.5,2.6,10.2,1.9,13.9-1.8C256.9,167.1,256.9,159.8,252.4,155.4L252.4,155.4z"/>
				<path id="Shape_3_" class="st2" d="M179,106.9c0,1.3-0.1,2.6-0.4,3.8h-75.2l10.9-38.1c1.9-6.8-1.3-14-7.7-17.2
					c-0.9-0.5-1.9-0.8-2.9-1C108.7,38,125,27.7,142,30.3s29.5,17.3,29.3,34.5c-0.1,8.5-3.2,16.7-9,23C172,89,179.1,97.2,179,106.9z"
					/>
				<ellipse id="Oval" class="st2" cx="192.5" cy="28.4" rx="9.6" ry="9.6"/>
				<ellipse id="Oval_1_" class="st3" cx="240.4" cy="18.8" rx="15.3" ry="15.3"/>
				<path id="Shape_4_" class="st4" d="M240.4,3.5c-2,0-3.9,0.4-5.8,1.1c5.8,2.4,9.5,8,9.5,14.2s-3.8,11.8-9.5,14.2
					c1.8,0.8,3.8,1.1,5.8,1.1c8.5,0,15.3-6.9,15.3-15.3S248.9,3.5,240.4,3.5z"/>
				<g id="Group" transform="translate(85.992876, 38.290598)">
					<ellipse id="Oval_2_" class="st3" cx="154.4" cy="68.6" rx="7.7" ry="7.7"/>
					<path id="Shape_5_" class="st3" d="M37.3,16.8c-1.6,0-3-0.9-3.6-2.4s-0.3-3.1,0.8-4.2C41.3,3.6,51.4,1.6,60,5.4
						c1.9,0.8,2.8,3.1,2,5.1s-3.1,2.8-5.1,2c-5.8-2.5-12.5-1.2-17,3.2C39.3,16.4,38.3,16.8,37.3,16.8z"/>
				</g>
			</g>
			<g id="Icons_copy" transform="translate(0.000000, -0.000000)">
				<path id="Shape_6_" d="M208.9,104.4l30.7-16.8c1.6-0.8,3-1.9,4.2-3.1c5.8-5.9,6.9-14.9,2.8-22.1c-4.1-7.2-12.5-10.8-20.7-8.9
					l-45.1,10.7c-2.2-17.3-15.9-31-33.4-33.4c-17.5-2.3-34.4,7.3-41.2,23.4C99.3,53.8,92.7,57.2,89,63l-46.5,69.3l-3.9,6
					c-0.1,0.1-0.2,0.3-0.2,0.4c-3.5,7-5.3,14.7-5.2,22.4c0,27.6,22.7,50,50.6,50h89.9l5.9,5.8c2.9,2.9,6.9,4.5,11,4.5
					c7.1,0,13.3-4.7,15.1-11.5l1.5,1.5c6.2,5.7,15.8,5.7,22,0c1.9-2,3.2-4.4,3.9-7c6.3,4.7,15.1,4.2,20.7-1.2
					c5.6-5.5,6.1-14.3,1.2-20.4c2.7-0.6,5.1-2,7.1-3.8c2.9-2.9,4.6-6.8,4.6-10.9s-1.6-8-4.6-10.9L208.9,104.4z M142.2,38.1
					c12.3,0,23.5,7.2,28.5,18.3s2.9,24.1-5.4,33.1c-1,1-1.2,2.5-0.8,3.8c0.5,1.3,1.7,2.3,3.2,2.5c7.7,1,13.5,7.5,13.5,15.3h-67.6
					l9.6-33.3c0.5-1.7,0.7-3.4,0.7-5.2c0-6.9-3.8-13.2-10-16.4C118.9,45.2,130,38.1,142.2,38.1L142.2,38.1z M41,161.1
					c0-6.5,1.5-13,4.4-18.9l3.7-6l46.4-69.1c2.4-4.1,7.3-6.1,11.9-4.9c0.8,0.2,1.5,0.5,2.2,0.8c3.8,1.7,6.3,5.5,6.4,9.6
					c0,1-0.2,2-0.4,3l-11.1,38.2c-0.3,1.1-0.1,2.4,0.6,3.3c0.7,1,1.9,1.5,3.1,1.5h80.6c4.3,0,7.8,3.4,7.8,7.7c0,4.2-3.5,7.7-7.8,7.7
					h-58.4c-2.1,0-3.9,1.7-3.9,3.8c0,2.1,1.7,3.8,3.9,3.8h70.1c4.3,0,7.8,3.4,7.8,7.7c0,4.2-3.5,7.7-7.8,7.7h-74
					c-2.1,0-3.9,1.7-3.9,3.8c0,2.1,1.7,3.8,3.9,3.8h62.3c4.3,0,7.8,3.4,7.8,7.7c0,4.2-3.5,7.7-7.8,7.7h-66.2c-2.1,0-3.9,1.7-3.9,3.8
					c0,2.1,1.7,3.8,3.9,3.8h50.6c4.3,0,7.8,3.4,7.8,7.7c0,4.2-3.5,7.7-7.8,7.7H83.8C60.2,203.3,41,184.4,41,161.1z M196.1,211.4
					c-3,3-7.9,3-11,0l-3.1-3c0.8-0.5,1.6-1.2,2.3-1.8c2.9-2.9,4.6-6.8,4.6-10.9c0-0.8-0.1-1.6-0.2-2.5l7.4,7.3
					C199.2,203.6,199.2,208.4,196.1,211.4L196.1,211.4z M223.7,206c-3.1,2.9-7.9,2.9-11,0l-10.9-10.8l-7.8-7.9
					c2.4-0.8,4.5-2.1,6.3-3.8c2.1-2.1,3.6-4.8,4.2-7.7l19.5,19.2c1.5,1.5,2.3,3.5,2.2,5.6C226.1,202.6,225.2,204.6,223.7,206
					L223.7,206z M248.5,197.8c-1.5,1.4-3.4,2.3-5.5,2.3s-4-0.8-5.5-2.3l-8.3-8.1l-25.4-25.1c2.9-0.6,5.7-2,7.8-4.1
					c1.8-1.7,3.1-3.8,3.9-6.2l24.8,24.5l8.1,8c1.5,1.4,2.4,3.4,2.4,5.5C250.8,194.3,250,196.3,248.5,197.8z M256.7,173.3
					c-3,2.9-7.8,2.9-10.9,0l-31.5-31c-2.4-4.5-6.9-7.6-12-8.1c2.8-4.7,2.8-10.6,0-15.4c-2.8-4.8-7.9-7.7-13.4-7.7
					c0-9.2-5.6-17.6-14.2-21.2c3.5-5.4,5.6-11.5,6.1-17.9l46.7-11.3c4.8-1.1,9.8,1,12.2,5.2c2.4,4.2,1.7,9.5-1.7,13
					c-0.8,0.7-1.6,1.3-2.5,1.8l-35,19.2c-1.1,0.6-1.8,1.6-1.9,2.8c-0.2,1.2,0.2,2.4,1.1,3.3l57,56.4
					C259.7,165.5,259.7,170.3,256.7,173.3L256.7,173.3z"/>
				<path id="Shape_7_" d="M185,32.3c0,7.4,6.1,13.5,13.6,13.5c7.5,0,13.6-6,13.6-13.5s-6.1-13.5-13.6-13.5
					C191.1,18.9,185,24.9,185,32.3z M204.5,32.3c0,3.2-2.6,5.8-5.8,5.8c-3.2,0-5.8-2.6-5.8-5.8s2.6-5.8,5.8-5.8
					C201.9,26.6,204.5,29.1,204.5,32.3z"/>
				<path id="Shape_8_" d="M247.3,3.5c-10.7,0-19.5,8.6-19.5,19.2s8.7,19.2,19.5,19.2c10.7,0,19.5-8.6,19.5-19.2
					c0-5.1-2.1-10-5.7-13.6S252.5,3.5,247.3,3.5z M247.3,34.2c-6.4,0-11.7-5.2-11.7-11.5s5.2-11.5,11.7-11.5
					c6.4,0,11.7,5.2,11.7,11.5c0,3.1-1.2,6-3.4,8.2S250.4,34.2,247.3,34.2z"/>
				<path id="Shape_9_" d="M235.6,111.1c0,6.4,5.2,11.5,11.7,11.5c6.4,0,11.7-5.2,11.7-11.5c0-6.4-5.2-11.5-11.7-11.5
					C240.9,99.6,235.6,104.8,235.6,111.1z M247.3,107.3c2.1,0,3.9,1.7,3.9,3.8c0,2.1-1.7,3.8-3.9,3.8c-2.1,0-3.9-1.7-3.9-3.8
					C243.4,109,245.2,107.3,247.3,107.3z"/>
			</g>
		</g>
	</g>
</g>
</svg>
