<?xml version="1.0" encoding="utf-8"?>
<!-- Generator: Adobe Illustrator 24.1.2, SVG Export Plug-In . SVG Version: 6.00 Build 0)  -->
<svg version="1.1" id="Capa_1" xmlns="http://www.w3.org/2000/svg" xmlns:xlink="http://www.w3.org/1999/xlink" x="0px" y="0px"
	 viewBox="0 0 300 225" style="enable-background:new 0 0 300 225;" xml:space="preserve">
<style type="text/css">
	.st0{fill:#57545C;stroke:#000000;stroke-width:3;}
	.st1{fill:#FFFFFF;stroke:#000000;stroke-width:8;}
	.st2{fill:#DEFAF7;}
	.st3{fill:#CAC7CD;}
	.st4{fill:#8D8A94;}
</style>
<desc>Created with Sketch.</desc>
<g id="Page-1">
	<g id="tips-sabropollo" transform="translate(-1368.000000, -3036.000000)">
		<g id="refrigerator-copy" transform="translate(1372.000000, 3040.000000)">
			<g id="Group">
				<g id="Path" transform="translate(15.954545, 212.390409)">
					<polygon class="st0" points="82.8,-10.7 97.8,-10.7 97.8,2.6 82.8,2.6 					"/>
					<polygon class="st0" points="162.2,-10.7 177.2,-10.7 177.2,2.6 162.2,2.6 					"/>
				</g>
				<path id="Path_1_" class="st1" d="M195.3,201.2H96.6c-7.1,0-13-5.8-13-13V16.7c0-7.1,5.8-13,13-13h98.7c7.1,0,13,5.8,13,13
					v171.5C208.3,195.3,202.4,201.2,195.3,201.2z"/>
				<path id="Path_2_" class="st2" d="M209.4,16.7v171.5c0,7.1-5.9,13-13.1,13h-49.8V3.7h49.8C203.5,3.7,209.4,9.6,209.4,16.7z"/>
				<polygon id="Path_3_" class="st3" points="83.6,74.5 208.3,74.5 208.3,89.3 83.6,89.3 				"/>
				<g id="Path_4_" transform="translate(67.500000, 35.521083)">
					<polygon class="st4" points="79,39 141.7,39 141.7,53.8 79,53.8 					"/>
					<polygon class="st4" points="116,1.4 131,1.4 131,27.2 116,27.2 					"/>
					<polygon class="st4" points="116,66.8 131,66.8 131,92.6 116,92.6 					"/>
				</g>
			</g>
		</g>
	</g>
</g>
</svg>
