<?xml version="1.0" encoding="UTF-8"?>
<svg width="75px" height="25px" viewBox="0 0 75 25" version="1.1" xmlns="http://www.w3.org/2000/svg" xmlns:xlink="http://www.w3.org/1999/xlink">
    <!-- Generator: sketchtool 53 (72520) - https://sketchapp.com -->
    <title>3C4CA72D-0726-4E31-85A5-757F2E8BCFCE</title>
    <desc>Created with sketchtool.</desc>
    <g id="Page-1" stroke="none" stroke-width="1" fill="none" fill-rule="evenodd">
        <g id="index-sabropollo" transform="translate(-774.000000, -1551.000000)" fill="#FFFFFF" fill-rule="nonzero">
            <g id="footer" transform="translate(0.000000, 1525.000000)">
                <g id="calidad-sabro-separado-blanco" transform="translate(774.000000, 26.000000)">
                    <path d="M7,1.18756429 C6.99488686,1.30597634 6.94809871,1.4167938 6.87053477,1.49420192 C6.77207806,1.5501182 6.66427776,1.58051674 6.55463961,1.58328101 C6.39462472,1.58443655 6.24177521,1.50654631 6.13443247,1.36914858 C5.98334733,1.19190111 5.77155839,1.1024639 5.55738744,1.12546588 C4.48319594,1.12546588 3.43514409,1.85508644 2.41323187,3.31432756 C1.41782921,4.67963593 0.947315578,5.98584374 0.947315578,7.16871128 C0.897145197,7.75535917 1.14284148,8.32311882 1.578736,8.62780964 C1.88176876,8.84994597 2.2370939,8.9571348 2.595223,8.93444728 C3.2398462,8.9204623 3.87130028,8.72072701 4.43251955,8.35329187 C4.98330163,7.92973793 5.50856056,7.50875357 6.05786303,7.07920392 C6.18373104,7.07822219 6.30532389,7.13202667 6.39854153,7.22995315 C6.49382011,7.35587737 6.54233764,7.5202405 6.53355527,7.68734002 C6.53355527,8.05179341 6.05786303,8.53658923 5.11350666,9.11132067 C4.33126397,9.64037732 3.45048758,9.94356956 2.54565631,9.99525933 C1.93705082,10.0343379 1.33524335,9.83090134 0.840414289,9.41881483 C0.263739167,8.93187769 0,8.16913798 0,7.13701968 C0,5.59141181 0.578154724,4.0402365 1.75628831,2.46336529 C2.9913866,0.821826097 4.22130628,0.00341195596 5.50708096,0.00341195596 C5.91107155,-0.0241235191 6.31034073,0.115695245 6.63342845,0.397843889 C6.85745121,0.578289462 6.99363969,0.871686 7,1.18756429 Z" id="Path"></path>
                    <path d="M13,5.50992927 C12.743742,6.24249291 12.5488219,6.9986847 12.4176097,7.76931067 C12.2332896,8.6415689 12.141598,9.53391412 12.1443309,10.4288691 C12.1564746,10.5751081 12.1124091,10.7202916 12.0225858,10.8299843 C11.9242866,10.9368524 11.7907849,10.9966381 11.6517383,10.9960601 C11.4986569,10.9995955 11.3524985,10.9268358 11.2549876,10.7985519 C11.132804,10.665157 11.0660581,10.4833203 11.0702114,10.295164 C10.9072408,10.5190149 10.6847319,10.682833 10.4329926,10.7643046 C10.0957642,10.9303837 9.72809609,11.010612 9.3580097,10.9988749 C8.7901525,10.9881706 8.24586484,10.7503149 7.82928903,10.3308187 C7.28814182,9.85301922 6.98201524,9.12910448 7.00081826,8.37168727 C7.00037591,7.45938868 7.35626131,6.58975139 7.97995932,5.97906993 C8.66460191,5.3287372 9.54993839,4.98324783 10.4588958,5.0117019 C10.7638244,4.97306883 11.0725441,5.03055622 11.3482391,5.17730855 C11.4585362,5.27391926 11.515971,5.42491299 11.5006363,5.57795467 C11.5126106,5.72466813 11.4675212,5.8701297 11.3763009,5.97906993 C11.2413623,6.10369269 11.0655057,6.16315716 10.8893207,6.1437383 C10.1219515,6.09379727 9.36320799,6.34169891 8.748421,6.84322702 C8.32467751,7.20145994 8.07460763,7.75030622 8.06932537,8.33368688 C8.02183009,8.80047293 8.2096227,9.25882369 8.56062278,9.5328104 C8.80621073,9.70793821 9.09406406,9.80001617 9.38779839,9.79740573 C9.70282867,9.80343748 10.015381,9.73592468 10.30434,9.59942837 C10.593302,9.48183827 10.8620972,9.31248095 11.0995684,9.09838615 C11.2807595,7.92859019 11.5360818,6.77378949 11.8637128,5.64222694 C12.0199955,5.21061754 12.2349921,5.00841791 12.4784822,5.00841791 C12.6116409,5.00167026 12.7421881,5.05013164 12.8437173,5.14399956 C12.9446159,5.23308791 13.0014591,5.36825379 12.9974097,5.50946013 L13,5.50992927 Z" id="Path"></path>
                    <path d="M16,1.47264252 L14.8210386,10.5229211 C14.8024893,10.6569302 14.7405625,10.7737173 14.651355,10.8429255 C14.565247,10.9453608 14.4528611,11.0011651 14.3367617,10.9991341 C14.2418288,11.0080108 14.1507647,10.9481304 14.0992047,10.8429255 C14.0284289,10.7371282 13.9930719,10.5982751 14.0011276,10.4577598 L15.1549758,1.41462219 C15.1811071,1.15977906 15.3026005,1 15.5652707,1 C15.6686913,1.00414557 15.768849,1.04856998 15.853054,1.12764472 C15.9406064,1.20586857 15.994459,1.33441114 15.9979638,1.47353514 L16,1.47264252 Z" id="Path"></path>
                    <path d="M17.9979667,3.60855919 C18.0035718,3.78443023 17.9357927,3.95430844 17.8118847,4.07494587 C17.6844507,4.18097936 17.5215542,4.23045523 17.3588971,4.21252994 C17.2142888,4.22598078 17.0707756,4.1767105 16.962674,4.07650049 C16.846672,3.95206177 16.787349,3.78247966 16.7995232,3.61011381 C16.7850927,3.44445585 16.8452758,3.28116032 16.962674,3.16743512 C17.0668355,3.05679959 17.2111331,2.9964488 17.3604008,3.00109053 C17.5269285,2.99102057 17.6903151,3.05101888 17.8133884,3.16743512 C17.9380755,3.27680182 18.0067814,3.43967524 17.9994704,3.60855919 L17.9979667,3.60855919 Z M17.5186645,5.42668993 C17.5110358,5.67652125 17.4846417,5.92536203 17.4397206,6.17096534 C17.2822088,7.1624257 17.0942471,8.31945332 16.9077892,9.58724779 C16.8880995,9.70430167 16.8302617,9.81086599 16.7438866,9.88923316 C16.6401649,9.9553898 16.5220018,9.99348289 16.4002927,10 C16.2983047,9.98926575 16.2036379,9.94032921 16.134139,9.86241593 C16.0383731,9.78204463 15.9886696,9.65687115 16.0021899,9.53011542 C16.0142953,9.30850713 16.039403,9.08786308 16.0773746,8.86940095 C16.2405253,7.90475783 16.4251036,6.74811886 16.6412595,5.3998727 C16.6649427,5.15113313 16.8292212,5.03881168 17.094623,5.03881168 C17.2116772,5.0290549 17.327434,5.0696974 17.4145338,5.15113313 C17.483112,5.22488494 17.5207981,5.32361777 17.5194164,5.42591262 L17.5186645,5.42668993 Z" id="Shape"></path>
                    <path d="M25,1.50511794 L23.6948033,10.6199377 C23.666208,10.8731642 23.4742674,11 23.1667705,11 C23.050887,10.9940547 22.9414695,10.9376362 22.8612323,10.8424566 C22.7719901,10.7188551 22.732612,10.5583136 22.752727,10.400089 C22.779864,10.2644253 22.797028,10.1264335 22.8040418,9.98753894 C22.5890115,10.1732656 22.3571005,10.3323083 22.1122719,10.4619493 C21.9716459,10.5273698 21.8055585,10.6194927 21.668458,10.6844682 L21.668458,9.55140187 C21.7781384,9.48553627 21.9144554,9.41789052 22.0539062,9.32888296 C22.3819877,9.14891807 22.6906256,8.926401 22.9736547,8.66577659 L23.3324663,6.42545616 C23.0436801,6.33140225 22.74169,6.30118664 22.4428799,6.3364486 C22.1825793,6.33202211 21.9227044,6.36189063 21.668458,6.42545616 L21.668458,5.35246996 C21.9853641,5.25996251 22.312038,5.21787576 22.6391295,5.22741433 C22.8246791,5.21914185 23.0105113,5.2289687 23.1945823,5.25678683 C23.2980662,5.26000642 23.4004813,5.28147603 23.498162,5.32042724 L24.0555734,1.4388073 C24.0718028,1.31403404 24.1313355,1.20184074 24.2208775,1.12728082 C24.3289318,1.04820766 24.4539549,1.00419469 24.5824311,1 C24.718178,1.00889923 24.8417693,1.09178889 24.9142143,1.22251891 C24.9675163,1.30555028 24.9973019,1.40505264 24.9996083,1.50778816 L25,1.50511794 Z M21.6704166,10.6880285 C21.3486245,10.8160434 21.0121314,10.8901043 20.6715415,10.9078772 C20.3159106,10.8915798 19.9741108,10.7469119 19.6957777,10.4948821 C19.2341953,10.132235 18.9716284,9.52314601 19.0024409,8.88651535 C19.01987,7.99760965 19.3375445,7.15036915 19.889677,6.52024922 C20.3558661,5.92248734 20.9801815,5.5127112 21.6688497,5.35246996 L21.6688497,6.42367601 C20.6744806,6.76765339 19.9888579,7.80098383 19.9715456,8.98175345 C19.969358,9.24759857 20.0848886,9.49690348 20.2790424,9.64530485 C20.4096422,9.74868289 20.5648602,9.80441226 20.7240314,9.80507343 C21.0497251,9.7845492 21.3696875,9.69898031 21.6692414,9.55229194 L21.6692414,10.6871384 L21.6704166,10.6880285 Z" id="Shape"></path>
                    <path d="M29.9995588,5.50402265 C29.7877675,6.16689402 29.6027198,6.93593755 29.4172407,7.76652336 C29.2559712,8.64338425 29.1747699,9.53547444 29.1748239,10.4297535 C29.1762121,10.581728 29.1191156,10.727394 29.0173823,10.8314226 C28.9214948,10.9381953 28.7900266,10.9981803 28.6528943,10.9977276 C28.5004172,10.9951584 28.3558241,10.923484 28.2538986,10.7999468 C28.1544358,10.6542693 28.1010106,10.4774023 28.1016332,10.2958638 C27.9243908,10.5201547 27.6910259,10.6833932 27.4300264,10.7656522 C26.5612972,11.195639 25.5412272,11.0244922 24.8315938,10.3296886 C24.2891409,9.85243677 23.9819652,9.12705458 24.00082,8.36785245 C23.997233,7.44485 24.3692022,6.56752201 25.0166415,5.97193185 C25.6870576,5.31907694 26.5621858,4.97176935 27.4610834,5.0018189 C27.9204676,5.0018189 28.224567,5.03564366 28.3457755,5.16765419 C28.4700033,5.23624329 28.4984722,5.37154234 28.4984722,5.56885344 C28.5113199,5.71571472 28.4665022,5.8616383 28.3751071,5.97052249 C28.2500585,6.08978429 28.086201,6.14921471 27.9204676,6.1354182 C27.1431593,6.08609014 26.3744221,6.3338249 25.7469115,6.83587263 C25.3436221,7.2089449 25.110245,7.7553968 25.108087,8.33167875 C25.0610479,8.79775624 25.246272,9.2556826 25.5937834,9.53245778 C25.8282161,9.70744673 26.1062833,9.79992458 26.3904808,9.79741841 C26.7157625,9.80076237 27.0383855,9.73336224 27.3394436,9.59916772 C27.6252497,9.47392611 27.8932192,9.30498475 28.1352783,9.09743376 C28.2953485,7.92121477 28.5517279,6.76295325 28.90135,5.63650297 C29.0488706,5.20429768 29.2326243,5.0018189 29.4789233,5.0018189 C29.613797,4.98966539 29.7472803,5.03880531 29.8477247,5.13758774 C29.9452062,5.22943072 30.0008523,5.36317443 29.9999901,5.50355286 L29.9995588,5.50402265 Z" id="Path"></path>
                    <path d="M36.9983526,1.50511794 L35.6890169,10.6199377 C35.6594742,10.8731642 35.4920651,11 35.1556714,11 C35.0384566,10.9935029 34.9277369,10.937235 34.8456692,10.8424566 C34.7571797,10.7181247 34.7177356,10.5582078 34.7365579,10.400089 C34.7680705,10.2649802 34.7885084,10.1268809 34.797613,9.98753894 C34.5780729,10.1717101 34.3427941,10.3306364 34.0952828,10.4619493 C33.9570226,10.5273698 33.7872501,10.6194927 33.6485961,10.6844682 L33.6485961,9.55140187 C33.7834277,9.48704248 33.9143565,9.41270826 34.0405302,9.32888296 C34.3699504,9.14841308 34.6800015,8.92592921 34.9646281,8.66577659 L35.3218987,6.42545616 C35.0329073,6.32861705 34.7296431,6.2983492 34.4301009,6.3364486 C34.1676299,6.33367737 33.9056851,6.36352597 33.64899,6.42545616 L33.64899,5.35246996 C33.9684352,5.26223521 34.2970491,5.22018459 34.6262649,5.22741433 C34.8119361,5.21794471 34.9979848,5.2277769 35.1820629,5.25678683 C35.2880543,5.25698238 35.3931653,5.27853326 35.492459,5.32042724 L36.0502266,1.4388073 C36.0784729,1.31909935 36.1364215,1.2110101 36.2172417,1.12728082 C36.3248784,1.04925767 36.4490763,1.00530182 36.5768757,1 C36.7224196,1.00715838 36.8570735,1.08912709 36.9424183,1.22251891 C36.9865278,1.30789597 37.0060732,1.40664593 36.9983526,1.50511794 Z M33.6501717,10.6862483 C33.3258123,10.8144502 32.986636,10.8885127 32.643354,10.906097 C31.7016323,10.8476604 30.9728613,9.95162232 31.0007758,8.88651535 C31.0068243,8.00204105 31.3148711,7.15435202 31.8606674,6.52024922 C32.3343834,5.92911048 32.9602477,5.5206893 33.6501717,5.35246996 L33.6501717,6.42367601 C33.213482,6.56652423 32.8241455,6.85259967 32.5314853,7.24566088 C32.1722301,7.73346033 31.9742209,8.34717818 31.9713544,8.98175345 C31.9567526,9.24331837 32.0635765,9.49464573 32.2533894,9.64530485 C32.3862029,9.74419165 32.5406989,9.79949974 32.6996822,9.80507343 C33.0272928,9.78465693 33.349104,9.69877029 33.6501717,9.55140187 L33.6501717,10.6862483 L33.6501717,10.6862483 Z" id="Shape"></path>
                    <path d="M47,1.19573701 C46.9924736,1.33715397 46.9321672,1.46951587 46.8324814,1.56341075 C46.7365662,1.6762339 46.5957244,1.73346651 46.4535316,1.71740117 C46.0964976,1.5703298 45.7313736,1.44653331 45.3601882,1.34669953 C44.9895096,1.20867376 44.5998,1.13733384 44.2070748,1.13561154 C43.7233742,1.11874998 43.2447764,1.24513982 42.8246399,1.50068994 C42.4876541,1.71347153 42.2805883,2.09901261 42.2793913,2.51590202 C42.2793913,2.90996176 42.6266264,3.27850061 43.3406134,3.61589534 C44.0100685,3.89598436 44.6567113,4.23423322 45.2739893,4.6272144 C45.9699614,5.111083 46.3744184,5.94960923 46.3380576,6.83325684 C46.3380576,7.97001753 45.9643936,8.79836483 45.188197,9.3178662 C44.4767343,9.80371621 43.6400967,10.040297 42.7957714,9.99438588 C42.1809892,9.98084444 41.5740895,9.84437824 41.0067379,9.59210755 C40.3464219,9.28931742 40,8.91861577 40,8.49081656 C40.0107105,8.34862368 40.072793,8.2163766 40.173211,8.12184515 C40.2565969,8.02941295 40.3704298,7.97498752 40.4907644,7.97001753 C40.7726583,8.05961031 41.0362295,8.20472503 41.2677742,8.39781674 C41.7512006,8.68836966 42.2983081,8.8376099 42.8535084,8.83037408 C43.5012112,8.88238936 44.1450694,8.68648795 44.6689707,8.27799835 C45.121524,7.87524803 45.3439071,7.25059098 45.2556883,6.62995416 C45.1674694,6.00931735 44.7814185,5.48254013 44.2371631,5.24014815 C43.5752207,4.93303244 42.9397072,4.65879108 42.2797979,4.35556839 C41.6148801,3.98630493 41.2020759,3.25019049 41.2124768,2.45231609 C41.2050376,1.7117024 41.5519757,1.01784957 42.1334224,0.610486932 C42.7446669,0.199379711 43.455565,-0.0126205496 44.1786129,0.000581081514 C44.8157501,0.0121148581 45.4476825,0.124963003 46.0534387,0.335380463 C46.6865125,0.551659134 47,0.824170258 47,1.19573701 L47,1.19573701 Z" id="Path"></path>
                    <path d="M52.9994813,5.51134589 C52.7825982,6.17303566 52.6012839,6.94070835 52.4125956,7.7698136 C52.2515321,8.64529833 52.1697424,9.53566445 52.1683851,10.4282965 C52.1669871,10.7391514 51.9353791,10.9914241 51.6478656,10.9952581 C51.4946256,10.9928483 51.3493009,10.9212635 51.2470656,10.7978298 C51.1457501,10.6529138 51.0907882,10.4762994 51.0904759,10.2946454 C50.9132607,10.5189187 50.6790212,10.6819836 50.4168369,10.7635964 C50.0797625,10.9333895 49.7100772,11.013774 49.338494,10.9980718 C48.769284,10.981673 48.2244789,10.7446763 47.8033951,10.3302857 C47.2675801,9.84902457 46.9710932,9.12430379 47.0022288,8.3719466 C46.9859404,7.45626911 47.3466746,6.5800691 47.9868782,5.98029683 C48.6622898,5.32942942 49.5428462,4.98334567 50.4472006,5.01332 C50.7625042,4.97140799 51.0822933,5.02889372 51.3680864,5.17885968 C51.4630812,5.24732652 51.4943123,5.38238439 51.4943123,5.57934378 C51.5061018,5.72621733 51.4603037,5.87169343 51.3680864,5.98029683 C51.244529,6.10502006 51.0767303,6.16514733 50.9087279,6.14489861 C50.1273009,6.09540315 49.3544463,6.34273218 48.7238471,6.84410445 C48.3186615,7.21694816 48.0836766,7.76201613 48.080138,8.33724423 C48.0332331,8.80306289 48.2205752,9.26038423 48.5711614,9.53588283 C48.8060427,9.71067935 49.08502,9.80302786 49.3701589,9.80037115 C49.6972233,9.80320908 50.0215656,9.73594781 50.3244447,9.60247386 C50.6107939,9.47629656 50.8795485,9.30774023 51.1230084,9.10163426 C51.2858413,7.92794859 51.5434713,6.77194202 51.8929436,5.64687272 C52.0434605,5.21543785 52.2312813,5.01332 52.4772267,5.01332 C52.6114876,5.00056827 52.7444745,5.04979894 52.8433255,5.14884682 C52.9447625,5.23805867 53.0025269,5.37281885 52.9999151,5.5141596 L52.9994813,5.51134589 Z" id="Path"></path>
                    <path d="M58.9929444,6.21394889 C59.0473143,7.43929223 58.422587,8.59347047 57.3721531,9.20834686 C56.6752155,9.67071538 55.8622757,9.92279112 55.0286122,9.93503015 C54.8676376,9.94366608 54.7100994,9.88584391 54.5921437,9.77483053 C54.4891732,9.67709049 54.4321702,9.53973846 54.4353497,9.39702642 C54.4397158,9.24618688 54.4950465,9.10140059 54.5921437,8.98673738 C54.6524829,8.86614266 54.7771253,8.82965275 54.9678325,8.82965275 C55.5713924,8.80849358 56.1601611,8.63533944 56.6806742,8.32591393 C57.4394165,7.97694502 57.9269822,7.21288702 57.9284193,6.37058852 C57.9412336,6.13045061 57.8893275,5.89129878 57.7782318,5.67861515 C57.5927324,5.48369083 57.3265363,5.38952317 57.0612078,5.42496575 C56.4971093,5.47249767 55.9462687,5.62328389 55.4355718,5.8699647 C55.2479476,5.99411941 54.9339192,6.12183411 54.560873,6.34210859 L54.0283902,9.52607611 C54.0010834,9.84336037 53.7808672,10 53.4355681,10 C53.3169358,9.98639202 53.2069188,9.93073434 53.1250633,9.84291537 C53.0329833,9.71408953 52.9894115,9.55629902 53.0021826,9.39791641 L54.4670609,0.408937526 C54.5099365,0.286140368 54.5847958,0.177298989 54.6837536,0.093878266 C54.7977856,0.0264620488 54.928813,-0.00586115525 55.0607638,0.000873484485 C55.188412,-0.00621924978 55.3133134,0.0401386281 55.4060628,0.129033183 C55.5017059,0.277792347 55.5448482,0.454816432 55.528503,0.631437004 L54.8132408,4.98575178 C55.1215434,4.86026207 55.4060628,4.73477237 55.5901635,4.66624253 C56.1213362,4.46895101 56.6816521,4.36363935 57.2475107,4.35474326 C57.6401629,4.33403196 58.0271293,4.45641017 58.3380214,4.69961745 C58.7975728,5.0599885 59.0444331,5.63157558 58.9933848,6.21706388 L58.9929444,6.21394889 Z" id="Path"></path>
                    <path d="M64.9951039,5.50283236 C65.0222806,5.74437985 64.9117945,5.98009264 64.7133533,6.10392376 C64.5310699,6.17726913 64.3361843,6.20927105 64.1413951,6.19784429 C63.171175,6.20284214 62.2337049,6.5686715 61.4939187,7.23097014 C61.0109697,7.59593848 60.6296247,8.09087014 60.3896166,8.66419746 L60.103415,10.5637402 C60.0874143,10.6965823 60.0214962,10.8170716 59.9204713,10.8981366 C59.8194463,10.9792016 59.6917866,11.0140441 59.5661749,10.9948355 C59.4173335,10.990446 59.2743987,10.9324453 59.1611306,10.8304745 C59.0576491,10.7239591 58.9995132,10.5777359 59.0000031,10.4252074 L59.7566792,5.50236275 C59.7897689,5.20123482 60.0415763,4.98088001 60.3281923,5.00223592 C60.4662688,4.98879013 60.6034415,5.03640753 60.7069755,5.13372467 C60.8030232,5.2681808 60.8478094,5.43573846 60.8324947,5.60332733 L60.743474,6.50214682 C61.1879792,6.03856386 61.7107715,5.66681727 62.2848679,5.40609421 C62.9659228,5.16608346 63.6812654,5.05247887 64.3991101,5.07032831 C64.8112761,5.07032831 65,5.20181705 65,5.50377156 L64.9951039,5.50283236 Z" id="Path"></path>
                    <path d="M69.9997347,6.50325214 C70.011101,7.43432541 69.6568086,8.33157961 69.0153334,8.99627217 C68.4797937,9.54425671 67.7738642,9.88646351 67.0178904,9.96455383 L67.0178904,8.79669908 C67.4924682,8.74283623 67.9326653,8.51893082 68.2595941,8.16510897 C68.6720772,7.77960593 68.9090506,7.23763954 68.9141678,6.66807603 C68.916004,6.29291708 68.7896241,5.92875231 68.5566237,5.63780932 C68.2368751,5.26524302 67.7629479,5.06787223 67.2779645,5.10530137 L67.0183523,5.10530137 L67.0183523,4.0393463 C67.1815486,4.00960137 67.3474007,3.99763757 67.5130936,4.00365793 C68.2391853,3.96234172 68.9416549,4.27288299 69.4070614,4.84092573 C69.7980902,5.3025061 70.0083902,5.894199 69.9978869,6.50325214 L69.9997347,6.50325214 Z M67.0178904,9.96455383 C66.8534385,9.96455383 66.6580365,9.9969551 66.4603247,9.9969551 C65.7372746,10.0350952 65.0412089,9.71310245 64.5945355,9.1338602 C64.1823049,8.57998071 63.9730351,7.89728167 64.0027861,7.20340148 C63.9987176,6.39035359 64.3180835,5.61014804 64.8883315,5.04002923 C65.4623715,4.4653333 66.2153085,4.11169312 67.0178904,4.03981588 L67.0178904,5.10624054 C66.5308828,5.17490502 66.0811335,5.40929249 65.7420028,5.7711711 C65.3753619,6.12844887 65.1633375,6.61913697 65.1525631,7.13531184 C65.1261671,7.56088499 65.2424334,7.98298961 65.4823907,8.33275036 C65.7836203,8.686841 66.2339867,8.872064 66.6926822,8.83050911 C66.7887665,8.83050911 66.9176487,8.79716867 67.0160426,8.79716867 L67.0160426,9.96502341 L67.0178904,9.96455383 Z" id="Shape"></path>
                    <path d="M64.161222,15.2732824 C67.394812,16.0884613 65.9404976,19.3257158 63.0585723,18.2972508 C53.4490051,14.879983 25.1991534,13.9436576 10.8992169,24.8276406 C10.2008173,25.3429395 9.67866092,24.584068 10.2320399,24.1050277 C22.7247648,13.4885054 44.7079183,10.3455234 64.161222,15.2749887 L64.161222,15.2732824 Z" id="Path"></path>
                    <path d="M72,9 L72,7 L72.2060403,7 L72.460179,8.42234565 C72.4711691,8.51608654 72.4861327,8.60796523 72.5049217,8.69707327 C72.5228188,8.63426618 72.538255,8.54240547 72.5697987,8.39414655 L72.8098434,7 L73,7 L73,8.99957274 L72.8738255,8.99957274 L72.8738255,7.33112583 L72.5711409,9 L72.4438479,9 L72.1436242,7.30378124 L72.1436242,9 L72,9 Z" id="Path"></path>
                    <path d="M74.4665211,7.00213311 L74.5150412,7.00213311 C74.5913968,7.00217052 74.6673065,7.02259674 74.7401747,7.06271331 C74.7916861,7.09532298 74.8347637,7.15956184 74.861475,7.24360068 C74.8972755,7.33145802 74.915608,7.43761897 74.9136342,7.54564846 C74.9143188,7.68234976 74.8834125,7.81368194 74.8279961,7.90955631 C74.7618535,8.01725051 74.676773,8.0819741 74.586851,8.09300341 C74.623076,8.11357648 74.6576469,8.14225288 74.6897137,8.17832765 C74.7261038,8.27559727 74.7763222,8.36305461 74.8095585,8.45136519 L75,8.99786689 L74.8095585,8.99786689 L74.6724891,8.57380546 C74.6358644,8.47829123 74.5953232,8.38760651 74.5511887,8.3024744 L74.4852014,8.17832765 L74.4691897,8.14889078 L74.4691897,7.87883959 L74.4852014,7.87883959 C74.5374104,7.88709128 74.590031,7.87693854 74.6399806,7.84897611 L74.7270742,7.72653584 L74.7588549,7.54479522 C74.760617,7.45606032 74.7424966,7.36965621 74.708394,7.30418089 C74.6521682,7.2377841 74.5850609,7.20584482 74.5174672,7.21331058 L74.4689471,7.21331058 L74.4689471,7 L74.4665211,7.00213311 Z M74,8.99872014 L74,7.00213311 L74.4665211,7.00213311 L74.4665211,7.21544369 L74.154294,7.21544369 L74.154294,7.88139932 L74.4665211,7.88139932 L74.4665211,8.15145051 L74.4114508,8.12030717 L74.1540514,8.12030717 L74.1540514,9 L74,8.99872014 Z" id="Shape"></path>
                </g>
            </g>
        </g>
    </g>
</svg>