<?xml version="1.0" encoding="utf-8"?>
<!-- Generator: Adobe Illustrator 24.2.1, SVG Export Plug-In . SVG Version: 6.00 Build 0)  -->
<svg version="1.1" id="Capa_1" xmlns="http://www.w3.org/2000/svg" xmlns:xlink="http://www.w3.org/1999/xlink" x="0px" y="0px"
	 viewBox="0 0 156 94.1" style="enable-background:new 0 0 156 94.1;" xml:space="preserve">
<style type="text/css">
	.st0{fill:#FFFFFF;}
</style>
<g>
	<g>
		<path d="M35.7,27.3c-2,1.6-4.2,2.5-6.5,2.5c-2.4,0-4.4-0.7-5.8-2.2c-1.5-1.5-2.2-3.4-2.2-5.9c0-1.5,0.3-2.9,0.9-4.2
			c0.6-1.3,1.5-2.3,2.7-3s2.6-1.1,4.3-1.1c1.8,0,3.2,0.4,4.3,1.2s1.8,1.9,2.2,3.5l-1.9,0.5c-0.3-1.1-0.8-2-1.6-2.6
			c-0.8-0.6-1.8-0.9-3-0.9c-1.9,0-3.3,0.6-4.3,1.7c-1,1.2-1.4,2.7-1.4,4.6c0,1.4,0.2,2.6,0.7,3.5s1.2,1.6,2.1,2.1
			c0.9,0.5,1.9,0.7,3,0.7c1.6,0,3.2-0.5,4.6-1.6v-2.9h-4.6v-1.9h6.5C35.7,21.5,35.7,27.3,35.7,27.3z"/>
		<path d="M29.1,30c-2.4,0-4.5-0.8-6-2.3s-2.3-3.5-2.3-6c0-1.5,0.3-2.9,0.9-4.2c0.6-1.3,1.5-2.3,2.7-3.1c1.2-0.7,2.7-1.1,4.4-1.1
			c1.8,0,3.3,0.4,4.4,1.2c1.1,0.8,1.8,2,2.2,3.6v0.2l-2.2,0.6v-0.2c-0.3-1.1-0.8-1.9-1.5-2.5c-0.7-0.5-1.7-0.8-2.9-0.8
			c-1.8,0-3.2,0.6-4.2,1.7c-0.9,1.1-1.4,2.6-1.4,4.4c0,1.4,0.2,2.5,0.7,3.4s1.1,1.6,2,2c0.9,0.5,1.9,0.7,2.9,0.7
			c1.6,0,3.1-0.5,4.4-1.5v-2.7h-4.6v-2.2h7v6.1h-0.1C33.8,29.1,31.5,30,29.1,30z M29,13.7c-1.7,0-3.1,0.3-4.2,1
			c-1.1,0.7-2,1.7-2.6,2.9c-0.6,1.3-0.9,2.6-0.9,4.1c0,2.4,0.7,4.3,2.2,5.8c1.4,1.4,3.4,2.2,5.7,2.2c2.3,0,4.4-0.8,6.3-2.4v-5.6
			h-6.3v1.5h4.6v3.2h-0.1c-1.4,1.1-3,1.7-4.7,1.7c-1.1,0-2.1-0.2-3.1-0.7c-0.9-0.5-1.7-1.2-2.2-2.2C23.2,24.3,23,23,23,21.6
			c0-1.9,0.5-3.5,1.5-4.7c1-1.2,2.5-1.8,4.4-1.8c1.3,0,2.3,0.3,3.1,0.9c0.7,0.6,1.3,1.4,1.6,2.5l1.6-0.4c-0.4-1.4-1.1-2.5-2.1-3.2
			C32.1,14.1,30.7,13.7,29,13.7z"/>
	</g>
	<g>
		<path d="M44.7,18.5L44,20.3c-0.5-0.3-0.9-0.4-1.4-0.4c-0.7,0-1.3,0.3-1.6,1c-0.4,0.6-0.6,1.6-0.6,2.7v6h-1.9V18.1h1.8v1.7l0,0
			c0.6-1.3,1.4-2,2.4-2C43.3,17.9,44,18.1,44.7,18.5z"/>
		<path d="M40.6,29.7h-2.3V18h2.1v1.3c0.6-1,1.4-1.5,2.3-1.5c0.7,0,1.4,0.2,2.1,0.6l0.1,0.1l-0.8,2.1l-0.2-0.1
			c-0.5-0.3-0.9-0.4-1.3-0.4c-0.7,0-1.2,0.3-1.5,0.9c-0.4,0.6-0.5,1.5-0.5,2.6C40.6,23.6,40.6,29.7,40.6,29.7z M38.6,29.4h1.6v-5.8
			c0-1.2,0.2-2.1,0.6-2.8c0.4-0.7,1-1.1,1.8-1.1c0.4,0,0.9,0.1,1.3,0.3l0.6-1.5c-0.6-0.3-1.2-0.5-1.8-0.5c-0.9,0-1.7,0.6-2.3,1.9V20
			h-0.3v-1.7h-1.4L38.6,29.4L38.6,29.4z"/>
	</g>
	<g>
		<path d="M55.1,29.5h-1.7v-1.7h-0.1c-0.9,1.3-2.1,1.9-3.6,1.9c-0.8,0-1.5-0.2-2.2-0.6s-1.1-0.9-1.4-1.5c-0.2-0.6-0.3-1.5-0.3-2.5
			V18h1.9v6.3c0,1,0,1.7,0.1,2.2s0.3,0.8,0.8,1.1c0.4,0.3,0.9,0.4,1.5,0.4c0.7,0,1.4-0.3,2.1-0.8c0.6-0.5,1-1.6,1-3.1V18h1.9
			L55.1,29.5L55.1,29.5z"/>
		<path d="M49.7,30c-0.8,0-1.6-0.2-2.3-0.6s-1.2-0.9-1.4-1.6s-0.3-1.5-0.3-2.6V18H48v6.5c0,1,0,1.7,0.1,2.1s0.3,0.7,0.7,1
			s0.8,0.4,1.4,0.4c0.7,0,1.3-0.2,2-0.7c0.6-0.5,0.9-1.5,0.9-3V18h2.3v11.7h-2.1v-1.4C52.3,29.4,51.2,30,49.7,30z M46,18.3v6.9
			c0,1,0.1,1.8,0.3,2.5c0.2,0.6,0.6,1.1,1.3,1.4c0.6,0.4,1.4,0.5,2.1,0.5c1.5,0,2.6-0.6,3.4-1.9v-0.1h0.3v1.7h1.4v-11h-1.6v5.9
			c0,1.7-0.3,2.7-1,3.3c-0.7,0.5-1.4,0.8-2.2,0.8c-0.6,0-1.1-0.2-1.6-0.5c-0.4-0.3-0.7-0.7-0.8-1.2s-0.1-1.2-0.1-2.2v-6.1
			C47.5,18.3,46,18.3,46,18.3z"/>
	</g>
	<g>
		<path d="M59.9,19.6c0.7-1.2,1.8-1.7,3.3-1.7s2.7,0.5,3.5,1.6c0.9,1.1,1.3,2.5,1.3,4.2c0,1.9-0.5,3.3-1.4,4.4
			c-1,1.1-2.1,1.6-3.5,1.6c-1.2,0-2.2-0.5-2.9-1.5h-0.1v5.6h-1.9V18.1H60L59.9,19.6L59.9,19.6z M62.9,28.2c0.9,0,1.6-0.4,2.2-1.1
			c0.6-0.7,0.9-1.9,0.9-3.3s-0.3-2.5-0.9-3.2c-0.6-0.8-1.3-1.1-2.2-1.1s-1.7,0.4-2.3,1.3c-0.6,0.8-0.9,1.9-0.9,3.3s0.3,2.5,0.8,3.2
			C61.3,27.9,62,28.2,62.9,28.2z"/>
		<path d="M60.2,34.1h-2.3V18H60v1.2c0.7-0.9,1.8-1.4,3.1-1.4c1.5,0,2.8,0.6,3.7,1.7s1.3,2.6,1.3,4.3c0,1.9-0.5,3.4-1.5,4.5
			S64.4,30,62.9,30c-1.1,0-2.1-0.4-2.8-1.2L60.2,34.1L60.2,34.1z M58.3,33.8h1.6v-5.6h0.3v0.1c0.7,0.9,1.6,1.4,2.8,1.4
			c1.3,0,2.5-0.5,3.4-1.6s1.4-2.5,1.4-4.3c0-1.7-0.4-3.1-1.3-4.1c-0.8-1-2-1.6-3.4-1.6s-2.4,0.5-3.1,1.7v0.1h-0.3v-1.5h-1.4V33.8z
			 M62.9,28.4c-1,0-1.7-0.4-2.3-1.2c-0.6-0.8-0.9-1.9-0.9-3.3s0.3-2.5,0.9-3.4c0.6-0.9,1.4-1.3,2.4-1.3c0.9,0,1.7,0.4,2.3,1.2
			c0.6,0.8,0.9,1.9,0.9,3.3c0,1.5-0.3,2.7-0.9,3.4C64.7,28,63.9,28.4,62.9,28.4z M63,19.6c-0.9,0-1.6,0.4-2.1,1.2
			C60.3,21.6,60,22.7,60,24c0,1.4,0.3,2.4,0.8,3.1s1.2,1,2.1,1c0.9,0,1.5-0.3,2.1-1.1c0.6-0.7,0.8-1.8,0.8-3.2
			c0-1.4-0.3-2.4-0.8-3.1C64.5,19.9,63.8,19.6,63,19.6z"/>
	</g>
	<g>
		<path d="M75,17.9c1.5,0,2.8,0.5,3.8,1.5s1.5,2.4,1.5,4.3c0,2.2-0.5,3.8-1.6,4.8c-1.1,0.9-2.3,1.4-3.7,1.4c-1.4,0-2.7-0.5-3.7-1.4
			c-1.1-1-1.6-2.5-1.6-4.5s0.5-3.5,1.5-4.5C72.2,18.4,73.5,17.9,75,17.9z M75,28.2c1.1,0,1.9-0.4,2.5-1.2c0.6-0.8,0.9-1.9,0.9-3.2
			c0-1.4-0.3-2.5-1-3.2c-0.6-0.7-1.4-1.1-2.4-1.1s-1.8,0.4-2.4,1.1s-0.9,1.8-0.9,3.3c0,1.4,0.3,2.5,1,3.3C73.2,27.9,74,28.2,75,28.2
			z"/>
		<path d="M75,30c-1.5,0-2.8-0.5-3.9-1.5s-1.6-2.5-1.6-4.7c0-2,0.5-3.6,1.6-4.6s2.4-1.5,3.9-1.5c1.6,0,2.9,0.5,3.9,1.6
			c1,1,1.6,2.5,1.6,4.4c0,2.3-0.6,3.9-1.7,4.9C77.7,29.5,76.4,30,75,30z M75,18.1c-1.5,0-2.7,0.5-3.7,1.4s-1.5,2.4-1.5,4.4
			s0.5,3.5,1.5,4.4s2.2,1.4,3.6,1.4c1.3,0,2.5-0.5,3.6-1.4s1.6-2.4,1.6-4.6c0-1.8-0.5-3.2-1.5-4.2C77.7,18.5,76.5,18.1,75,18.1z
			 M75,28.4c-1,0-1.9-0.4-2.5-1.2c-0.7-0.8-1-1.9-1-3.4s0.3-2.6,1-3.4s1.5-1.2,2.5-1.2s1.8,0.4,2.5,1.1c0.7,0.8,1,1.9,1,3.3
			s-0.3,2.5-0.9,3.3C77,28,76.1,28.4,75,28.4z M75,19.6c-0.9,0-1.7,0.3-2.3,1c-0.6,0.7-0.9,1.8-0.9,3.2c0,1.4,0.3,2.5,0.9,3.2
			s1.4,1,2.3,1c1.1,0,1.8-0.4,2.4-1.2c0.6-0.8,0.8-1.8,0.8-3.1c0-1.4-0.3-2.4-0.9-3.1C76.6,20,75.9,19.6,75,19.6z"/>
	</g>
	<g>
		<path d="M24.1,55.9H22V40.2h2.1V55.9L24.1,55.9z"/>
		<path d="M24.2,56.1h-2.4V40h2.4V56.1z M22.1,55.8h1.8V40.4h-1.8V55.8z"/>
	</g>
	<g>
		<path d="M36.8,55.9h-1.9V49c0-1.2-0.2-2-0.6-2.4c-0.4-0.4-1-0.7-1.7-0.7c-0.6,0-1.1,0.1-1.6,0.4s-0.9,0.7-1.1,1.2
			s-0.3,1.2-0.3,2.2v6.2h-1.9V44.5h1.7v1.6l0,0c0.4-0.6,0.9-1.1,1.5-1.4c0.6-0.3,1.3-0.5,2.1-0.5c0.6,0,1.2,0.1,1.8,0.3
			c0.6,0.2,1,0.5,1.4,1s0.5,0.9,0.6,1.4s0.1,1.1,0.1,2L36.8,55.9L36.8,55.9z"/>
		<path d="M37,56.1h-2.3V49c0-1.1-0.2-1.9-0.6-2.3c-0.4-0.4-0.9-0.6-1.6-0.6c-0.5,0-1.1,0.1-1.5,0.4c-0.5,0.3-0.8,0.6-1,1.1
			s-0.3,1.2-0.3,2.1v6.4h-2.3V44.4h2.1v1.3c0.4-0.5,0.8-0.8,1.3-1.1c0.6-0.3,1.3-0.5,2.2-0.5c0.6,0,1.2,0.1,1.8,0.3
			c0.6,0.2,1.1,0.6,1.5,1c0.3,0.4,0.6,0.9,0.7,1.4c0.1,0.5,0.1,1.2,0.1,2L37,56.1C37.1,56.1,37,56.1,37,56.1z M35.1,55.8h1.6V49
			c0-0.8,0-1.5-0.1-1.9c-0.1-0.5-0.3-0.9-0.6-1.3s-0.8-0.7-1.3-0.9c-0.6-0.2-1.1-0.3-1.7-0.3c-0.8,0-1.4,0.2-2,0.4
			c-0.6,0.3-1.1,0.7-1.4,1.3v0.1h-0.3v-1.6h-1.6v11.1h1.6v-6.1c0-0.9,0.1-1.7,0.3-2.2c0.2-0.5,0.6-1,1.2-1.3
			c0.5-0.3,1.1-0.4,1.7-0.4c0.8,0,1.4,0.2,1.9,0.7s0.7,1.3,0.7,2.5V55.8z"/>
	</g>
	<g>
		<path d="M44.2,55.9c-0.6,0.1-1.1,0.2-1.4,0.2c-0.8,0-1.5-0.1-1.8-0.4c-0.4-0.3-0.6-0.7-0.7-1.1c-0.1-0.5-0.1-1.1-0.1-1.9V46h-1.5
			v-1.5h1.4v-2.8l1.9-1.2v4h1.9V46H42v6.7c0,0.6,0.1,1,0.2,1.2c0.1,0.2,0.4,0.4,0.9,0.4c0.3,0,0.6,0,0.9-0.1L44.2,55.9z"/>
		<path d="M42.8,56.3c-0.9,0-1.5-0.2-1.9-0.5c-0.4-0.3-0.7-0.7-0.8-1.2S40,53.5,40,52.7v-6.4h-1.4v-1.8H40v-2.8l2.3-1.4v4.1h1.9v1.8
			h-1.9v6.5c0,0.5,0.1,0.9,0.2,1.1c0.1,0.2,0.3,0.3,0.7,0.3c0.3,0,0.5,0,0.8-0.1h0.2l0.3,2h-0.2C43.7,56.2,43.2,56.3,42.8,56.3z
			 M38.8,45.9h1.4v6.7c0,0.8,0,1.4,0.1,1.9c0.1,0.4,0.3,0.8,0.6,1c0.4,0.3,0.9,0.4,1.7,0.4c0.3,0,0.8,0,1.3-0.1l-0.2-1.4
			c-0.2,0-0.5,0.1-0.7,0.1c-0.5,0-0.9-0.2-1-0.5c-0.1-0.3-0.2-0.7-0.2-1.3v-6.8h1.9v-1.2h-1.9v-3.9l-1.6,1v2.9h-1.4V45.9z"/>
	</g>
	<g>
		<path d="M55.8,50.7h-8.5c0.1,1.3,0.4,2.2,1.1,2.9c0.6,0.7,1.4,1,2.4,1c0.7,0,1.4-0.2,1.9-0.6s0.9-1,1.1-1.8l2,0.2
			c-0.3,1.2-0.9,2.1-1.8,2.7c-0.9,0.6-1.9,1-3.2,1c-1.7,0-3-0.5-4-1.6s-1.4-2.5-1.4-4.3c0-1.8,0.5-3.3,1.4-4.4
			c0.9-1.1,2.2-1.7,3.9-1.7c0.8,0,1.6,0.2,2.4,0.5c0.8,0.4,1.4,1,2,1.9C55.5,47.6,55.8,48.9,55.8,50.7z M53.8,49.1
			c-0.1-1.2-0.4-2-1.1-2.5c-0.6-0.5-1.3-0.8-2.1-0.8c-0.9,0-1.7,0.3-2.2,0.9c-0.6,0.6-0.9,1.4-1,2.4C47.4,49.1,53.8,49.1,53.8,49.1z
			"/>
		<path d="M50.7,56.4c-1.8,0-3.1-0.5-4.1-1.6s-1.5-2.6-1.5-4.4s0.5-3.3,1.4-4.5c1-1.2,2.3-1.7,4.1-1.7c0.9,0,1.7,0.2,2.5,0.6
			c0.8,0.4,1.5,1,2,1.9c0.6,0.9,0.8,2.3,0.8,4.1V51h-8.5c0.1,1.1,0.4,2,1,2.6s1.4,0.9,2.3,0.9c0.7,0,1.3-0.2,1.8-0.5
			c0.5-0.4,0.8-0.9,1.1-1.7v-0.1l2.3,0.3v0.2c-0.3,1.2-0.9,2.2-1.8,2.8C53.2,56,52,56.4,50.7,56.4z M50.6,44.5
			c-1.6,0-2.9,0.5-3.8,1.6c-0.9,1.1-1.4,2.5-1.4,4.3c0,1.8,0.5,3.2,1.4,4.2s2.2,1.5,3.9,1.5c1.2,0,2.3-0.3,3.1-0.9s1.3-1.4,1.7-2.5
			l-1.7-0.2c-0.3,0.8-0.7,1.3-1.2,1.7s-1.2,0.6-2,0.6c-1,0-1.9-0.4-2.5-1c-0.7-0.7-1-1.7-1.1-3v-0.2h8.5c0-1.7-0.3-3-0.8-3.8
			c-0.5-0.8-1.2-1.5-1.9-1.8C52.2,44.6,51.4,44.5,50.6,44.5z M54,49.3h-6.8v-0.2c0.1-1,0.5-1.8,1.1-2.5c0.6-0.6,1.4-1,2.4-1
			c0.8,0,1.5,0.3,2.2,0.8S54,47.8,54,49V49.3z M47.5,49h6.1c-0.1-1-0.4-1.8-1-2.2c-0.6-0.5-1.3-0.7-2-0.7c-0.9,0-1.6,0.3-2.1,0.9
			C48,47.4,47.7,48.1,47.5,49z"/>
	</g>
	<g>
		<path d="M64.3,44.9l-0.7,1.8c-0.5-0.3-0.9-0.4-1.4-0.4c-0.7,0-1.3,0.3-1.6,1C60.2,47.9,60,48.9,60,50v6h-1.9V44.5h1.8v1.7l0,0
			c0.6-1.3,1.4-2,2.4-2C62.9,44.3,63.6,44.5,64.3,44.9z"/>
		<path d="M60.2,56.1h-2.3V44.4H60v1.3c0.6-1,1.4-1.5,2.3-1.5c0.7,0,1.4,0.2,2.1,0.6l0.1,0.1l-0.8,2l-0.2-0.1
			c-0.5-0.3-0.9-0.4-1.3-0.4c-0.7,0-1.2,0.3-1.5,0.9c-0.4,0.6-0.5,1.5-0.5,2.6L60.2,56.1L60.2,56.1z M58.2,55.8h1.6V50
			c0-1.2,0.2-2.1,0.6-2.8c0.4-0.7,1-1.1,1.8-1.1c0.4,0,0.9,0.1,1.3,0.3l0.5-1.5c-0.6-0.3-1.2-0.5-1.8-0.5c-0.9,0-1.7,0.6-2.3,1.9
			v0.1h-0.3v-1.7h-1.4C58.2,44.7,58.2,55.8,58.2,55.8z"/>
	</g>
	<g>
		<path d="M67.3,46c0.7-1.2,1.8-1.7,3.3-1.7s2.7,0.5,3.5,1.6c0.9,1.1,1.3,2.5,1.3,4.2c0,1.9-0.5,3.3-1.4,4.4c-1,1.1-2.1,1.6-3.5,1.6
			c-1.2,0-2.2-0.5-2.9-1.5h-0.1v5.6h-1.9V44.5h1.8L67.3,46L67.3,46z M70.3,54.6c0.9,0,1.6-0.4,2.2-1.1c0.6-0.7,0.9-1.9,0.9-3.3
			s-0.3-2.5-0.9-3.2c-0.6-0.7-1.3-1.1-2.2-1.1c-0.9,0-1.7,0.4-2.3,1.3c-0.6,0.9-0.9,1.9-0.9,3.3s0.3,2.5,0.8,3.2
			C68.6,54.3,69.4,54.6,70.3,54.6z"/>
		<path d="M67.6,60.5h-2.3V44.4h2.1v1.2c0.7-0.9,1.8-1.4,3.1-1.4c1.5,0,2.8,0.6,3.7,1.7c0.9,1.1,1.3,2.6,1.3,4.3
			c0,1.9-0.5,3.4-1.5,4.5s-2.2,1.7-3.7,1.7c-1.1,0-2.1-0.4-2.8-1.2L67.6,60.5L67.6,60.5z M65.6,60.2h1.6v-5.6h0.3v0.1
			c0.7,0.9,1.6,1.4,2.8,1.4c1.3,0,2.5-0.5,3.4-1.6s1.4-2.5,1.4-4.3c0-1.7-0.4-3.1-1.3-4.1c-0.8-1-2-1.6-3.4-1.6S68,45,67.3,46.2v0.1
			H67v-1.5h-1.4V60.2L65.6,60.2z M70.3,54.8c-1,0-1.7-0.4-2.3-1.2c-0.6-0.8-0.9-1.9-0.9-3.3s0.3-2.5,0.9-3.4s1.4-1.3,2.4-1.3
			c0.9,0,1.7,0.4,2.3,1.2c0.6,0.8,0.9,1.9,0.9,3.3c0,1.5-0.3,2.7-0.9,3.5C72,54.4,71.2,54.8,70.3,54.8z M70.4,46
			c-0.9,0-1.6,0.4-2.1,1.2c-0.6,0.8-0.9,1.8-0.9,3.1c0,1.4,0.3,2.4,0.8,3.1c0.5,0.7,1.2,1,2.1,1s1.5-0.3,2.1-1.1
			c0.6-0.7,0.9-1.8,0.9-3.2S73,47.7,72.5,47C71.9,46.3,71.2,46,70.4,46z"/>
	</g>
	<g>
		<path d="M87.6,50.7h-8.5c0.1,1.3,0.4,2.2,1.1,2.9c0.6,0.7,1.4,1,2.4,1c0.7,0,1.4-0.2,1.9-0.6s0.9-1,1.1-1.8l2,0.2
			c-0.3,1.2-0.9,2.1-1.8,2.7c-0.9,0.6-1.9,1-3.2,1c-1.7,0-3-0.5-4-1.6s-1.4-2.5-1.4-4.3c0-1.8,0.5-3.3,1.4-4.4
			c0.9-1.1,2.2-1.7,3.9-1.7c0.8,0,1.6,0.2,2.4,0.5c0.8,0.4,1.4,1,2,1.9C87.3,47.6,87.6,48.9,87.6,50.7z M85.6,49.1
			c-0.1-1.2-0.4-2-1.1-2.5s-1.3-0.8-2.1-0.8c-0.9,0-1.7,0.3-2.2,0.9c-0.6,0.6-0.9,1.4-1,2.4C79.1,49.1,85.6,49.1,85.6,49.1z"/>
		<path d="M82.5,56.4c-1.8,0-3.1-0.5-4.1-1.6s-1.5-2.6-1.5-4.4s0.5-3.3,1.4-4.5c1-1.2,2.3-1.7,4.1-1.7c0.9,0,1.7,0.2,2.5,0.6
			c0.8,0.4,1.5,1,2,1.9c0.6,0.9,0.8,2.3,0.8,4.1V51h-8.5c0.1,1.1,0.4,2,1,2.6s1.4,0.9,2.3,0.9c0.7,0,1.3-0.2,1.8-0.5
			c0.5-0.4,0.8-0.9,1.1-1.7v-0.1l2.3,0.3v0.1c-0.3,1.2-0.9,2.2-1.8,2.8C85,56,83.8,56.4,82.5,56.4z M82.4,44.5
			c-1.6,0-2.9,0.5-3.8,1.6s-1.4,2.5-1.4,4.3c0,1.8,0.5,3.2,1.4,4.2s2.2,1.5,3.9,1.5c1.2,0,2.3-0.3,3.1-0.9c0.8-0.6,1.3-1.4,1.7-2.5
			l-1.7-0.2c-0.3,0.8-0.7,1.3-1.2,1.7s-1.2,0.6-2,0.6c-1,0-1.9-0.4-2.5-1c-0.7-0.7-1-1.7-1.1-3v-0.2h8.6c0-1.7-0.3-3-0.8-3.8
			c-0.5-0.8-1.2-1.5-1.9-1.8C84,44.6,83.2,44.5,82.4,44.5z M85.8,49.3H79v-0.2c0.1-1,0.5-1.8,1.1-2.5c0.6-0.6,1.4-1,2.4-1
			c0.8,0,1.5,0.3,2.2,0.8s1.1,1.4,1.1,2.6L85.8,49.3z M79.3,49h6.1c-0.1-1-0.4-1.8-1-2.2c-0.6-0.5-1.3-0.7-2-0.7
			c-0.9,0-1.6,0.3-2.1,0.9C79.8,47.4,79.4,48.1,79.3,49z"/>
	</g>
	<g>
		<path d="M99.2,52c-0.3,1.5-0.8,2.5-1.7,3.2c-0.9,0.7-1.9,1-3,1c-1.7,0-2.9-0.5-3.8-1.6s-1.4-2.5-1.4-4.3c0-1.5,0.3-2.7,0.8-3.6
			c0.5-0.9,1.2-1.5,1.9-1.9c0.8-0.4,1.6-0.5,2.5-0.5c1.2,0,2.2,0.3,3,0.9c0.8,0.6,1.3,1.5,1.5,2.7l-1.9,0.3
			c-0.2-0.8-0.5-1.3-0.9-1.7s-1-0.6-1.7-0.6c-1.1,0-1.9,0.4-2.5,1.1s-0.8,1.8-0.8,3.2s0.3,2.5,0.8,3.2c0.5,0.7,1.3,1.1,2.4,1.1
			c0.8,0,1.5-0.2,2-0.7s0.8-1.2,0.9-2.1L99.2,52z"/>
		<path d="M94.5,56.4c-1.7,0-3-0.6-4-1.7c-0.9-1.1-1.4-2.6-1.4-4.4c0-1.5,0.3-2.7,0.8-3.6s1.2-1.6,2-1.9c0.8-0.4,1.7-0.6,2.5-0.6
			c1.2,0,2.3,0.3,3.1,0.9c0.9,0.6,1.4,1.6,1.6,2.8v0.2l-2.2,0.3v-0.1c-0.2-0.7-0.5-1.3-0.9-1.6c-0.3-0.5-0.8-0.7-1.4-0.7
			c-1,0-1.8,0.4-2.3,1.1s-0.8,1.8-0.8,3.1c0,1.4,0.3,2.4,0.8,3.2c0.5,0.7,1.2,1.1,2.2,1.1c0.8,0,1.4-0.2,1.8-0.7
			c0.4-0.4,0.7-1.1,0.8-2v-0.2l2.3,0.3v0.2c-0.3,1.5-0.9,2.6-1.8,3.3C96.7,56,95.7,56.4,94.5,56.4z M94.5,44.5
			c-0.8,0-1.6,0.2-2.4,0.5c-0.7,0.3-1.4,1-1.9,1.8c-0.5,0.9-0.8,2-0.8,3.5c0,1.7,0.4,3.2,1.3,4.2s2.1,1.6,3.7,1.6
			c1.1,0,2.1-0.3,2.9-1c0.8-0.6,1.4-1.6,1.6-2.9L97.5,52c-0.1,0.9-0.4,1.6-0.9,2.1s-1.2,0.8-2.1,0.8c-1.1,0-1.9-0.4-2.5-1.2
			c-0.6-0.8-0.9-1.9-0.9-3.3s0.3-2.5,0.9-3.3c0.6-0.8,1.5-1.2,2.6-1.2c0.7,0,1.3,0.2,1.8,0.6c0.4,0.4,0.7,0.9,1,1.7L99,48
			c-0.2-1-0.7-1.9-1.4-2.4C96.6,44.8,95.6,44.5,94.5,44.5z"/>
	</g>
	<g>
		<path d="M31,71.2c-0.1-1-0.4-1.8-1.1-2.3c-0.6-0.5-1.6-0.8-2.7-0.8c-1.1,0-1.9,0.2-2.6,0.6s-1,1-1,1.8c0,0.7,0.3,1.2,0.8,1.5
			s1.5,0.7,3,1c1.3,0.3,2.4,0.6,3.2,0.9c0.8,0.3,1.5,0.8,2.1,1.4c0.6,0.6,0.9,1.5,0.9,2.6c0,1.4-0.5,2.5-1.6,3.4
			c-1.1,0.9-2.5,1.3-4.2,1.3c-2.2,0-3.9-0.5-5-1.5c-1.1-1-1.7-2.3-1.7-3.8l2-0.2c0.1,1.3,0.6,2.2,1.5,2.8c0.9,0.6,1.9,0.9,3.2,0.9
			c1.2,0,2.1-0.2,2.8-0.7c0.7-0.5,1.1-1.1,1.1-2s-0.4-1.5-1.1-1.9c-0.8-0.4-2-0.8-3.8-1.2c-1.8-0.4-3-0.9-3.8-1.6s-1.2-1.6-1.2-2.7
			c0-1.3,0.5-2.3,1.5-3.1c1-0.8,2.3-1.2,4-1.2s3.2,0.4,4.2,1.2c1.1,0.8,1.6,2,1.7,3.5L31,71.2z"/>
		<path d="M27.7,82.8c-2.2,0-4-0.5-5.1-1.5c-1.1-1-1.7-2.3-1.8-4v-0.2l2.3-0.2v0.2c0.1,1.2,0.6,2.1,1.4,2.6c0.8,0.6,1.9,0.8,3.1,0.8
			c1.1,0,2.1-0.2,2.7-0.7c0.7-0.5,1-1,1-1.8s-0.3-1.4-1-1.7c-0.7-0.4-2-0.8-3.7-1.2c-1.8-0.4-3.1-0.9-3.9-1.7
			c-0.8-0.7-1.2-1.7-1.2-2.8c0-1.3,0.5-2.4,1.5-3.3c1-0.8,2.4-1.3,4.1-1.3c1.8,0,3.2,0.4,4.3,1.3c1.1,0.8,1.7,2.1,1.8,3.6v0.2
			l-2.3,0.2v-0.2c-0.1-1-0.4-1.7-1-2.1c-0.6-0.5-1.5-0.7-2.6-0.7c-1,0-1.9,0.2-2.5,0.6c-0.6,0.4-0.9,0.9-0.9,1.6
			c0,0.6,0.2,1.1,0.7,1.4s1.5,0.6,2.9,1c1.3,0.3,2.4,0.6,3.2,0.9s1.6,0.8,2.2,1.4c0.6,0.7,0.9,1.6,0.9,2.7c0,1.4-0.6,2.6-1.7,3.5
			C30.9,82.3,29.4,82.8,27.7,82.8z M21.1,77.4c0.1,1.4,0.7,2.7,1.7,3.6c1.1,1,2.7,1.4,4.9,1.4c1.7,0,3.1-0.4,4.1-1.3
			s1.6-1.9,1.6-3.2c0-1-0.3-1.8-0.8-2.4c-0.6-0.6-1.3-1.1-2.1-1.4c-0.8-0.3-1.9-0.6-3.2-0.9c-1.5-0.3-2.5-0.7-3-1
			c-0.6-0.4-0.9-0.9-0.9-1.7c0-0.8,0.4-1.5,1.1-1.9s1.6-0.6,2.7-0.6c1.2,0,2.2,0.3,2.8,0.8c0.6,0.5,1,1.2,1.1,2.2l1.7-0.1
			c-0.1-1.4-0.6-2.5-1.6-3.2c-1-0.8-2.4-1.2-4.1-1.2s-3,0.4-3.9,1.2c-0.9,0.8-1.4,1.8-1.4,3c0,1.1,0.4,1.9,1.1,2.6
			c0.8,0.7,2,1.2,3.8,1.6s3.1,0.8,3.8,1.2c0.8,0.4,1.2,1.1,1.2,2s-0.4,1.6-1.2,2.1c-0.7,0.5-1.7,0.7-2.9,0.7c-1.3,0-2.4-0.3-3.3-0.9
			c-0.9-0.6-1.4-1.5-1.5-2.7L21.1,77.4z"/>
	</g>
	<g>
		<path d="M46,82.3h-2c-0.2-0.4-0.3-0.8-0.4-1.4c-1.3,1.1-2.7,1.7-4.2,1.7c-1.2,0-2.2-0.3-2.8-0.9s-1-1.4-1-2.4c0-0.9,0.3-1.7,1-2.3
			c0.7-0.6,1.8-1,3.5-1.2l1.8-0.3c0.7-0.1,1.2-0.2,1.7-0.4c0-0.6,0-1-0.1-1.2c0-0.2-0.1-0.5-0.3-0.7c-0.2-0.3-0.5-0.5-0.8-0.6
			c-0.4-0.2-0.9-0.2-1.6-0.2c-0.8,0-1.5,0.2-2,0.5s-0.8,0.9-1,1.7l-1.9-0.2c0.2-1.2,0.7-2,1.6-2.6c0.9-0.6,2-0.9,3.5-0.9
			c1.4,0,2.4,0.2,3,0.6s1,0.9,1.2,1.5c0.1,0.6,0.2,1.3,0.2,2.2v2.6c0,1.6,0,2.6,0.1,3.2C45.5,81.3,45.7,81.8,46,82.3z M43.4,77.3
			v-0.7c-1,0.3-2.2,0.6-3.7,0.8c-1.5,0.2-2.2,0.8-2.2,1.9c0,0.5,0.2,1,0.6,1.3s1,0.5,1.7,0.5c1,0,1.8-0.3,2.5-0.9
			C43.1,79.7,43.4,78.7,43.4,77.3z"/>
		<path d="M39.3,82.8c-1.2,0-2.2-0.3-3-0.9c-0.7-0.6-1.1-1.5-1.1-2.5s0.4-1.8,1.1-2.5c0.7-0.6,1.9-1.1,3.6-1.3l1.8-0.3
			c0.6-0.1,1.1-0.2,1.5-0.4c0-0.5,0-0.9-0.1-1.1c0-0.2-0.1-0.4-0.3-0.7c-0.2-0.2-0.4-0.4-0.8-0.6c-0.4-0.1-0.9-0.2-1.5-0.2
			c-0.8,0-1.4,0.1-1.9,0.4c-0.4,0.3-0.8,0.8-0.9,1.6v0.2l-2.2-0.3V74c0.2-1.2,0.8-2.1,1.7-2.7s2.1-0.9,3.6-0.9
			c1.4,0,2.4,0.2,3.1,0.6c0.7,0.4,1.1,1,1.3,1.6s0.2,1.3,0.2,2.3v2.6c0,1.6,0,2.6,0.1,3.2c0.1,0.5,0.2,1,0.5,1.5l0.1,0.2h-2.4v-0.1
			c-0.2-0.3-0.3-0.7-0.4-1.2C42.2,82.3,40.8,82.8,39.3,82.8z M40.6,72.1c0.7,0,1.2,0.1,1.6,0.2c0.4,0.2,0.7,0.4,0.9,0.7
			c0.2,0.3,0.3,0.6,0.3,0.8c0,0.3,0.1,0.7,0.1,1.3v0.1h-0.1c-0.4,0.2-1,0.3-1.7,0.4l-1.8,0.3c-1.6,0.2-2.8,0.6-3.4,1.2
			c-0.6,0.6-0.9,1.3-0.9,2.2c0,0.9,0.3,1.7,1,2.3c0.7,0.6,1.6,0.9,2.7,0.9c1.5,0,2.8-0.6,4.1-1.6l0.2-0.2V81
			c0.1,0.5,0.2,0.9,0.3,1.3h1.8c-0.2-0.5-0.4-0.9-0.4-1.4c-0.1-0.5-0.1-1.6-0.1-3.2V75c0-0.9-0.1-1.6-0.2-2.2
			c-0.1-0.5-0.5-1-1.1-1.4s-1.6-0.6-2.9-0.6c-1.5,0-2.6,0.3-3.5,0.9c-0.8,0.5-1.3,1.3-1.5,2.4l1.6,0.2c0.2-0.8,0.5-1.4,1-1.7
			C39.1,72.3,39.8,72.1,40.6,72.1z M39.8,81.3c-0.8,0-1.4-0.2-1.8-0.6c-0.4-0.4-0.6-0.8-0.6-1.4c0-1.1,0.8-1.8,2.3-2
			c1.4-0.2,2.7-0.5,3.7-0.8l0.2-0.1v0.9c0,1.4-0.4,2.4-1.2,3C41.7,81,40.8,81.3,39.8,81.3z M43.3,76.9c-1,0.3-2.2,0.6-3.5,0.7
			c-1.4,0.2-2,0.7-2,1.7c0,0.5,0.2,0.9,0.5,1.2c0.4,0.3,0.9,0.5,1.6,0.5c0.9,0,1.7-0.3,2.4-0.8s1-1.5,1-2.8V76.9L43.3,76.9z"/>
	</g>
	<g>
		<path d="M57.6,82.3h-1.9v-6.9c0-1.2-0.2-2-0.6-2.4s-1-0.7-1.7-0.7c-0.6,0-1.1,0.1-1.6,0.4s-0.9,0.7-1.1,1.2
			c-0.2,0.5-0.3,1.2-0.3,2.2v6.2h-1.9V70.9h1.7v1.6l0,0c0.4-0.6,0.9-1.1,1.5-1.4s1.3-0.5,2.1-0.5c0.6,0,1.2,0.1,1.8,0.3
			c0.6,0.2,1,0.5,1.4,1s0.5,0.9,0.6,1.4s0.1,1.1,0.1,2C57.6,75.3,57.6,82.3,57.6,82.3z"/>
		<path d="M57.8,82.5h-2.3v-7.1c0-1.1-0.2-1.9-0.6-2.3c-0.4-0.4-0.9-0.6-1.6-0.6c-0.5,0-1.1,0.1-1.5,0.4c-0.5,0.3-0.8,0.6-1,1.1
			s-0.3,1.2-0.3,2.1v6.4h-2.3V70.8h2.1v1.3c0.4-0.5,0.8-0.8,1.3-1.1c0.6-0.3,1.3-0.5,2.2-0.5c0.6,0,1.2,0.1,1.8,0.3
			c0.6,0.2,1.1,0.6,1.5,1c0.3,0.4,0.6,0.9,0.7,1.4c0.1,0.5,0.1,1.2,0.1,2v7.3L57.8,82.5L57.8,82.5z M55.9,82.2h1.6v-6.8
			c0-0.8,0-1.5-0.1-1.9c-0.1-0.5-0.3-0.9-0.6-1.3s-0.8-0.7-1.3-0.9c-0.6-0.2-1.1-0.3-1.7-0.3c-0.8,0-1.4,0.2-2,0.4
			c-0.6,0.3-1.1,0.7-1.4,1.3v0.1h-0.3v-1.6h-1.4v11.1h1.6v-6.1c0-0.9,0.1-1.7,0.3-2.2s0.6-1,1.2-1.3c0.5-0.3,1.1-0.4,1.7-0.4
			c0.8,0,1.4,0.2,1.9,0.7s0.7,1.3,0.7,2.5C55.9,75.4,55.9,82.2,55.9,82.2z"/>
	</g>
	<g>
		<path d="M81.9,82.3h-2V69.2l0,0l-4.5,13.2h-1.9L69,69h-0.1v13.4h-2V66.6H70l3.7,11.1c0.4,1.2,0.7,2,0.7,2.3l0,0
			c0.2-0.6,0.5-1.4,0.8-2.5l3.8-11h2.8L81.9,82.3L81.9,82.3z"/>
		<path d="M82,82.5h-2.3V70l-4.3,12.5h-2.1L69,69.8v12.7h-2.3V66.4h3.4l3.8,11.3c0.3,0.8,0.5,1.4,0.6,1.9c0.2-0.6,0.4-1.2,0.7-2.1
			L79,66.4h3.1L82,82.5L82,82.5z M80,82.2h1.7V66.8h-2.5l-3.7,10.8c-0.4,1.1-0.6,1.9-0.8,2.5v0.1h-0.3v-0.1
			c-0.1-0.3-0.3-1.1-0.7-2.3l-3.7-11h-2.8v15.4h1.5V68.8h0.4l4.5,13.4h1.6L79.7,69H80V82.2L80,82.2z"/>
	</g>
	<g>
		<path d="M94.9,82.3h-2c-0.2-0.4-0.3-0.8-0.4-1.4c-1.3,1.1-2.7,1.7-4.2,1.7c-1.2,0-2.2-0.3-2.8-0.9s-1-1.4-1-2.4
			c0-0.9,0.3-1.7,1-2.3s1.8-1,3.5-1.2l1.8-0.3c0.7-0.1,1.2-0.2,1.7-0.4c0-0.6,0-1-0.1-1.2c0-0.2-0.1-0.5-0.3-0.7
			c-0.2-0.3-0.5-0.5-0.8-0.6c-0.4-0.2-0.9-0.2-1.6-0.2c-0.8,0-1.5,0.2-2,0.5s-0.8,0.9-1,1.7l-2-0.4c0.2-1.2,0.7-2,1.6-2.6
			s2-0.9,3.5-0.9c1.4,0,2.4,0.2,3,0.6s1,0.9,1.2,1.5c0.1,0.6,0.2,1.3,0.2,2.2v2.6c0,1.6,0,2.6,0.1,3.2
			C94.4,81.3,94.6,81.8,94.9,82.3z M92.3,77.3v-0.7c-1,0.3-2.2,0.6-3.7,0.8s-2.2,0.8-2.2,1.9c0,0.5,0.2,1,0.6,1.3s1,0.5,1.7,0.5
			c1,0,1.8-0.3,2.5-0.9C92,79.7,92.3,78.7,92.3,77.3z"/>
		<path d="M88.3,82.8c-1.2,0-2.2-0.3-3-0.9c-0.7-0.6-1.1-1.5-1.1-2.5s0.4-1.8,1.1-2.5c0.7-0.6,1.9-1.1,3.6-1.3l1.8-0.3
			c0.6-0.1,1.1-0.2,1.5-0.4c0-0.5,0-0.9-0.1-1.1c0-0.2-0.1-0.4-0.3-0.7c-0.2-0.2-0.4-0.4-0.8-0.6c-0.4-0.1-0.9-0.2-1.5-0.2
			c-0.8,0-1.4,0.1-1.9,0.4c-0.4,0.3-0.8,0.8-0.9,1.6v0.2l-2.2-0.3V74c0.2-1.2,0.8-2.1,1.7-2.7c0.9-0.6,2.1-0.9,3.6-0.9
			c1.4,0,2.4,0.2,3.1,0.6s1.1,1,1.3,1.6c0.1,0.6,0.2,1.3,0.2,2.3v2.6c0,1.6,0,2.6,0.1,3.2c0.1,0.5,0.2,1,0.5,1.5l0.1,0.2h-2.4v-0.1
			c-0.2-0.3-0.3-0.7-0.4-1.2C91.1,82.3,89.7,82.8,88.3,82.8z M89.6,72.1c0.7,0,1.2,0.1,1.6,0.2c0.4,0.2,0.7,0.4,0.9,0.7
			c0.2,0.3,0.3,0.6,0.3,0.8c0,0.3,0.1,0.7,0.1,1.3v0.1h-0.1c-0.4,0.2-1,0.3-1.7,0.4l-1.8,0.3c-1.6,0.2-2.8,0.6-3.4,1.2
			s-0.9,1.3-0.9,2.2c0,0.9,0.3,1.7,1,2.3c0.7,0.6,1.6,0.9,2.7,0.9c1.5,0,2.8-0.6,4.1-1.6l0.2-0.2V81c0.1,0.5,0.2,0.9,0.3,1.3h1.6
			c-0.2-0.5-0.4-0.9-0.4-1.4C94,80.4,94,79.3,94,77.7V75c0-0.9-0.1-1.6-0.2-2.2c-0.1-0.5-0.5-1-1.1-1.4s-1.6-0.6-2.9-0.6
			c-1.5,0-2.6,0.3-3.5,0.9c-0.8,0.5-1.3,1.3-1.5,2.4l1.6,0.2c0.2-0.8,0.5-1.4,1-1.7C88,72.3,88.7,72.1,89.6,72.1z M88.7,81.3
			c-0.8,0-1.4-0.2-1.8-0.6s-0.6-0.8-0.6-1.4c0-1.1,0.8-1.8,2.3-2c1.4-0.2,2.7-0.5,3.7-0.8l0.2-0.1v0.9c0,1.4-0.4,2.4-1.2,3
			C90.6,81,89.7,81.3,88.7,81.3z M92.2,76.9c-1,0.3-2.2,0.6-3.5,0.7c-1.4,0.2-2,0.7-2,1.7c0,0.5,0.2,0.9,0.5,1.2
			c0.4,0.3,0.9,0.5,1.6,0.5c0.9,0,1.7-0.3,2.4-0.8c0.7-0.5,1-1.5,1-2.8V76.9z"/>
	</g>
	<g>
		<path d="M103.4,71.3l-0.7,1.8c-0.5-0.3-0.9-0.4-1.4-0.4c-0.7,0-1.3,0.3-1.6,1c-0.4,0.6-0.6,1.6-0.6,2.7v6h-1.9V70.9H99v1.7l0,0
			c0.6-1.3,1.4-2,2.4-2C102.1,70.7,102.7,70.9,103.4,71.3z"/>
		<path d="M99.3,82.5H97V70.8h2.1v1.3c0.6-1,1.4-1.5,2.3-1.5c0.7,0,1.4,0.2,2.1,0.6l0.1,0.1l-0.8,2.1l-0.2-0.1
			c-0.5-0.3-0.9-0.4-1.3-0.4c-0.7,0-1.2,0.3-1.5,0.9c-0.4,0.6-0.5,1.5-0.5,2.6C99.3,76.4,99.3,82.5,99.3,82.5z M97.3,82.2h1.6v-5.8
			c0-1.2,0.2-2.1,0.6-2.8c0.4-0.7,1-1.1,1.8-1.1c0.4,0,0.9,0.1,1.3,0.3l0.6-1.5c-0.6-0.3-1.2-0.5-1.8-0.5c-0.9,0-1.7,0.6-2.3,1.9
			v0.1h-0.3v-1.7h-1.4C97.3,71.1,97.3,82.2,97.3,82.2z"/>
	</g>
	<g>
		<path d="M113.9,78.4c-0.3,1.5-0.8,2.5-1.7,3.2c-0.9,0.7-1.9,1-3,1c-1.7,0-2.9-0.5-3.8-1.6s-1.4-2.5-1.4-4.3c0-1.5,0.3-2.7,0.8-3.6
			s1.2-1.5,1.9-1.9c0.8-0.4,1.6-0.5,2.5-0.5c1.2,0,2.2,0.3,3,0.9s1.3,1.5,1.5,2.7l-1.9,0.3c-0.2-0.8-0.5-1.3-0.9-1.7
			c-0.4-0.4-1-0.6-1.7-0.6c-1.1,0-1.9,0.4-2.5,1.1s-0.8,1.8-0.8,3.2c0,1.4,0.3,2.5,0.8,3.2s1.3,1.1,2.4,1.1c0.8,0,1.5-0.2,2-0.7
			s0.8-1.2,0.9-2.1L113.9,78.4z"/>
		<path d="M109.1,82.8c-1.7,0-3-0.6-4-1.7c-0.9-1.1-1.4-2.6-1.4-4.4c0-1.5,0.3-2.7,0.8-3.6s1.2-1.6,2-1.9c0.8-0.4,1.7-0.6,2.5-0.6
			c1.2,0,2.3,0.3,3.1,0.9c0.9,0.6,1.4,1.6,1.6,2.8v0.2l-2.2,0.3v-0.1c-0.2-0.7-0.5-1.3-0.9-1.6c-0.4-0.4-0.9-0.5-1.5-0.5
			c-1,0-1.8,0.4-2.3,1.1s-0.8,1.8-0.8,3.1c0,1.4,0.3,2.4,0.8,3.2c0.5,0.7,1.2,1.1,2.2,1.1c0.8,0,1.4-0.2,1.8-0.7
			c0.4-0.4,0.7-1.1,0.8-2v-0.2l2.3,0.3v0.2c-0.3,1.5-0.9,2.6-1.8,3.3C111.4,82.4,110.3,82.8,109.1,82.8z M109.1,70.9
			c-0.8,0-1.6,0.2-2.4,0.5c-0.7,0.3-1.4,1-1.9,1.8c-0.5,0.9-0.8,2-0.8,3.5c0,1.7,0.4,3.2,1.3,4.2s2.1,1.6,3.7,1.6
			c1.1,0,2.1-0.3,2.9-1c0.8-0.6,1.4-1.6,1.6-2.9l-1.6-0.2c-0.1,0.9-0.4,1.6-0.9,2.1s-1.2,0.8-2.1,0.8c-1.1,0-1.9-0.4-2.5-1.2
			c-0.6-0.8-0.9-1.9-0.9-3.3s0.3-2.5,0.9-3.3s1.5-1.2,2.6-1.2c0.7,0,1.3,0.2,1.8,0.6c0.4,0.4,0.7,0.9,1,1.7l1.6-0.2
			c-0.2-1.1-0.7-1.9-1.4-2.4C111.3,71.2,110.3,70.9,109.1,70.9z"/>
	</g>
	<g>
		<path d="M120.2,70.7c1.5,0,2.8,0.5,3.8,1.5s1.5,2.4,1.5,4.3c0,2.2-0.5,3.8-1.6,4.8c-1.1,0.9-2.3,1.4-3.7,1.4
			c-1.4,0-2.7-0.5-3.7-1.4c-1.1-1-1.6-2.5-1.6-4.5s0.5-3.5,1.5-4.5C117.4,71.2,118.7,70.7,120.2,70.7z M120.2,81
			c1.1,0,1.9-0.4,2.5-1.2c0.6-0.8,0.9-1.9,0.9-3.2c0-1.4-0.3-2.5-1-3.2c-0.6-0.7-1.4-1.1-2.4-1.1s-1.8,0.4-2.4,1.1s-0.9,1.8-0.9,3.3
			c0,1.4,0.3,2.5,1,3.3C118.4,80.7,119.2,81,120.2,81z"/>
		<path d="M120.2,82.8c-1.5,0-2.8-0.5-3.9-1.5s-1.6-2.5-1.6-4.7c0-2,0.5-3.6,1.6-4.6s2.4-1.5,3.9-1.5c1.6,0,2.9,0.5,3.9,1.6
			c1,1,1.6,2.5,1.6,4.4c0,2.3-0.6,3.9-1.7,4.9C122.9,82.3,121.6,82.8,120.2,82.8z M120.2,70.9c-1.5,0-2.7,0.5-3.7,1.4
			s-1.5,2.4-1.5,4.4s0.5,3.5,1.5,4.4s2.2,1.4,3.6,1.4c1.3,0,2.5-0.5,3.6-1.4s1.6-2.4,1.6-4.6c0-1.8-0.5-3.2-1.5-4.2
			C122.9,71.3,121.7,70.9,120.2,70.9z M120.2,81.2c-1,0-1.9-0.4-2.5-1.2c-0.7-0.8-1-1.9-1-3.4s0.3-2.6,1-3.4s1.5-1.2,2.5-1.2
			s1.8,0.4,2.5,1.1c0.7,0.8,1,1.9,1,3.3s-0.3,2.5-0.9,3.3C122.3,80.8,121.4,81.2,120.2,81.2z M120.2,72.4c-0.9,0-1.7,0.3-2.3,1
			c-0.6,0.7-0.9,1.8-0.9,3.2c0,1.4,0.3,2.5,0.9,3.2s1.4,1,2.3,1c1.1,0,1.8-0.4,2.4-1.2c0.6-0.8,0.8-1.8,0.8-3.1
			c0-1.4-0.3-2.4-0.9-3.1C121.9,72.8,121.1,72.4,120.2,72.4z"/>
	</g>
	<g>
		<path d="M134.2,74.1c-0.1-0.6-0.3-1.1-0.8-1.4c-0.4-0.3-1-0.5-1.7-0.5s-1.3,0.1-1.8,0.4s-0.7,0.6-0.7,1.1s0.2,0.8,0.5,1
			s1.1,0.4,2.1,0.7c1.2,0.3,2.1,0.6,2.7,0.8c0.6,0.2,1.1,0.6,1.4,1c0.3,0.4,0.5,1,0.5,1.8c0,1-0.4,1.9-1.2,2.6s-1.9,1-3.3,1
			c-1.4,0-2.6-0.3-3.4-0.9c-0.8-0.6-1.3-1.5-1.5-2.8l1.9-0.3c0.1,0.8,0.4,1.4,0.9,1.8s1.2,0.6,2.1,0.6c0.8,0,1.5-0.2,1.9-0.5
			c0.5-0.4,0.7-0.8,0.7-1.3c0-0.3-0.1-0.6-0.3-0.8c-0.2-0.2-0.5-0.4-0.8-0.5s-1-0.3-2.1-0.6c-1.6-0.4-2.7-0.9-3.2-1.4
			c-0.5-0.6-0.8-1.2-0.8-2c0-1,0.4-1.7,1.1-2.4c0.8-0.6,1.8-0.9,3.1-0.9c1.4,0,2.4,0.3,3.2,0.8s1.2,1.3,1.4,2.4L134.2,74.1z"/>
		<path d="M131.9,82.8c-1.5,0-2.7-0.3-3.5-1c-0.8-0.6-1.4-1.6-1.6-2.9v-0.2l2.3-0.3v0.2c0.1,0.7,0.4,1.3,0.8,1.7
			c0.5,0.4,1.1,0.6,2,0.6c0.8,0,1.4-0.2,1.8-0.5c0.4-0.3,0.6-0.7,0.6-1.2c0-0.3-0.1-0.5-0.3-0.7s-0.4-0.3-0.7-0.4s-1-0.3-2.1-0.5
			c-1.7-0.4-2.7-0.9-3.3-1.5c-0.5-0.6-0.8-1.3-0.8-2.1c0-1,0.4-1.8,1.2-2.5c0.8-0.6,1.9-1,3.2-1c1.4,0,2.5,0.3,3.3,0.8
			c0.8,0.6,1.3,1.4,1.4,2.5V74l-2.2,0.3v-0.2c-0.1-0.6-0.3-1-0.7-1.3s-0.9-0.4-1.6-0.4c-0.7,0-1.3,0.1-1.7,0.4
			c-0.4,0.2-0.6,0.5-0.6,0.9s0.1,0.7,0.5,0.8c0.3,0.2,1.1,0.4,2.1,0.7c1.2,0.3,2.1,0.6,2.7,0.8c0.6,0.2,1.1,0.6,1.5,1
			c0.4,0.5,0.5,1.1,0.5,1.9c0,1.1-0.4,2-1.3,2.7C134.5,82.4,133.3,82.8,131.9,82.8z M127.2,79.1c0.2,1.1,0.7,1.9,1.4,2.5
			c0.8,0.6,1.9,0.9,3.3,0.9c1.3,0,2.4-0.3,3.2-1s1.2-1.5,1.2-2.4c0-0.7-0.2-1.3-0.5-1.7c-0.3-0.4-0.8-0.7-1.3-0.9
			c-0.6-0.2-1.5-0.5-2.7-0.8c-1.1-0.3-1.8-0.5-2.2-0.7s-0.6-0.6-0.6-1.1s0.3-1,0.8-1.2c0.5-0.3,1.1-0.4,1.9-0.4
			c0.8,0,1.4,0.2,1.8,0.5c0.4,0.3,0.7,0.8,0.8,1.3l1.6-0.2c-0.2-0.9-0.6-1.6-1.3-2.1s-1.8-0.8-3.1-0.8c-1.2,0-2.2,0.3-3,0.9
			c-0.7,0.6-1.1,1.3-1.1,2.2c0,0.7,0.2,1.3,0.7,1.9c0.5,0.5,1.5,1,3.1,1.4c1.1,0.3,1.8,0.5,2.1,0.6s0.6,0.3,0.8,0.5s0.4,0.6,0.4,0.9
			c0,0.6-0.2,1-0.7,1.4s-1.2,0.6-2,0.6c-0.9,0-1.6-0.2-2.2-0.6c-0.5-0.4-0.8-1-0.9-1.7L127.2,79.1z"/>
	</g>
</g>
<g>
	<g>
		<path class="st0" d="M35,26.3c-2,1.6-4.2,2.5-6.5,2.5c-2.4,0-4.4-0.7-5.8-2.2c-1.5-1.5-2.2-3.4-2.2-5.9c0-1.5,0.3-2.9,0.9-4.2
			s1.5-2.3,2.7-3s2.6-1.1,4.3-1.1c1.8,0,3.2,0.4,4.3,1.2s1.8,1.9,2.2,3.5L33,17.6c-0.3-1.1-0.8-2-1.6-2.6s-1.8-0.9-3-0.9
			c-1.9,0-3.3,0.6-4.3,1.7c-1,1.2-1.4,2.7-1.4,4.6c0,1.4,0.2,2.6,0.7,3.5s1.2,1.6,2.1,2.1s1.9,0.7,3,0.7c1.6,0,3.2-0.5,4.6-1.6v-2.9
			h-4.6v-1.9H35C35,20.5,35,26.3,35,26.3z"/>
		<path class="st0" d="M28.4,29c-2.4,0-4.5-0.8-6-2.3s-2.3-3.5-2.3-6c0-1.5,0.3-2.9,0.9-4.2s1.5-2.3,2.7-3.1
			c1.2-0.7,2.7-1.1,4.4-1.1c1.8,0,3.3,0.4,4.4,1.2c1.1,0.8,1.8,2,2.2,3.6v0.2l-2.2,0.6v-0.2c-0.3-1.1-0.8-1.9-1.5-2.5
			c-0.7-0.5-1.7-0.8-2.9-0.8c-1.8,0-3.2,0.6-4.2,1.7c-0.9,1.1-1.4,2.6-1.4,4.4c0,1.4,0.2,2.5,0.7,3.4s1.1,1.6,2,2
			c0.9,0.5,1.9,0.7,2.9,0.7c1.6,0,3.1-0.5,4.4-1.5v-2.7h-4.6v-2.2h7v6.1h-0.1C33.1,28.1,30.8,29,28.4,29z M28.3,12.7
			c-1.7,0-3.1,0.3-4.2,1s-2,1.7-2.6,2.9c-0.6,1.3-0.9,2.6-0.9,4.1c0,2.4,0.7,4.3,2.2,5.8c1.4,1.4,3.4,2.2,5.7,2.2s4.4-0.8,6.3-2.4
			v-5.6h-6.3v1.5h4.6v3.2H33c-1.4,1.1-3,1.7-4.7,1.7c-1.1,0-2.1-0.2-3.1-0.7c-0.9-0.5-1.7-1.2-2.2-2.2c-0.5-0.9-0.7-2.2-0.7-3.6
			c0-1.9,0.5-3.5,1.5-4.7s2.5-1.8,4.4-1.8c1.3,0,2.3,0.3,3.1,0.9c0.7,0.6,1.3,1.4,1.6,2.5l1.6-0.4c-0.4-1.4-1.1-2.5-2.1-3.2
			C31.4,13.1,30,12.7,28.3,12.7z"/>
	</g>
	<g>
		<path class="st0" d="M44,17.5l-0.7,1.8c-0.5-0.3-0.9-0.4-1.4-0.4c-0.7,0-1.3,0.3-1.6,1c-0.4,0.6-0.6,1.6-0.6,2.7v6h-1.9V17.1h1.8
			v1.7l0,0c0.6-1.3,1.4-2,2.4-2C42.6,16.9,43.3,17.1,44,17.5z"/>
		<path class="st0" d="M39.9,28.7h-2.3V17h2.1v1.3c0.6-1,1.4-1.5,2.3-1.5c0.7,0,1.4,0.2,2.1,0.6l0.1,0.1l-0.8,2.1l-0.2-0.1
			c-0.5-0.3-0.9-0.4-1.3-0.4c-0.7,0-1.2,0.3-1.5,0.9c-0.4,0.6-0.5,1.5-0.5,2.6C39.9,22.6,39.9,28.7,39.9,28.7z M37.9,28.4h1.6v-5.8
			c0-1.2,0.2-2.1,0.6-2.8c0.4-0.7,1-1.1,1.8-1.1c0.4,0,0.9,0.1,1.3,0.3l0.6-1.5C43.2,17.2,42.6,17,42,17c-0.9,0-1.7,0.6-2.3,1.9V19
			h-0.3v-1.7H38L37.9,28.4L37.9,28.4z"/>
	</g>
	<g>
		<path class="st0" d="M54.4,28.5h-1.7v-1.7h-0.1c-0.9,1.3-2.1,1.9-3.6,1.9c-0.8,0-1.5-0.2-2.2-0.6s-1.1-0.9-1.4-1.5
			c-0.2-0.6-0.3-1.5-0.3-2.5V17H47v6.3c0,1,0,1.7,0.1,2.2s0.3,0.8,0.8,1.1c0.4,0.3,0.9,0.4,1.5,0.4c0.7,0,1.4-0.3,2.1-0.8
			c0.6-0.5,1-1.6,1-3.1V17h1.9L54.4,28.5L54.4,28.5z"/>
		<path class="st0" d="M49,29c-0.8,0-1.6-0.2-2.3-0.6s-1.2-0.9-1.4-1.6S45,25.3,45,24.2V17h2.3v6.5c0,1,0,1.7,0.1,2.1s0.3,0.7,0.7,1
			s0.8,0.4,1.4,0.4c0.7,0,1.3-0.2,2-0.7c0.6-0.5,0.9-1.5,0.9-3V17h2.3v11.7h-2.1v-1.4C51.6,28.4,50.5,29,49,29z M45.3,17.3v6.9
			c0,1,0.1,1.8,0.3,2.5c0.2,0.6,0.6,1.1,1.3,1.4c0.6,0.4,1.4,0.5,2.1,0.5c1.5,0,2.6-0.6,3.4-1.9v-0.1h0.3v1.7h1.4v-11h-1.6v5.9
			c0,1.7-0.3,2.7-1,3.3c-0.7,0.5-1.4,0.8-2.2,0.8c-0.6,0-1.1-0.2-1.6-0.5c-0.4-0.3-0.7-0.7-0.8-1.2s-0.1-1.2-0.1-2.2v-6.1
			C46.8,17.3,45.3,17.3,45.3,17.3z"/>
	</g>
	<g>
		<path class="st0" d="M59.2,18.6c0.7-1.2,1.8-1.7,3.3-1.7s2.7,0.5,3.5,1.6c0.9,1.1,1.3,2.5,1.3,4.2c0,1.9-0.5,3.3-1.4,4.4
			c-1,1.1-2.1,1.6-3.5,1.6c-1.2,0-2.2-0.5-2.9-1.5h-0.1v5.6h-1.9V17.1h1.8L59.2,18.6L59.2,18.6z M62.2,27.2c0.9,0,1.6-0.4,2.2-1.1
			c0.6-0.7,0.9-1.9,0.9-3.3s-0.3-2.5-0.9-3.2c-0.6-0.8-1.3-1.1-2.2-1.1s-1.7,0.4-2.3,1.3c-0.6,0.8-0.9,1.9-0.9,3.3s0.3,2.5,0.8,3.2
			C60.6,26.9,61.3,27.2,62.2,27.2z"/>
		<path class="st0" d="M59.5,33.1h-2.3V17h2.1v1.2c0.7-0.9,1.8-1.4,3.1-1.4c1.5,0,2.8,0.6,3.7,1.7s1.3,2.6,1.3,4.3
			c0,1.9-0.5,3.4-1.5,4.5S63.7,29,62.2,29c-1.1,0-2.1-0.4-2.8-1.2L59.5,33.1L59.5,33.1z M57.6,32.8h1.6v-5.6h0.3v0.1
			c0.7,0.9,1.6,1.4,2.8,1.4c1.3,0,2.5-0.5,3.4-1.6s1.4-2.5,1.4-4.3c0-1.7-0.4-3.1-1.3-4.1c-0.8-1-2-1.6-3.4-1.6s-2.4,0.5-3.1,1.7
			v0.1H59v-1.5h-1.4V32.8z M62.2,27.4c-1,0-1.7-0.4-2.3-1.2c-0.6-0.8-0.9-1.9-0.9-3.3s0.3-2.5,0.9-3.4c0.6-0.9,1.4-1.3,2.4-1.3
			c0.9,0,1.7,0.4,2.3,1.2c0.6,0.8,0.9,1.9,0.9,3.3c0,1.5-0.3,2.7-0.9,3.4C64,27,63.2,27.4,62.2,27.4z M62.3,18.6
			c-0.9,0-1.6,0.4-2.1,1.2c-0.6,0.8-0.9,1.9-0.9,3.2c0,1.4,0.3,2.4,0.8,3.1s1.2,1,2.1,1c0.9,0,1.5-0.3,2.1-1.1
			c0.6-0.7,0.8-1.8,0.8-3.2c0-1.4-0.3-2.4-0.8-3.1C63.8,18.9,63.1,18.6,62.3,18.6z"/>
	</g>
	<g>
		<path class="st0" d="M74.3,16.9c1.5,0,2.8,0.5,3.8,1.5s1.5,2.4,1.5,4.3c0,2.2-0.5,3.8-1.6,4.8c-1.1,0.9-2.3,1.4-3.7,1.4
			c-1.4,0-2.7-0.5-3.7-1.4C69.5,26.5,69,25,69,23s0.5-3.5,1.5-4.5C71.5,17.4,72.8,16.9,74.3,16.9z M74.3,27.2c1.1,0,1.9-0.4,2.5-1.2
			c0.6-0.8,0.9-1.9,0.9-3.2c0-1.4-0.3-2.5-1-3.2c-0.6-0.7-1.4-1.1-2.4-1.1s-1.8,0.4-2.4,1.1S71,21.4,71,22.9c0,1.4,0.3,2.5,1,3.3
			C72.5,26.9,73.3,27.2,74.3,27.2z"/>
		<path class="st0" d="M74.3,29c-1.5,0-2.8-0.5-3.9-1.5s-1.6-2.5-1.6-4.7c0-2,0.5-3.6,1.6-4.6s2.4-1.5,3.9-1.5
			c1.6,0,2.9,0.5,3.9,1.6c1,1,1.6,2.5,1.6,4.4c0,2.3-0.6,3.9-1.7,4.9C77,28.5,75.7,29,74.3,29z M74.3,17.1c-1.5,0-2.7,0.5-3.7,1.4
			s-1.5,2.4-1.5,4.4s0.5,3.5,1.5,4.4s2.2,1.4,3.6,1.4c1.3,0,2.5-0.5,3.6-1.4s1.6-2.4,1.6-4.6c0-1.8-0.5-3.2-1.5-4.2
			C77,17.5,75.8,17.1,74.3,17.1z M74.3,27.4c-1,0-1.9-0.4-2.5-1.2c-0.7-0.8-1-1.9-1-3.4s0.3-2.6,1-3.4s1.5-1.2,2.5-1.2
			s1.8,0.4,2.5,1.1c0.7,0.8,1,1.9,1,3.3s-0.3,2.5-0.9,3.3C76.3,27,75.4,27.4,74.3,27.4z M74.3,18.6c-0.9,0-1.7,0.3-2.3,1
			c-0.6,0.7-0.9,1.8-0.9,3.2c0,1.4,0.3,2.5,0.9,3.2s1.4,1,2.3,1c1.1,0,1.8-0.4,2.4-1.2c0.6-0.8,0.8-1.8,0.8-3.1
			c0-1.4-0.3-2.4-0.9-3.1C75.9,19,75.2,18.6,74.3,18.6z"/>
	</g>
	<g>
		<path class="st0" d="M23.4,54.9h-2.1V39.2h2.1V54.9L23.4,54.9z"/>
		<path class="st0" d="M23.5,55.1h-2.4V39h2.4V55.1z M21.4,54.8h1.8V39.4h-1.8V54.8z"/>
	</g>
	<g>
		<path class="st0" d="M36.1,54.9h-1.9V48c0-1.2-0.2-2-0.6-2.4c-0.4-0.4-1-0.7-1.7-0.7c-0.6,0-1.1,0.1-1.6,0.4
			c-0.5,0.3-0.9,0.7-1.1,1.2s-0.3,1.2-0.3,2.2v6.2H27V43.5h1.7v1.6l0,0c0.4-0.6,0.9-1.1,1.5-1.4s1.3-0.5,2.1-0.5
			c0.6,0,1.2,0.1,1.8,0.3s1,0.5,1.4,1s0.5,0.9,0.6,1.4s0.1,1.1,0.1,2L36.1,54.9L36.1,54.9z"/>
		<path class="st0" d="M36.3,55.1H34V48c0-1.1-0.2-1.9-0.6-2.3c-0.4-0.4-0.9-0.6-1.6-0.6c-0.5,0-1.1,0.1-1.5,0.4
			c-0.5,0.3-0.8,0.6-1,1.1S29,47.8,29,48.7v6.4h-2.3V43.4h2.1v1.3c0.4-0.5,0.8-0.8,1.3-1.1c0.6-0.3,1.3-0.5,2.2-0.5
			c0.6,0,1.2,0.1,1.8,0.3s1.1,0.6,1.5,1c0.3,0.4,0.6,0.9,0.7,1.4c0.1,0.5,0.1,1.2,0.1,2L36.3,55.1C36.4,55.1,36.3,55.1,36.3,55.1z
			 M34.4,54.8H36V48c0-0.8,0-1.5-0.1-1.9c-0.1-0.5-0.3-0.9-0.6-1.3c-0.3-0.4-0.8-0.7-1.3-0.9c-0.6-0.2-1.1-0.3-1.7-0.3
			c-0.8,0-1.4,0.2-2,0.4c-0.6,0.3-1.1,0.7-1.4,1.3v0.1h-0.3v-1.6H27v11.1h1.6v-6.1c0-0.9,0.1-1.7,0.3-2.2c0.2-0.5,0.6-1,1.2-1.3
			c0.5-0.3,1.1-0.4,1.7-0.4c0.8,0,1.4,0.2,1.9,0.7s0.7,1.3,0.7,2.5V54.8z"/>
	</g>
	<g>
		<path class="st0" d="M43.5,54.9c-0.6,0.1-1.1,0.2-1.4,0.2c-0.8,0-1.5-0.1-1.8-0.4c-0.4-0.3-0.6-0.7-0.7-1.1
			c-0.1-0.5-0.1-1.1-0.1-1.9V45H38v-1.5h1.4v-2.8l1.9-1.2v4h1.9V45h-1.9v6.7c0,0.6,0.1,1,0.2,1.2c0.1,0.2,0.4,0.4,0.9,0.4
			c0.3,0,0.6,0,0.9-0.1L43.5,54.9z"/>
		<path class="st0" d="M42.1,55.3c-0.9,0-1.5-0.2-1.9-0.5s-0.7-0.7-0.8-1.2s-0.1-1.1-0.1-1.9v-6.4h-1.4v-1.8h1.4v-2.8l2.3-1.4v4.1
			h1.9v1.8h-1.9v6.5c0,0.5,0.1,0.9,0.2,1.1c0.1,0.2,0.3,0.3,0.7,0.3c0.3,0,0.5,0,0.8-0.1h0.2l0.3,2h-0.2
			C43,55.2,42.5,55.3,42.1,55.3z M38.1,44.9h1.4v6.7c0,0.8,0,1.4,0.1,1.9c0.1,0.4,0.3,0.8,0.6,1c0.4,0.3,0.9,0.4,1.7,0.4
			c0.3,0,0.8,0,1.3-0.1L43,53.4c-0.2,0-0.5,0.1-0.7,0.1c-0.5,0-0.9-0.2-1-0.5s-0.2-0.7-0.2-1.3v-6.8H43v-1.2h-1.9v-3.9l-1.6,1v2.9
			h-1.4V44.9z"/>
	</g>
	<g>
		<path class="st0" d="M55.1,49.7h-8.5c0.1,1.3,0.4,2.2,1.1,2.9c0.6,0.7,1.4,1,2.4,1c0.7,0,1.4-0.2,1.9-0.6c0.5-0.4,0.9-1,1.1-1.8
			l2,0.2c-0.3,1.2-0.9,2.1-1.8,2.7c-0.9,0.6-1.9,1-3.2,1c-1.7,0-3-0.5-4-1.6s-1.4-2.5-1.4-4.3s0.5-3.3,1.4-4.4s2.2-1.7,3.9-1.7
			c0.8,0,1.6,0.2,2.4,0.5c0.8,0.4,1.4,1,2,1.9C54.8,46.6,55.1,47.9,55.1,49.7z M53.1,48.1c-0.1-1.2-0.4-2-1.1-2.5
			c-0.6-0.5-1.3-0.8-2.1-0.8c-0.9,0-1.7,0.3-2.2,0.9c-0.6,0.6-0.9,1.4-1,2.4C46.7,48.1,53.1,48.1,53.1,48.1z"/>
		<path class="st0" d="M50,55.4c-1.8,0-3.1-0.5-4.1-1.6s-1.5-2.6-1.5-4.4c0-1.8,0.5-3.3,1.4-4.5c1-1.2,2.3-1.7,4.1-1.7
			c0.9,0,1.7,0.2,2.5,0.6c0.8,0.4,1.5,1,2,1.9c0.6,0.9,0.8,2.3,0.8,4.1V50h-8.5c0.1,1.1,0.4,2,1,2.6s1.4,0.9,2.3,0.9
			c0.7,0,1.3-0.2,1.8-0.5c0.5-0.4,0.8-0.9,1.1-1.7v-0.1l2.3,0.3v0.2c-0.3,1.2-0.9,2.2-1.8,2.8C52.5,55,51.3,55.4,50,55.4z
			 M49.9,43.5c-1.6,0-2.9,0.5-3.8,1.6c-0.9,1.1-1.4,2.5-1.4,4.3s0.5,3.2,1.4,4.2s2.2,1.5,3.9,1.5c1.2,0,2.3-0.3,3.1-0.9
			c0.8-0.6,1.3-1.4,1.7-2.5l-1.7-0.2c-0.3,0.8-0.7,1.3-1.2,1.7s-1.2,0.6-2,0.6c-1,0-1.9-0.4-2.5-1c-0.7-0.7-1-1.7-1.1-3v-0.2h8.5
			c0-1.7-0.3-3-0.8-3.8s-1.2-1.5-1.9-1.8C51.5,43.6,50.7,43.5,49.9,43.5z M53.3,48.3h-6.8v-0.2c0.1-1,0.5-1.8,1.1-2.5
			c0.6-0.6,1.4-1,2.4-1c0.8,0,1.5,0.3,2.2,0.8s1.1,1.4,1.1,2.6V48.3z M46.8,48h6.1c-0.1-1-0.4-1.8-1-2.2c-0.6-0.5-1.3-0.7-2-0.7
			c-0.9,0-1.6,0.3-2.1,0.9C47.3,46.4,47,47.1,46.8,48z"/>
	</g>
	<g>
		<path class="st0" d="M63.6,43.9l-0.7,1.8c-0.5-0.3-0.9-0.4-1.4-0.4c-0.7,0-1.3,0.3-1.6,1c-0.4,0.6-0.6,1.6-0.6,2.7v6h-1.9V43.5
			h1.8v1.7l0,0c0.6-1.3,1.4-2,2.4-2C62.2,43.3,62.9,43.5,63.6,43.9z"/>
		<path class="st0" d="M59.5,55.1h-2.3V43.4h2.1v1.3c0.6-1,1.4-1.5,2.3-1.5c0.7,0,1.4,0.2,2.1,0.6l0.1,0.1l-0.8,2l-0.2-0.1
			c-0.5-0.3-0.9-0.4-1.3-0.4c-0.7,0-1.2,0.3-1.5,0.9c-0.4,0.6-0.5,1.5-0.5,2.6L59.5,55.1L59.5,55.1z M57.5,54.8h1.6V49
			c0-1.2,0.2-2.1,0.6-2.8c0.4-0.7,1-1.1,1.8-1.1c0.4,0,0.9,0.1,1.3,0.3l0.5-1.5c-0.6-0.3-1.2-0.5-1.8-0.5c-0.9,0-1.7,0.6-2.3,1.9
			v0.1h-0.3v-1.7h-1.4C57.5,43.7,57.5,54.8,57.5,54.8z"/>
	</g>
	<g>
		<path class="st0" d="M66.6,45c0.7-1.2,1.8-1.7,3.3-1.7s2.7,0.5,3.5,1.6c0.9,1.1,1.3,2.5,1.3,4.2c0,1.9-0.5,3.3-1.4,4.4
			c-1,1.1-2.1,1.6-3.5,1.6c-1.2,0-2.2-0.5-2.9-1.5h-0.1v5.6h-1.9V43.5h1.8L66.6,45L66.6,45z M69.6,53.6c0.9,0,1.6-0.4,2.2-1.1
			c0.6-0.7,0.9-1.9,0.9-3.3c0-1.4-0.3-2.5-0.9-3.2s-1.3-1.1-2.2-1.1c-0.9,0-1.7,0.4-2.3,1.3s-0.9,1.9-0.9,3.3c0,1.4,0.3,2.5,0.8,3.2
			C67.9,53.3,68.7,53.6,69.6,53.6z"/>
		<path class="st0" d="M66.9,59.5h-2.3V43.4h2.1v1.2c0.7-0.9,1.8-1.4,3.1-1.4c1.5,0,2.8,0.6,3.7,1.7c0.9,1.1,1.3,2.6,1.3,4.3
			c0,1.9-0.5,3.4-1.5,4.5s-2.2,1.7-3.7,1.7c-1.1,0-2.1-0.4-2.8-1.2L66.9,59.5L66.9,59.5z M64.9,59.2h1.6v-5.6h0.3v0.1
			c0.7,0.9,1.6,1.4,2.8,1.4c1.3,0,2.5-0.5,3.4-1.6s1.4-2.5,1.4-4.3c0-1.7-0.4-3.1-1.3-4.1c-0.8-1-2-1.6-3.4-1.6s-2.4,0.5-3.1,1.7
			v0.1h-0.3v-1.5h-1.4V59.2L64.9,59.2z M69.6,53.8c-1,0-1.7-0.4-2.3-1.2c-0.6-0.8-0.9-1.9-0.9-3.3c0-1.4,0.3-2.5,0.9-3.4
			s1.4-1.3,2.4-1.3c0.9,0,1.7,0.4,2.3,1.2c0.6,0.8,0.9,1.9,0.9,3.3c0,1.5-0.3,2.7-0.9,3.5C71.3,53.4,70.5,53.8,69.6,53.8z M69.7,45
			c-0.9,0-1.6,0.4-2.1,1.2C67,47,66.7,48,66.7,49.3c0,1.4,0.3,2.4,0.8,3.1c0.5,0.7,1.2,1,2.1,1s1.5-0.3,2.1-1.1
			c0.6-0.7,0.9-1.8,0.9-3.2s-0.3-2.4-0.8-3.1C71.2,45.3,70.5,45,69.7,45z"/>
	</g>
	<g>
		<path class="st0" d="M86.9,49.7h-8.5c0.1,1.3,0.4,2.2,1.1,2.9c0.6,0.7,1.4,1,2.4,1c0.7,0,1.4-0.2,1.9-0.6c0.5-0.4,0.9-1,1.1-1.8
			l2,0.2c-0.3,1.2-0.9,2.1-1.8,2.7c-0.9,0.6-1.9,1-3.2,1c-1.7,0-3-0.5-4-1.6s-1.4-2.5-1.4-4.3s0.5-3.3,1.4-4.4s2.2-1.7,3.9-1.7
			c0.8,0,1.6,0.2,2.4,0.5c0.8,0.4,1.4,1,2,1.9C86.6,46.6,86.9,47.9,86.9,49.7z M84.9,48.1c-0.1-1.2-0.4-2-1.1-2.5s-1.3-0.8-2.1-0.8
			c-0.9,0-1.7,0.3-2.2,0.9c-0.6,0.6-0.9,1.4-1,2.4C78.4,48.1,84.9,48.1,84.9,48.1z"/>
		<path class="st0" d="M81.8,55.4c-1.8,0-3.1-0.5-4.1-1.6s-1.5-2.6-1.5-4.4c0-1.8,0.5-3.3,1.4-4.5c1-1.2,2.3-1.7,4.1-1.7
			c0.9,0,1.7,0.2,2.5,0.6c0.8,0.4,1.5,1,2,1.9c0.6,0.9,0.8,2.3,0.8,4.1V50h-8.5c0.1,1.1,0.4,2,1,2.6s1.4,0.9,2.3,0.9
			c0.7,0,1.3-0.2,1.8-0.5c0.5-0.4,0.8-0.9,1.1-1.7v-0.1l2.3,0.3v0.1c-0.3,1.2-0.9,2.2-1.8,2.8C84.3,55,83.1,55.4,81.8,55.4z
			 M81.7,43.5c-1.6,0-2.9,0.5-3.8,1.6s-1.4,2.5-1.4,4.3s0.5,3.2,1.4,4.2s2.2,1.5,3.9,1.5c1.2,0,2.3-0.3,3.1-0.9
			c0.8-0.6,1.3-1.4,1.7-2.5l-1.7-0.2c-0.3,0.8-0.7,1.3-1.2,1.7s-1.2,0.6-2,0.6c-1,0-1.9-0.4-2.5-1c-0.7-0.7-1-1.7-1.1-3v-0.2h8.6
			c0-1.7-0.3-3-0.8-3.8S84.7,44.3,84,44C83.3,43.6,82.5,43.5,81.7,43.5z M85.1,48.3h-6.8v-0.2c0.1-1,0.5-1.8,1.1-2.5
			c0.6-0.6,1.4-1,2.4-1c0.8,0,1.5,0.3,2.2,0.8s1.1,1.4,1.1,2.6L85.1,48.3z M78.6,48h6.1c-0.1-1-0.4-1.8-1-2.2
			c-0.6-0.5-1.3-0.7-2-0.7c-0.9,0-1.6,0.3-2.1,0.9C79.1,46.4,78.7,47.1,78.6,48z"/>
	</g>
	<g>
		<path class="st0" d="M98.5,51c-0.3,1.5-0.8,2.5-1.7,3.2c-0.9,0.7-1.9,1-3,1c-1.7,0-2.9-0.5-3.8-1.6s-1.4-2.5-1.4-4.3
			c0-1.5,0.3-2.7,0.8-3.6c0.5-0.9,1.2-1.5,1.9-1.9c0.8-0.4,1.6-0.5,2.5-0.5c1.2,0,2.2,0.3,3,0.9s1.3,1.5,1.5,2.7l-1.9,0.3
			c-0.2-0.8-0.5-1.3-0.9-1.7s-1-0.6-1.7-0.6c-1.1,0-1.9,0.4-2.5,1.1s-0.8,1.8-0.8,3.2s0.3,2.5,0.8,3.2s1.3,1.1,2.4,1.1
			c0.8,0,1.5-0.2,2-0.7s0.8-1.2,0.9-2.1L98.5,51z"/>
		<path class="st0" d="M93.8,55.4c-1.7,0-3-0.6-4-1.7c-0.9-1.1-1.4-2.6-1.4-4.4c0-1.5,0.3-2.7,0.8-3.6c0.5-0.9,1.2-1.6,2-1.9
			c0.8-0.4,1.7-0.6,2.5-0.6c1.2,0,2.3,0.3,3.1,0.9c0.9,0.6,1.4,1.6,1.6,2.8v0.2l-2.2,0.3v-0.1c-0.2-0.7-0.5-1.3-0.9-1.6
			C95,45.2,94.5,45,93.9,45c-1,0-1.8,0.4-2.3,1.1c-0.5,0.7-0.8,1.8-0.8,3.1c0,1.4,0.3,2.4,0.8,3.2c0.5,0.7,1.2,1.1,2.2,1.1
			c0.8,0,1.4-0.2,1.8-0.7c0.4-0.4,0.7-1.1,0.8-2v-0.2l2.3,0.3v0.2c-0.3,1.5-0.9,2.6-1.8,3.3C96,55,95,55.4,93.8,55.4z M93.8,43.5
			c-0.8,0-1.6,0.2-2.4,0.5c-0.7,0.3-1.4,1-1.9,1.8c-0.5,0.9-0.8,2-0.8,3.5c0,1.7,0.4,3.2,1.3,4.2s2.1,1.6,3.7,1.6
			c1.1,0,2.1-0.3,2.9-1c0.8-0.6,1.4-1.6,1.6-2.9L96.8,51c-0.1,0.9-0.4,1.6-0.9,2.1s-1.2,0.8-2.1,0.8c-1.1,0-1.9-0.4-2.5-1.2
			s-0.9-1.9-0.9-3.3c0-1.4,0.3-2.5,0.9-3.3s1.5-1.2,2.6-1.2c0.7,0,1.3,0.2,1.8,0.6c0.4,0.4,0.7,0.9,1,1.7l1.6-0.2
			c-0.2-1-0.7-1.9-1.4-2.4C95.9,43.8,94.9,43.5,93.8,43.5z"/>
	</g>
	<g>
		<path class="st0" d="M30.3,70.2c-0.1-1-0.4-1.8-1.1-2.3c-0.6-0.5-1.6-0.8-2.7-0.8s-1.9,0.2-2.6,0.6s-1,1-1,1.8
			c0,0.7,0.3,1.2,0.8,1.5s1.5,0.7,3,1c1.3,0.3,2.4,0.6,3.2,0.9c0.8,0.3,1.5,0.8,2.1,1.4s0.9,1.5,0.9,2.6c0,1.4-0.5,2.5-1.6,3.4
			s-2.5,1.3-4.2,1.3c-2.2,0-3.9-0.5-5-1.5s-1.7-2.3-1.7-3.8l2-0.2c0.1,1.3,0.6,2.2,1.5,2.8s1.9,0.9,3.2,0.9c1.2,0,2.1-0.2,2.8-0.7
			s1.1-1.1,1.1-2s-0.4-1.5-1.1-1.9c-0.8-0.4-2-0.8-3.8-1.2c-1.8-0.4-3-0.9-3.8-1.6s-1.2-1.6-1.2-2.7c0-1.3,0.5-2.3,1.5-3.1
			c1-0.8,2.3-1.2,4-1.2s3.2,0.4,4.2,1.2c1.1,0.8,1.6,2,1.7,3.5L30.3,70.2z"/>
		<path class="st0" d="M27,81.8c-2.2,0-4-0.5-5.1-1.5s-1.7-2.3-1.8-4v-0.2l2.3-0.2v0.2c0.1,1.2,0.6,2.1,1.4,2.6
			c0.8,0.6,1.9,0.8,3.1,0.8c1.1,0,2.1-0.2,2.7-0.7c0.7-0.5,1-1,1-1.8s-0.3-1.4-1-1.7c-0.7-0.4-2-0.8-3.7-1.2
			c-1.8-0.4-3.1-0.9-3.9-1.7c-0.8-0.7-1.2-1.7-1.2-2.8c0-1.3,0.5-2.4,1.5-3.3c1-0.8,2.4-1.3,4.1-1.3c1.8,0,3.2,0.4,4.3,1.3
			c1.1,0.8,1.7,2.1,1.8,3.6v0.2l-2.3,0.2v-0.2c-0.1-1-0.4-1.7-1-2.1c-0.6-0.5-1.5-0.7-2.6-0.7c-1,0-1.9,0.2-2.5,0.6
			s-0.9,0.9-0.9,1.6c0,0.6,0.2,1.1,0.7,1.4s1.5,0.6,2.9,1c1.3,0.3,2.4,0.6,3.2,0.9c0.8,0.3,1.6,0.8,2.2,1.4c0.6,0.7,0.9,1.6,0.9,2.7
			c0,1.4-0.6,2.6-1.7,3.5C30.2,81.3,28.7,81.8,27,81.8z M20.4,76.4c0.1,1.4,0.7,2.7,1.7,3.6c1.1,1,2.7,1.4,4.9,1.4
			c1.7,0,3.1-0.4,4.1-1.3c1-0.9,1.6-1.9,1.6-3.2c0-1-0.3-1.8-0.8-2.4c-0.6-0.6-1.3-1.1-2.1-1.4c-0.8-0.3-1.9-0.6-3.2-0.9
			c-1.5-0.3-2.5-0.7-3-1c-0.6-0.4-0.9-0.9-0.9-1.7c0-0.8,0.4-1.5,1.1-1.9s1.6-0.6,2.7-0.6c1.2,0,2.2,0.3,2.8,0.8
			c0.6,0.5,1,1.2,1.1,2.2l1.7-0.1c-0.1-1.4-0.6-2.5-1.6-3.2c-1-0.8-2.4-1.2-4.1-1.2s-3,0.4-3.9,1.2c-0.9,0.8-1.4,1.8-1.4,3
			c0,1.1,0.4,1.9,1.1,2.6c0.8,0.7,2,1.2,3.8,1.6s3.1,0.8,3.8,1.2c0.8,0.4,1.2,1.1,1.2,2s-0.4,1.6-1.2,2.1c-0.7,0.5-1.7,0.7-2.9,0.7
			c-1.3,0-2.4-0.3-3.3-0.9s-1.4-1.5-1.5-2.7L20.4,76.4z"/>
	</g>
	<g>
		<path class="st0" d="M45.3,81.3h-2c-0.2-0.4-0.3-0.8-0.4-1.4c-1.3,1.1-2.7,1.7-4.2,1.7c-1.2,0-2.2-0.3-2.8-0.9s-1-1.4-1-2.4
			c0-0.9,0.3-1.7,1-2.3c0.7-0.6,1.8-1,3.5-1.2l1.8-0.3c0.7-0.1,1.2-0.2,1.7-0.4c0-0.6,0-1-0.1-1.2c0-0.2-0.1-0.5-0.3-0.7
			c-0.2-0.3-0.5-0.5-0.8-0.6c-0.4-0.2-0.9-0.2-1.6-0.2c-0.8,0-1.5,0.2-2,0.5s-0.8,0.9-1,1.7l-1.9-0.2c0.2-1.2,0.7-2,1.6-2.6
			c0.9-0.6,2-0.9,3.5-0.9c1.4,0,2.4,0.2,3,0.6s1,0.9,1.2,1.5c0.1,0.6,0.2,1.3,0.2,2.2v2.6c0,1.6,0,2.6,0.1,3.2
			C44.8,80.3,45,80.8,45.3,81.3z M42.7,76.3v-0.7c-1,0.3-2.2,0.6-3.7,0.8c-1.5,0.2-2.2,0.8-2.2,1.9c0,0.5,0.2,1,0.6,1.3
			s1,0.5,1.7,0.5c1,0,1.8-0.3,2.5-0.9C42.4,78.7,42.7,77.7,42.7,76.3z"/>
		<path class="st0" d="M38.6,81.8c-1.2,0-2.2-0.3-3-0.9c-0.7-0.6-1.1-1.5-1.1-2.5s0.4-1.8,1.1-2.5c0.7-0.6,1.9-1.1,3.6-1.3l1.8-0.3
			c0.6-0.1,1.1-0.2,1.5-0.4c0-0.5,0-0.9-0.1-1.1c0-0.2-0.1-0.4-0.3-0.7c-0.2-0.2-0.4-0.4-0.8-0.6c-0.4-0.1-0.9-0.2-1.5-0.2
			c-0.8,0-1.4,0.1-1.9,0.4c-0.4,0.3-0.8,0.8-0.9,1.6v0.2l-2.2-0.3V73c0.2-1.2,0.8-2.1,1.7-2.7s2.1-0.9,3.6-0.9
			c1.4,0,2.4,0.2,3.1,0.6c0.7,0.4,1.1,1,1.3,1.6s0.2,1.3,0.2,2.3v2.6c0,1.6,0,2.6,0.1,3.2c0.1,0.5,0.2,1,0.5,1.5l0.1,0.2H43v-0.1
			c-0.2-0.3-0.3-0.7-0.4-1.2C41.5,81.3,40.1,81.8,38.6,81.8z M39.9,71.1c0.7,0,1.2,0.1,1.6,0.2c0.4,0.2,0.7,0.4,0.9,0.7
			c0.2,0.3,0.3,0.6,0.3,0.8c0,0.3,0.1,0.7,0.1,1.3v0.1h-0.1c-0.4,0.2-1,0.3-1.7,0.4l-1.8,0.3c-1.6,0.2-2.8,0.6-3.4,1.2
			c-0.6,0.6-0.9,1.3-0.9,2.2c0,0.9,0.3,1.7,1,2.3c0.7,0.6,1.6,0.9,2.7,0.9c1.5,0,2.8-0.6,4.1-1.6l0.2-0.2V80
			c0.1,0.5,0.2,0.9,0.3,1.3H45c-0.2-0.5-0.4-0.9-0.4-1.4c-0.1-0.5-0.1-1.6-0.1-3.2V74c0-0.9-0.1-1.6-0.2-2.2c-0.1-0.5-0.5-1-1.1-1.4
			s-1.6-0.6-2.9-0.6c-1.5,0-2.6,0.3-3.5,0.9c-0.8,0.5-1.3,1.3-1.5,2.4l1.6,0.2c0.2-0.8,0.5-1.4,1-1.7C38.4,71.3,39.1,71.1,39.9,71.1
			z M39.1,80.3c-0.8,0-1.4-0.2-1.8-0.6c-0.4-0.4-0.6-0.8-0.6-1.4c0-1.1,0.8-1.8,2.3-2c1.4-0.2,2.7-0.5,3.7-0.8l0.2-0.1v0.9
			c0,1.4-0.4,2.4-1.2,3C41,80,40.1,80.3,39.1,80.3z M42.6,75.9c-1,0.3-2.2,0.6-3.5,0.7c-1.4,0.2-2,0.7-2,1.7c0,0.5,0.2,0.9,0.5,1.2
			c0.4,0.3,0.9,0.5,1.6,0.5c0.9,0,1.7-0.3,2.4-0.8s1-1.5,1-2.8V75.9L42.6,75.9z"/>
	</g>
	<g>
		<path class="st0" d="M56.9,81.3H55v-6.9c0-1.2-0.2-2-0.6-2.4s-1-0.7-1.7-0.7c-0.6,0-1.1,0.1-1.6,0.4s-0.9,0.7-1.1,1.2
			c-0.2,0.5-0.3,1.2-0.3,2.2v6.2h-1.9V69.9h1.7v1.6l0,0c0.4-0.6,0.9-1.1,1.5-1.4s1.3-0.5,2.1-0.5c0.6,0,1.2,0.1,1.8,0.3
			c0.6,0.2,1,0.5,1.4,1s0.5,0.9,0.6,1.4s0.1,1.1,0.1,2C56.9,74.3,56.9,81.3,56.9,81.3z"/>
		<path class="st0" d="M57.1,81.5h-2.3v-7.1c0-1.1-0.2-1.9-0.6-2.3c-0.4-0.4-0.9-0.6-1.6-0.6c-0.5,0-1.1,0.1-1.5,0.4
			c-0.5,0.3-0.8,0.6-1,1.1s-0.3,1.2-0.3,2.1v6.4h-2.3V69.8h2.1v1.3c0.4-0.5,0.8-0.8,1.3-1.1c0.6-0.3,1.3-0.5,2.2-0.5
			c0.6,0,1.2,0.1,1.8,0.3c0.6,0.2,1.1,0.6,1.5,1c0.3,0.4,0.6,0.9,0.7,1.4c0.1,0.5,0.1,1.2,0.1,2v7.3L57.1,81.5L57.1,81.5z
			 M55.2,81.2h1.6v-6.8c0-0.8,0-1.5-0.1-1.9c-0.1-0.5-0.3-0.9-0.6-1.3s-0.8-0.7-1.3-0.9c-0.6-0.2-1.1-0.3-1.7-0.3
			c-0.8,0-1.4,0.2-2,0.4c-0.6,0.3-1.1,0.7-1.4,1.3v0.1h-0.3v-1.6H48v11.1h1.6v-6.1c0-0.9,0.1-1.7,0.3-2.2s0.6-1,1.2-1.3
			c0.5-0.3,1.1-0.4,1.7-0.4c0.8,0,1.4,0.2,1.9,0.7s0.7,1.3,0.7,2.5C55.2,74.4,55.2,81.2,55.2,81.2z"/>
	</g>
	<g>
		<path class="st0" d="M81.2,81.3h-2V68.2l0,0l-4.5,13.2h-1.9L68.3,68h-0.1v13.4h-2V65.6h3.1L73,76.7c0.4,1.2,0.7,2,0.7,2.3l0,0
			c0.2-0.6,0.5-1.4,0.8-2.5l3.8-11h2.8L81.2,81.3L81.2,81.3z"/>
		<path class="st0" d="M81.3,81.5H79V69l-4.3,12.5h-2.1l-4.3-12.7v12.7H66V65.4h3.4l3.8,11.3c0.3,0.8,0.5,1.4,0.6,1.9
			c0.2-0.6,0.4-1.2,0.7-2.1l3.8-11.1h3.1L81.3,81.5L81.3,81.5z M79.3,81.2H81V65.8h-2.5l-3.7,10.8c-0.4,1.1-0.6,1.9-0.8,2.5v0.1
			h-0.3v-0.1c-0.1-0.3-0.3-1.1-0.7-2.3l-3.7-11h-2.8v15.4H68V67.8h0.4l4.5,13.4h1.6L79,68h0.3V81.2L79.3,81.2z"/>
	</g>
	<g>
		<path class="st0" d="M94.2,81.3h-2c-0.2-0.4-0.3-0.8-0.4-1.4c-1.3,1.1-2.7,1.7-4.2,1.7c-1.2,0-2.2-0.3-2.8-0.9s-1-1.4-1-2.4
			c0-0.9,0.3-1.7,1-2.3s1.8-1,3.5-1.2l1.8-0.3c0.7-0.1,1.2-0.2,1.7-0.4c0-0.6,0-1-0.1-1.2c0-0.2-0.1-0.5-0.3-0.7
			c-0.2-0.3-0.5-0.5-0.8-0.6c-0.4-0.2-0.9-0.2-1.6-0.2c-0.8,0-1.5,0.2-2,0.5s-0.8,0.9-1,1.7l-2-0.4c0.2-1.2,0.7-2,1.6-2.6
			s2-0.9,3.5-0.9c1.4,0,2.4,0.2,3,0.6s1,0.9,1.2,1.5c0.1,0.6,0.2,1.3,0.2,2.2v2.6c0,1.6,0,2.6,0.1,3.2
			C93.7,80.3,93.9,80.8,94.2,81.3z M91.6,76.3v-0.7c-1,0.3-2.2,0.6-3.7,0.8s-2.2,0.8-2.2,1.9c0,0.5,0.2,1,0.6,1.3s1,0.5,1.7,0.5
			c1,0,1.8-0.3,2.5-0.9C91.3,78.7,91.6,77.7,91.6,76.3z"/>
		<path class="st0" d="M87.6,81.8c-1.2,0-2.2-0.3-3-0.9c-0.7-0.6-1.1-1.5-1.1-2.5s0.4-1.8,1.1-2.5c0.7-0.6,1.9-1.1,3.6-1.3l1.8-0.3
			c0.6-0.1,1.1-0.2,1.5-0.4c0-0.5,0-0.9-0.1-1.1c0-0.2-0.1-0.4-0.3-0.7c-0.2-0.2-0.4-0.4-0.8-0.6c-0.4-0.1-0.9-0.2-1.5-0.2
			c-0.8,0-1.4,0.1-1.9,0.4c-0.4,0.3-0.8,0.8-0.9,1.6v0.2l-2.2-0.3V73c0.2-1.2,0.8-2.1,1.7-2.7c0.9-0.6,2.1-0.9,3.6-0.9
			c1.4,0,2.4,0.2,3.1,0.6s1.1,1,1.3,1.6c0.1,0.6,0.2,1.3,0.2,2.3v2.6c0,1.6,0,2.6,0.1,3.2c0.1,0.5,0.2,1,0.5,1.5l0.1,0.2H92v-0.1
			c-0.2-0.3-0.3-0.7-0.4-1.2C90.4,81.3,89,81.8,87.6,81.8z M88.9,71.1c0.7,0,1.2,0.1,1.6,0.2c0.4,0.2,0.7,0.4,0.9,0.7
			c0.2,0.3,0.3,0.6,0.3,0.8c0,0.3,0.1,0.7,0.1,1.3v0.1h-0.1c-0.4,0.2-1,0.3-1.7,0.4l-1.8,0.3c-1.6,0.2-2.8,0.6-3.4,1.2
			s-0.9,1.3-0.9,2.2c0,0.9,0.3,1.7,1,2.3c0.7,0.6,1.6,0.9,2.7,0.9c1.5,0,2.8-0.6,4.1-1.6l0.2-0.2V80c0.1,0.5,0.2,0.9,0.3,1.3h1.6
			c-0.2-0.5-0.4-0.9-0.4-1.4c-0.1-0.5-0.1-1.6-0.1-3.2V74c0-0.9-0.1-1.6-0.2-2.2c-0.1-0.5-0.5-1-1.1-1.4s-1.6-0.6-2.9-0.6
			c-1.5,0-2.6,0.3-3.5,0.9c-0.8,0.5-1.3,1.3-1.5,2.4l1.6,0.2c0.2-0.8,0.5-1.4,1-1.7C87.3,71.3,88,71.1,88.9,71.1z M88,80.3
			c-0.8,0-1.4-0.2-1.8-0.6s-0.6-0.8-0.6-1.4c0-1.1,0.8-1.8,2.3-2c1.4-0.2,2.7-0.5,3.7-0.8l0.2-0.1v0.9c0,1.4-0.4,2.4-1.2,3
			C89.9,80,89,80.3,88,80.3z M91.5,75.9c-1,0.3-2.2,0.6-3.5,0.7c-1.4,0.2-2,0.7-2,1.7c0,0.5,0.2,0.9,0.5,1.2
			c0.4,0.3,0.9,0.5,1.6,0.5c0.9,0,1.7-0.3,2.4-0.8c0.7-0.5,1-1.5,1-2.8V75.9z"/>
	</g>
	<g>
		<path class="st0" d="M102.7,70.3l-0.7,1.8c-0.5-0.3-0.9-0.4-1.4-0.4c-0.7,0-1.3,0.3-1.6,1c-0.4,0.6-0.6,1.6-0.6,2.7v6h-1.9V69.9
			h1.8v1.7l0,0c0.6-1.3,1.4-2,2.4-2C101.4,69.7,102,69.9,102.7,70.3z"/>
		<path class="st0" d="M98.6,81.5h-2.3V69.8h2.1v1.3c0.6-1,1.4-1.5,2.3-1.5c0.7,0,1.4,0.2,2.1,0.6l0.1,0.1l-0.8,2.1l-0.2-0.1
			c-0.5-0.3-0.9-0.4-1.3-0.4c-0.7,0-1.2,0.3-1.5,0.9c-0.4,0.6-0.5,1.5-0.5,2.6C98.6,75.4,98.6,81.5,98.6,81.5z M96.6,81.2h1.6v-5.8
			c0-1.2,0.2-2.1,0.6-2.8c0.4-0.7,1-1.1,1.8-1.1c0.4,0,0.9,0.1,1.3,0.3l0.6-1.5c-0.6-0.3-1.2-0.5-1.8-0.5c-0.9,0-1.7,0.6-2.3,1.9
			v0.1h-0.3v-1.7h-1.4C96.6,70.1,96.6,81.2,96.6,81.2z"/>
	</g>
	<g>
		<path class="st0" d="M113.2,77.4c-0.3,1.5-0.8,2.5-1.7,3.2c-0.9,0.7-1.9,1-3,1c-1.7,0-2.9-0.5-3.8-1.6s-1.4-2.5-1.4-4.3
			c0-1.5,0.3-2.7,0.8-3.6s1.2-1.5,1.9-1.9c0.8-0.4,1.6-0.5,2.5-0.5c1.2,0,2.2,0.3,3,0.9s1.3,1.5,1.5,2.7l-1.9,0.3
			c-0.2-0.8-0.5-1.3-0.9-1.7c-0.4-0.4-1-0.6-1.7-0.6c-1.1,0-1.9,0.4-2.5,1.1s-0.8,1.8-0.8,3.2c0,1.4,0.3,2.5,0.8,3.2
			s1.3,1.1,2.4,1.1c0.8,0,1.5-0.2,2-0.7s0.8-1.2,0.9-2.1L113.2,77.4z"/>
		<path class="st0" d="M108.4,81.8c-1.7,0-3-0.6-4-1.7c-0.9-1.1-1.4-2.6-1.4-4.4c0-1.5,0.3-2.7,0.8-3.6s1.2-1.6,2-1.9
			c0.8-0.4,1.7-0.6,2.5-0.6c1.2,0,2.3,0.3,3.1,0.9c0.9,0.6,1.4,1.6,1.6,2.8v0.2l-2.2,0.3v-0.1c-0.2-0.7-0.5-1.3-0.9-1.6
			c-0.4-0.4-0.9-0.5-1.5-0.5c-1,0-1.8,0.4-2.3,1.1s-0.8,1.8-0.8,3.1c0,1.4,0.3,2.4,0.8,3.2c0.5,0.7,1.2,1.1,2.2,1.1
			c0.8,0,1.4-0.2,1.8-0.7c0.4-0.4,0.7-1.1,0.8-2v-0.2l2.3,0.3v0.2c-0.3,1.5-0.9,2.6-1.8,3.3C110.7,81.4,109.6,81.8,108.4,81.8z
			 M108.4,69.9c-0.8,0-1.6,0.2-2.4,0.5c-0.7,0.3-1.4,1-1.9,1.8c-0.5,0.9-0.8,2-0.8,3.5c0,1.7,0.4,3.2,1.3,4.2s2.1,1.6,3.7,1.6
			c1.1,0,2.1-0.3,2.9-1c0.8-0.6,1.4-1.6,1.6-2.9l-1.6-0.2c-0.1,0.9-0.4,1.6-0.9,2.1s-1.2,0.8-2.1,0.8c-1.1,0-1.9-0.4-2.5-1.2
			c-0.6-0.8-0.9-1.9-0.9-3.3s0.3-2.5,0.9-3.3s1.5-1.2,2.6-1.2c0.7,0,1.3,0.2,1.8,0.6c0.4,0.4,0.7,0.9,1,1.7l1.6-0.2
			c-0.2-1.1-0.7-1.9-1.4-2.4C110.6,70.2,109.6,69.9,108.4,69.9z"/>
	</g>
	<g>
		<path class="st0" d="M119.5,69.7c1.5,0,2.8,0.5,3.8,1.5s1.5,2.4,1.5,4.3c0,2.2-0.5,3.8-1.6,4.8c-1.1,0.9-2.3,1.4-3.7,1.4
			c-1.4,0-2.7-0.5-3.7-1.4c-1.1-1-1.6-2.5-1.6-4.5s0.5-3.5,1.5-4.5C116.7,70.2,118,69.7,119.5,69.7z M119.5,80
			c1.1,0,1.9-0.4,2.5-1.2c0.6-0.8,0.9-1.9,0.9-3.2c0-1.4-0.3-2.5-1-3.2c-0.6-0.7-1.4-1.1-2.4-1.1s-1.8,0.4-2.4,1.1s-0.9,1.8-0.9,3.3
			c0,1.4,0.3,2.5,1,3.3C117.7,79.7,118.5,80,119.5,80z"/>
		<path class="st0" d="M119.5,81.8c-1.5,0-2.8-0.5-3.9-1.5s-1.6-2.5-1.6-4.7c0-2,0.5-3.6,1.6-4.6s2.4-1.5,3.9-1.5
			c1.6,0,2.9,0.5,3.9,1.6c1,1,1.6,2.5,1.6,4.4c0,2.3-0.6,3.9-1.7,4.9C122.2,81.3,120.9,81.8,119.5,81.8z M119.5,69.9
			c-1.5,0-2.7,0.5-3.7,1.4s-1.5,2.4-1.5,4.4s0.5,3.5,1.5,4.4s2.2,1.4,3.6,1.4c1.3,0,2.5-0.5,3.6-1.4s1.6-2.4,1.6-4.6
			c0-1.8-0.5-3.2-1.5-4.2C122.2,70.3,121,69.9,119.5,69.9z M119.5,80.2c-1,0-1.9-0.4-2.5-1.2c-0.7-0.8-1-1.9-1-3.4s0.3-2.6,1-3.4
			s1.5-1.2,2.5-1.2s1.8,0.4,2.5,1.1c0.7,0.8,1,1.9,1,3.3s-0.3,2.5-0.9,3.3C121.6,79.8,120.7,80.2,119.5,80.2z M119.5,71.4
			c-0.9,0-1.7,0.3-2.3,1c-0.6,0.7-0.9,1.8-0.9,3.2c0,1.4,0.3,2.5,0.9,3.2s1.4,1,2.3,1c1.1,0,1.8-0.4,2.4-1.2
			c0.6-0.8,0.8-1.8,0.8-3.1c0-1.4-0.3-2.4-0.9-3.1C121.2,71.8,120.4,71.4,119.5,71.4z"/>
	</g>
	<g>
		<path class="st0" d="M133.5,73.1c-0.1-0.6-0.3-1.1-0.8-1.4c-0.4-0.3-1-0.5-1.7-0.5s-1.3,0.1-1.8,0.4s-0.7,0.6-0.7,1.1
			s0.2,0.8,0.5,1s1.1,0.4,2.1,0.7c1.2,0.3,2.1,0.6,2.7,0.8c0.6,0.2,1.1,0.6,1.4,1c0.3,0.4,0.5,1,0.5,1.8c0,1-0.4,1.9-1.2,2.6
			s-1.9,1-3.3,1c-1.4,0-2.6-0.3-3.4-0.9c-0.8-0.6-1.3-1.5-1.5-2.8l1.9-0.3c0.1,0.8,0.4,1.4,0.9,1.8s1.2,0.6,2.1,0.6
			c0.8,0,1.5-0.2,1.9-0.5c0.5-0.4,0.7-0.8,0.7-1.3c0-0.3-0.1-0.6-0.3-0.8c-0.2-0.2-0.5-0.4-0.8-0.5s-1-0.3-2.1-0.6
			c-1.6-0.4-2.7-0.9-3.2-1.4c-0.5-0.6-0.8-1.2-0.8-2c0-1,0.4-1.7,1.1-2.4c0.8-0.6,1.8-0.9,3.1-0.9c1.4,0,2.4,0.3,3.2,0.8
			s1.2,1.3,1.4,2.4L133.5,73.1z"/>
		<path class="st0" d="M131.2,81.8c-1.5,0-2.7-0.3-3.5-1c-0.8-0.6-1.4-1.6-1.6-2.9v-0.2l2.3-0.3v0.2c0.1,0.7,0.4,1.3,0.8,1.7
			c0.5,0.4,1.1,0.6,2,0.6c0.8,0,1.4-0.2,1.8-0.5c0.4-0.3,0.6-0.7,0.6-1.2c0-0.3-0.1-0.5-0.3-0.7s-0.4-0.3-0.7-0.4s-1-0.3-2.1-0.5
			c-1.7-0.4-2.7-0.9-3.3-1.5c-0.5-0.6-0.8-1.3-0.8-2.1c0-1,0.4-1.8,1.2-2.5c0.8-0.6,1.9-1,3.2-1c1.4,0,2.5,0.3,3.3,0.8
			c0.8,0.6,1.3,1.4,1.4,2.5V73l-2.2,0.3v-0.2c-0.1-0.6-0.3-1-0.7-1.3s-0.9-0.4-1.6-0.4c-0.7,0-1.3,0.1-1.7,0.4
			c-0.4,0.2-0.6,0.5-0.6,0.9s0.1,0.7,0.5,0.8c0.3,0.2,1.1,0.4,2.1,0.7c1.2,0.3,2.1,0.6,2.7,0.8c0.6,0.2,1.1,0.6,1.5,1
			c0.4,0.5,0.5,1.1,0.5,1.9c0,1.1-0.4,2-1.3,2.7C133.8,81.4,132.6,81.8,131.2,81.8z M126.5,78.1c0.2,1.1,0.7,1.9,1.4,2.5
			c0.8,0.6,1.9,0.9,3.3,0.9c1.3,0,2.4-0.3,3.2-1s1.2-1.5,1.2-2.4c0-0.7-0.2-1.3-0.5-1.7c-0.3-0.4-0.8-0.7-1.3-0.9
			c-0.6-0.2-1.5-0.5-2.7-0.8c-1.1-0.3-1.8-0.5-2.2-0.7s-0.6-0.6-0.6-1.1s0.3-1,0.8-1.2c0.5-0.3,1.1-0.4,1.9-0.4
			c0.8,0,1.4,0.2,1.8,0.5c0.4,0.3,0.7,0.8,0.8,1.3l1.6-0.2c-0.2-0.9-0.6-1.6-1.3-2.1s-1.8-0.8-3.1-0.8c-1.2,0-2.2,0.3-3,0.9
			c-0.7,0.6-1.1,1.3-1.1,2.2c0,0.7,0.2,1.3,0.7,1.9c0.5,0.5,1.5,1,3.1,1.4c1.1,0.3,1.8,0.5,2.1,0.6s0.6,0.3,0.8,0.5s0.4,0.6,0.4,0.9
			c0,0.6-0.2,1-0.7,1.4s-1.2,0.6-2,0.6c-0.9,0-1.6-0.2-2.2-0.6c-0.5-0.4-0.8-1-0.9-1.7L126.5,78.1z"/>
	</g>
</g>
</svg>
