<?xml version="1.0" encoding="UTF-8"?>
<svg width="172px" height="94px" viewBox="0 0 172 94" version="1.1" xmlns="http://www.w3.org/2000/svg" xmlns:xlink="http://www.w3.org/1999/xlink">
    <!-- Generator: Sketch 64 (93537) - https://sketch.com -->
    <title>sabrohuevo-pantallas-y-web copy</title>
    <desc>Created with Sketch.</desc>
    <g id="Symbols" stroke="none" stroke-width="1" fill="none" fill-rule="evenodd">
        <g id="logo-sabrohuevo-pantallas-y-web-copy" transform="translate(0.000000, -1.000000)">
            <g id="sabrohuevo-pantallas-y-web-copy" transform="translate(0.000000, 1.000000)">
                <path d="M169.235944,2.76109751 L169.235944,79.6643915 C169.235944,86.0577486 164.047231,91.2403625 157.648152,91.2403625 L2.7635687,91.2403625 L2.7635687,14.3380425 C2.7635687,11.267274 3.98405887,8.32218638 6.15750029,6.15096213 C8.33094171,3.97973788 11.2788189,2.76109751 14.3523353,2.76109751 L169.235944,2.76109751 L169.235944,2.76109751 Z M172,0 L14.3523353,0 C6.42989138,0.00858379194 0.00939836298,6.42268293 0,14.3380425 L0,94 L157.648152,94 C165.570438,93.9916839 171.99087,87.5776461 172,79.6624443 L172,0 L172,0 Z" id="Shape" fill="#1E1E1E" fill-rule="nonzero"></path>
                <path d="M2,13.5142362 L2,90 L156.445089,90 C162.82601,90 168,84.8454587 168,78.4867325 L168,2 L13.5558828,2 C10.4910877,2 7.55157526,3.21203937 5.38430111,5.37150276 C3.21702696,7.53096616 2,10.4601012 2,13.5142362 Z" id="Path" fill="#FFFFFF" fill-rule="nonzero"></path>
                <path d="M69.7580486,29.4753448 C69.4097027,27.9172073 68.5619626,26.5101004 67.3395204,25.4609923 C65.9948425,24.2275272 64.2192305,23.5496423 62.3802562,23.5676674 C61.4067644,23.4835971 60.4258311,23.5587398 59.4773325,23.790041 L52.097569,25.5743592 L54.8792707,20 L41.4512155,23.1219512 C37.7012155,24.0143525 37.3395204,25.6862727 37.3395204,28.6963104 L37.3395204,29.5882273 L28.8717148,31.8168082 L37.3395204,34.0478115 L37.3395204,36.1639945 C37.3395204,38.9516586 39.0317017,39.95452 40.6051248,40.3997517 L48.7102497,42.2959834 C50.8868265,42.8536131 51.7339028,40.5121497 51.7339028,39.6202329 L51.7339028,38.0607107 L54.3948752,38.7302539 C56.571452,39.2873991 58.3863338,39.8445444 59.71682,41.1826619 C61.0473062,42.631724 61.7731603,44.8622428 61.7731603,48.7641974 C61.7731603,52.7790344 61.2892576,55.1195288 60.2017083,56.5690754 C59.1116951,58.13102 57.1770696,58.7976564 54.3938896,59.468653 L10.4839028,70.1740776 L10,70.2855067 L10,84 L10.8465834,83.7776264 L62.01659,71.5136485 C64.3478015,71.0323262 66.4158686,69.7210039 67.8234231,67.8316452 C69.2365232,65.9197019 69.9983778,63.617346 70,61.2539401 L70,31.8163237 C69.9796906,31.031104 69.8988079,30.2485312 69.7580486,29.4753448 L69.7580486,29.4753448 Z M68.5487845,61.2534557 C68.5729953,63.3431587 67.8917524,65.3817755 66.6116951,67.0501885 C65.4229257,68.6180796 63.7103367,69.7241113 61.7746386,70.1740776 L11.3314717,82.3261419 L11.3314717,71.3993127 L54.7585414,60.8077395 C57.9039093,60.1372273 59.9607424,59.2453104 61.2907359,57.4624457 C62.6207293,55.6795809 63.2268397,53.002377 63.2268397,48.7646818 C63.2268397,44.4165266 62.2575558,41.8522051 60.8073259,40.291714 C59.23341,38.6188248 57.178548,38.063133 54.7585414,37.3921364 L38.792707,33.3787528 L38.792707,30.2558326 L59.7207622,25.2381342 C60.5800337,24.9700131 61.4814799,24.8566039 62.3817346,24.9033626 C63.8681793,24.8939608 65.2998861,25.4542189 66.3731932,26.4653071 C67.3512784,27.3587198 68.0273371,28.525407 68.3102825,29.8081785 C68.5028117,30.4215428 68.5846969,31.0632966 68.5522339,31.7044102 L68.5487845,61.2534557 Z" id="Shape" fill="#1E1E1E" fill-rule="nonzero"></path>
                <path d="M66.0975938,66.5725952 C67.3502552,64.8876409 68.0169181,62.8288125 67.9932254,60.7183914 L67.9932254,30.8788323 C68.0249937,30.2313625 67.944861,29.5832461 67.7564523,28.9638007 C67.4795625,27.6683113 66.8179729,26.4900572 65.8608207,25.5877868 C64.8104847,24.5666743 63.4094193,24.0008616 61.9547876,24.0103566 C61.0738003,23.9631344 60.1916469,24.0776679 59.3507656,24.3484472 L38.8710965,29.4134466 L38.8710965,32.5668393 L54.4952289,36.620013 C56.8639245,37.2957051 58.874326,37.8588633 60.4145568,39.5483381 C61.8332666,41.1247898 62.782288,43.7145349 62.782288,48.10531 C62.782288,52.3850192 62.1901141,55.0868089 60.8876208,56.8893067 C59.5851276,58.6918045 57.5732794,59.5910964 54.4952289,60.267767 L12,70.9648381 L12,82 L61.3635782,69.7274557 C63.2580243,69.2731335 64.9341459,68.1561262 66.0975938,66.5725952 Z" id="Path" fill="#FED100"></path>
                <path d="M82.0645623,33.6770752 C75.2691125,34.2238211 76.5306415,31.4938883 81.5613855,30.3999218 C84.0757326,29.8541251 86.8452551,30.2917117 88.7303749,32.2565799 L90.3654436,31.8204171 L90.3654436,28.7620571 C85.9629021,27.1241923 72.0005124,27.6704636 72.0005124,34.9879366 C72.0005124,37.7178694 77.1567944,39.6865344 81.5608731,39.79427 C86.9697683,39.79427 85.7113137,42.9617894 81.181697,43.289742 C78.4147366,43.3989014 75.3967001,43.1796335 74.5158844,41.4330839 L72,41.9788807 L72,45.8013562 C76.5280795,46.2389427 91.8749742,46.7842649 92,37.5000253 C92.0010246,34.2238211 87.0958187,33.2399632 82.0645623,33.6770752 Z" id="Path" fill="#1E1E1E" fill-rule="nonzero"></path>
                <path d="M15.633248,57.787508 L50.6243099,49.2417576 L22.4629511,42.3825849 C15.633248,40.6955186 15.633248,36.8728697 15.633248,31.7017404 C15.7533329,26.8647998 15.7533329,22.5926574 22.4629511,21.0194303 L68,10 L15.633248,10 C12.8781309,10 10,12.8112885 10,15.6215999 L10,52.9549646 C10,57.2256412 12.8781309,58.573633 15.633248,57.787508 Z" id="Path" fill="#1E1E1E" fill-rule="nonzero"></path>
                <path d="M139.612534,14.4937895 L139.612534,11.6115383 L132,16.6808772 L132,18.2934164 C133.596241,17.4876473 133.596241,18.2934164 133.596241,20.3668957 L133.596241,27.7384321 C133.596241,29.4665817 133.596241,30.2723509 132,30.618181 L132,32 L141.701004,29.5816916 L141.701004,28.0837618 C139.614035,28.6603121 139.614035,27.5082124 139.614035,26.3561127 L139.614035,19.5606261 C139.614035,16.5657673 142.315289,15.8751081 142.68396,18.0636972 L144.527816,17.6027572 L146,10 C143.055133,10.5760499 140.841605,12.0734792 139.612534,14.4937895 Z" id="Path" fill="#1E1E1E" fill-rule="nonzero"></path>
                <path d="M110.114174,36.4879623 L110.114174,26.396195 C110.114174,20.89318 102.440197,21.1223685 97.4099621,23.9892176 L92,27.198853 L92,30.6366804 L94.2640156,30.0632109 C94.6411807,26.5092946 103.447166,23.2981645 103.447166,26.0494229 C103.447166,27.999518 92,32.2405016 92,38.7783525 C92,43.0208308 98.038229,42.6760516 101.685354,40.0388892 L103.319565,38.8929467 L103.319565,40.4982626 L112,38.4345697 L112,35.9124998 L110.114174,36.4879623 Z M103.321103,33.7362056 C103.321103,36.0280906 100.805985,37.5193105 99.9250794,36.6020583 C98.1637799,34.6529596 101.561341,32.1303915 103.321103,30.2948906 L103.321103,33.7362056 Z" id="Shape" fill="#1E1E1E" fill-rule="nonzero"></path>
                <path d="M154.246661,10.3789497 C147.845961,11.8789996 146.124835,15.9520939 146,20.7745146 C146,26.1343639 147.598796,29.2415769 154.492321,27.5273006 C161.017858,25.9192061 161.877167,22.5963697 162,17.0232255 C162.002002,11.9856471 161.019863,8.87843407 154.246661,10.3789497 Z M154.246661,23.3480246 C152.893024,23.6693641 151.786049,22.0603382 151.786049,19.5962698 C151.79006,17.2383832 152.893024,15.0961201 154.246661,14.7729177 C155.477469,14.452044 156.584945,16.1672516 156.584945,18.5246725 C156.584945,20.8820934 155.479976,23.0257537 154.246661,23.3480246 L154.246661,23.3480246 Z" id="Shape" fill="#1E1E1E" fill-rule="nonzero"></path>
                <path d="M119.764058,19.0177456 L119.646166,12 L112,13.9555111 L112,15.6825794 C113.530192,15.2216946 113.646166,16.7168208 113.646166,17.1767058 L113.646166,33.3981505 C113.646166,36.043989 112.116933,36.043989 112.116933,36.043989 L112.116933,38 L119.646166,36.043989 L119.646166,35.0082479 C127.529073,36.3889028 130,30.6368408 130,24.5393652 C130.000479,17.0622344 125.881949,13.380155 119.764058,19.0177456 Z M122.118051,30.8647838 C120.824121,31.2101975 119.646166,29.484129 119.646166,27.0682329 C119.646166,24.5378655 120.823642,22.1194701 122.118051,21.7770557 C123.41246,21.4346413 124.353196,23.2726818 124.353196,25.8035491 C124.354633,28.2204449 123.294569,30.6368408 122.118051,30.8662834 L122.118051,30.8647838 Z" id="Shape" fill="#1E1E1E" fill-rule="nonzero"></path>
                <circle id="Oval" fill="#1E1E1E" fill-rule="nonzero" cx="44" cy="30" r="2"></circle>
                <g id="Group" transform="translate(150.000000, 66.000000)" fill="#1E1E1E" fill-rule="nonzero">
                    <polygon id="Path" points="1.942 2.648 1.273 0.0222222222 0.1695 0.0222222222 0.1695 3.85555556 0.855 3.85555556 0.855 0.828 1.5915 3.85555556 2.2965 3.85555556 3.029 0.828 3.029 3.85555556 3.7155 3.85555556 3.7155 0.0222222222 2.6015 0.0222222222"></polygon>
                    <path d="M7.312,3.10888889 C7.18956948,2.89175805 7.04778341,2.68368624 6.888,2.48666667 C6.77483794,2.36289661 6.64193348,2.25449179 6.4935,2.16488889 C6.77326207,2.13274304 7.02982818,2.00993 7.214,1.82 C7.39167335,1.61253467 7.48126901,1.35598494 7.467,1.09555556 C7.4737842,0.882888605 7.41683928,0.672441654 7.302,0.485777778 C7.20867087,0.329429166 7.06148948,0.203740933 6.882,0.127111111 C6.60734302,0.0439397781 6.31718069,0.00877544587 6.0275,0.0235555556 L4.468,0.0235555556 L4.468,3.85688889 L5.212,3.85688889 L5.212,2.25688889 L5.362,2.25688889 C5.48668096,2.25180106 5.61136615,2.26685965 5.73,2.30133333 C5.81564011,2.33752964 5.89010803,2.39167426 5.947,2.45911111 C6.0879365,2.64161414 6.21762719,2.83078116 6.3355,3.02577778 L6.8675,3.85911111 L7.758,3.85911111 L7.312,3.10888889 Z M5.7575,1.64444444 L5.2125,1.64444444 L5.2125,0.673333333 L5.7875,0.673333333 C5.98808475,0.664819121 6.18912349,0.674498764 6.3875,0.702222222 C6.48141132,0.728125744 6.56244316,0.781950813 6.617,0.854666667 C6.67835869,0.942635706 6.70833878,1.04504832 6.703,1.14844444 C6.70863936,1.25565716 6.67873558,1.36198171 6.617,1.45422222 C6.56677259,1.52715848 6.48839224,1.58134737 6.3965,1.60666667 C6.18586455,1.64121287 5.97142712,1.65389044 5.7575,1.64444444 L5.7575,1.64444444 Z" id="Shape"></path>
                </g>
                <path d="M74.5723613,74.0001678 C73.8879596,73.9920243 73.2293715,74.280619 72.7453505,74.8007678 C72.2613296,75.3209165 71.9927051,76.0287423 72,76.7643705 L72,81.2357973 C72.0017762,82.7619062 73.1525218,83.9985445 74.5723613,84 L159.428772,84 C160.848228,83.9979625 161.998376,82.7614943 162,81.2357973 L162,76.7643705 C161.998376,75.2386735 160.848228,74.0022053 159.428772,74.0001678 L74.5723613,74.0001678 Z M73.0556859,81.2368537 L73.0556859,76.765427 C73.0515141,76.3318072 73.2099626,75.9146288 73.4953354,75.6080957 C73.7807082,75.3015626 74.1689393,75.1315253 74.5723613,75.1363803 L159.428772,75.1363803 C160.265708,75.1366718 160.944381,75.8658501 160.944381,76.765427 L160.944381,81.2368537 C160.934304,82.1320266 160.26161,82.8550693 159.428772,82.8659004 L74.5723613,82.8659004 C73.7351076,82.8650268 73.0565822,82.1357163 73.0556859,81.2357973 L73.0556859,81.2368537 Z" id="Shape" fill="#1E1E1E" fill-rule="nonzero"></path>
                <path d="M75.4830405,76 L158.515998,76 C159.33559,76 160,76.7553608 160,77.6871455 L160,82.3139479 C160,82.7611167 159.843752,83.1899707 159.565627,83.5061668 C159.287503,83.8223629 158.910286,84 158.516959,84 L75.4830405,84 C75.0897137,84 74.7124966,83.8223629 74.4343725,83.5061668 C74.1562485,83.1899707 74,82.7611167 74,82.3139479 L74,77.6860521 C74,77.2388833 74.1562485,76.8100293 74.4343725,76.4938332 C74.7124966,76.1776371 75.0897137,76 75.4830405,76 Z" id="Path" fill="#FED100" fill-rule="nonzero"></path>
                <g id="Group" transform="translate(110.000000, 46.000000)" fill="#1E1E1E" fill-rule="nonzero">
                    <path d="M14.5237647,1.70526316 C13.7708235,0.722368421 12.0955294,-0.274263158 8.35011765,0.507789474 C3.07623529,1.58257895 0.325176471,4.88936842 0.175529412,10.3343684 C0.0230588235,13.2470526 0.618352941,15.2488421 1.99717647,16.4396842 C3.34729412,17.6058947 5.43011765,17.9038421 8.18635294,17.3264211 C12.5741176,16.4444211 14.8141176,14.0835789 15.4456471,9.67168421 L15.5595294,8.87305263 L10.088,10.1576842 L9.99388235,10.449 C9.20423529,12.8079474 8.91152941,13.3702105 7.70729412,13.7491579 C7.25471629,13.865796 6.77449137,13.7926389 6.37647059,13.5464211 C5.85882353,13.1201053 5.81505882,12.0386842 5.76470588,10.8937895 C5.76470588,10.8937895 5.75011765,10.6195263 5.73552941,10.3471579 C6.55623529,10.1605263 15.6216471,8.08815789 15.6216471,8.08815789 L15.6352941,7.66184211 C15.6425098,7.401 15.6461176,7.14757895 15.6461176,6.90157895 C15.6451765,4.46636842 15.2682353,2.71989474 14.5237647,1.70526316 Z M14.5449412,7.20426316 L4.58917647,9.47794737 L4.67011765,10.9397368 C4.72705882,12.2745789 4.78588235,13.6539474 5.67858824,14.3947895 C6.32140169,14.8617982 7.13512939,15.0220833 7.90541176,14.8334211 L7.94588235,14.8272632 L7.98352941,14.8163684 C9.71858824,14.2863158 10.1952941,13.2465789 10.9256471,11.0913158 L14.2023529,10.3220526 C13.4964706,13.7477368 11.6527059,15.5036842 7.968,16.2431053 C5.55623529,16.7480526 3.78964706,16.5311053 2.71058824,15.5998421 C1.62352941,14.6600526 1.13788235,12.8998421 1.27058824,10.3760526 C1.40564706,5.42936842 3.79341176,2.56026316 8.57129412,1.58494737 C11.0630588,1.06389474 12.8663529,1.34242105 13.6512941,2.36652632 C14.2404706,3.17178947 14.5510588,4.72926316 14.5510588,6.89636842 C14.5501176,6.99963158 14.5468235,7.10526316 14.5449412,7.20568421 L14.5449412,7.20426316 Z" id="Shape"></path>
                    <path d="M9.76282353,3.672 C9.27752723,3.33623407 8.67212591,3.22699017 8.10117647,3.37215789 C6.39435294,3.771 5.13317647,5.53689474 4.80047059,7.98489474 L4.69411765,8.76931579 L11.1882353,7.31936842 L11.1209412,6.81678947 C10.8997647,5.17405263 10.4687059,4.17505263 9.76282353,3.672 Z M6.07717647,7.33215789 C6.47058824,5.80594737 7.29411765,4.69278947 8.336,4.45026316 C8.60519663,4.3694781 8.89617107,4.41394994 9.12941176,4.57152632 C9.49694118,4.833 9.76705882,5.48526316 9.94823529,6.46626316 C9.26447059,6.62068421 7.13129412,7.09578947 6.07670588,7.33215789 L6.07717647,7.33215789 Z" id="Shape"></path>
                </g>
                <path d="M126,51.8681259 C126,49.5844631 125.673108,47.9403657 125.053003,47.0941024 C124.226856,46.0141805 122.328899,45.7216081 119.70633,46.2703062 C114.67813,47.2968062 112.164525,50.3218855 112.022376,55.5362656 C111.8832,58.1988746 112.393845,60.051667 113.537969,61.0422195 C114.673672,62.0237851 116.532997,62.2529502 119.071366,61.7202287 C122.949499,60.9398691 124.892033,59.0890737 125.632989,55.4793487 L122.184274,56.2901639 C121.415086,58.5623434 120.914346,59.6577427 119.087711,60.2164263 L119.048087,60.2279095 L119.005492,60.2344 C118.194774,60.4332529 117.33833,60.2643099 116.661773,59.7720756 C115.720719,58.9912167 115.660293,57.5373413 115.600363,56.1303973 L115.515173,54.5896489 L125.993561,52.193151 C125.996533,52.0838108 126,51.9724735 126,51.8681259 Z M115.626118,53.8382469 L115.738054,53.0114552 C116.088225,50.4312257 117.415606,48.5679486 119.212029,48.14956 C119.81295,47.996551 120.450132,48.1116958 120.960904,48.4655982 C121.703841,48.9958233 122.157528,50.0487846 122.391801,51.7812529 L122.462628,52.3109788 L115.626118,53.8382469 Z" id="Shape" fill="#FED100" fill-rule="nonzero"></path>
                <g id="Group" transform="translate(146.000000, 36.000000)" fill="#1E1E1E" fill-rule="nonzero">
                    <path d="M14.1247059,1.48736842 C12.8978824,0.434842105 11.0127059,0.177631579 8.36376471,0.702473684 C3.05035294,1.79194737 0.253647059,5.11957895 0.0475294118,10.5906316 C0.0318431373,10.8852632 0.0241568627,11.1712105 0.024461361,11.4484737 C0.024461361,13.8865263 0.627294118,15.5979474 1.85976471,16.6618421 C3.22211765,17.838 5.33882353,18.1359474 8.14823529,17.5462105 C14.1171765,16.3203158 15.5101176,12.8842105 15.8230588,7.74094737 C15.9030588,5.42936842 15.7647059,2.89326316 14.1247059,1.48736842 Z M14.7294118,7.68552632 C14.4409412,12.4162105 13.2357647,15.3757895 7.928,16.4662105 C5.46494118,16.9825263 3.664,16.7674737 2.57317647,15.8253158 C1.49082353,14.8902632 1.00988235,13.1475789 1.14211765,10.6436842 L1.14211765,10.6351579 C1.33035294,5.66763158 3.76141176,2.772 8.58070588,1.78389474 C10.8767059,1.32868421 12.4592941,1.50631579 13.4150588,2.32673684 C14.4225882,3.19121053 14.8277647,4.84436842 14.7294118,7.68552632 Z" id="Shape"></path>
                    <path d="M9.98776471,4.03721053 C9.45592444,3.59856072 8.74832148,3.44112157 8.08235294,3.61326316 L8.08235294,3.61326316 C5.63529412,4.14 4.71482353,7.27626316 4.66870588,9.80194737 C4.63576471,11.6066842 4.68894118,13.6132105 5.75105882,14.5818947 C6.29258591,15.049421 7.01343389,15.2487151 7.71623529,15.1252105 C9.88988235,14.8703684 11.1454118,12.6061579 11.2494118,8.75036842 C11.3058824,7.13747368 11.1341176,5.00589474 9.98776471,4.03721053 Z M10.1538824,8.71484211 C10.1016471,10.5958421 9.70070588,13.7832632 7.58682353,14.0291053 C7.19896128,14.1115316 6.79481914,14.0145252 6.48564706,13.7647895 C5.88,13.2124737 5.75670588,11.8771579 5.75670588,10.4201053 C5.75670588,10.2225789 5.75670588,10.0226842 5.76235294,9.82184211 C5.80470588,7.53205263 6.60941176,5.05752632 8.31011765,4.69089474 C8.64571084,4.58881279 9.00972339,4.65968462 9.28329412,4.88036842 C9.896,5.4 10.2202353,6.83194737 10.1543529,8.71578947 L10.1538824,8.71484211 Z" id="Shape"></path>
                </g>
                <path d="M146.02198,47.5745114 L146.02198,47.5834859 C145.886087,50.2184935 146.380813,52.0532765 147.492615,53.0374781 C148.613605,54.0291583 150.463868,54.2555147 152.995526,53.71206 C158.450078,52.5653206 159.688584,49.449181 159.985032,44.4698392 C160.087072,41.4783451 159.670691,39.7397885 158.634331,38.8293772 C157.652134,37.9658326 156.025779,37.7788642 153.666283,38.2580018 C148.714194,39.2980446 146.21397,42.3453798 146.02198,47.5745114 Z M149.646096,46.6980036 C149.694456,44.0395626 150.641833,40.7384489 153.154148,40.1840254 L153.154148,40.1840254 C153.838534,40.0028356 154.565706,40.1685502 155.112254,40.6302566 C156.289826,41.6498575 156.466341,43.8929794 156.407341,45.5911508 C156.300465,49.6496111 155.010214,52.0328346 152.776455,52.3010719 C152.054217,52.4310682 151.313434,52.2212987 150.756931,51.729198 C149.666891,50.7095971 149.612244,48.595608 149.646096,46.697505 L149.646096,46.6980036 Z" id="Shape" fill="#FED100" fill-rule="nonzero"></path>
                <path d="M145.25573,40.170787 L136.979972,42.0713521 L136.704113,45.224189 L137.491283,45.0309956 C138.488963,44.7870142 138.760831,44.9602908 138.820193,45.0190455 C138.879555,45.0778002 138.950889,45.218214 138.950889,45.5473399 C138.936395,45.96791 138.874311,46.3854962 138.765819,46.7921428 C138.765819,46.7921428 137.399995,50.4374238 136.779438,52.0959992 C136.006734,50.4877138 134.280248,46.8927229 134.280248,46.8927229 C134.133179,46.644794 134.042099,46.3678101 134.013369,46.0811114 C134.011425,46.0424644 134.018069,46.0038666 134.032824,45.9680833 C134.14207,45.7489979 134.95069,45.5956382 135.216571,45.5448503 L135.649066,45.4631912 L135.923927,42.311848 L126.155139,44.4802948 L126,47.8163667 L126.789165,47.5758707 C127.000911,47.4942968 127.237134,47.5044836 127.441042,47.603982 C127.64495,47.7034804 127.798098,47.8832903 127.863667,48.1001817 L127.880129,48.1395175 L133.58287,60 L137.854937,58.9782657 L143.226449,45.477133 C143.463398,44.8851047 144.323897,43.2892673 145.445789,43.0343317 L145.878283,42.9347474 L146,40 L145.25573,40.170787 Z M144.77435,41.4703612 C144.761879,41.7840516 144.75689,41.907536 144.747911,42.1072024 C143.443444,42.6663679 142.50313,44.1486793 142.145462,45.0479249 L136.996433,57.9903901 L134.221884,58.6536211 L128.925698,47.6366171 L128.943157,47.675455 C128.68397,46.9389861 128.008185,46.4290107 127.227646,46.3808599 C127.2471,45.9606144 127.257077,45.7410312 127.272541,45.4173824 L134.630434,43.7832051 L134.568079,44.4967262 C133.877186,44.6545672 133.271095,44.8865985 132.992742,45.4492494 C132.898182,45.6447919 132.850208,45.8595128 132.852568,46.0766301 C132.880039,46.5401521 133.011477,46.9915938 133.237174,47.397615 L136.913127,55.0491697 L139.873245,47.1267458 C140.143117,46.0158837 140.307735,44.8602086 139.637293,44.1964797 C139.180921,43.8164538 138.574275,43.6681498 137.993615,43.7946573 C138.026039,43.4276894 138.03851,43.278811 138.061956,43.0119252 L144.77435,41.4703612 Z" id="Shape" fill="#1E1E1E" fill-rule="nonzero"></path>
                <path d="M143.972876,42.5928845 C143.982088,42.4074632 143.986694,42.2920385 144,42 L137.114125,43.4370147 C137.090072,43.6859428 137.077277,43.8240816 137.044012,44.1657202 C137.639724,44.0479447 138.262095,44.1860123 138.730297,44.5398076 C139.418117,45.157724 139.249232,46.2336308 138.972364,47.2678178 L135.934493,54.645266 L132.165302,47.5204543 C131.933755,47.1424579 131.798911,46.7221761 131.770727,46.2906478 C131.768305,46.0885166 131.817524,45.8886164 131.914534,45.7065709 C132.201638,45.1827558 132.821904,44.9648859 133.530706,44.8197937 L133.594678,44.1555221 L126.046059,45.6769035 C126.030194,45.9786766 126.019959,46.1831035 126,46.5738788 C126.800772,46.618706 127.494074,47.0934814 127.75998,47.7791169 L127.742068,47.7429598 L133.175537,58 L136.022006,57.3825472 L141.304504,45.332947 C141.671955,44.4934523 142.634596,43.1139182 143.972876,42.5928845 Z" id="Path" fill="#FED100" fill-rule="nonzero"></path>
                <path d="M109.02511,46.1752021 L101.651565,47.9616563 L101.325165,51.4429128 L103.042882,51.0489611 C103.667111,50.8970517 103.85743,51.0221238 103.889392,51.0489611 C103.963002,51.1107376 103.973656,51.2829015 103.973656,51.3791108 L103.925228,54.7996035 C103.925228,56.0194357 103.731519,60.0181967 101.206034,60.6000096 C100.866575,60.7232004 100.494519,60.7028496 100.169205,60.5432968 C99.8704085,60.2901145 99.8408678,59.5234785 99.8524904,58.8089981 L100.207463,48.2852233 L92.3283372,50.1380113 L92,53.6491432 L93.3922855,53.3250699 C93.5719509,53.2855734 94.0600983,53.176705 94.1613114,53.2632934 C94.1801981,53.2805098 94.2329838,53.3908973 94.2286254,53.668385 L94.1114313,61.1625807 C94.0847962,63.004735 94.5511514,64.3526774 95.496937,65.1709626 C96.4170561,65.9654486 97.7061914,66.1907808 99.3323809,65.8388575 C101.112979,65.4526733 102.706438,64.4226482 103.832732,62.929793 C103.822078,63.4361576 103.793022,64.8119501 103.793022,64.8119501 L111.581104,62.8751056 L112,59.4743612 L111.157365,59.7543808 C109.858544,60.1842843 109.522942,59.9999676 109.469188,59.9569266 C109.415434,59.9138856 109.408654,59.8110936 109.408654,59.7260244 C109.408654,59.6981743 109.732148,46 109.732148,46 L109.02511,46.1752021 Z M108.571346,47.4947882 C108.539384,48.8427307 108.280782,59.7300753 108.280782,59.7300753 C108.255146,60.1906018 108.450978,60.6341335 108.802828,60.9124366 C109.218819,61.2319526 109.813991,61.2932227 110.662437,61.1099187 C110.61401,61.503364 110.593186,61.6669198 110.562193,61.9201021 L104.952372,63.3151364 C104.971258,62.4289984 105.005158,60.8704083 105.005158,60.8704083 L103.933461,60.600516 C103.033707,62.6837923 101.244446,64.1992013 99.1086467,64.6868781 C97.8296811,64.9633531 96.8577447,64.8210647 96.2151142,64.2655827 C95.5453643,63.6863017 95.2165428,62.6502798 95.2378508,61.183848 L95.3550449,53.6896523 C95.4049292,53.1905942 95.2281787,52.6959464 94.8775515,52.3533562 C94.3996266,52.0328403 93.8073188,51.9598354 93.2712172,52.1553677 C93.3167389,51.6743214 93.3404683,51.41962 93.3680719,51.1001039 L99.0263202,49.7683651 C98.9827357,51.0666839 98.724618,58.7770972 98.724618,58.7770972 C98.724618,58.8662173 98.7217124,58.9563502 98.7217124,59.0459768 C98.7217124,59.957433 98.8142086,60.9093984 99.4549021,61.4552594 C99.9241628,61.8552874 100.576479,61.9514967 101.447686,61.7489508 C104.699581,60.9985185 105.050195,56.6432769 105.050195,54.8061862 L105.098622,51.3851872 C105.129413,50.9039278 104.939795,50.4359776 104.587714,50.1243394 C104.055472,49.7650749 103.394987,49.6810813 102.795903,49.8964754 L102.59832,49.9420482 C102.641904,49.4711291 102.665634,49.2295932 102.695174,48.9176726 C103.320371,48.7677887 107.498196,47.7550596 108.570861,47.4947882 L108.571346,47.4947882 Z" id="Shape" fill="#1E1E1E" fill-rule="nonzero"></path>
                <path d="M109.896255,63.3174329 C109.928331,63.0836953 109.948879,62.9327008 110,62.5694726 C109.121927,62.7386986 108.506474,62.6821341 108.075456,62.3871573 C107.71132,62.1302282 107.50865,61.7207603 107.53518,61.2956027 C107.53518,61.2956027 107.800306,51.2448864 107.83589,50 C106.725769,50.2407497 102.40206,51.1747651 101.753028,51.3150077 C101.723458,51.6025049 101.699401,51.825958 101.652791,52.26071 L101.857274,52.2186372 C102.477277,52.0197856 103.160825,52.0973284 103.711653,52.429001 C104.076028,52.7167051 104.272267,53.1487161 104.240401,53.5930142 L104.190283,56.7512765 C104.190283,58.4472765 103.826925,62.4680305 100.46198,63.1608287 C99.5598496,63.3478187 98.8852569,63.2589985 98.3996102,62.8896931 C97.7370458,62.3857548 97.6408186,61.506434 97.6408186,60.6654462 C97.6408186,60.5822356 97.6408186,60.4994925 97.6438257,60.4172169 C97.6438257,60.4172169 97.9109564,53.2985049 97.9560629,52.100366 L92.1002367,53.3298257 C92.0696645,53.6248025 92.0456077,53.8599425 92,54.304044 C92.5548215,54.1235288 93.1678118,54.1909268 93.6624252,54.4868268 C94.0252957,54.8031056 94.2082182,55.2597639 94.156592,55.7204937 L94.0353056,62.6391264 C94.0127523,63.9948044 94.353557,64.9493887 95.0466936,65.4841803 C95.7112627,65.998403 96.7176389,66.1283611 98.0412641,65.8731197 C100.251643,65.4228971 102.103382,64.0238732 103.034554,62.100595 L104.143673,62.3497592 C104.143673,62.3497592 104.10859,63.7886478 104.089044,64.6067294 L109.896255,63.3174329 Z" id="Path" fill="#FED100" fill-rule="nonzero"></path>
                <path d="M81.1071312,46.1691326 L72.7261789,48.0467056 L72.607108,51.2486472 L74.2628571,50.887227 C74.9006272,50.7488 75.1024855,50.8570247 75.1045296,50.8575281 L75.1137282,50.8620584 C75.1510101,50.9943144 75.1653503,51.1318222 75.156144,51.268782 L74.7115447,69.7827596 C74.6865041,70.5076135 74.2577468,70.6505708 73.1298955,70.8458787 L72.242741,71.0084674 L72.2161672,71.4514337 L72,74 L83.4573751,71.4589843 L83.4987689,68.552018 L82.7644135,68.7130966 C82.3709175,68.7996764 81.5512195,68.9793798 81.3881998,68.8505169 C81.3779791,68.8419596 81.3370964,68.771991 81.3370964,68.5781933 L81.3881998,63.3486742 C81.3939312,62.0048359 81.6748098,60.6759447 82.2140302,59.4415101 C82.6317441,58.6597441 83.3831916,58.1035472 84.2617422,57.9258607 C84.5689332,57.811131 84.9139857,57.8549375 85.1816028,58.0426427 C85.5546574,58.337618 85.7606039,59.0785798 85.7606039,60.1301213 L85.6348897,67.3504719 C85.6348897,68.0894202 85.3793728,68.1654292 84.3946109,68.345636 L83.5391405,68.5087281 L83.5345412,68.9758562 L83.4624855,71.4615011 L93.8732636,69.0956584 L94,66.200773 L93.2385598,66.3749393 C92.3411847,66.5798112 91.8270848,66.6356854 91.709547,66.5405483 C91.6755949,66.4611052 91.6615717,66.3747747 91.6686643,66.2888629 L91.8173751,58.7030652 C91.8173751,57.1114067 91.3824855,54.9962427 90.4258304,54.0851416 C89.5156794,53.2188404 87.9754239,52.9510472 86.1965157,53.3492135 C84.3836883,53.7523177 82.7602593,54.7421099 81.5854588,56.1605393 C81.6549593,53.516836 81.8511963,46 81.8511963,46 L81.1071312,46.1691326 Z M76.3468525,51.2677753 C76.3468525,50.9546787 76.3197677,50.1417348 75.6947735,49.8618607 C75.1618264,49.6148316 74.5541507,49.5738735 73.9920093,49.7470921 C73.98741,49.7470921 73.911266,49.7652135 73.8535192,49.7783011 C73.8673171,49.4068135 73.8724274,49.2648629 73.8826481,48.9890157 L80.6252265,47.4789034 C80.5909872,48.7916944 80.2899884,60.2826427 80.2899884,60.2826427 L81.4536121,58.3627865 C82.7511266,56.2224539 84.3889895,54.9569798 86.4617422,54.4938787 C87.8415331,54.1853124 88.9852265,54.3428674 89.600511,54.9292944 C90.1682695,55.4694112 90.6297329,57.159227 90.6297329,58.6945079 L90.4810221,66.2798022 C90.445567,66.7274872 90.6273315,67.1652831 90.9711034,67.4602067 C91.4121254,67.8045124 92.0171893,67.8014921 92.7474564,67.6756494 C92.7377468,67.9142472 92.7346806,67.969618 92.7265041,68.1568719 L84.6976539,69.9810876 C84.7048084,69.7334292 84.7068525,69.6760449 84.7124739,69.4777169 C85.6359117,69.3065708 86.8266202,69.0372674 86.8266202,67.3635596 L86.9518235,60.1427056 C86.9518235,58.6778966 86.6073868,57.6676315 85.9297561,57.1315416 C85.3791473,56.7232167 84.6650308,56.5951886 84.0036702,56.7862292 C82.7766041,57.0402658 81.7302934,57.8238116 81.1536353,58.9205213 C80.5324047,60.3192419 80.2087368,61.8285147 80.2026016,63.355218 L80.1514983,68.5746697 C80.1172379,69.0266727 80.30086,69.468216 80.6472009,69.7666517 C81.142067,70.0595843 81.7396172,70.1327238 82.2922184,69.968 C82.2881301,70.2342831 82.287619,70.3012315 82.2840418,70.5217079 L73.3230662,72.5095191 C73.3445296,72.2578337 73.34964,72.1918921 73.3665041,71.9980944 C74.3640418,71.8244315 75.8439954,71.5526112 75.9032753,69.8195056 L76.3468525,51.2677753 Z M75.6957956,49.8643775 C75.7126597,49.8739416 75.7428107,49.8699146 75.7586527,49.879982 L75.6237398,49.8145438 C75.6533798,49.8225978 75.6656446,49.8492764 75.6942625,49.8618607 L75.6957956,49.8643775 Z" id="Shape" fill="#1E1E1E" fill-rule="nonzero"></path>
                <path d="M74.5199,49.4499236 C74.5104301,49.7144236 74.5056951,49.850535 74.4929107,50.2067412 C74.5464159,50.1946746 74.616967,50.1772987 74.6212285,50.176816 C75.1420795,50.0107228 75.7051203,50.0499961 76.1989215,50.2868635 C76.1724056,50.2747969 76.1605682,50.2492157 76.1316849,50.2385971 L76.2566881,50.3013434 C76.2420097,50.2916901 76.2140734,50.2955514 76.198448,50.2863808 C76.7775352,50.5547422 76.8026305,51.334245 76.8026305,51.6344622 L76.3906879,69.4206419 C76.3357622,71.0824552 74.964514,71.3430939 74.0402473,71.5096131 C74.0246219,71.6954388 74.0198869,71.7572199 74,72 L82.3027752,70.0939587 C82.3060897,69.8844823 82.3065632,69.8207707 82.3103512,69.5630279 C81.7983396,69.7209757 81.2446806,69.6508448 80.7861634,69.3699622 C80.4652618,69.0838028 80.2951271,68.6604227 80.326871,68.2270131 L80.3742207,63.2222669 C80.3799052,61.7583655 80.6797992,60.3111777 81.2553992,58.9699944 C81.7897006,57.9183985 82.7591579,57.1670844 83.8960936,56.9234977 C84.5088761,56.7403156 85.1705395,56.8630773 85.680705,57.2546054 C86.3104564,57.7686429 86.6276996,58.7373502 86.6276996,60.1419033 L86.5140602,67.0666881 C86.5140602,68.6729949 85.4108115,68.9312203 84.5552019,69.0938782 C84.5499934,69.2840479 84.5480994,69.3390717 84.5414705,69.5765425 L91.9805866,67.8273671 C91.9881626,67.6478159 91.9910036,67.5947229 92,67.36594 C91.3228989,67.4866061 90.7627515,67.4895021 90.3541234,67.1593597 C90.0356022,66.8765679 89.8671886,66.456781 89.9000395,66.0275119 L90.0378272,58.7542434 C90.0378272,57.2821173 89.6116796,55.6622959 89.0842036,55.1439144 C88.5160068,54.5825758 87.4548994,54.4305366 86.1759832,54.7264098 C84.2554781,55.1709436 82.7379192,56.3843617 81.5357096,58.4361676 L80.4575562,60.2770493 C80.4575562,60.2770493 80.7359726,49.2592712 80.7681705,48 L74.5199,49.4499236 Z" id="Path" fill="#FED100" fill-rule="nonzero"></path>
                <path d="M78.0012892,77.7350599 L78.4357542,77.7350599 L78.4357542,77.4113869 C78.4271644,77.1375429 78.4538117,76.8637694 78.5143962,76.603421 C78.5748101,76.4159325 78.6780487,76.2626986 78.8074774,76.1684093 C78.9746163,76.0487425 79.1604932,75.9911701 79.3476579,76.0010971 C79.5690838,76.0013532 79.7891436,76.0502002 80,76.1458982 L79.8981521,76.9325698 C79.7811625,76.8914294 79.6611513,76.8699868 79.5406102,76.8686869 C79.4514132,76.857256 79.3629055,76.8991718 79.2965191,76.9842844 C79.2374957,77.1166476 79.211895,77.2734212 79.2238934,77.4290307 L79.2238934,77.7332347 L79.7971637,77.7332347 L79.7971637,78.6275945 L79.2238934,78.6275945 L79.2238934,82 L78.4357542,82 L78.4357542,78.6275945 L78,78.6275945 L78.0012892,77.7350599 Z" id="Path" fill="#1E1E1E" fill-rule="nonzero"></path>
                <path d="M80.8128746,82 L80,82 L80,78.0980216 L80.7591565,78.0980216 L80.7591565,78.6544138 C80.8464015,78.4521174 80.9650426,78.2737276 81.1081021,78.129736 C81.2134119,78.0427954 81.3371736,77.9976205 81.463263,78.0000966 C81.6532287,78.0015344 81.8391078,78.0693599 82,78.1959467 L81.7536071,79.0978584 C81.6392777,78.9974077 81.5046068,78.9395405 81.3651498,78.9309407 C81.258866,78.92747 81.1548886,78.9701212 81.0708102,79.0516778 C80.9736958,79.1678837 80.9076362,79.3188894 80.881687,79.4839946 C80.8215969,79.9168217 80.7985289,80.356449 80.8128746,80.7954109 L80.8128746,82 Z" id="Path" fill="#1E1E1E" fill-rule="nonzero"></path>
                <path d="M86.7840991,80.7045585 L87.9092963,80.8731035 C87.7893479,81.2089042 87.5506366,81.5019663 87.2281589,81.7093254 C86.881844,81.9084606 86.4742968,82.008394 86.0611968,81.9954726 C85.4262333,82.0368825 84.8105979,81.7921887 84.424993,81.345138 C84.1303497,80.9561018 83.9830548,80.4946639 84.0042724,80.0271267 C83.9678407,79.4871456 84.1654489,78.9551413 84.557044,78.5389445 C84.9112207,78.1864528 85.4236921,77.9899083 85.9573985,78.0018765 C86.5293565,77.9778609 87.082489,78.1853803 87.4597088,78.5654998 C87.8676615,79.0662879 88.0547914,79.6810988 87.9860701,80.2948477 L85.1607933,80.2948477 C85.1503495,80.5509304 85.2464756,80.8015325 85.4310372,80.9993768 C85.5942785,81.1625282 85.8305653,81.2540907 86.0771657,81.2497556 C86.2364725,81.2542794 86.3923899,81.2085484 86.5169262,81.1207726 C86.6517634,81.0091556 86.7449435,80.8639955 86.7840991,80.7045585 Z M86.8590304,79.6786558 C86.8713643,79.4341356 86.7812922,79.1941605 86.6059838,79.0044756 C86.4595262,78.8560604 86.2467477,78.7716917 86.0237311,78.7736069 C85.789242,78.7686239 85.564959,78.8581982 85.4144541,79.0169404 C85.2430827,79.2029785 85.1581303,79.4394792 85.1767623,79.6786558 L86.8590304,79.6786558 Z" id="Shape" fill="#1E1E1E" fill-rule="nonzero"></path>
                <path d="M88,80.8365896 L89.1304243,80.6806976 C89.1647155,80.8534596 89.2692962,81.0094399 89.4247542,81.1196852 C89.6066792,81.229301 89.8252277,81.2822808 90.0455002,81.2701643 C90.2779692,81.2847795 90.5096918,81.2339608 90.7069712,81.1250981 C90.8040266,81.0614986 90.8601,80.9607004 90.8575299,80.8544522 C90.8599883,80.7834326 90.8305117,80.7144133 90.775463,80.6622937 C90.6620758,80.5932021 90.532347,80.5474961 90.3959811,80.5285946 C89.792336,80.4418811 89.2072573,80.2750563 88.6608539,80.0338539 C88.3316592,79.8458218 88.1387455,79.5202998 88.1524098,79.1759065 C88.147411,78.8540552 88.309248,78.5476173 88.5923621,78.3428585 C88.984202,78.0914291 89.4659199,77.9717623 89.9498584,78.0056338 C90.4035956,77.9775985 90.8569722,78.0643937 91.2561402,78.2557105 C91.5486642,78.4305141 91.7582447,78.6931035 91.845417,78.9940325 L90.7773142,79.1748239 C90.7392007,79.03787 90.6469293,78.9172218 90.5169217,78.8343514 C90.3528475,78.7471351 90.1623188,78.7059643 89.9708379,78.7163498 C89.7498667,78.7014824 89.528493,78.7402468 89.3309635,78.8283972 C89.2509301,78.8739199 89.202801,78.952038 89.2032354,79.0357119 C89.2034386,79.1093627 89.244982,79.1782001 89.3143033,79.2197511 C89.6520137,79.3567215 90.0091945,79.4532151 90.3762357,79.5066358 C90.8310626,79.573686 91.2635298,79.7276165 91.6430266,79.9575318 C91.8852732,80.148631 92.0159334,80.4256282 91.9984439,80.7110099 C91.998376,81.0626507 91.8168992,81.3953738 91.5048088,81.6160497 C91.0884763,81.8937746 90.5708334,82.0285206 90.0492025,81.9949539 C89.562234,82.0178351 89.078974,81.9092072 88.6645562,81.6837112 C88.3309659,81.4833875 88.0941223,81.1814787 88,80.8365896 Z" id="Path" fill="#1E1E1E" fill-rule="nonzero"></path>
                <path d="M95.935371,79.2084784 L94.8378973,79.3887796 C94.8149081,79.2192524 94.7245333,79.0625794 94.5830395,78.9469604 C94.4367489,78.8440951 94.2536491,78.7914327 94.0672269,78.7986044 C93.8104763,78.7898774 93.5633613,78.8860356 93.3965485,79.0595809 C93.2032086,79.3163402 93.1149654,79.6242512 93.1465684,79.931849 C93.1121817,80.2679407 93.2011581,80.6048925 93.4002068,80.8923727 C93.5638406,81.0776521 93.8174997,81.182129 94.0824696,81.1733827 C94.2754679,81.1804826 94.4640582,81.1209054 94.6086472,81.007159 C94.7700269,80.8489608 94.8705942,80.649298 94.8958195,80.4370173 L96,80.6070311 C95.8677727,81.46139 95.0019473,82.072111 94.0349124,81.9931306 C93.478135,82.0160458 92.9375669,81.823237 92.5533229,81.4646802 C91.815559,80.5961696 91.815559,79.3985581 92.5533229,78.5300476 C92.9437805,78.1707862 93.4897829,77.9785739 94.0513745,78.0026801 C94.4864635,77.9815491 94.9175974,78.0858113 95.280545,78.2999334 C95.6076867,78.52875 95.8383897,78.8488413 95.935371,79.2084784 Z" id="Path" fill="#1E1E1E" fill-rule="nonzero"></path>
                <path d="M96.0010838,79.9473104 C96.0015417,79.6069184 96.0872955,79.2717428 96.2509501,78.9706878 C96.4088864,78.6663413 96.6576407,78.4152499 96.964774,78.2501573 C97.2799226,78.081854 97.6347617,77.9960301 97.9944244,78.0011185 C98.5354873,77.9829204 99.0592842,78.1874681 99.4366057,78.5643043 C99.8138254,78.9465057 100.016526,79.4600834 99.9989446,79.9890881 C100.016564,80.5235756 99.8116504,81.0424245 99.4304569,81.4285213 C99.0598618,81.8062094 98.5416396,82.0136413 98.0044861,81.999303 C97.6505777,82.0004005 97.3016087,81.9186982 96.9871334,81.7611156 C96.6728486,81.6093514 96.415553,81.3656851 96.2515091,81.0644581 C96.0751867,80.7175502 95.9892005,80.3339657 96.0010838,79.9473104 L96.0010838,79.9473104 Z M97.0525347,80.0015672 C97.0291287,80.3154597 97.1263051,80.6266461 97.3253193,80.8751019 C97.4931311,81.0679258 97.7399644,81.1791658 98.0000142,81.1791658 C98.2600641,81.1791658 98.5068974,81.0679258 98.6747092,80.8751019 C98.8735755,80.6234369 98.970613,80.3097997 98.9474938,79.9934287 C98.9690242,79.6814138 98.871974,79.3725619 98.6747092,79.1253197 C98.5065816,78.9330086 98.2598649,78.822147 98.0000142,78.822147 C97.7401636,78.822147 97.4934469,78.9330086 97.3253193,79.1253197 C97.1263469,79.3746334 97.0292083,79.6864719 97.0525347,80.0010246 L97.0525347,80.0015672 Z" id="Shape" fill="#1E1E1E" fill-rule="nonzero"></path>
                <path d="M106,80.8367249 L107.127265,80.6808378 C107.162013,80.8534401 107.266438,81.0092783 107.421415,81.1198117 C107.603771,81.229276 107.822512,81.282228 108.043014,81.2702861 C108.275326,81.284749 108.506854,81.2339435 108.70408,81.1252244 C108.800392,81.0613416 108.855536,80.9605035 108.85208,80.854587 C108.854871,80.7837204 108.825864,80.7147229 108.771297,80.6624344 C108.658718,80.5928879 108.529343,80.5471312 108.393281,80.5287395 C107.789787,80.4413953 107.204767,80.2746088 106.657983,80.0340143 C106.330117,79.8453218 106.138371,79.520003 106.152317,79.1760937 C106.147431,78.8547462 106.308093,78.5486388 106.589533,78.3430717 C106.982839,78.090915 107.466297,77.9712358 107.951748,78.0058574 C108.404793,77.9780634 108.857421,78.0648476 109.255996,78.2559264 C109.547998,78.4312517 109.757671,78.6935611 109.846146,78.9942253 L108.775614,79.1750111 C108.73866,79.038188 108.647247,78.9174484 108.517847,78.8345492 C108.354195,78.7476146 108.164274,78.7064583 107.973331,78.7165513 C107.752486,78.7015435 107.531204,78.7403142 107.333849,78.8285952 C107.252391,78.8731648 107.203128,78.9516523 107.203732,79.0359035 C107.205021,79.1098368 107.247388,79.1785522 107.317199,79.2199369 C107.654449,79.3574821 108.011502,79.4539973 108.378481,79.5068126 C108.832881,79.5743196 109.264974,79.7282062 109.644496,79.9576946 C109.885766,80.1492224 110.015803,80.4260189 109.998462,80.7111492 C109.997861,81.0626726 109.8166,81.395194 109.50513,81.6161607 C109.089326,81.8935322 108.572533,82.0282496 108.051648,81.9950531 C107.564575,82.0180524 107.081178,81.9094273 106.666616,81.6838201 C106.331835,81.4843027 106.094079,81.1821773 106,80.8367249 L106,80.8367249 Z" id="Path" fill="#1E1E1E" fill-rule="nonzero"></path>
                <path d="M112.785175,80.7044301 L113.910553,80.8729672 C113.791849,81.209602 113.552323,81.5030747 113.228078,81.7091497 C112.883216,81.9085441 112.476669,82.0085272 112.064613,81.9952835 C111.428323,82.0376198 110.811006,81.79286 110.42446,81.3449795 C110.130219,80.9558029 109.983139,80.4944598 110.004286,80.0270302 C109.967787,79.4870675 110.165434,78.9550685 110.557147,78.538918 C110.912126,78.187033 111.424534,77.9906399 111.958341,78.0018753 C112.530213,77.9778677 113.083244,78.1853907 113.460279,78.5654721 C113.868956,79.0659274 114.055788,79.6810671 113.985497,80.2947387 L111.159765,80.2947387 C111.149147,80.5507397 111.245067,80.8013222 111.429438,80.9992346 C111.592642,81.1627695 111.829365,81.2543947 112.076285,81.2496016 C112.235803,81.254112 112.391933,81.2083918 112.51673,81.1206247 C112.653148,81.0099332 112.746995,80.8644344 112.785175,80.7044301 L112.785175,80.7044301 Z M112.861961,79.6785757 C112.872871,79.434243 112.782947,79.1947132 112.608874,79.0044272 C112.455257,78.856078 112.237146,78.7726539 112.009401,78.7751382 C111.781656,78.7776224 111.56595,78.8657786 111.416538,79.0174333 C111.246386,79.2040542 111.161578,79.4401023 111.178808,79.6791176 L112.861961,79.6785757 Z" id="Shape" fill="#1E1E1E" fill-rule="nonzero"></path>
                <polygon id="Path" fill="#1E1E1E" fill-rule="nonzero" points="114 82 114 76 115 76 115 82"></polygon>
                <path d="M118.78595,80.7044878 L119.909522,80.8730294 C119.791811,81.2097898 119.552727,81.5034077 119.228625,81.7092341 C118.883856,81.9084692 118.477579,82.0084401 118.065759,81.9953754 C117.429194,82.0372538 116.811696,81.7926564 116.423993,81.3450542 C116.131018,80.9554153 115.984116,80.4943847 116.004035,80.0270699 C115.968729,79.4872274 116.166137,78.9555851 116.556611,78.5389183 C116.911917,78.1863766 117.425141,77.9899088 117.959541,78.0018613 C118.530745,77.9779472 119.083074,78.1854883 119.459479,78.565473 C119.86838,79.0657932 120.055557,79.6809622 119.985655,80.2947855 L117.161375,80.2947855 C117.150532,80.5510067 117.246913,80.8017872 117.432138,80.9993001 C117.594116,81.1623285 117.829351,81.2539493 118.074968,81.2496738 C118.235193,81.2544179 118.392105,81.2086991 118.517643,81.1206934 C118.652396,81.0088843 118.745889,80.863855 118.78595,80.7044878 L118.78595,80.7044878 Z M118.860241,79.6786061 C118.872457,79.434466 118.783394,79.1947719 118.609739,79.0044398 C118.462562,78.8560136 118.249308,78.7716954 118.02585,78.7735758 C117.790083,78.7687724 117.564464,78.8581893 117.411877,79.0169043 C117.244754,79.2047553 117.16152,79.440199 117.177953,79.6786061 L118.860241,79.6786061 Z" id="Shape" fill="#1E1E1E" fill-rule="nonzero"></path>
                <path d="M125.93659,79.2104435 L124.834849,79.3907462 C124.81172,79.2214905 124.721867,79.0649705 124.58121,78.9489232 C124.43492,78.8460571 124.25182,78.7933942 124.065398,78.800566 C123.808595,78.7915954 123.561366,78.887799 123.394719,79.0615448 C123.202017,79.3176994 123.114398,79.6249231 123.146568,79.9316546 C123.112457,80.2678735 123.20187,80.6048617 123.401426,80.8921864 C123.56525,81.0772542 123.81878,81.1816787 124.083689,81.1731989 C124.276311,81.180243 124.464498,81.1206545 124.608647,81.0069738 C124.771822,80.8495906 124.873399,80.6496184 124.898258,80.4368272 L126,80.6068424 C125.869539,81.4616393 125.003294,82.0730407 124.036132,81.9929538 C123.478991,82.0158986 122.938036,81.8231086 122.553323,81.4644988 C121.815559,80.5959809 121.815559,79.3983591 122.553323,78.5298411 C122.944351,78.1699933 123.491387,77.9777285 124.053813,78.0024691 C124.488791,77.982267 124.919602,78.086452 125.282984,78.299725 C125.609915,78.5294386 125.840167,78.8502656 125.93659,79.2104435 Z" id="Path" fill="#1E1E1E" fill-rule="nonzero"></path>
                <path d="M129.942687,79.2096238 L128.839726,79.3901374 C128.818336,79.2202162 128.728191,79.0630046 128.586088,78.9477977 C128.44081,78.8446979 128.258415,78.7919267 128.072714,78.799267 C127.815894,78.7902043 127.568627,78.8865354 127.402036,79.060551 C127.208696,79.3176126 127.120453,79.6258865 127.152056,79.9338466 C127.118197,80.2703012 127.207135,80.6075039 127.405694,80.8955018 C127.569518,81.080786 127.823048,81.1853326 128.087957,81.1768429 C128.280917,81.1837243 128.469414,81.1241062 128.614135,81.0104234 C128.775958,80.8521813 128.876959,80.6522688 128.902526,80.43961 L130,80.6098241 C129.922478,81.0126977 129.690189,81.3791938 129.342735,81.6468288 C128.966793,81.8952731 128.505133,82.0193109 128.037351,81.9975565 C127.47993,82.0201255 126.938781,81.8271997 126.553323,81.4684835 C125.815559,80.5989499 125.815559,79.3999275 126.553323,78.5303938 C126.944669,78.1705471 127.49148,77.9781364 128.053813,78.002405 C128.489136,77.9824815 128.92023,78.0867535 129.284203,78.3000086 C129.611853,78.5292762 129.843681,78.8495178 129.942687,79.2096238 L129.942687,79.2096238 Z" id="Path" fill="#1E1E1E" fill-rule="nonzero"></path>
                <path d="M130,77.0624677 L130,76 L132,76 L132,77.0624677 L130,77.0624677 Z M130,82 L130,77.6553433 L132,77.6553433 L132,82 L130,82 Z" id="Shape" fill="#1E1E1E" fill-rule="nonzero"></path>
                <path d="M132.001205,79.947312 C132.001947,79.6066808 132.088526,79.2713933 132.253398,78.9706647 C132.410715,78.6663862 132.659006,78.4152556 132.965799,78.2501161 C133.28141,78.0816725 133.636772,77.9958436 133.996935,78.0010711 C134.538117,77.9832814 135.061937,78.1877702 135.439632,78.564271 C135.815872,78.9469452 136.017429,79.4605183 135.998816,79.9890908 C136.016211,80.5234518 135.811484,81.0421648 135.430685,81.4285603 C135.059167,81.805795 134.540648,82.013114 134.003086,81.9993563 C133.649082,82.0001987 133.30005,81.9185087 132.98537,81.7611629 C132.670815,81.610186 132.413743,81.3662564 132.251161,81.0644879 C132.07449,80.717686 131.988639,80.3339767 132.001205,79.947312 Z M133.05415,80.0015702 C133.031216,80.3154185 133.128376,80.6264494 133.327032,80.8751269 C133.494692,81.0679145 133.741436,81.1791528 134.001409,81.1791528 C134.261382,81.1791528 134.508126,81.0679145 134.675786,80.8751269 C134.874325,80.6233041 134.970995,80.3096734 134.947549,79.9934314 C134.969405,79.6815462 134.872722,79.372701 134.675786,79.1253006 C134.50781,78.9330266 134.261183,78.8221675 134.001409,78.8221675 C133.741635,78.8221675 133.495008,78.9330266 133.327032,79.1253006 C133.128615,79.3749103 133.031693,79.6865875 133.054709,80.0010276 L133.05415,80.0015702 Z" id="Shape" fill="#1E1E1E" fill-rule="nonzero"></path>
                <path d="M141.9996,82 L140.838937,82 L140.838937,80.0053635 C140.8546,79.7304835 140.829685,79.4549799 140.764811,79.1857108 C140.720445,79.0690854 140.635036,78.9678353 140.520895,78.8965525 C140.402507,78.8267713 140.262427,78.790838 140.119858,78.7936788 C139.926171,78.7918064 139.736702,78.8433494 139.578173,78.9410384 C139.421728,79.0344382 139.306026,79.1716718 139.249994,79.33029 C139.174434,79.624391 139.144386,79.9260898 139.160663,80.2272369 L139.160663,81.9988879 L138,81.9988879 L138,78.0991427 L139.08147,78.0991427 L139.08147,78.6724548 C139.404837,78.2515455 139.94567,77.9995006 140.524062,78.0001616 C140.765596,77.9970418 141.005115,78.0391255 141.226669,78.12361 C141.415195,78.1903852 141.581,78.2985742 141.708167,78.4377916 C141.817734,78.5672173 141.895211,78.7153455 141.935611,78.8726413 C141.983877,79.1021882 142.005107,79.3354846 141.998966,79.5688456 L141.9996,82 Z" id="Path" fill="#1E1E1E" fill-rule="nonzero"></path>
                <path d="M143.135111,79.2597303 L142.120374,79.089527 C142.203947,78.7638088 142.41326,78.4741387 142.712202,78.2704914 C143.089072,78.0709841 143.525731,77.9781304 143.963793,78.0043455 C144.346909,77.9856967 144.730086,78.0400396 145.087471,78.1637078 C145.303984,78.2481368 145.485397,78.3902401 145.606468,78.5702444 C145.7315,78.857305 145.782926,79.1653906 145.757026,79.4722134 L145.74295,80.6490012 C145.735614,80.897249 145.753229,81.1455827 145.795584,81.3910659 C145.837657,81.5685937 145.906408,81.740326 146,81.9016758 L144.878158,81.9016758 C144.849393,81.83663 144.813284,81.7390612 144.769218,81.6078854 C144.758353,81.5684284 144.745073,81.5295241 144.729436,81.4913449 C144.553067,81.6510896 144.34416,81.7798326 144.113739,81.870779 C143.892492,81.9565788 143.653265,82 143.411746,81.9981605 C143.032383,82.0162245 142.660349,81.9006764 142.376812,81.6767256 C142.128119,81.4660372 141.991429,81.1721434 142.000417,80.8674468 C141.996351,80.6642929 142.055877,80.464109 142.172396,80.2890809 C142.286816,80.1198454 142.455272,79.9844187 142.656508,79.8998899 C142.943609,79.7884305 143.245181,79.7088674 143.554348,79.6630146 C143.928126,79.610964 144.295536,79.527844 144.651709,79.4147563 L144.651709,79.3144773 C144.667996,79.1621088 144.609595,79.0108854 144.491358,78.8992679 C144.30867,78.7986684 144.093202,78.7551586 143.879333,78.7756808 C143.713167,78.7677078 143.5483,78.8055851 143.407462,78.8840906 C143.276464,78.9824866 143.181628,79.1132886 143.135111,79.2597303 L143.135111,79.2597303 Z M144.651097,80.068467 C144.424334,80.1307337 144.194114,80.1826579 143.961345,80.224035 C143.745528,80.2537565 143.536446,80.3137744 143.341976,80.401827 C143.204041,80.4802314 143.120751,80.6155039 143.121035,80.7606632 C143.118712,80.9007441 143.182883,81.0352566 143.29791,81.1314246 C143.418125,81.2357855 143.581345,81.2920023 143.749584,81.2869926 C143.962487,81.2849375 144.16872,81.2209419 144.336516,81.1048642 C144.465846,81.0222484 144.560732,80.9041016 144.606419,80.768794 C144.643438,80.6050742 144.658232,80.4380227 144.650485,80.2711932 L144.651097,80.068467 Z" id="Shape" fill="#1E1E1E" fill-rule="nonzero"></path>
                <path d="M148,81.8947535 L146.998254,81.8947535 L146.998254,81.2669531 C146.846033,81.4969934 146.642767,81.6857963 146.40554,81.8174951 C146.194089,81.9356181 145.957952,81.9982758 145.717757,82 C145.248778,82.0011765 144.804427,81.782493 144.508855,81.4050449 C144.150073,80.9338442 143.971061,80.3422831 144.005928,79.7430772 C143.964698,79.1462789 144.139627,78.5549888 144.496531,78.0847596 C144.80765,77.71351 145.262271,77.505421 145.736536,77.5171842 C146.199264,77.519306 146.636184,77.7384957 146.924899,78.1133513 L146.924899,76 L148,76 L148,81.8947535 Z M145.108024,79.6700772 C145.084823,80.0125976 145.148344,80.355459 145.292294,80.6647028 C145.43945,80.9443869 145.724448,81.11602 146.03172,81.110003 C146.285538,81.110482 146.524737,80.9869542 146.67725,80.7766362 C146.87291,80.4855022 146.965952,80.1334333 146.940744,79.7795773 C146.972614,79.4045551 146.88277,79.0292392 146.685466,78.7131683 C146.528332,78.5019963 146.283643,78.3809313 146.026438,78.3871014 C145.773354,78.3845383 145.533256,78.5030357 145.375626,78.7083016 C145.179068,78.9857506 145.084394,79.3267643 145.108611,79.6700772 L145.108024,79.6700772 Z" id="Shape" fill="#1E1E1E" fill-rule="nonzero"></path>
                <path d="M150.001204,79.9472593 C150.001399,79.6065706 150.087976,79.271165 150.253297,78.9706359 C150.410471,78.666129 150.658926,78.4149369 150.965977,78.2501049 C151.281822,78.0815527 151.637435,77.9957247 151.997825,78.001066 C152.537802,77.9833181 153.060365,78.1878674 153.4366,78.5642521 C153.813806,78.9464538 154.016499,79.4600319 153.998918,79.989037 C154.016813,80.523468 153.812095,81.0423529 153.43101,81.4284714 C153.059395,81.8066683 152.53995,82.0141094 152.001738,81.9992535 C151.648772,82.0000429 151.300796,81.9183457 150.987218,81.7610659 C150.672646,81.610093 150.415496,81.3661847 150.252738,81.0644079 C150.075029,80.7179383 149.988606,80.334101 150.001204,79.9472593 L150.001204,79.9472593 Z M151.052616,80.0015161 C151.031114,80.3153726 151.128521,80.626037 151.326509,80.8750515 C151.494102,81.0678344 151.740749,81.17907 152.00062,81.17907 C152.260491,81.17907 152.507138,81.0678344 152.674731,80.8750515 C152.87359,80.6233863 152.970624,80.3097489 152.947506,79.9933776 C152.969035,79.6813625 152.871989,79.3725103 152.674731,79.1252679 C152.506821,78.9329987 152.260291,78.8221423 152.00062,78.8221423 C151.740949,78.8221423 151.494419,78.9329987 151.326509,79.1252679 C151.128555,79.3751349 151.031184,79.686456 151.052616,80.0009736 L151.052616,80.0015161 Z" id="Shape" fill="#1E1E1E" fill-rule="nonzero"></path>
            </g>
        </g>
    </g>
</svg>