<?xml version="1.0" encoding="utf-8"?>
<!-- Generator: Adobe Illustrator 24.1.0, SVG Export Plug-In . SVG Version: 6.00 Build 0)  -->
<svg version="1.1" id="Capa_1" xmlns="http://www.w3.org/2000/svg" xmlns:xlink="http://www.w3.org/1999/xlink" x="0px" y="0px"
	 viewBox="0 0 156 94.1" style="enable-background:new 0 0 156 94.1;" xml:space="preserve">
<style type="text/css">
	.st0{fill:#FFFFFF;stroke:#000000;stroke-miterlimit:10;}
</style>
<rect class="st0" width="156" height="94.1"/>
<g>
	<g>
		<path d="M35,26.3c-2,1.6-4.2,2.5-6.5,2.5c-2.4,0-4.4-0.7-5.8-2.2c-1.5-1.5-2.2-3.4-2.2-5.9c0-1.5,0.3-2.9,0.9-4.2
			c0.6-1.3,1.5-2.3,2.7-3s2.6-1.1,4.3-1.1c1.8,0,3.2,0.4,4.3,1.2c1.1,0.8,1.8,1.9,2.2,3.5l-1.9,0.5c-0.3-1.1-0.8-2-1.6-2.6
			s-1.8-0.9-3-0.9c-1.9,0-3.3,0.6-4.3,1.7c-1,1.2-1.4,2.7-1.4,4.6c0,1.4,0.2,2.6,0.7,3.5c0.5,0.9,1.2,1.6,2.1,2.1s1.9,0.7,3,0.7
			c1.6,0,3.2-0.5,4.6-1.6v-2.9h-4.6v-1.9H35C35,20.5,35,26.3,35,26.3z"/>
		<path d="M28.4,29c-2.4,0-4.5-0.8-6-2.3c-1.5-1.5-2.3-3.5-2.3-6c0-1.5,0.3-2.9,0.9-4.2c0.6-1.3,1.5-2.3,2.7-3.1
			c1.2-0.7,2.7-1.1,4.4-1.1c1.8,0,3.3,0.4,4.4,1.2c1.1,0.8,1.8,2,2.2,3.6l0,0.2l-2.2,0.6l0-0.2c-0.3-1.1-0.8-1.9-1.5-2.5
			c-0.7-0.5-1.7-0.8-2.9-0.8c-1.8,0-3.2,0.6-4.2,1.7c-0.9,1.1-1.4,2.6-1.4,4.4c0,1.4,0.2,2.5,0.7,3.4c0.5,0.9,1.1,1.6,2,2
			c0.9,0.5,1.9,0.7,2.9,0.7c1.6,0,3.1-0.5,4.4-1.5v-2.7h-4.6v-2.2h7v6.1l-0.1,0C33.1,28.1,30.8,29,28.4,29z M28.3,12.7
			c-1.7,0-3.1,0.3-4.2,1c-1.1,0.7-2,1.7-2.6,2.9c-0.6,1.3-0.9,2.6-0.9,4.1c0,2.4,0.7,4.3,2.2,5.8c1.4,1.4,3.4,2.2,5.7,2.2
			c2.3,0,4.4-0.8,6.3-2.4v-5.6h-6.3v1.5h4.6v3.2l-0.1,0c-1.4,1.1-3,1.7-4.7,1.7c-1.1,0-2.1-0.2-3.1-0.7c-0.9-0.5-1.7-1.2-2.2-2.2
			c-0.5-0.9-0.7-2.2-0.7-3.6c0-1.9,0.5-3.5,1.5-4.7c1-1.2,2.5-1.8,4.4-1.8c1.3,0,2.3,0.3,3.1,0.9c0.7,0.6,1.3,1.4,1.6,2.5l1.6-0.4
			c-0.4-1.4-1.1-2.5-2.1-3.2C31.4,13.1,30,12.7,28.3,12.7z"/>
	</g>
	<g>
		<path d="M44,17.5l-0.7,1.8c-0.5-0.3-0.9-0.4-1.4-0.4c-0.7,0-1.3,0.3-1.6,1c-0.4,0.6-0.6,1.6-0.6,2.7v6h-1.9V17.1h1.8v1.7h0
			c0.6-1.3,1.4-2,2.4-2C42.6,16.9,43.3,17.1,44,17.5z"/>
		<path d="M39.9,28.7h-2.3V17h2.1v1.3c0.6-1,1.4-1.5,2.3-1.5c0.7,0,1.4,0.2,2.1,0.6l0.1,0.1l-0.8,2.1l-0.2-0.1
			c-0.5-0.3-0.9-0.4-1.3-0.4c-0.7,0-1.2,0.3-1.5,0.9c-0.4,0.6-0.5,1.5-0.5,2.6C39.9,22.6,39.9,28.7,39.9,28.7z M37.9,28.4h1.6v-5.8
			c0-1.2,0.2-2.1,0.6-2.8c0.4-0.7,1-1.1,1.8-1.1c0.4,0,0.9,0.1,1.3,0.3l0.6-1.5c-0.6-0.3-1.2-0.5-1.8-0.5c-0.9,0-1.7,0.6-2.3,1.9
			l0,0.1h-0.3v-1.7h-1.4V28.4z"/>
	</g>
	<g>
		<path d="M54.4,28.5h-1.7v-1.7h-0.1c-0.9,1.3-2.1,1.9-3.6,1.9c-0.8,0-1.5-0.2-2.2-0.6c-0.7-0.4-1.1-0.9-1.4-1.5
			c-0.2-0.6-0.3-1.5-0.3-2.5v-7.1h1.9v6.3c0,1,0,1.7,0.1,2.2s0.3,0.8,0.8,1.1c0.4,0.3,0.9,0.4,1.5,0.4c0.7,0,1.4-0.3,2.1-0.8
			c0.6-0.5,1-1.6,1-3.1v-6.1h1.9L54.4,28.5L54.4,28.5z"/>
		<path d="M49,29c-0.8,0-1.6-0.2-2.3-0.6c-0.7-0.4-1.2-0.9-1.4-1.6c-0.2-0.7-0.3-1.5-0.3-2.6V17h2.3v6.5c0,1,0,1.7,0.1,2.1
			c0.1,0.4,0.3,0.7,0.7,1c0.4,0.3,0.8,0.4,1.4,0.4c0.7,0,1.3-0.2,2-0.7c0.6-0.5,0.9-1.5,0.9-3V17h2.3v11.7h-2.1v-1.4
			C51.6,28.4,50.5,29,49,29z M45.3,17.3v6.9c0,1,0.1,1.8,0.3,2.5c0.2,0.6,0.6,1.1,1.3,1.4c0.6,0.4,1.4,0.5,2.1,0.5
			c1.5,0,2.6-0.6,3.4-1.9l0-0.1h0.3v1.7h1.4V17.3h-1.6v5.9c0,1.7-0.3,2.7-1,3.3c-0.7,0.5-1.4,0.8-2.2,0.8c-0.6,0-1.1-0.2-1.6-0.5
			c-0.4-0.3-0.7-0.7-0.8-1.2c-0.1-0.5-0.1-1.2-0.1-2.2v-6.1H45.3z"/>
	</g>
	<g>
		<path d="M59.2,18.6c0.7-1.2,1.8-1.7,3.3-1.7c1.5,0,2.7,0.5,3.5,1.6c0.9,1.1,1.3,2.5,1.3,4.2c0,1.9-0.5,3.3-1.4,4.4
			c-1,1.1-2.1,1.6-3.5,1.6c-1.2,0-2.2-0.5-2.9-1.5h-0.1v5.6h-1.9V17.1h1.8L59.2,18.6C59.2,18.6,59.2,18.6,59.2,18.6z M62.2,27.2
			c0.9,0,1.6-0.4,2.2-1.1c0.6-0.7,0.9-1.9,0.9-3.3c0-1.4-0.3-2.5-0.9-3.2c-0.6-0.8-1.3-1.1-2.2-1.1c-0.9,0-1.7,0.4-2.3,1.3
			c-0.6,0.8-0.9,1.9-0.9,3.3c0,1.4,0.3,2.5,0.8,3.2C60.6,26.9,61.3,27.2,62.2,27.2z"/>
		<path d="M59.5,33.1h-2.3V17h2.1v1.2c0.7-0.9,1.8-1.4,3.1-1.4c1.5,0,2.8,0.6,3.7,1.7c0.9,1.1,1.3,2.6,1.3,4.3
			c0,1.9-0.5,3.4-1.5,4.5c-1,1.1-2.2,1.7-3.7,1.7c-1.1,0-2.1-0.4-2.8-1.2L59.5,33.1L59.5,33.1z M57.6,32.8h1.6v-5.6h0.3l0,0.1
			c0.7,0.9,1.6,1.4,2.8,1.4c1.3,0,2.5-0.5,3.4-1.6c0.9-1.1,1.4-2.5,1.4-4.3c0-1.7-0.4-3.1-1.3-4.1c-0.8-1-2-1.6-3.4-1.6
			c-1.4,0-2.4,0.5-3.1,1.7l0,0.1H59v-1.5h-1.4V32.8z M62.2,27.4c-1,0-1.7-0.4-2.3-1.2c-0.6-0.8-0.9-1.9-0.9-3.3
			c0-1.4,0.3-2.5,0.9-3.4c0.6-0.9,1.4-1.3,2.4-1.3c0.9,0,1.7,0.4,2.3,1.2c0.6,0.8,0.9,1.9,0.9,3.3c0,1.5-0.3,2.7-0.9,3.4
			C64,27,63.2,27.4,62.2,27.4z M62.3,18.6c-0.9,0-1.6,0.4-2.1,1.2c-0.6,0.8-0.9,1.9-0.9,3.2c0,1.4,0.3,2.4,0.8,3.1
			c0.5,0.7,1.2,1,2.1,1c0.9,0,1.5-0.3,2.1-1.1c0.6-0.7,0.8-1.8,0.8-3.2c0-1.4-0.3-2.4-0.8-3.1C63.8,18.9,63.1,18.6,62.3,18.6z"/>
	</g>
	<g>
		<path d="M74.3,16.9c1.5,0,2.8,0.5,3.8,1.5s1.5,2.4,1.5,4.3c0,2.2-0.5,3.8-1.6,4.8c-1.1,0.9-2.3,1.4-3.7,1.4
			c-1.4,0-2.7-0.5-3.7-1.4c-1.1-1-1.6-2.5-1.6-4.5c0-2,0.5-3.5,1.5-4.5C71.5,17.4,72.8,16.9,74.3,16.9z M74.3,27.2
			c1.1,0,1.9-0.4,2.5-1.2c0.6-0.8,0.9-1.9,0.9-3.2c0-1.4-0.3-2.5-1-3.2c-0.6-0.7-1.4-1.1-2.4-1.1c-1,0-1.8,0.4-2.4,1.1
			c-0.6,0.7-0.9,1.8-0.9,3.3c0,1.4,0.3,2.5,1,3.3C72.5,26.9,73.3,27.2,74.3,27.2z"/>
		<path d="M74.3,29c-1.5,0-2.8-0.5-3.9-1.5c-1.1-1-1.6-2.5-1.6-4.7c0-2,0.5-3.6,1.6-4.6c1.1-1,2.4-1.5,3.9-1.5
			c1.6,0,2.9,0.5,3.9,1.6c1,1,1.6,2.5,1.6,4.4c0,2.3-0.6,3.9-1.7,4.9C77,28.5,75.7,29,74.3,29z M74.3,17.1c-1.5,0-2.7,0.5-3.7,1.4
			c-1,0.9-1.5,2.4-1.5,4.4c0,2,0.5,3.5,1.5,4.4c1,0.9,2.2,1.4,3.6,1.4c1.3,0,2.5-0.5,3.6-1.4c1.1-0.9,1.6-2.4,1.6-4.6
			c0-1.8-0.5-3.2-1.5-4.2C77,17.5,75.8,17.1,74.3,17.1z M74.3,27.4c-1,0-1.9-0.4-2.5-1.2c-0.7-0.8-1-1.9-1-3.4c0-1.5,0.3-2.6,1-3.4
			c0.7-0.8,1.5-1.2,2.5-1.2c1,0,1.8,0.4,2.5,1.1c0.7,0.8,1,1.9,1,3.3c0,1.4-0.3,2.5-0.9,3.3C76.3,27,75.4,27.4,74.3,27.4z
			 M74.3,18.6c-0.9,0-1.7,0.3-2.3,1c-0.6,0.7-0.9,1.8-0.9,3.2c0,1.4,0.3,2.5,0.9,3.2c0.6,0.7,1.4,1,2.3,1c1.1,0,1.8-0.4,2.4-1.2
			c0.6-0.8,0.8-1.8,0.8-3.1c0-1.4-0.3-2.4-0.9-3.1C75.9,19,75.2,18.6,74.3,18.6z"/>
	</g>
	<g>
		<path d="M23.4,54.9h-2.1V39.2h2.1L23.4,54.9L23.4,54.9z"/>
		<path d="M23.5,55.1h-2.4V39h2.4V55.1z M21.4,54.8h1.8V39.4h-1.8V54.8z"/>
	</g>
	<g>
		<path d="M36.1,54.9h-1.9V48c0-1.2-0.2-2-0.6-2.4c-0.4-0.4-1-0.7-1.7-0.7c-0.6,0-1.1,0.1-1.6,0.4c-0.5,0.3-0.9,0.7-1.1,1.2
			c-0.2,0.5-0.3,1.2-0.3,2.2v6.2h-1.9V43.5h1.7v1.6h0c0.4-0.6,0.9-1.1,1.5-1.4s1.3-0.5,2.1-0.5c0.6,0,1.2,0.1,1.8,0.3
			c0.6,0.2,1,0.5,1.4,1s0.5,0.9,0.6,1.4c0.1,0.5,0.1,1.1,0.1,2L36.1,54.9L36.1,54.9z"/>
		<path d="M36.3,55.1H34V48c0-1.1-0.2-1.9-0.6-2.3c-0.4-0.4-0.9-0.6-1.6-0.6c-0.5,0-1.1,0.1-1.5,0.4c-0.5,0.3-0.8,0.6-1,1.1
			c-0.2,0.5-0.3,1.2-0.3,2.1v6.4h-2.3V43.4h2.1v1.3c0.4-0.5,0.8-0.8,1.3-1.1c0.6-0.3,1.3-0.5,2.2-0.5c0.6,0,1.2,0.1,1.8,0.3
			c0.6,0.2,1.1,0.6,1.5,1c0.3,0.4,0.6,0.9,0.7,1.4c0.1,0.5,0.1,1.2,0.1,2V55.1z M34.4,54.8H36v-6.8c0-0.8,0-1.5-0.1-1.9
			c-0.1-0.5-0.3-0.9-0.6-1.3c-0.3-0.4-0.8-0.7-1.3-0.9c-0.6-0.2-1.1-0.3-1.7-0.3c-0.8,0-1.4,0.2-2,0.4c-0.6,0.3-1.1,0.7-1.4,1.3
			l0,0.1h-0.3v-1.6H27v11.1h1.6v-6.1c0-0.9,0.1-1.7,0.3-2.2c0.2-0.5,0.6-1,1.2-1.3c0.5-0.3,1.1-0.4,1.7-0.4c0.8,0,1.4,0.2,1.9,0.7
			c0.5,0.5,0.7,1.3,0.7,2.5V54.8z"/>
	</g>
	<g>
		<path d="M43.5,54.9c-0.6,0.1-1.1,0.2-1.4,0.2c-0.8,0-1.5-0.1-1.8-0.4c-0.4-0.3-0.6-0.7-0.7-1.1c-0.1-0.5-0.1-1.1-0.1-1.9V45H38
			v-1.5h1.4v-2.8l1.9-1.2v4h1.9V45h-1.9v6.7c0,0.6,0.1,1,0.2,1.2c0.1,0.2,0.4,0.4,0.9,0.4c0.3,0,0.6,0,0.9-0.1L43.5,54.9z"/>
		<path d="M42.1,55.3c-0.9,0-1.5-0.2-1.9-0.5c-0.4-0.3-0.7-0.7-0.8-1.2c-0.1-0.5-0.1-1.1-0.1-1.9v-6.4h-1.4v-1.8h1.4v-2.8l2.3-1.4
			v4.1h1.9v1.8h-1.9v6.5c0,0.5,0.1,0.9,0.2,1.1c0.1,0.2,0.3,0.3,0.7,0.3c0.3,0,0.5,0,0.8-0.1l0.2,0l0.3,2l-0.2,0
			C43,55.2,42.5,55.3,42.1,55.3z M38.1,44.9h1.4v6.7c0,0.8,0,1.4,0.1,1.9c0.1,0.4,0.3,0.8,0.6,1c0.4,0.3,0.9,0.4,1.7,0.4
			c0.3,0,0.8,0,1.3-0.1l-0.2-1.4c-0.2,0-0.5,0.1-0.7,0.1c-0.5,0-0.9-0.2-1-0.5c-0.1-0.3-0.2-0.7-0.2-1.3v-6.8h1.9v-1.2h-1.9v-3.9
			l-1.6,1v2.9h-1.4V44.9z"/>
	</g>
	<g>
		<path d="M55.1,49.7h-8.5c0.1,1.3,0.4,2.2,1.1,2.9c0.6,0.7,1.4,1,2.4,1c0.7,0,1.4-0.2,1.9-0.6c0.5-0.4,0.9-1,1.1-1.8l2,0.2
			c-0.3,1.2-0.9,2.1-1.8,2.7c-0.9,0.6-1.9,1-3.2,1c-1.7,0-3-0.5-4-1.6s-1.4-2.5-1.4-4.3c0-1.8,0.5-3.3,1.4-4.4s2.2-1.7,3.9-1.7
			c0.8,0,1.6,0.2,2.4,0.5c0.8,0.4,1.4,1,2,1.9C54.8,46.6,55.1,47.9,55.1,49.7z M53.1,48.1c-0.1-1.2-0.4-2-1.1-2.5
			c-0.6-0.5-1.3-0.8-2.1-0.8c-0.9,0-1.7,0.3-2.2,0.9c-0.6,0.6-0.9,1.4-1,2.4C46.7,48.1,53.1,48.1,53.1,48.1z"/>
		<path d="M50,55.4c-1.8,0-3.1-0.5-4.1-1.6c-1-1.1-1.5-2.6-1.5-4.4c0-1.8,0.5-3.3,1.4-4.5c1-1.2,2.3-1.7,4.1-1.7
			c0.9,0,1.7,0.2,2.5,0.6c0.8,0.4,1.5,1,2,1.9c0.6,0.9,0.8,2.3,0.8,4.1v0.2h-8.5c0.1,1.1,0.4,2,1,2.6c0.6,0.6,1.4,0.9,2.3,0.9
			c0.7,0,1.3-0.2,1.8-0.5c0.5-0.4,0.8-0.9,1.1-1.7l0-0.1l2.3,0.3l0,0.2c-0.3,1.2-0.9,2.2-1.8,2.8C52.5,55,51.3,55.4,50,55.4z
			 M49.9,43.5c-1.6,0-2.9,0.5-3.8,1.6c-0.9,1.1-1.4,2.5-1.4,4.3c0,1.8,0.5,3.2,1.4,4.2c0.9,1,2.2,1.5,3.9,1.5c1.2,0,2.3-0.3,3.1-0.9
			c0.8-0.6,1.3-1.4,1.7-2.5l-1.7-0.2c-0.3,0.8-0.7,1.3-1.2,1.7c-0.5,0.4-1.2,0.6-2,0.6c-1,0-1.9-0.4-2.5-1c-0.7-0.7-1-1.7-1.1-3
			l0-0.2h8.5c0-1.7-0.3-3-0.8-3.8c-0.5-0.8-1.2-1.5-1.9-1.8C51.5,43.6,50.7,43.5,49.9,43.5z M53.3,48.3h-6.8l0-0.2
			c0.1-1,0.5-1.8,1.1-2.5c0.6-0.6,1.4-1,2.4-1c0.8,0,1.5,0.3,2.2,0.8c0.7,0.5,1.1,1.4,1.1,2.6L53.3,48.3z M46.8,48h6.1
			c-0.1-1-0.4-1.8-1-2.2c-0.6-0.5-1.3-0.7-2-0.7c-0.9,0-1.6,0.3-2.1,0.9C47.3,46.4,47,47.1,46.8,48z"/>
	</g>
	<g>
		<path d="M63.6,43.9l-0.7,1.8c-0.5-0.3-0.9-0.4-1.4-0.4c-0.7,0-1.3,0.3-1.6,1c-0.4,0.6-0.6,1.6-0.6,2.7v6h-1.9V43.5h1.8v1.7h0
			c0.6-1.3,1.4-2,2.4-2C62.2,43.3,62.9,43.5,63.6,43.9z"/>
		<path d="M59.5,55.1h-2.3V43.4h2.1v1.3c0.6-1,1.4-1.5,2.3-1.5c0.7,0,1.4,0.2,2.1,0.6l0.1,0.1L63,45.9l-0.2-0.1
			c-0.5-0.3-0.9-0.4-1.3-0.4c-0.7,0-1.2,0.3-1.5,0.9c-0.4,0.6-0.5,1.5-0.5,2.6L59.5,55.1L59.5,55.1z M57.5,54.8h1.6V49
			c0-1.2,0.2-2.1,0.6-2.8c0.4-0.7,1-1.1,1.8-1.1c0.4,0,0.9,0.1,1.3,0.3l0.5-1.5c-0.6-0.3-1.2-0.5-1.8-0.5c-0.9,0-1.7,0.6-2.3,1.9
			l0,0.1h-0.3v-1.7h-1.4C57.5,43.7,57.5,54.8,57.5,54.8z"/>
	</g>
	<g>
		<path d="M66.6,45c0.7-1.2,1.8-1.7,3.3-1.7c1.5,0,2.7,0.5,3.5,1.6c0.9,1.1,1.3,2.5,1.3,4.2c0,1.9-0.5,3.3-1.4,4.4
			c-1,1.1-2.1,1.6-3.5,1.6c-1.2,0-2.2-0.5-2.9-1.5h-0.1v5.6h-1.9V43.5h1.8L66.6,45L66.6,45z M69.6,53.6c0.9,0,1.6-0.4,2.2-1.1
			c0.6-0.7,0.9-1.9,0.9-3.3c0-1.4-0.3-2.5-0.9-3.2s-1.3-1.1-2.2-1.1c-0.9,0-1.7,0.4-2.3,1.3s-0.9,1.9-0.9,3.3c0,1.4,0.3,2.5,0.8,3.2
			C67.9,53.3,68.7,53.6,69.6,53.6z"/>
		<path d="M66.9,59.5h-2.3V43.4h2.1v1.2c0.7-0.9,1.8-1.4,3.1-1.4c1.5,0,2.8,0.6,3.7,1.7c0.9,1.1,1.3,2.6,1.3,4.3
			c0,1.9-0.5,3.4-1.5,4.5c-1,1.1-2.2,1.7-3.7,1.7c-1.1,0-2.1-0.4-2.8-1.2L66.9,59.5L66.9,59.5z M64.9,59.2h1.6v-5.6h0.3l0,0.1
			c0.7,0.9,1.6,1.4,2.8,1.4c1.3,0,2.5-0.5,3.4-1.6c0.9-1.1,1.4-2.5,1.4-4.3c0-1.7-0.4-3.1-1.3-4.1c-0.8-1-2-1.6-3.4-1.6
			c-1.4,0-2.4,0.5-3.1,1.7l0,0.1h-0.3v-1.5h-1.4L64.9,59.2L64.9,59.2z M69.6,53.8c-1,0-1.7-0.4-2.3-1.2c-0.6-0.8-0.9-1.9-0.9-3.3
			c0-1.4,0.3-2.5,0.9-3.4c0.6-0.9,1.4-1.3,2.4-1.3c0.9,0,1.7,0.4,2.3,1.2c0.6,0.8,0.9,1.9,0.9,3.3c0,1.5-0.3,2.7-0.9,3.5
			C71.3,53.4,70.5,53.8,69.6,53.8z M69.7,45c-0.9,0-1.6,0.4-2.1,1.2C67,47,66.7,48,66.7,49.3c0,1.4,0.3,2.4,0.8,3.1
			c0.5,0.7,1.2,1,2.1,1c0.9,0,1.5-0.3,2.1-1.1c0.6-0.7,0.9-1.8,0.9-3.2c0-1.4-0.3-2.4-0.8-3.1C71.2,45.3,70.5,45,69.7,45z"/>
	</g>
	<g>
		<path d="M86.9,49.7h-8.5c0.1,1.3,0.4,2.2,1.1,2.9c0.6,0.7,1.4,1,2.4,1c0.7,0,1.4-0.2,1.9-0.6c0.5-0.4,0.9-1,1.1-1.8l2,0.2
			c-0.3,1.2-0.9,2.1-1.8,2.7c-0.9,0.6-1.9,1-3.2,1c-1.7,0-3-0.5-4-1.6s-1.4-2.5-1.4-4.3c0-1.8,0.5-3.3,1.4-4.4s2.2-1.7,3.9-1.7
			c0.8,0,1.6,0.2,2.4,0.5c0.8,0.4,1.4,1,2,1.9C86.6,46.6,86.9,47.9,86.9,49.7z M84.9,48.1c-0.1-1.2-0.4-2-1.1-2.5s-1.3-0.8-2.1-0.8
			c-0.9,0-1.7,0.3-2.2,0.9c-0.6,0.6-0.9,1.4-1,2.4C78.4,48.1,84.9,48.1,84.9,48.1z"/>
		<path d="M81.8,55.4c-1.8,0-3.1-0.5-4.1-1.6c-1-1.1-1.5-2.6-1.5-4.4c0-1.8,0.5-3.3,1.4-4.5c1-1.2,2.3-1.7,4.1-1.7
			c0.9,0,1.7,0.2,2.5,0.6c0.8,0.4,1.5,1,2,1.9c0.6,0.9,0.8,2.3,0.8,4.1v0.2h-8.5c0.1,1.1,0.4,2,1,2.6c0.6,0.6,1.4,0.9,2.3,0.9
			c0.7,0,1.3-0.2,1.8-0.5c0.5-0.4,0.8-0.9,1.1-1.7l0-0.1l2.3,0.3L87,51.6c-0.3,1.2-0.9,2.2-1.8,2.8C84.3,55,83.1,55.4,81.8,55.4z
			 M81.7,43.5c-1.6,0-2.9,0.5-3.8,1.6c-0.9,1.1-1.4,2.5-1.4,4.3c0,1.8,0.5,3.2,1.4,4.2c0.9,1,2.2,1.5,3.9,1.5c1.2,0,2.3-0.3,3.1-0.9
			c0.8-0.6,1.3-1.4,1.7-2.5l-1.7-0.2c-0.3,0.8-0.7,1.3-1.2,1.7c-0.5,0.4-1.2,0.6-2,0.6c-1,0-1.9-0.4-2.5-1c-0.7-0.7-1-1.7-1.1-3
			l0-0.2h8.6c0-1.7-0.3-3-0.8-3.8c-0.5-0.8-1.2-1.5-1.9-1.8C83.3,43.6,82.5,43.5,81.7,43.5z M85.1,48.3h-6.8l0-0.2
			c0.1-1,0.5-1.8,1.1-2.5c0.6-0.6,1.4-1,2.4-1c0.8,0,1.5,0.3,2.2,0.8c0.7,0.5,1.1,1.4,1.1,2.6L85.1,48.3z M78.6,48h6.1
			c-0.1-1-0.4-1.8-1-2.2c-0.6-0.5-1.3-0.7-2-0.7c-0.9,0-1.6,0.3-2.1,0.9C79.1,46.4,78.7,47.1,78.6,48z"/>
	</g>
	<g>
		<path d="M98.5,51c-0.3,1.5-0.8,2.5-1.7,3.2c-0.9,0.7-1.9,1-3,1c-1.7,0-2.9-0.5-3.8-1.6s-1.4-2.5-1.4-4.3c0-1.5,0.3-2.7,0.8-3.6
			c0.5-0.9,1.2-1.5,1.9-1.9c0.8-0.4,1.6-0.5,2.5-0.5c1.2,0,2.2,0.3,3,0.9s1.3,1.5,1.5,2.7l-1.9,0.3c-0.2-0.8-0.5-1.3-0.9-1.7
			c-0.4-0.4-1-0.6-1.7-0.6c-1.1,0-1.9,0.4-2.5,1.1s-0.8,1.8-0.8,3.2c0,1.4,0.3,2.5,0.8,3.2s1.3,1.1,2.4,1.1c0.8,0,1.5-0.2,2-0.7
			s0.8-1.2,0.9-2.1L98.5,51z"/>
		<path d="M93.8,55.4c-1.7,0-3-0.6-4-1.7c-0.9-1.1-1.4-2.6-1.4-4.4c0-1.5,0.3-2.7,0.8-3.6c0.5-0.9,1.2-1.6,2-1.9
			c0.8-0.4,1.7-0.6,2.5-0.6c1.2,0,2.3,0.3,3.1,0.9c0.9,0.6,1.4,1.6,1.6,2.8l0,0.2l-2.2,0.3l0-0.1c-0.2-0.7-0.5-1.3-0.9-1.6
			C95,45.2,94.5,45,93.9,45c-1,0-1.8,0.4-2.3,1.1c-0.5,0.7-0.8,1.8-0.8,3.1c0,1.4,0.3,2.4,0.8,3.2c0.5,0.7,1.2,1.1,2.2,1.1
			c0.8,0,1.4-0.2,1.8-0.7c0.4-0.4,0.7-1.1,0.8-2l0-0.2l2.3,0.3l0,0.2c-0.3,1.5-0.9,2.6-1.8,3.3C96,55,95,55.4,93.8,55.4z M93.8,43.5
			c-0.8,0-1.6,0.2-2.4,0.5c-0.7,0.3-1.4,1-1.9,1.8c-0.5,0.9-0.8,2-0.8,3.5c0,1.7,0.4,3.2,1.3,4.2c0.9,1,2.1,1.6,3.7,1.6
			c1.1,0,2.1-0.3,2.9-1c0.8-0.6,1.4-1.6,1.6-2.9L96.8,51c-0.1,0.9-0.4,1.6-0.9,2.1c-0.5,0.5-1.2,0.8-2.1,0.8c-1.1,0-1.9-0.4-2.5-1.2
			c-0.6-0.8-0.9-1.9-0.9-3.3c0-1.4,0.3-2.5,0.9-3.3c0.6-0.8,1.5-1.2,2.6-1.2c0.7,0,1.3,0.2,1.8,0.6c0.4,0.4,0.7,0.9,1,1.7l1.6-0.2
			c-0.2-1-0.7-1.9-1.4-2.4C95.9,43.8,94.9,43.5,93.8,43.5z"/>
	</g>
	<g>
		<path d="M30.3,70.2c-0.1-1-0.4-1.8-1.1-2.3c-0.6-0.5-1.6-0.8-2.7-0.8c-1.1,0-1.9,0.2-2.6,0.6s-1,1-1,1.8c0,0.7,0.3,1.2,0.8,1.5
			c0.5,0.3,1.5,0.7,3,1c1.3,0.3,2.4,0.6,3.2,0.9c0.8,0.3,1.5,0.8,2.1,1.4c0.6,0.6,0.9,1.5,0.9,2.6c0,1.4-0.5,2.5-1.6,3.4
			c-1.1,0.9-2.5,1.3-4.2,1.3c-2.2,0-3.9-0.5-5-1.5c-1.1-1-1.7-2.3-1.7-3.8l2-0.2c0.1,1.3,0.6,2.2,1.5,2.8s1.9,0.9,3.2,0.9
			c1.2,0,2.1-0.2,2.8-0.7s1.1-1.1,1.1-2c0-0.9-0.4-1.5-1.1-1.9c-0.8-0.4-2-0.8-3.8-1.2c-1.8-0.4-3-0.9-3.8-1.6
			c-0.8-0.7-1.2-1.6-1.2-2.7c0-1.3,0.5-2.3,1.5-3.1c1-0.8,2.3-1.2,4-1.2c1.7,0,3.2,0.4,4.2,1.2c1.1,0.8,1.6,2,1.7,3.5L30.3,70.2z"/>
		<path d="M27,81.8c-2.2,0-4-0.5-5.1-1.5c-1.1-1-1.7-2.3-1.8-4l0-0.2l2.3-0.2l0,0.2c0.1,1.2,0.6,2.1,1.4,2.6
			c0.8,0.6,1.9,0.8,3.1,0.8c1.1,0,2.1-0.2,2.7-0.7c0.7-0.5,1-1,1-1.8c0-0.8-0.3-1.4-1-1.7c-0.7-0.4-2-0.8-3.7-1.2
			c-1.8-0.4-3.1-0.9-3.9-1.7c-0.8-0.7-1.2-1.7-1.2-2.8c0-1.3,0.5-2.4,1.5-3.3c1-0.8,2.4-1.3,4.1-1.3c1.8,0,3.2,0.4,4.3,1.3
			c1.1,0.8,1.7,2.1,1.8,3.6l0,0.2l-2.3,0.2l0-0.2c-0.1-1-0.4-1.7-1-2.1c-0.6-0.5-1.5-0.7-2.6-0.7c-1,0-1.9,0.2-2.5,0.6
			c-0.6,0.4-0.9,0.9-0.9,1.6c0,0.6,0.2,1.1,0.7,1.4c0.5,0.3,1.5,0.6,2.9,1c1.3,0.3,2.4,0.6,3.2,0.9c0.8,0.3,1.6,0.8,2.2,1.4
			c0.6,0.7,0.9,1.6,0.9,2.7c0,1.4-0.6,2.6-1.7,3.5C30.2,81.3,28.7,81.8,27,81.8z M20.4,76.4c0.1,1.4,0.7,2.7,1.7,3.6
			c1.1,1,2.7,1.4,4.9,1.4c1.7,0,3.1-0.4,4.1-1.3c1-0.9,1.6-1.9,1.6-3.2c0-1-0.3-1.8-0.8-2.4c-0.6-0.6-1.3-1.1-2.1-1.4
			c-0.8-0.3-1.9-0.6-3.2-0.9c-1.5-0.3-2.5-0.7-3-1c-0.6-0.4-0.9-0.9-0.9-1.7c0-0.8,0.4-1.5,1.1-1.9c0.7-0.4,1.6-0.6,2.7-0.6
			c1.2,0,2.2,0.3,2.8,0.8c0.6,0.5,1,1.2,1.1,2.2l1.7-0.1c-0.1-1.4-0.6-2.5-1.6-3.2c-1-0.8-2.4-1.2-4.1-1.2c-1.7,0-3,0.4-3.9,1.2
			c-0.9,0.8-1.4,1.8-1.4,3c0,1.1,0.4,1.9,1.1,2.6c0.8,0.7,2,1.2,3.8,1.6c1.8,0.4,3.1,0.8,3.8,1.2c0.8,0.4,1.2,1.1,1.2,2
			c0,0.9-0.4,1.6-1.2,2.1c-0.7,0.5-1.7,0.7-2.9,0.7c-1.3,0-2.4-0.3-3.3-0.9c-0.9-0.6-1.4-1.5-1.5-2.7L20.4,76.4z"/>
	</g>
	<g>
		<path d="M45.3,81.3h-2c-0.2-0.4-0.3-0.8-0.4-1.4c-1.3,1.1-2.7,1.7-4.2,1.7c-1.2,0-2.2-0.3-2.8-0.9s-1-1.4-1-2.4
			c0-0.9,0.3-1.7,1-2.3c0.7-0.6,1.8-1,3.5-1.2l1.8-0.3c0.7-0.1,1.2-0.2,1.7-0.4c0-0.6,0-1-0.1-1.2c0-0.2-0.1-0.5-0.3-0.7
			c-0.2-0.3-0.5-0.5-0.8-0.6c-0.4-0.2-0.9-0.2-1.6-0.2c-0.8,0-1.5,0.2-2,0.5c-0.5,0.3-0.8,0.9-1,1.7l-1.9-0.2c0.2-1.2,0.7-2,1.6-2.6
			c0.9-0.6,2-0.9,3.5-0.9c1.4,0,2.4,0.2,3,0.6c0.6,0.4,1,0.9,1.2,1.5c0.1,0.6,0.2,1.3,0.2,2.2v2.6c0,1.6,0,2.6,0.1,3.2
			C44.8,80.3,45,80.8,45.3,81.3z M42.7,76.3v-0.7c-1,0.3-2.2,0.6-3.7,0.8c-1.5,0.2-2.2,0.8-2.2,1.9c0,0.5,0.2,1,0.6,1.3
			s1,0.5,1.7,0.5c1,0,1.8-0.3,2.5-0.9C42.4,78.7,42.7,77.7,42.7,76.3z"/>
		<path d="M38.6,81.8c-1.2,0-2.2-0.3-3-0.9c-0.7-0.6-1.1-1.5-1.1-2.5c0-1,0.4-1.8,1.1-2.5c0.7-0.6,1.9-1.1,3.6-1.3l1.8-0.3
			c0.6-0.1,1.1-0.2,1.5-0.4c0-0.5,0-0.9-0.1-1.1c0-0.2-0.1-0.4-0.3-0.7c-0.2-0.2-0.4-0.4-0.8-0.6c-0.4-0.1-0.9-0.2-1.5-0.2
			c-0.8,0-1.4,0.1-1.9,0.4c-0.4,0.3-0.8,0.8-0.9,1.6l0,0.2l-2.2-0.3l0-0.2c0.2-1.2,0.8-2.1,1.7-2.7c0.9-0.6,2.1-0.9,3.6-0.9
			c1.4,0,2.4,0.2,3.1,0.6c0.7,0.4,1.1,1,1.3,1.6c0.2,0.6,0.2,1.3,0.2,2.3v2.6c0,1.6,0,2.6,0.1,3.2c0.1,0.5,0.2,1,0.5,1.5l0.1,0.2
			h-2.4l0-0.1c-0.2-0.3-0.3-0.7-0.4-1.2C41.5,81.3,40.1,81.8,38.6,81.8z M39.9,71.1c0.7,0,1.2,0.1,1.6,0.2c0.4,0.2,0.7,0.4,0.9,0.7
			c0.2,0.3,0.3,0.6,0.3,0.8c0,0.3,0.1,0.7,0.1,1.3v0.1l-0.1,0c-0.4,0.2-1,0.3-1.7,0.4l-1.8,0.3c-1.6,0.2-2.8,0.6-3.4,1.2
			c-0.6,0.6-0.9,1.3-0.9,2.2c0,0.9,0.3,1.7,1,2.3c0.7,0.6,1.6,0.9,2.7,0.9c1.5,0,2.8-0.6,4.1-1.6l0.2-0.2l0,0.3
			c0.1,0.5,0.2,0.9,0.3,1.3H45c-0.2-0.5-0.4-0.9-0.4-1.4c-0.1-0.5-0.1-1.6-0.1-3.2V74c0-0.9-0.1-1.6-0.2-2.2c-0.1-0.5-0.5-1-1.1-1.4
			c-0.6-0.4-1.6-0.6-2.9-0.6c-1.5,0-2.6,0.3-3.5,0.9c-0.8,0.5-1.3,1.3-1.5,2.4l1.6,0.2c0.2-0.8,0.5-1.4,1-1.7
			C38.4,71.3,39.1,71.1,39.9,71.1z M39.1,80.3c-0.8,0-1.4-0.2-1.8-0.6c-0.4-0.4-0.6-0.8-0.6-1.4c0-1.1,0.8-1.8,2.3-2
			c1.4-0.2,2.7-0.5,3.7-0.8l0.2-0.1v0.9c0,1.4-0.4,2.4-1.2,3C41,80,40.1,80.3,39.1,80.3z M42.6,75.9c-1,0.3-2.2,0.6-3.5,0.7
			c-1.4,0.2-2,0.7-2,1.7c0,0.5,0.2,0.9,0.5,1.2c0.4,0.3,0.9,0.5,1.6,0.5c0.9,0,1.7-0.3,2.4-0.8c0.7-0.5,1-1.5,1-2.8L42.6,75.9
			L42.6,75.9z"/>
	</g>
	<g>
		<path d="M56.9,81.3H55v-6.9c0-1.2-0.2-2-0.6-2.4s-1-0.7-1.7-0.7c-0.6,0-1.1,0.1-1.6,0.4c-0.5,0.3-0.9,0.7-1.1,1.2
			c-0.2,0.5-0.3,1.2-0.3,2.2v6.2h-1.9V69.9h1.7v1.6h0c0.4-0.6,0.9-1.1,1.5-1.4c0.6-0.3,1.3-0.5,2.1-0.5c0.6,0,1.2,0.1,1.8,0.3
			c0.6,0.2,1,0.5,1.4,1s0.5,0.9,0.6,1.4s0.1,1.1,0.1,2C56.9,74.3,56.9,81.3,56.9,81.3z"/>
		<path d="M57.1,81.5h-2.3v-7.1c0-1.1-0.2-1.9-0.6-2.3c-0.4-0.4-0.9-0.6-1.6-0.6c-0.5,0-1.1,0.1-1.5,0.4c-0.5,0.3-0.8,0.6-1,1.1
			c-0.2,0.5-0.3,1.2-0.3,2.1v6.4h-2.3V69.8h2.1v1.3c0.4-0.5,0.8-0.8,1.3-1.1c0.6-0.3,1.3-0.5,2.2-0.5c0.6,0,1.2,0.1,1.8,0.3
			c0.6,0.2,1.1,0.6,1.5,1c0.3,0.4,0.6,0.9,0.7,1.4c0.1,0.5,0.1,1.2,0.1,2V81.5z M55.2,81.2h1.6v-6.8c0-0.8,0-1.5-0.1-1.9
			c-0.1-0.5-0.3-0.9-0.6-1.3c-0.3-0.4-0.8-0.7-1.3-0.9c-0.6-0.2-1.1-0.3-1.7-0.3c-0.8,0-1.4,0.2-2,0.4c-0.6,0.3-1.1,0.7-1.4,1.3
			l0,0.1h-0.3v-1.6h-1.4v11.1h1.6v-6.1c0-0.9,0.1-1.7,0.3-2.2c0.2-0.5,0.6-1,1.2-1.3c0.5-0.3,1.1-0.4,1.7-0.4c0.8,0,1.4,0.2,1.9,0.7
			c0.5,0.5,0.7,1.3,0.7,2.5C55.2,74.4,55.2,81.2,55.2,81.2z"/>
	</g>
	<g>
		<path d="M81.2,81.3h-2V68.2h0l-4.5,13.2h-1.9l-4.5-13.4h-0.1v13.4h-2V65.6h3.1L73,76.7c0.4,1.2,0.7,2,0.7,2.3h0
			c0.2-0.6,0.5-1.4,0.8-2.5l3.8-11h2.8L81.2,81.3L81.2,81.3z"/>
		<path d="M81.3,81.5H79V69l-4.3,12.5h-2.1l-4.3-12.7v12.7H66V65.4h3.4l3.8,11.3c0.3,0.8,0.5,1.4,0.6,1.9c0.2-0.6,0.4-1.2,0.7-2.1
			l3.8-11.1h3.1L81.3,81.5L81.3,81.5z M79.3,81.2H81V65.8h-2.5l-3.7,10.8c-0.4,1.1-0.6,1.9-0.8,2.5l0,0.1h-0.3l0-0.1
			c-0.1-0.3-0.3-1.1-0.7-2.3l-3.7-11h-2.8v15.4H68V67.8h0.4l4.5,13.4h1.6L79,68h0.3L79.3,81.2L79.3,81.2z"/>
	</g>
	<g>
		<path d="M94.2,81.3h-2c-0.2-0.4-0.3-0.8-0.4-1.4c-1.3,1.1-2.7,1.7-4.2,1.7c-1.2,0-2.2-0.3-2.8-0.9s-1-1.4-1-2.4
			c0-0.9,0.3-1.7,1-2.3s1.8-1,3.5-1.2l1.8-0.3c0.7-0.1,1.2-0.2,1.7-0.4c0-0.6,0-1-0.1-1.2c0-0.2-0.1-0.5-0.3-0.7
			c-0.2-0.3-0.5-0.5-0.8-0.6c-0.4-0.2-0.9-0.2-1.6-0.2c-0.8,0-1.5,0.2-2,0.5s-0.8,0.9-1,1.7L84,73.2c0.2-1.2,0.7-2,1.6-2.6
			c0.9-0.6,2-0.9,3.5-0.9c1.4,0,2.4,0.2,3,0.6s1,0.9,1.2,1.5c0.1,0.6,0.2,1.3,0.2,2.2v2.6c0,1.6,0,2.6,0.1,3.2
			C93.7,80.3,93.9,80.8,94.2,81.3z M91.6,76.3v-0.7c-1,0.3-2.2,0.6-3.7,0.8s-2.2,0.8-2.2,1.9c0,0.5,0.2,1,0.6,1.3
			c0.4,0.3,1,0.5,1.7,0.5c1,0,1.8-0.3,2.5-0.9C91.3,78.7,91.6,77.7,91.6,76.3z"/>
		<path d="M87.6,81.8c-1.2,0-2.2-0.3-3-0.9c-0.7-0.6-1.1-1.5-1.1-2.5c0-1,0.4-1.8,1.1-2.5c0.7-0.6,1.9-1.1,3.6-1.3l1.8-0.3
			c0.6-0.1,1.1-0.2,1.5-0.4c0-0.5,0-0.9-0.1-1.1c0-0.2-0.1-0.4-0.3-0.7c-0.2-0.2-0.4-0.4-0.8-0.6c-0.4-0.1-0.9-0.2-1.5-0.2
			c-0.8,0-1.4,0.1-1.9,0.4c-0.4,0.3-0.8,0.8-0.9,1.6l0,0.2l-2.2-0.3l0-0.2c0.2-1.2,0.8-2.1,1.7-2.7c0.9-0.6,2.1-0.9,3.6-0.9
			c1.4,0,2.4,0.2,3.1,0.6c0.7,0.4,1.1,1,1.3,1.6c0.1,0.6,0.2,1.3,0.2,2.3v2.6c0,1.6,0,2.6,0.1,3.2c0.1,0.5,0.2,1,0.5,1.5l0.1,0.2
			h-2.4l0-0.1c-0.2-0.3-0.3-0.7-0.4-1.2C90.4,81.3,89,81.8,87.6,81.8z M88.9,71.1c0.7,0,1.2,0.1,1.6,0.2c0.4,0.2,0.7,0.4,0.9,0.7
			c0.2,0.3,0.3,0.6,0.3,0.8c0,0.3,0.1,0.7,0.1,1.3v0.1l-0.1,0c-0.4,0.2-1,0.3-1.7,0.4l-1.8,0.3c-1.6,0.2-2.8,0.6-3.4,1.2
			s-0.9,1.3-0.9,2.2c0,0.9,0.3,1.7,1,2.3c0.7,0.6,1.6,0.9,2.7,0.9c1.5,0,2.8-0.6,4.1-1.6l0.2-0.2l0,0.3c0.1,0.5,0.2,0.9,0.3,1.3h1.6
			c-0.2-0.5-0.4-0.9-0.4-1.4c-0.1-0.5-0.1-1.6-0.1-3.2V74c0-0.9-0.1-1.6-0.2-2.2c-0.1-0.5-0.5-1-1.1-1.4c-0.6-0.4-1.6-0.6-2.9-0.6
			c-1.5,0-2.6,0.3-3.5,0.9c-0.8,0.5-1.3,1.3-1.5,2.4l1.6,0.2c0.2-0.8,0.5-1.4,1-1.7C87.3,71.3,88,71.1,88.9,71.1z M88,80.3
			c-0.8,0-1.4-0.2-1.8-0.6c-0.4-0.4-0.6-0.8-0.6-1.4c0-1.1,0.8-1.8,2.3-2c1.4-0.2,2.7-0.5,3.7-0.8l0.2-0.1v0.9c0,1.4-0.4,2.4-1.2,3
			C89.9,80,89,80.3,88,80.3z M91.5,75.9c-1,0.3-2.2,0.6-3.5,0.7c-1.4,0.2-2,0.7-2,1.7c0,0.5,0.2,0.9,0.5,1.2
			c0.4,0.3,0.9,0.5,1.6,0.5c0.9,0,1.7-0.3,2.4-0.8c0.7-0.5,1-1.5,1-2.8V75.9z"/>
	</g>
	<g>
		<path d="M102.7,70.3l-0.7,1.8c-0.5-0.3-0.9-0.4-1.4-0.4c-0.7,0-1.3,0.3-1.6,1c-0.4,0.6-0.6,1.6-0.6,2.7v6h-1.9V69.9h1.8v1.7h0
			c0.6-1.3,1.4-2,2.4-2C101.4,69.7,102,69.9,102.7,70.3z"/>
		<path d="M98.6,81.5h-2.3V69.8h2.1v1.3c0.6-1,1.4-1.5,2.3-1.5c0.7,0,1.4,0.2,2.1,0.6l0.1,0.1l-0.8,2.1l-0.2-0.1
			c-0.5-0.3-0.9-0.4-1.3-0.4c-0.7,0-1.2,0.3-1.5,0.9c-0.4,0.6-0.5,1.5-0.5,2.6V81.5z M96.6,81.2h1.6v-5.8c0-1.2,0.2-2.1,0.6-2.8
			c0.4-0.7,1-1.1,1.8-1.1c0.4,0,0.9,0.1,1.3,0.3l0.6-1.5c-0.6-0.3-1.2-0.5-1.8-0.5c-0.9,0-1.7,0.6-2.3,1.9l0,0.1h-0.3v-1.7h-1.4
			C96.6,70.1,96.6,81.2,96.6,81.2z"/>
	</g>
	<g>
		<path d="M113.2,77.4c-0.3,1.5-0.8,2.5-1.7,3.2c-0.9,0.7-1.9,1-3,1c-1.7,0-2.9-0.5-3.8-1.6s-1.4-2.5-1.4-4.3c0-1.5,0.3-2.7,0.8-3.6
			s1.2-1.5,1.9-1.9c0.8-0.4,1.6-0.5,2.5-0.5c1.2,0,2.2,0.3,3,0.9c0.8,0.6,1.3,1.5,1.5,2.7l-1.9,0.3c-0.2-0.8-0.5-1.3-0.9-1.7
			c-0.4-0.4-1-0.6-1.7-0.6c-1.1,0-1.9,0.4-2.5,1.1s-0.8,1.8-0.8,3.2c0,1.4,0.3,2.5,0.8,3.2s1.3,1.1,2.4,1.1c0.8,0,1.5-0.2,2-0.7
			s0.8-1.2,0.9-2.1L113.2,77.4z"/>
		<path d="M108.4,81.8c-1.7,0-3-0.6-4-1.7c-0.9-1.1-1.4-2.6-1.4-4.4c0-1.5,0.3-2.7,0.8-3.6c0.5-0.9,1.2-1.6,2-1.9
			c0.8-0.4,1.7-0.6,2.5-0.6c1.2,0,2.3,0.3,3.1,0.9c0.9,0.6,1.4,1.6,1.6,2.8l0,0.2l-2.2,0.3l0-0.1c-0.2-0.7-0.5-1.3-0.9-1.6
			c-0.4-0.4-0.9-0.5-1.5-0.5c-1,0-1.8,0.4-2.3,1.1c-0.5,0.7-0.8,1.8-0.8,3.1c0,1.4,0.3,2.4,0.8,3.2c0.5,0.7,1.2,1.1,2.2,1.1
			c0.8,0,1.4-0.2,1.8-0.7c0.4-0.4,0.7-1.1,0.8-2l0-0.2l2.3,0.3l0,0.2c-0.3,1.5-0.9,2.6-1.8,3.3C110.7,81.4,109.6,81.8,108.4,81.8z
			 M108.4,69.9c-0.8,0-1.6,0.2-2.4,0.5c-0.7,0.3-1.4,1-1.9,1.8c-0.5,0.9-0.8,2-0.8,3.5c0,1.7,0.4,3.2,1.3,4.2c0.9,1,2.1,1.6,3.7,1.6
			c1.1,0,2.1-0.3,2.9-1c0.8-0.6,1.4-1.6,1.6-2.9l-1.6-0.2c-0.1,0.9-0.4,1.6-0.9,2.1c-0.5,0.5-1.2,0.8-2.1,0.8
			c-1.1,0-1.9-0.4-2.5-1.2c-0.6-0.8-0.9-1.9-0.9-3.3c0-1.4,0.3-2.5,0.9-3.3c0.6-0.8,1.5-1.2,2.6-1.2c0.7,0,1.3,0.2,1.8,0.6
			c0.4,0.4,0.7,0.9,1,1.7l1.6-0.2c-0.2-1.1-0.7-1.9-1.4-2.4C110.6,70.2,109.6,69.9,108.4,69.9z"/>
	</g>
	<g>
		<path d="M119.5,69.7c1.5,0,2.8,0.5,3.8,1.5c1,1,1.5,2.4,1.5,4.3c0,2.2-0.5,3.8-1.6,4.8c-1.1,0.9-2.3,1.4-3.7,1.4
			c-1.4,0-2.7-0.5-3.7-1.4c-1.1-1-1.6-2.5-1.6-4.5c0-2,0.5-3.5,1.5-4.5C116.7,70.2,118,69.7,119.5,69.7z M119.5,80
			c1.1,0,1.9-0.4,2.5-1.2c0.6-0.8,0.9-1.9,0.9-3.2c0-1.4-0.3-2.5-1-3.2c-0.6-0.7-1.4-1.1-2.4-1.1c-1,0-1.8,0.4-2.4,1.1
			s-0.9,1.8-0.9,3.3c0,1.4,0.3,2.5,1,3.3C117.7,79.7,118.5,80,119.5,80z"/>
		<path d="M119.5,81.8c-1.5,0-2.8-0.5-3.9-1.5c-1.1-1-1.6-2.5-1.6-4.7c0-2,0.5-3.6,1.6-4.6c1.1-1,2.4-1.5,3.9-1.5
			c1.6,0,2.9,0.5,3.9,1.6c1,1,1.6,2.5,1.6,4.4c0,2.3-0.6,3.9-1.7,4.9C122.2,81.3,120.9,81.8,119.5,81.8z M119.5,69.9
			c-1.5,0-2.7,0.5-3.7,1.4c-1,0.9-1.5,2.4-1.5,4.4c0,2,0.5,3.5,1.5,4.4c1,0.9,2.2,1.4,3.6,1.4c1.3,0,2.5-0.5,3.6-1.4
			c1.1-0.9,1.6-2.4,1.6-4.6c0-1.8-0.5-3.2-1.5-4.2C122.2,70.3,121,69.9,119.5,69.9z M119.5,80.2c-1,0-1.9-0.4-2.5-1.2
			c-0.7-0.8-1-1.9-1-3.4c0-1.5,0.3-2.6,1-3.4c0.7-0.8,1.5-1.2,2.5-1.2c1,0,1.8,0.4,2.5,1.1c0.7,0.8,1,1.9,1,3.3
			c0,1.4-0.3,2.5-0.9,3.3C121.6,79.8,120.7,80.2,119.5,80.2z M119.5,71.4c-0.9,0-1.7,0.3-2.3,1c-0.6,0.7-0.9,1.8-0.9,3.2
			c0,1.4,0.3,2.5,0.9,3.2c0.6,0.7,1.4,1,2.3,1c1.1,0,1.8-0.4,2.4-1.2c0.6-0.8,0.8-1.8,0.8-3.1c0-1.4-0.3-2.4-0.9-3.1
			C121.2,71.8,120.4,71.4,119.5,71.4z"/>
	</g>
	<g>
		<path d="M133.5,73.1c-0.1-0.6-0.3-1.1-0.8-1.4c-0.4-0.3-1-0.5-1.7-0.5c-0.7,0-1.3,0.1-1.8,0.4c-0.5,0.3-0.7,0.6-0.7,1.1
			c0,0.5,0.2,0.8,0.5,1s1.1,0.4,2.1,0.7c1.2,0.3,2.1,0.6,2.7,0.8c0.6,0.2,1.1,0.6,1.4,1c0.3,0.4,0.5,1,0.5,1.8c0,1-0.4,1.9-1.2,2.6
			c-0.8,0.7-1.9,1-3.3,1c-1.4,0-2.6-0.3-3.4-0.9c-0.8-0.6-1.3-1.5-1.5-2.8l1.9-0.3c0.1,0.8,0.4,1.4,0.9,1.8c0.5,0.4,1.2,0.6,2.1,0.6
			c0.8,0,1.5-0.2,1.9-0.5c0.5-0.4,0.7-0.8,0.7-1.3c0-0.3-0.1-0.6-0.3-0.8c-0.2-0.2-0.5-0.4-0.8-0.5c-0.3-0.1-1-0.3-2.1-0.6
			c-1.6-0.4-2.7-0.9-3.2-1.4c-0.5-0.6-0.8-1.2-0.8-2c0-1,0.4-1.7,1.1-2.4c0.8-0.6,1.8-0.9,3.1-0.9c1.4,0,2.4,0.3,3.2,0.8
			c0.8,0.5,1.2,1.3,1.4,2.4L133.5,73.1z"/>
		<path d="M131.2,81.8c-1.5,0-2.7-0.3-3.5-1c-0.8-0.6-1.4-1.6-1.6-2.9l0-0.2l2.3-0.3l0,0.2c0.1,0.7,0.4,1.3,0.8,1.7
			c0.5,0.4,1.1,0.6,2,0.6c0.8,0,1.4-0.2,1.8-0.5c0.4-0.3,0.6-0.7,0.6-1.2c0-0.3-0.1-0.5-0.3-0.7c-0.2-0.2-0.4-0.3-0.7-0.4
			c-0.3-0.1-1-0.3-2.1-0.5c-1.7-0.4-2.7-0.9-3.3-1.5c-0.5-0.6-0.8-1.3-0.8-2.1c0-1,0.4-1.8,1.2-2.5c0.8-0.6,1.9-1,3.2-1
			c1.4,0,2.5,0.3,3.3,0.8c0.8,0.6,1.3,1.4,1.4,2.5l0,0.2l-2.2,0.3l0-0.2c-0.1-0.6-0.3-1-0.7-1.3c-0.4-0.3-0.9-0.4-1.6-0.4
			c-0.7,0-1.3,0.1-1.7,0.4c-0.4,0.2-0.6,0.5-0.6,0.9c0,0.4,0.1,0.7,0.5,0.8c0.3,0.2,1.1,0.4,2.1,0.7c1.2,0.3,2.1,0.6,2.7,0.8
			c0.6,0.2,1.1,0.6,1.5,1c0.4,0.5,0.5,1.1,0.5,1.9c0,1.1-0.4,2-1.3,2.7C133.8,81.4,132.6,81.8,131.2,81.8z M126.5,78.1
			c0.2,1.1,0.7,1.9,1.4,2.5c0.8,0.6,1.9,0.9,3.3,0.9c1.3,0,2.4-0.3,3.2-1c0.8-0.7,1.2-1.5,1.2-2.4c0-0.7-0.2-1.3-0.5-1.7
			c-0.3-0.4-0.8-0.7-1.3-0.9c-0.6-0.2-1.5-0.5-2.7-0.8c-1.1-0.3-1.8-0.5-2.2-0.7c-0.4-0.2-0.6-0.6-0.6-1.1c0-0.5,0.3-1,0.8-1.2
			c0.5-0.3,1.1-0.4,1.9-0.4c0.8,0,1.4,0.2,1.8,0.5c0.4,0.3,0.7,0.8,0.8,1.3l1.6-0.2c-0.2-0.9-0.6-1.6-1.3-2.1
			c-0.7-0.5-1.8-0.8-3.1-0.8c-1.2,0-2.2,0.3-3,0.9c-0.7,0.6-1.1,1.3-1.1,2.2c0,0.7,0.2,1.3,0.7,1.9c0.5,0.5,1.5,1,3.1,1.4
			c1.1,0.3,1.8,0.5,2.1,0.6c0.3,0.1,0.6,0.3,0.8,0.5c0.2,0.2,0.4,0.6,0.4,0.9c0,0.6-0.2,1-0.7,1.4c-0.5,0.4-1.2,0.6-2,0.6
			c-0.9,0-1.6-0.2-2.2-0.6c-0.5-0.4-0.8-1-0.9-1.7L126.5,78.1z"/>
	</g>
</g>
</svg>
