<?xml version="1.0" encoding="utf-8"?>
<!-- Generator: Adobe Illustrator 24.1.2, SVG Export Plug-In . SVG Version: 6.00 Build 0)  -->
<svg version="1.1" id="Layer_1" xmlns="http://www.w3.org/2000/svg" xmlns:xlink="http://www.w3.org/1999/xlink" x="0px" y="0px"
	 viewBox="0 0 203.77 130.44" style="enable-background:new 0 0 203.77 130.44;" xml:space="preserve">
<style type="text/css">
	.st0{fill:none;stroke:#000000;stroke-width:3.0458;stroke-miterlimit:10;}
	.st1{fill:none;stroke:#000000;stroke-width:3.0159;stroke-miterlimit:10;}
	.st2{fill:#FFFFFF;}
	.st3{fill-rule:evenodd;clip-rule:evenodd;fill:#FFFFFF;}
	.st4{fill-rule:evenodd;clip-rule:evenodd;fill:#FFDD00;}
	.st5{fill:#FFDD00;}
	.st6{fill:#DF3528;}
	.st7{fill:#A7322B;}
	.st8{fill-rule:evenodd;clip-rule:evenodd;}
</style>
<path class="st0" d="M149.94,62.02"/>
<path class="st1" d="M149.25,58.2"/>
<path class="st2" d="M51.17,130.44c-6.93,0-13.44-0.61-19.89-1.86l-0.62-0.12c-0.28-0.05-0.48-0.3-0.48-0.59v-9.8
	c-6.71-2.17-10.57-3.92-18.17-9.06c-0.39-0.27-0.62-0.73-0.6-1.21c0.03-0.49,0.32-0.92,0.75-1.13c0.87-0.44,1.31-0.66,2.17-1.14
	c3.96-2.17,6.06-3.52,9.8-6.33c-0.41-0.51-1.43-1.78-1.43-1.78c-2.79-3.45-4.21-5.21-7.35-10.42H1.38c-0.33,0-0.6-0.27-0.6-0.6V13
	c0-7.03,5.72-12.75,12.75-12.75h146.41c0.33,0,0.6,0.27,0.6,0.6v73.41c0,0.39-0.02,0.8-0.07,1.23c0.1-0.01,0.2-0.01,0.3-0.02v-9.54
	c-0.11-0.25-0.15-0.53-0.09-0.8c0.12-0.62,0.67-1.09,1.31-1.1c0.5-0.01,0.99-0.02,1.48-0.02c16.06,0,28.5,5.12,39.55,10.65
	c0.47,0.24,0.77,0.73,0.75,1.25c-0.01,0.53-0.33,1-0.81,1.21c-0.35,0.17-2.26,1.85-4.3,3.85c-0.02,0.02-3.31,3.42-7.48,7.39
	c3.61,6.08,6.45,10.35,6.47,10.38l0.36,0.53c1.18,1.73,4.79,6.99,5.55,8.19c0.34,0.54,0.26,1.22-0.18,1.67
	c-0.25,0.26-0.61,0.41-0.97,0.41c-0.24,0-0.48-0.06-0.69-0.19c-7.04-4.1-10.65-5.55-16.66-7.26v10.32c0,0.18-0.08,0.35-0.22,0.46
	c-0.11,0.09-0.24,0.14-0.38,0.14c-0.04,0-0.07,0-0.11-0.01l-0.91-0.17c-6.28-1.22-12.62-1.81-19.36-1.81
	c-19.05,0-37.89,4.91-56.11,9.66C89.58,125.48,70.57,130.44,51.17,130.44z M58.55,92.64c13.31-1.35,25.13-3.5,35.3-5.63H40
	c3.72,0.28,7.23,0.33,10.21,0.33c2.49,0,4.97-0.04,7.06-0.09c0,0,0.04,0,0.05,0c0.62,0,1.14,0.4,1.3,1.02
	c0.07,0.29,0.04,0.58-0.06,0.85V92.64z"/>
<path class="st0" d="M149.94,62.02"/>
<path class="st3" d="M84.44,51.86v-1.66l-7.06,1.76v2.07c1.54-0.41,1.54,1.03,1.54,1.76v15c0,0,0,1.87-1.54,1.97v1.65l7.06-1.65
	v-6.52c6.18,2.8,10.16-2.38,10.16-9.21C94.59,50.83,90.4,45.75,84.44,51.86 M86.65,62.62c-1.21,0.31-2.21-1.35-2.21-3.62
	c0-2.28,0.99-4.35,2.21-4.65c1.21-0.31,2.21,1.24,2.21,3.52C88.85,60.14,87.86,62.31,86.65,62.62 M120.3,56.31v-21l-7.06,1.76v1.34
	c0.88-0.31,1.44,0,1.44,1.14l0.11,18.1c0,0.93-0.55,1.45-1.54,1.66v1.65l8.5-2.07l0.1-1.76C121.84,57.14,120.3,57.76,120.3,56.31
	 M104.63,45.13c-6.07,1.55-7.95,6-7.95,10.86c-0.11,5.38,1.43,8.69,7.84,7.04c6.06-1.56,7.17-5.28,7.28-10.76
	C111.92,47.1,110.82,43.59,104.63,45.13 M106.51,53.72c0,2.38-0.99,4.55-2.32,4.86c-1.1,0.31-2.21-1.34-2.21-3.72
	c0-2.49,1.1-4.56,2.32-4.86C105.52,49.69,106.62,51.34,106.51,53.72 M131.01,53.72v-21l-7.07,1.76v1.24
	c0.89-0.21,1.55,0.1,1.55,1.24v18.1c0,0.83-0.55,1.46-1.55,1.56v1.76l8.61-2.07v-1.75C132.55,54.56,131.01,55.17,131.01,53.72
	 M141.82,36.24c-6.07,1.45-7.83,6-7.94,10.76c-0.11,5.38,1.54,8.79,7.94,7.04c6.07-1.55,7.06-5.17,7.28-10.76
	C149.1,38.21,148,34.69,141.82,36.24 M141.49,49.69c-1.21,0.21-2.21-1.45-2.21-3.83c0-2.38,1-4.55,2.21-4.86
	c1.21-0.31,2.32,1.34,2.32,3.73C143.81,47.1,142.7,49.38,141.49,49.69"/>
<path class="st3" d="M35.67,27.96L55.3,23.1c6.07-1.45,8.94,3,8.83,6.83v27.31c0,3.72-2.1,7.76-6.73,8.89L10.62,77.52V66.14
	l40.16-9.93c5.3-1.34,7.17-2.9,7.17-10.55c0-7.66-3.09-8.79-7.17-9.93l-15.11-3.93V27.96"/>
<path class="st1" d="M149.25,58.2"/>
<path class="st4" d="M84.44,51.86v-1.66l-7.06,1.76v2.07c1.54-0.42,1.54,1.03,1.54,1.76v15c0,0,0,1.86-1.54,1.97v1.65l7.06-1.65
	v-6.52c6.18,2.79,10.16-2.38,10.16-9.21C94.59,50.82,90.4,45.75,84.44,51.86 M86.65,62.62c-1.21,0.31-2.21-1.35-2.21-3.62
	c0-2.28,0.99-4.35,2.21-4.65c1.21-0.31,2.21,1.24,2.21,3.52C88.85,60.14,87.86,62.31,86.65,62.62 M120.3,56.31v-21l-7.06,1.76v1.34
	c0.88-0.31,1.44,0,1.44,1.14l0.11,18.1c0,0.93-0.55,1.45-1.54,1.65v1.66l8.5-2.07l0.1-1.76C121.84,57.14,120.3,57.76,120.3,56.31
	 M104.63,45.13c-6.07,1.55-7.95,6-7.95,10.86c-0.11,5.38,1.43,8.69,7.84,7.04c6.06-1.55,7.17-5.28,7.28-10.76
	C111.92,47.1,110.82,43.58,104.63,45.13 M106.51,53.72c0,2.38-0.99,4.56-2.32,4.87c-1.1,0.31-2.21-1.34-2.21-3.72
	c0-2.49,1.1-4.56,2.32-4.86C105.52,49.69,106.62,51.34,106.51,53.72 M131.01,53.72v-21l-7.07,1.76v1.24
	c0.89-0.21,1.55,0.1,1.55,1.24v18.1c0,0.83-0.55,1.45-1.55,1.56v1.76l8.61-2.07v-1.75C132.55,54.55,131.01,55.17,131.01,53.72
	 M141.82,36.24c-6.07,1.45-7.83,6-7.94,10.76c-0.11,5.38,1.54,8.79,7.94,7.04c6.07-1.55,7.06-5.17,7.28-10.76
	C149.1,38.21,148,34.69,141.82,36.24 M141.49,49.69c-1.21,0.21-2.21-1.45-2.21-3.83c0-2.38,1-4.55,2.21-4.86
	c1.21-0.31,2.32,1.35,2.32,3.73C143.81,47.1,142.7,49.38,141.49,49.69"/>
<path class="st4" d="M35.67,27.96L55.3,23.1c6.07-1.45,8.94,3,8.83,6.83v27.31c0,3.72-2.1,7.76-6.73,8.89L10.62,77.52V66.14
	l40.16-9.93c5.3-1.34,7.17-2.89,7.17-10.55c0-7.66-3.09-8.79-7.17-9.93l-15.11-3.93V27.96"/>
<path class="st5" d="M113.78,64.91h33.17c1.15,0,2.11,0.92,2.11,2.03v7.96c0,1.13-0.96,2.03-2.11,2.03h-33.17
	c-1.15,0-2.1-0.9-2.1-2.03v-7.96C111.67,65.83,112.63,64.91,113.78,64.91"/>
<path class="st0" d="M149.94,62.02"/>
<path class="st6" d="M184.54,76.86c0.2,0.14,0.32,0.38,0.32,0.62c0,2.72,0,4.83,0.01,6.94c0.01,2.11,0.01,4.22,0.01,6.95v8.37
	c6.09,1.68,9.31,3.01,15.11,6.21c-1.74-2.57-4.06-5.95-4.1-6c-0.04-0.06-3.2-4.82-7.1-11.43c-0.18-0.31-0.12-0.7,0.13-0.94
	c4.51-4.25,8.19-8.05,8.22-8.09c0.67-0.66,2.48-2.41,3.78-3.47c-10.08-4.97-21.38-9.46-35.54-9.84c0.03,0.01,0.06,0.03,0.09,0.04
	c0.65,0.34,1.34,0.7,2.24,1.12C174.6,70.59,177.53,71.95,184.54,76.86z"/>
<path class="st7" d="M167.18,67.92c0.03,0.02,0.06,0.03,0.1,0.04C167.25,67.95,167.21,67.93,167.18,67.92z"/>
<path class="st6" d="M48.47,90.81c1.34-0.36,3.33-0.58,5.2-1.37c-1.47,0.02-1.99,0.02-3.47,0.02c-11.44,0-23.52-0.84-34.79-6.64
	c0.33,0.6,0.66,1.22,1.1,2.02c3.53,5.93,4.87,7.6,7.82,11.25c0.67,0.83,1.43,1.77,2.31,2.88c0.12,0.16,0.18,0.37,0.16,0.57
	c-0.03,0.21-0.13,0.39-0.29,0.51c-4.59,3.5-6.78,4.94-11.17,7.34c-0.43,0.24-0.76,0.41-1.08,0.58c6.64,4.41,9.96,6.07,16.25,8.09
	v-1.57c0-3.19-0.02-6.38-0.05-9.57c-0.02-3.2-0.05-6.4-0.05-9.59c0-0.37,0.26-1.61,0.63-1.67c2.22-0.4,4.43-0.7,6.15-0.98
	C40.78,92.11,43.89,92,48.47,90.81z"/>
<path class="st6" d="M58.31,88.69c-2.25,1.15-6.42,2.89-8.81,3.53c-4.65,1.21-10.42,1.84-10.89,1.92
	c8.03-0.34,19.96-1.65,19.96-1.65l0.05-4.1C58.54,88.52,58.44,88.63,58.31,88.69z"/>
<path class="st6" d="M180.68,76.61c-5.21-3.57-8.67-4.99-14.48-7.74c-0.88-0.41-1.55-0.76-2.18-1.1c-0.92-0.48-1.01-0.58-2.22-1.09
	c-0.14-0.06-0.95-0.48-1.03-0.6c0,1.72,0.07,6.9,0.07,9.71c1.48-0.05,2.96-0.08,4.47-0.08C170.16,75.72,175.81,76.13,180.68,76.61z"
	/>
<path class="st6" d="M169.63,99.04c1.42,0.09,6.05-5.72,6.93-6.85c-0.15-0.28-0.33-0.4-0.57-0.41c-1.53-0.1-6.48,5.31-6.58,6.89
	C169.39,98.89,169.46,99.03,169.63,99.04z"/>
<path class="st6" d="M147.22,92.67c-0.01-0.08-0.07-0.13-0.15-0.12c-1.36,0.17-3.59,3.6-4.15,4.7
	C144.77,97.08,147.32,93.39,147.22,92.67z"/>
<path class="st6" d="M78.7,114.38c1.4-0.28,4.35-7.09,4.91-8.42c-0.21-0.23-0.42-0.3-0.66-0.25c-1.5,0.31-4.87,6.82-4.56,8.37
	C78.44,114.3,78.54,114.42,78.7,114.38z"/>
<path class="st6" d="M51.17,128.31c19.12,0,38-4.92,56.26-9.68c18.35-4.78,37.33-9.73,56.65-9.73l0,0c6.56,0,12.78,0.55,18.9,1.67
	V78.42c-5.71-0.63-11.28-0.93-16.93-0.93c-19.97,0-37.54,3.97-56.14,8.17C88.57,90.48,64.39,95.94,32.33,96.2
	c-0.01,0.02-0.01,0.03-0.02,0.05c0,0.05,0,0.11,0,0.19c0,4.28-0.01,7.48-0.01,10.68c-0.01,3.2-0.01,6.4-0.01,10.66v8.83
	C38.41,127.76,44.6,128.31,51.17,128.31z M132.04,92.5c0.52-1.22,1.26-3.07,2.75-3.3c0.3-0.05,0.49,0,0.55,0.31
	c0.08,0.45-0.14,1.2-0.35,1.73c0.08-0.01,0.13-0.02,0.21-0.03c1.14-0.2,2.85-0.89,3.24-1.01c0.05-0.04,0.1-0.05,0.15-0.06
	c0.69-0.12,1.59,1.28,1.7,1.89c0.06,0.32,0,0.63-0.2,0.88c-1.46,1.76-4.41,7.06-4.14,8.6c0.06,0.34,0.3,0.44,0.61,0.38
	c0.82-0.15,1.99-1.4,2.92-2.58c-0.02-0.12-0.05-0.23-0.07-0.37c-0.32-2.54,4.61-9.43,7.01-9.79c0.77-0.1,0.99,0.07,1.9,1.12
	c0.38,0.47,1.05,1.03,1.17,1.91c0.43,3.39-4.35,6.79-7.31,7.17c-0.03,0-0.06,0.01-0.08,0.01c-0.09,0.39-0.12,0.75-0.08,1.04
	c0.09,0.72,0.58,1.15,1.65,1.01c1.93-0.24,3.43-1.67,4.47-2.86c1.32-2.21,4.62-7.7,5.4-9.16c0.2-0.36,0.46-0.53,0.79-0.52
	c0.65,0,2.1,0.7,2.16,1.42c0.01,0.11-0.02,0.22-0.07,0.33c-0.15,0.3-3.04,4.57-4.09,5.91c1.42-1.43,6.08-6.61,6.55-7.19
	c0.18-0.19,0.34-0.31,0.52-0.32c0.59-0.02,2.56,1.43,2.62,2.05c0,0.11-0.02,0.21-0.04,0.33c-0.1,0.25-2.96,3.95-4.06,5.52
	c2.17-2.27,8.19-8.34,8.7-8.46c0.03,0,0.06,0,0.08,0c0.57-0.05,1,0.69,1.55,1.01c0.22,0.1,0.31,0.45,0.32,0.74
	c0.04,0.21-0.01,0.46-0.08,0.54c-1.9,2.15-5.22,6.65-5.11,8.07c0.02,0.48,0.3,0.61,0.65,0.59c0.79-0.07,2-1.22,2.99-2.19
	c0.85-3.62,5.69-7.55,7.31-8.12c0.22-0.07,0.44-0.13,0.65-0.12c0.43,0.02,0.93,0.27,1.64,0.97c0.26,0.2,0.53,0.65,0.68,1.23
	c0.33-0.47,0.57-0.77,0.68-0.9c0.2-0.2,0.42-0.3,0.69-0.28c0.86,0.05,1.85,1.14,1.79,2c-0.01,0.24-0.11,0.45-0.31,0.63
	c-0.8,0.68-5.02,5.64-5.06,6.21c-0.04,0.65,0.29,0.93,0.59,0.95c0.75,0.05,2.14-0.57,4.48-3.06c0.14-0.15,0.28-0.2,0.42-0.19
	c0.19,0.01,0.34,0.18,0.32,0.48c-0.02,0.32-0.21,0.8-0.71,1.36c-1.87,2.25-4.06,3.76-5.33,3.68c-1.5-0.1-2.17-1.46-2.39-2.74
	c-1.25,1-2.57,1.78-3.27,1.73c-0.45-0.03-0.98-0.17-1.33-1.13c-0.22-0.56-0.53-0.8-0.74-1.08c-1.4,1.46-2.53,1.89-3.51,1.97
	c-1.53,0.11-2.49-0.82-2.6-2.4c-0.07-1.05,0.91-3.38,2.1-5.21c-2,1.78-6.28,7.75-6.92,7.8c-0.97,0.07-1.98-0.84-2.03-1.53
	c-0.03-0.59,2.9-5.34,4.09-7.3c-3.3,2.32-7.89,9.32-8.59,9.38c-0.57,0.04-1.23-0.29-1.67-0.73c-1.19,1.1-2.55,1.98-3.55,2.1
	c-0.91,0.11-2.21-0.26-3.21-1.14c-0.39-0.34-0.86-0.63-1.23-1.17c-1.05,1.5-2.5,2.94-3.58,3.13c-1.09,0.19-2.86-0.7-3.14-2.32
	c-0.43-2.44,1.64-5.59,2.88-7.56c-0.77,0.13-1.88,0.33-2.18,0.33c-0.19,0.01-2.97,7.33-4.22,9.41c-0.12,0.24-0.34,0.36-0.56,0.4
	c-0.34,0.06-0.74-0.15-0.8-0.52c-0.04-0.21,0-0.46,0.17-0.74c0.66-1.19,3.54-7.84,3.6-8.24c-0.01-0.05,0.01-0.11,0-0.16
	c-0.04-0.24-0.17-0.52-0.23-0.86C131.89,93.21,131.88,92.86,132.04,92.5z M110.53,96.53c0.63-0.15,2.35,0.34,2.51,1
	c0.05,0.21,0.02,0.43-0.16,0.7c-2.22,3.42-3.57,6.96-3.7,8.51c-0.04,0.2-0.01,0.39,0.02,0.52c0.05,0.21,0.15,0.29,0.39,0.24
	c0.16-0.04,0.37-0.17,0.55-0.46c1.78-2.81,5.17-10.75,5.43-11.62c0.04-0.17,0.21-0.3,0.39-0.34c0.76-0.18,2.27,0.45,2.47,1.26
	c0.04,0.18,0.01,0.38-0.13,0.61c-0.72,1.14-3.61,7.49-3.23,9.06c0.07,0.26,0.24,0.39,0.5,0.33c0.77-0.17,1.96-1.91,2.84-3.37
	c1.61-4.25,3.19-8.49,3.29-8.87c0.14-0.53,0.33-0.79,0.62-0.85c0.24-0.05,0.5,0.03,0.84,0.17c0.58,0.26,1.08,0.04,1.19,0.51
	c0.05,0.24-0.04,0.81-0.08,1.04c0.57-0.65,1.58-1.48,2.18-1.6c0.97-0.21,1.31,0.57,1.86,0.97c0.37,0.31,0.95,0.43,1.24,1.66
	c0.46,1.85-2.4,8.59-5.55,9.28c-0.68,0.15-1.22-0.04-1.79-0.38c-0.51-0.3-1-0.69-1.41-1.13c-3.31,7.69-3.39,10.87-3.99,11.01
	c-1,0.22-1.54-0.76-1.77-1.79c-0.09-0.42-0.1-0.83,0.01-1.1c0.09-0.26,0.75-2.02,1.63-4.33c-0.38,0.34-0.77,0.58-1.15,0.68
	c-1.85,0.48-2.68-1.1-3.01-2.48c-0.01-0.05-0.02-0.1-0.04-0.18c-0.52,0.96-1.64,3.41-2.76,3.69c-1.38,0.36-2.82-1.12-3.19-2.63
	c-0.07-0.29-0.11-0.55-0.09-0.84c0.06-1.81,2.31-6.35,3.37-8.57C109.99,96.8,110.24,96.6,110.53,96.53z M92.93,106.55
	c0.97-0.24,2.43,0.43,2.84,1.44c0.61,1.48,2.67,2.2,3.71,1.92c1.12-0.28,2.15-1.16,1.84-2.44c-0.16-0.65-0.65-1.28-1.43-1.67
	c-1.2-0.62-3.2-1.99-3.82-4.53c-0.15-0.63-0.21-1.3-0.18-2.09c0.15-2.56,3.4-6.98,5.93-7.6c1.02-0.25,1.9,0.17,2.85,1.33
	c0.94,1.13,2.2,1.4,2.63,3.18c0.35,1.44-0.31,4.73-1.59,5.05c-0.95,0.23-1.95-1.38-2.13-2.14c-0.22-0.89,0.02-1.72,0.4-2.34
	c0.32-0.52,0.44-1.02,0.37-1.34c-0.08-0.31-0.37-0.46-0.76-0.37c-1.62,0.4-3.84,4.37-3.46,5.89c0.51,2.09,4.65,3.82,5.24,6.26
	c0.55,2.24-1.85,4-3.76,4.46c-1.33,0.33-2.9,0.26-4.53-0.28c-3.14-1.09-4.67-2.46-4.92-3.48C92.01,107.19,92.35,106.69,92.93,106.55
	z M54.27,105.6c1.09-1.8,2.21-3.66,2.9-4.62c0.15-0.2,0.28-0.29,0.44-0.3c0.49-0.03,1.69,0.72,1.73,1.26
	c0.02,0.24-0.1,0.52-0.35,0.83c-0.63,0.74-1.88,2.63-2.63,3.82c-0.1,0.17-0.34,0.54-0.69,0.56c-0.03,0-0.05,0-0.11-0.02
	c-0.33-0.03-0.74-0.46-1.06-0.55c-0.14-0.02-0.36-0.16-0.38-0.46C54.11,105.98,54.15,105.82,54.27,105.6z M52.91,107.36
	c0.59-0.04,2.51,0.83,2.5,1.45c-0.01,0.19-0.08,0.38-0.28,0.64c-2.88,3.7-4.98,8.13-4.99,9.21c0.01,0.16,0.07,0.26,0.15,0.26
	c0.91-0.06,2.74-1.78,4.2-3.46c1.18-2.9,2.91-6.91,3.09-7.28c0.22-0.46,0.47-0.62,0.74-0.65c0.51-0.06,2.23,0.75,2.29,1.26
	c0.01,0.11,0,0.24-0.07,0.39c-0.2,0.43-2.43,5.12-3.34,6.85c1.62-2.24,5.88-8.12,6.32-8.76c0.19-0.24,0.37-0.34,0.58-0.36
	c0.53-0.06,2.28,0.99,2.34,1.55c0.02,0.18-0.06,0.41-0.24,0.7c-2.35,3.71-3.51,6.33-3.4,7.35c0.04,0.35,0.32,0.64,0.66,0.58
	c0.57-0.06,1.54-1.12,2.34-2.14c-0.02-0.1-0.05-0.18-0.07-0.29c-0.4-2.52,4.29-9.58,6.67-10.02c0.77-0.13,0.99,0.03,1.95,1.05
	c0.4,0.45,1.09,1,1.23,1.87c0.55,3.38-4.11,6.94-7.06,7.41c-0.03,0.01-0.06,0.01-0.08,0.02c-0.07,0.39-0.1,0.75-0.05,1.04
	c0.11,0.72,0.62,1.13,1.68,0.96c3.09-0.5,4.95-3.99,5.69-4.63c0,0,0.01,0,0.01-0.01c0.44-3.57,3.6-7.88,4.89-8.77
	c0.2-0.12,0.39-0.25,0.6-0.29c0.42-0.09,0.96,0.02,1.83,0.51c0.3,0.13,0.68,0.49,0.98,1.01c0.19-0.53,0.34-0.89,0.42-1.05
	c0.14-0.25,0.33-0.4,0.59-0.45c0.84-0.17,2.08,0.62,2.25,1.47c0.04,0.24,0.01,0.46-0.14,0.68c-0.59,0.87-3.38,6.76-3.27,7.31
	c0.13,0.63,0.53,0.83,0.82,0.77c0.74-0.15,1.92-1.11,3.53-4.12c0.1-0.19,0.22-0.26,0.35-0.29c0.18-0.04,0.38,0.09,0.43,0.38
	c0.07,0.32,0,0.83-0.33,1.5c-1.21,2.66-2.94,4.69-4.18,4.94c-1.48,0.3-2.48-0.84-3.02-2.02c-0.95,1.29-2.02,2.39-2.7,2.53
	c-0.45,0.09-1,0.09-1.58-0.75c-0.54-0.73-1.1-0.7-1.36-1.28c-1.22,1.83-3.5,3.8-4.98,4.04c-0.9,0.15-2.21-0.19-3.25-1.03
	c-0.46-0.38-1.02-0.68-1.44-1.37c-0.99,1.39-2.38,2.58-3.89,2.75c-1.17,0.16-1.93-0.76-2.09-2.17c-0.12-1.1,0.77-3.5,1.67-4.9
	c-2.27,1.94-5.74,8.15-6.3,8.22c-0.85,0.09-2.13-0.63-2.21-1.4c0-0.01,0-0.01,0-0.02c-1.04,0.96-2.16,1.79-2.92,1.84
	c-1.4,0.09-2.85-1.37-2.84-2.83c0.01-1.78,1.22-4.67,4.46-9.55C52.38,107.53,52.64,107.38,52.91,107.36z M36.25,117.64
	c1.01-2.04,9.62-16.19,9.94-16.61c0.21-0.3,1.04-0.43,1.61-0.44c0.78-0.02,1.92,1.63,1.93,2.38c0,0.32-0.07,0.62-0.28,0.92
	c-0.52,0.71-7.29,10.44-9.34,13.9c1.1-0.16,3.38-0.34,4.84-0.37c0.46-0.01,0.83,0.01,1.08,0c0.73,0.07,1.55,0.86,1.56,1.34
	c0,0.21-0.15,0.38-0.5,0.44c-2.26,0.24-8.02,1.62-8.85,1.64l-0.03,0c-0.57-0.04-2-1.73-2.02-2.81
	C36.17,117.91,36.2,117.77,36.25,117.64z"/>
<path class="st6" d="M73.31,108.11c-0.01-0.08-0.08-0.12-0.15-0.11c-1.36,0.22-3.46,3.72-3.99,4.84
	C71.01,112.6,73.43,108.83,73.31,108.11z"/>
<path class="st6" d="M123.27,102.84c1.47-0.32,4.12-5.86,3.77-7.46c-0.07-0.32-0.24-0.5-0.61-0.42c-1.05,0.23-4.67,5.64-4.29,7.38
	C122.24,102.76,122.59,102.99,123.27,102.84z"/>
<path class="st0" d="M149.94,62.02"/>
<path d="M112.58,61.79v-0.83v-1.65v-0.62l0.55-0.1c0.33,0,0.55-0.1,0.77-0.21c0.12-0.21,0.22-0.41,0.22-0.73l-0.1-18.1
	c0.1-0.2,0-0.31,0-0.41c0-0.1,0-0.2-0.12-0.2h-0.11c-0.11,0-0.22,0-0.33,0.1l-0.88,0.21v-0.83v-1.34v-0.52l0.55-0.1l7.06-1.76
	l0.77-0.21v0.83v21c0,0.52,0.55,0.31,0.55,0.31l0.88-0.41v0.93v1.76v0.52l-0.44,0.1l-8.61,2.07L112.58,61.79 M113.9,60.14l7.29-1.76
	v-0.41c-0.66,0-1.55-0.21-1.55-1.66V36.14l-5.74,1.45v0.1c0.33,0,0.55,0.1,0.77,0.2c0.22,0.21,0.44,0.52,0.55,0.83
	c0.11,0.21,0.11,0.52,0.11,0.93v18c0,0.62-0.11,1.14-0.55,1.56c-0.22,0.2-0.55,0.41-0.88,0.62V60.14"/>
<path d="M123.28,59.21v-0.83v-1.76V56.1l0.66-0.11c0.34,0,0.56-0.1,0.67-0.31c0.11-0.1,0.22-0.31,0.22-0.62v-18.1
	c0-0.21,0-0.31-0.11-0.42c0-0.1,0-0.21-0.11-0.21h-0.11h-0.33l-0.78,0.31v-0.93v-1.24v-0.52l0.45-0.1l7.06-1.76l0.77-0.21v0.82v21
	c0,0.52,0.55,0.21,0.55,0.21l0.99-0.31v0.94v1.75v0.42l-0.55,0.21l-8.5,2.07L123.28,59.21 M124.61,57.55l7.28-1.76v-0.41
	c-0.67,0-1.43-0.21-1.43-1.66V33.55L124.61,35c0.33,0.1,0.55,0.1,0.77,0.31c0.33,0.21,0.44,0.42,0.55,0.83
	c0.12,0.2,0.12,0.52,0.12,0.83l0.11,18.1c0,0.62-0.22,1.14-0.66,1.56c-0.22,0.21-0.44,0.42-0.88,0.52V57.55"/>
<path d="M78.04,52.38v0.94c0.66,0,1,0.41,1.22,0.83c0.33,0.62,0.33,1.24,0.33,1.66v15c0,0,0,1.97-1.55,2.48v0.31l5.74-1.34v-6v-0.93
	l0.99,0.41c1.1,0.41,2.1,0.73,2.98,0.73c1.1-0.1,2.1-0.42,2.98-1.04c0.88-0.72,1.55-1.65,2.1-2.79c0.77-1.55,1.11-3.52,1.11-5.59
	c0-1.86-0.45-3.62-1.11-4.96c-0.55-0.94-1.21-1.66-1.88-1.97c-0.77-0.41-1.54-0.52-2.54-0.21c-0.99,0.31-3.31,1.76-4.63,3.11v-1.97
	L78.04,52.38 M76.72,51.96v-0.52l0.55-0.21l7.06-1.66l0.78-0.2v0.83v0.1c0.99-0.82,1.98-1.34,2.98-1.65
	c1.21-0.41,2.43-0.21,3.42,0.31c1,0.52,1.77,1.34,2.44,2.48c0.77,1.45,1.32,3.52,1.32,5.59c0,2.28-0.44,4.44-1.22,6.1
	c-0.66,1.35-1.44,2.48-2.54,3.31c-0.99,0.83-2.31,1.24-3.75,1.24c-0.77,0-1.65-0.1-2.65-0.42v5.49v0.51l-0.44,0.1l-7.17,1.76
	l-0.77,0.1v-0.83v-1.76v-0.52l0.66-0.1c0.89,0,0.89-1.24,0.89-1.24v-15c0-0.31,0-0.83-0.11-1.03c-0.11-0.11-0.22-0.2-0.66-0.11
	l-0.77,0.21v-0.83V51.96 M86.54,62c1.91-0.6,2.52-7.16,0.33-7.03C84.79,55.45,84.25,62,86.54,62 M86.76,63.24
	c-0.11,0-1.01,0.2-1.88-0.72c-0.41-0.45-0.66-1.04-0.88-1.76c-0.11-0.52-0.11-1.14-0.11-1.76c0-1.24,0.18-2.4,0.66-3.31
	c1.1-2.1,2.21-2.07,2.43-2.07c0.55,0,1.1,0.31,1.55,0.83c0.33,0.42,0.66,1.04,0.77,1.76c0.11,0.52,0.22,1.14,0.22,1.65
	c0,1.24-0.22,2.48-0.66,3.41C88.3,62.31,87.64,63.03,86.76,63.24"/>
<path d="M96.03,56c0-3.47,1.04-7.12,3.86-9.34c1.32-1.05,2.9-1.72,4.52-2.14c1.51-0.38,3.23-0.6,4.72-0.05
	c3.15,1.15,3.33,4.98,3.33,7.8c-0.06,3.2-0.57,6.77-3.05,9.04c-1.24,1.14-2.83,1.83-4.45,2.28c-1.64,0.45-3.45,0.77-5.13,0.32
	C96.39,62.98,96.03,59,96.03,56 M97.35,56c-0.11,2.63,0.21,6.31,3.46,6.75c1.68,0.23,3.54-0.2,5.1-0.8c1.36-0.52,2.6-1.33,3.48-2.51
	c0.99-1.32,1.43-2.93,1.62-4.54c0.22-1.87,0.24-3.87-0.05-5.74c-0.19-1.22-0.58-2.64-1.74-3.28c-1.25-0.7-2.9-0.44-4.23-0.17
	c-2.16,0.44-4.18,1.6-5.59,3.3C97.82,50.94,97.35,53.56,97.35,56 M104.08,49.38c0.89-0.46,1.72,0.37,2.24,0.98
	c0.65,0.77,0.83,1.91,0.85,2.89c0.04,2.05-0.33,5.09-2.6,5.9C100.63,60.56,100.26,50.4,104.08,49.38 M104.41,50.62
	c-1.21,0.29-1.64,2.51-1.73,3.52c-0.07,0.79,0.01,3.99,1.41,3.82c0.64-0.08,1.09-1.03,1.29-1.54c0.3-0.79,0.54-1.62,0.59-2.47
	C106,52.94,105.83,50.62,104.41,50.62"/>
<path d="M133.32,47c0-3.51,1.04-7,3.86-9.27c1.32-1.06,2.89-1.73,4.53-2.1c1.53-0.38,3.19-0.69,4.72-0.14
	c3.1,1.1,3.33,5.03,3.22,7.8c-0.06,3.23-0.35,6.85-2.97,9.11c-1.29,1.11-2.9,1.77-4.53,2.21c-1.64,0.45-3.44,0.82-5.11,0.33
	C133.69,53.97,133.21,49.94,133.32,47 M134.54,47c0,2.78,0.28,6.6,3.77,6.87c1.72,0.13,3.6-0.41,5.17-1.07
	c1.34-0.56,2.55-1.41,3.38-2.61c0.91-1.3,1.22-3,1.41-4.54c0.23-1.89,0.28-3.84-0.06-5.72c-0.23-1.26-0.73-2.54-1.98-3.1
	c-1.44-0.63-3.19-0.26-4.63,0.16c-1.94,0.55-3.79,1.54-5.03,3.17C135.06,42.12,134.66,44.58,134.54,47 M141.38,40.38
	c1.04,0,1.76,0.27,2.31,1.2c0.61,1.02,0.81,2.21,0.77,3.39c-0.05,1.78-0.8,4.85-2.87,5.33c-2.43,0.43-3.03-2.99-2.97-4.69
	C138.69,43.82,139.29,40.87,141.38,40.38 M141.71,41.62c-0.5-0.04-0.93,0.77-1.11,1.13c-0.38,0.74-0.56,1.6-0.62,2.43
	c-0.06,0.71-0.1,1.53,0.08,2.23c0.07,0.33,0.61,1.92,1.22,1.64c1.34-0.62,1.79-2.51,1.86-3.85
	C143.17,44.4,143.04,41.47,141.71,41.62"/>
<path class="st8" d="M62.37,24.03c-1.1-1.04-2.65-1.76-4.52-1.76c-0.78-0.1-1.66,0-2.65,0.21l-6.73,1.66L51,18.96l-12.25,2.9
	C35.33,22.68,35,24.24,35,27.03v0.82l-7.72,2.07L35,32v1.96c0,2.58,1.55,3.52,2.98,3.93l7.4,1.76c1.98,0.52,2.75-1.65,2.75-2.48
	v-1.45l2.43,0.62c1.98,0.52,3.64,1.04,4.85,2.28c1.22,1.34,1.87,3.41,1.87,7.03c0,3.73-0.44,5.89-1.43,7.24
	c-0.99,1.45-2.75,2.07-5.29,2.69L10.5,65.52l-0.44,0.1v12.72l0.77-0.21l46.68-11.38c2.32-0.52,4.08-1.76,5.3-3.41
	c1.33-1.76,1.99-4.03,1.99-6.1V29.93c0-0.72-0.11-1.45-0.22-2.17C64.24,26.31,63.47,24.96,62.37,24.03 M63.47,57.24
	c0,1.86-0.55,3.83-1.77,5.38c-0.99,1.34-2.42,2.38-4.41,2.89L11.28,76.79V66.65l39.62-9.83c2.87-0.62,4.74-1.45,5.96-3.1
	c1.21-1.65,1.77-4.14,1.77-8.07c0-4.04-0.89-6.41-2.21-7.86c-1.43-1.55-3.31-2.07-5.52-2.69l-14.57-3.72v-2.9l19.09-4.65
	c0.88-0.31,1.66-0.31,2.43-0.31c1.54,0,2.75,0.62,3.64,1.45c0.88,0.83,1.54,1.97,1.76,3.1c0.22,0.62,0.22,1.24,0.22,1.76V57.24z
	 M76.38,31.48c-5.96,0.52-4.85-2.06-0.44-3.1c2.21-0.52,4.64-0.11,6.29,1.76l1.43-0.42v-2.9c-3.86-1.55-16.11-1.03-16.11,5.9
	c0,2.58,4.52,4.45,8.39,4.55c4.75,0,3.64,3-0.33,3.31c-2.42,0.11-5.07-0.1-5.85-1.76l-2.2,0.52v3.62
	c3.97,0.42,17.43,0.93,17.55-7.86C85.1,32,80.8,31.07,76.38,31.48 M15.91,53.83l32.22-7.87L22.2,39.65
	c-6.29-1.55-6.29-5.07-6.29-9.82c0.11-4.45,0.11-8.38,6.29-9.83L64.13,9.86H15.91c-2.54,0-5.19,2.59-5.19,5.17v34.35
	C10.72,53.31,13.37,54.56,15.91,53.83 M112.36,18.76l-0.11-6.31l-7.18,1.76v1.56c1.44-0.42,1.55,0.93,1.55,1.34v14.59
	c0,2.38-1.44,2.38-1.44,2.38v1.76l7.07-1.76v-0.93c7.39,1.24,9.71-3.93,9.71-9.41C121.96,17,118.1,13.69,112.36,18.76 M114.57,29.41
	c-1.21,0.31-2.32-1.24-2.32-3.42c0-2.27,1.1-4.45,2.32-4.76c1.21-0.31,2.1,1.35,2.1,3.62C116.66,27.03,115.67,29.21,114.57,29.41
	 M142.15,10.17c-5.73,1.45-7.28,5.38-7.39,10.04c0,5.17,1.44,8.17,7.62,6.52c5.85-1.55,6.62-4.76,6.73-10.14
	C149.1,11.72,148.22,8.72,142.15,10.17 M142.15,22.68c-1.21,0.31-2.2-1.24-2.2-3.62c0-2.27,0.99-4.34,2.2-4.65
	c1.11-0.31,2.1,1.35,2.1,3.62C144.25,20.31,143.26,22.38,142.15,22.68 M101.87,25.38c0-4.96-6.73-4.76-11.14-2.17l-4.74,2.9v3.11
	l1.99-0.52c0.33-3.21,8.05-6.11,8.05-3.62c0,1.76-10.04,5.58-10.04,11.48c0,3.83,5.29,3.52,8.5,1.14l1.43-1.04v1.45l7.61-1.86v-2.27
	l-1.66,0.52V25.38z M95.92,32c0,2.06-2.21,3.41-2.98,2.58c-1.55-1.76,1.43-4.03,2.98-5.69V32z M129.57,15.76v-2.59l-6.84,4.55v1.45
	c1.43-0.72,1.43,0,1.43,1.86v6.62c0,1.55,0,2.27-1.43,2.58v1.24l8.72-2.17v-1.35c-1.88,0.52-1.88-0.52-1.88-1.55v-6.1
	c0-2.69,2.43-3.31,2.76-1.34l1.66-0.41l1.32-6.83C132.66,12.24,130.68,13.59,129.57,15.76 M42.1,28.44c-0.82,0-1.48,0.67-1.48,1.48
	c0,0.82,0.66,1.49,1.48,1.49s1.49-0.67,1.49-1.49C43.59,29.1,42.92,28.44,42.1,28.44"/>
<path d="M113.79,64.26c-1.52,0-2.77,1.2-2.77,2.68v7.96c0,1.47,1.25,2.67,2.77,2.67h33.14c1.52,0,2.76-1.2,2.76-2.67v-7.96
	c0-1.48-1.24-2.68-2.76-2.68H113.79z M112.36,74.9v-7.96c0-0.75,0.66-1.39,1.43-1.39h33.14c0.77,0,1.43,0.64,1.43,1.39v7.96
	c0,0.76-0.64,1.38-1.43,1.38h-33.14C113.01,76.28,112.36,75.66,112.36,74.9"/>
<path d="M115.58,74.02v-3.76h-0.67v-0.88h0.67v-0.44c0-0.4,0.15-0.72,0.32-0.95c0.24-0.16,0.6-0.32,1.08-0.32h0.23
	c0.11,0,0.21,0.07,0.37,0.07v0.97h-0.37c-0.16,0-0.27,0-0.32,0.07c-0.07,0.05-0.11,0.17-0.11,0.26v0.35h0.8v0.88h-0.8v3.76H115.58z
	 M119.41,74.02v-4.64h1.13v0.81c0.19-0.33,0.39-0.53,0.55-0.72c0.23-0.16,0.51-0.21,0.84-0.21h0.04h0.11v1.25h-0.44
	c-0.28,0-0.56,0.07-0.72,0.23c-0.16,0.21-0.28,0.49-0.28,0.84v2.44H119.41z M126.8,72.61h1.24c-0.12,0.49-0.37,0.92-0.76,1.2
	c-0.4,0.21-0.88,0.37-1.43,0.37c-0.65,0-1.2-0.21-1.57-0.65c-0.39-0.44-0.6-1.11-0.6-1.8c0-0.79,0.21-1.43,0.6-1.87
	c0.37-0.44,0.88-0.64,1.57-0.64c0.71,0,1.27,0.21,1.64,0.64c0.39,0.44,0.62,1.04,0.62,1.87v0.16c0,0.05-0.07,0.1-0.07,0.1h-3.07
	c0,0.39,0.12,0.67,0.27,0.88c0.11,0.16,0.39,0.28,0.67,0.28c0.21,0,0.44-0.05,0.53-0.12C126.57,72.98,126.72,72.82,126.8,72.61
	 M124.97,71.18h1.83c0-0.28-0.12-0.49-0.24-0.67c-0.16-0.16-0.44-0.25-0.71-0.25c-0.26,0-0.49,0.09-0.6,0.25
	C125.09,70.7,124.97,70.91,124.97,71.18 M129.63,72.54h1.25c0,0.22,0.07,0.44,0.24,0.49c0.16,0.12,0.37,0.19,0.71,0.19
	c0.28,0,0.44,0,0.53-0.12c0.18-0.07,0.23-0.23,0.23-0.33c0-0.16-0.23-0.39-0.72-0.43c-0.21-0.07-0.39-0.12-0.49-0.16
	c-0.6-0.12-1.04-0.35-1.27-0.56c-0.2-0.16-0.32-0.48-0.32-0.83c0-0.49,0.16-0.87,0.48-1.13c0.28-0.28,0.84-0.44,1.38-0.44
	c0.65,0,1.13,0.16,1.48,0.44c0.33,0.25,0.53,0.64,0.53,1.13h-1.13c0-0.21-0.11-0.32-0.23-0.44c-0.16-0.09-0.39-0.16-0.6-0.16
	c-0.28,0-0.44,0-0.56,0.11c-0.09,0.05-0.16,0.21-0.16,0.32c0,0.16,0.33,0.32,0.93,0.51c0.11,0,0.27,0.04,0.34,0.04
	c0.6,0.16,1.04,0.32,1.24,0.55c0.23,0.16,0.33,0.48,0.33,0.87c0,0.49-0.16,0.92-0.53,1.2c-0.39,0.21-0.94,0.37-1.64,0.37
	c-0.6,0-1.15-0.16-1.48-0.37c-0.34-0.35-0.55-0.71-0.55-1.2V72.54z M138.54,72.27h1.26c-0.07,0.6-0.32,1.11-0.67,1.43
	c-0.37,0.32-0.92,0.48-1.52,0.48c-0.67,0-1.16-0.21-1.53-0.6c-0.4-0.49-0.62-1.08-0.62-1.85c0-0.79,0.22-1.43,0.62-1.87
	c0.37-0.44,0.92-0.64,1.63-0.64c0.6,0,1.09,0.16,1.41,0.48c0.35,0.28,0.6,0.76,0.67,1.32h-1.26c0-0.23-0.16-0.44-0.28-0.56
	c-0.09-0.12-0.32-0.21-0.53-0.21c-0.35,0-0.59,0.09-0.71,0.37c-0.12,0.28-0.23,0.67-0.23,1.11c0,0.44,0.12,0.81,0.23,1.03
	c0.16,0.21,0.37,0.33,0.71,0.33c0.21,0,0.37-0.07,0.49-0.16C138.38,72.82,138.5,72.54,138.54,72.27 M142.49,71.73
	c0,0.44,0.11,0.81,0.27,1.03c0.21,0.26,0.49,0.38,0.81,0.38c0.32,0,0.6-0.12,0.83-0.38c0.16-0.22,0.32-0.59,0.32-1.03
	c0-0.44-0.12-0.83-0.32-1.11c-0.17-0.28-0.51-0.37-0.83-0.37c-0.32,0-0.6,0.09-0.81,0.37C142.6,70.91,142.49,71.29,142.49,71.73
	 M141.22,71.73c0-0.79,0.23-1.39,0.67-1.82c0.37-0.44,0.97-0.69,1.68-0.69c0.72,0,1.32,0.21,1.71,0.64
	c0.48,0.44,0.71,1.08,0.71,1.87c0,0.69-0.23,1.36-0.67,1.8c-0.44,0.44-1.03,0.65-1.75,0.65c-0.71,0-1.32-0.21-1.68-0.65
	C141.45,73.09,141.22,72.43,141.22,71.73"/>
<path class="st1" d="M149.25,58.2"/>
<path d="M57.28,87.84c0.28-0.01,1.03,0.12,1.16,0.31h29.33c4.16-0.89,8.18-1.81,12.09-2.73H26.97c7.72,2.11,15.62,2.51,23.24,2.51
	C52.56,87.93,54.91,87.89,57.28,87.84z"/>
<path d="M2.59,88.15h13.45c-0.47-0.76-1.21-1.6-1.78-2.55c-0.01-0.02-11.67-0.04-11.67-0.04V13.45c0-6,4.86-10.86,10.85-10.86
	h145.12v72.12c0,0.49-0.03,0.86,0.01,1.26c0.87-0.04,1.71-0.08,2.59-0.11c-0.04-0.45-0.01-0.7-0.01-1.15V2.59V0h-2.59H13.45
	C6.03,0,0,6.03,0,13.45v72.11v2.59H2.59z"/>
<g>
	<path d="M140.83,61.71v-4.56h1.38l0.83,3.11l0.82-3.11h1.38v4.56h-0.85v-3.59l-0.9,3.59h-0.89l-0.9-3.59v3.59H140.83z"/>
	<path d="M146.15,61.71v-4.56h1.94c0.49,0,0.84,0.04,1.06,0.12c0.22,0.08,0.4,0.23,0.53,0.44c0.13,0.21,0.2,0.45,0.2,0.72
		c0,0.34-0.1,0.63-0.3,0.85c-0.2,0.22-0.5,0.36-0.9,0.42c0.2,0.12,0.36,0.24,0.5,0.38c0.13,0.14,0.3,0.39,0.52,0.74l0.56,0.89h-1.1
		l-0.67-0.99c-0.24-0.35-0.4-0.58-0.48-0.67c-0.09-0.09-0.18-0.15-0.28-0.19c-0.1-0.03-0.25-0.05-0.46-0.05h-0.19v1.9H146.15z
		 M147.07,59.08h0.68c0.44,0,0.72-0.02,0.83-0.06c0.11-0.04,0.2-0.1,0.26-0.19c0.06-0.09,0.09-0.21,0.09-0.34
		c0-0.15-0.04-0.28-0.12-0.37c-0.08-0.1-0.2-0.16-0.35-0.18c-0.08-0.01-0.3-0.02-0.67-0.02h-0.72V59.08z"/>
</g>
</svg>
