<?xml version="1.0" encoding="UTF-8"?>
<svg width="40px" height="30px" viewBox="0 0 40 30" version="1.1" xmlns="http://www.w3.org/2000/svg" xmlns:xlink="http://www.w3.org/1999/xlink">
    <!-- Generator: Sketch 64 (93537) - https://sketch.com -->
    <title>mail</title>
    <desc>Created with Sketch.</desc>
    <g id="Page-1" stroke="none" stroke-width="1" fill="none" fill-rule="evenodd">
        <g id="Directorio-de-ventas-aliamsa" transform="translate(-1131.000000, -1332.000000)" fill="#000000" fill-rule="nonzero">
            <g id="mail" transform="translate(1131.000000, 1332.000000)">
                <path d="M36.6666406,0 L3.33335938,0 C1.49492188,0 0,1.49492188 0,3.33335938 L0,26.6667188 C0,28.5050781 1.49492188,30 3.33335938,30 L36.6667188,30 C38.5050781,30 40,28.5050781 40,26.6666406 L40,3.33335938 C40,1.49492188 38.5050781,0 36.6666406,0 Z M3.33335937,1.66664062 L36.6667187,1.66664062 C36.7895312,1.66664062 36.8977344,1.71140625 37.0129687,1.73671875 C34.1271094,4.37789062 24.5580469,13.1319531 21.209375,16.1490625 C20.9473437,16.3850781 20.525,16.6666406 20.0000781,16.6666406 C19.4751562,16.6666406 19.0528125,16.3850781 18.7899219,16.1482812 C15.4415625,13.1316406 5.87195312,4.37710937 2.9865625,1.736875 C3.10203125,1.7115625 3.21046875,1.66664062 3.33335937,1.66664062 Z M1.66664062,26.6666406 L1.66664062,3.33335937 C1.66664062,3.17007812 1.71585937,3.02195312 1.75992187,2.87273437 C3.96867187,4.89429687 10.6455469,11.0024219 14.9749219,14.939375 C10.6596094,18.6461719 3.98101562,24.9780469 1.7546875,27.1010156 C1.71539062,26.9592969 1.66664062,26.8207031 1.66664062,26.6666406 Z M36.6666406,28.3333594 L3.33335937,28.3333594 C3.20023437,28.3333594 3.081875,28.2869531 2.95757812,28.2572656 C5.258125,26.0641406 11.9792188,19.6958594 16.2186719,16.0690625 C16.7713281,16.5703906 17.2761719,17.0275 17.6741406,17.3860937 C18.3610156,18.00625 19.165,18.3333594 20,18.3333594 C20.835,18.3333594 21.6389844,18.0061719 22.325,17.386875 C22.723125,17.028125 23.2283594,16.570625 23.7813281,16.0690625 C28.0210156,19.6954687 34.7411719,26.0632812 37.0424219,28.2572656 C36.918125,28.2869531 36.7999219,28.3333594 36.6666406,28.3333594 Z M38.3333594,26.6666406 C38.3333594,26.820625 38.2846094,26.9592969 38.2453906,27.1010156 C36.0182031,24.9769531 29.3403906,18.6457812 25.0251562,14.9394531 C29.3546875,11.0025 36.0305469,4.89492187 38.2400781,2.87257812 C38.2841406,3.02179687 38.3333594,3.17 38.3333594,3.33328125 L38.3333594,26.6666406 L38.3333594,26.6666406 Z" id="Shape"></path>
            </g>
        </g>
    </g>
</svg>