<?xml version="1.0" encoding="UTF-8"?>
<svg width="23px" height="17px" viewBox="0 0 23 17" version="1.1" xmlns="http://www.w3.org/2000/svg" xmlns:xlink="http://www.w3.org/1999/xlink">
    <!-- Generator: Sketch 64 (93537) - https://sketch.com -->
    <title>mail</title>
    <desc>Created with Sketch.</desc>
    <g id="Symbols" stroke="none" stroke-width="1" fill="none" fill-rule="evenodd">
        <g id="menu_desktop-LOGOS-seccion" transform="translate(-1378.000000, -33.000000)" fill="#FFFFFF" fill-rule="nonzero">
            <g id="mail" transform="translate(1378.000000, 33.000000)">
                <path d="M21.0833184,0 L1.91668164,0 C0.859580078,0 0,0.847122396 0,1.88890365 L0,15.1111406 C0,16.1528776 0.859580078,17 1.91668164,17 L21.0833633,17 C22.1404199,17 23,16.1528776 23,15.1110964 L23,1.88890365 C23,0.847122396 22.1404199,0 21.0833184,0 Z M1.91668164,0.944429687 L21.0833633,0.944429687 C21.1539805,0.944429687 21.2161973,0.969796875 21.282457,0.984140625 C19.6230879,2.48080469 14.120877,7.4414401 12.1953906,9.15113542 C12.0447227,9.2848776 11.801875,9.44442969 11.5000449,9.44442969 C11.1982148,9.44442969 10.9553672,9.2848776 10.8042051,9.15069271 C8.87889844,7.44126302 3.37637305,2.48036198 1.71727344,0.984229167 C1.78366797,0.969885417 1.84601953,0.944429687 1.91668164,0.944429687 Z M0.958318359,15.1110964 L0.958318359,1.88890365 C0.958318359,1.7963776 0.986619141,1.7124401 1.01195508,1.62788281 C2.28198633,2.7734349 6.12118945,6.23470573 8.61058008,8.46564583 C6.12927539,10.5661641 2.28908398,14.1542266 1.00894531,15.3572422 C0.986349609,15.2769349 0.958318359,15.1983984 0.958318359,15.1110964 Z M21.0833184,16.0555703 L1.91668164,16.0555703 C1.84013477,16.0555703 1.77207813,16.0292734 1.70060742,16.0124505 C3.02342188,14.7696797 6.88805078,11.160987 9.32573633,9.10580208 C9.64351367,9.38988802 9.93379883,9.64891667 10.1626309,9.85211979 C10.557584,10.2035417 11.019875,10.3889036 11.5,10.3889036 C11.980125,10.3889036 12.442416,10.2034974 12.836875,9.8525625 C13.0657969,9.64927083 13.3563066,9.39002083 13.6742637,9.10580208 C16.112084,11.1607656 19.9761738,14.7691927 21.2993926,16.0124505 C21.2279219,16.0292734 21.1599551,16.0555703 21.0833184,16.0555703 Z M22.0416816,15.1110964 C22.0416816,15.1983542 22.0136504,15.2769349 21.9910996,15.3572422 C20.7104668,14.1536068 16.8707246,10.5659427 14.3894648,8.4656901 C16.8789453,6.23475 20.7175645,2.77378906 21.9880449,1.62779427 C22.0133809,1.71235156 22.0416816,1.79633333 22.0416816,1.88885937 L22.0416816,15.1110964 L22.0416816,15.1110964 Z" id="Shape"></path>
            </g>
        </g>
    </g>
</svg>