<?xml version="1.0" encoding="UTF-8"?>
<svg width="23px" height="19px" viewBox="0 0 23 19" version="1.1" xmlns="http://www.w3.org/2000/svg" xmlns:xlink="http://www.w3.org/1999/xlink">
    <!-- Generator: Sketch 64 (93537) - https://sketch.com -->
    <title>phone</title>
    <desc>Created with Sketch.</desc>
    <g id="Symbols" stroke="none" stroke-width="1" fill="none" fill-rule="evenodd">
        <g id="menu_desktop-LOGOS-seccion" transform="translate(-1447.000000, -32.000000)" fill="#FFFFFF" fill-rule="nonzero">
            <g id="phone" transform="translate(1448.000000, 33.000000)">
                <path d="M20.4489508,13.1149232 L16.1984744,10.8201 C15.6590757,10.5312219 14.9360362,10.6262751 14.5372593,11.0385265 L13.2991398,12.3273061 C13.1400227,12.4971602 12.8507823,12.5464299 12.6205957,12.4429105 L12.3850778,12.3377975 C11.6043379,11.9932752 10.6329035,11.5643571 8.67564042,9.97922923 C6.71837735,8.39410135 6.18750865,7.60704871 5.76195249,6.97613833 L5.63281339,6.78546747 C5.50318219,6.59914589 5.5628921,6.36398627 5.77277901,6.23413885 L7.3636217,5.23207933 C7.87263231,4.90920382 7.9902067,4.32401062 7.63379265,3.88719076 L4.79921215,0.446084774 C4.43394004,0.00126357506 3.70109927,-0.132269106 3.13561851,0.142930395 L1.35822335,1.00730716 C0.799755215,1.2731109 0.390028742,1.70358946 0.214958948,2.20853688 C-0.42507719,4.09652034 0.0564160053,7.3548904 5.98524952,12.1553272 C10.7015125,15.9732264 14.2125456,17 16.6257939,17 C17.1811863,17.0018796 17.7344053,16.9433802 18.2705642,16.8260162 C18.8944016,16.684449 19.4262135,16.3527089 19.7543309,15.9004508 L20.823081,14.4623682 C21.1635013,14.004466 20.9986429,13.4108067 20.4489508,13.1149232 Z M20.2200765,14.1716641 L19.153787,15.6106098 C18.9181871,15.9370378 18.535691,16.1770447 18.0864313,16.2803649 C15.9335526,16.7588847 12.1723202,16.3625363 6.4803989,11.7544636 C0.788477587,7.14639084 0.298946519,4.10163322 0.890017248,2.35843744 C1.01780302,1.99429362 1.31463019,1.68423353 1.71832826,1.49319746 L3.49572342,0.629949515 C3.74108359,0.510427473 4.05915371,0.568362463 4.21765564,0.761390561 L5.75744143,2.63293973 L7.04981658,4.20219774 C7.20458664,4.39167338 7.15373479,4.64562452 6.93293934,4.78583051 L5.34172757,5.78789003 C4.85748673,6.08765795 4.71920251,6.63005562 5.01734198,7.06053417 L5.14369242,7.24639095 C5.59094264,7.91046869 6.14699121,8.7365984 8.17704624,10.3798273 C10.2071013,12.0230229 11.227214,12.4732226 12.047118,12.8352748 L12.2770176,12.9378314 C12.8087065,13.1791663 13.4787206,13.0672472 13.8489959,12.6752149 L15.0867463,11.3869997 C15.2599707,11.2083474 15.5735297,11.1672119 15.8076533,11.2923781 L20.0577606,13.5872013 C20.2963542,13.7154219 20.3679159,13.9730583 20.2200765,14.1716641 Z" id="Shape" stroke="#FFFFFF" stroke-width="0.5"></path>
                <path d="M12.3499877,0.599978906 C15.6345728,0.603107825 18.2963332,2.88465189 18.3000246,5.70001055 C18.3000246,5.8657026 18.4567049,6 18.6500123,6 C18.8433197,6 19,5.8657026 19,5.70001055 C18.9959394,2.55340841 16.0210235,0.00344532596 12.3499877,0 C12.1566803,0 12,0.1342974 12,0.299989453 C12,0.465681507 12.1566803,0.599978906 12.3499877,0.599978906 Z" id="Path"></path>
                <path d="M12.3571309,2.57140944 C14.5257814,2.57345186 16.2831852,3.97937488 16.2857382,5.71429528 C16.2857382,5.8720975 16.4456582,6 16.6428691,6 C16.8401219,6 17,5.8720975 17,5.71429528 C16.9970284,3.66390437 14.9200777,2.00234376 12.3571309,2 C12.1598781,2 12,2.1279025 12,2.28570472 C12,2.44350694 12.1598781,2.57140944 12.3571309,2.57140944 Z" id="Path"></path>
                <path d="M12.374989,4.74997803 C13.4099991,4.75120851 14.2487475,5.58995693 14.250022,6.62501099 C14.250022,6.83212727 14.4179387,7 14.625011,7 C14.8320833,7 15,6.83212727 15,6.62501099 C14.9983301,5.1759441 13.8240559,4.00162599 12.374989,4 C12.1678727,4 12,4.16787273 12,4.37498901 C12,4.58210529 12.1678727,4.74997803 12.374989,4.74997803 Z" id="Path"></path>
            </g>
        </g>
    </g>
</svg>