<?xml version="1.0" encoding="utf-8"?>
<!-- Generator: Adobe Illustrator 24.2.1, SVG Export Plug-In . SVG Version: 6.00 Build 0)  -->
<svg version="1.1" id="Layer_1" xmlns="http://www.w3.org/2000/svg" xmlns:xlink="http://www.w3.org/1999/xlink" x="0px" y="0px"
	 viewBox="0 0 24 24" style="enable-background:new 0 0 24 24;" xml:space="preserve">
<style type="text/css">
	.st0{fill:#FFAE00;}
</style>
<path class="st0" d="M19.7,17.9c0-0.5-0.3-2.7-0.5-3.3C19,14,19.1,13.6,19,13c-0.1-0.5-0.2-1.9-0.5-2.6c-0.3-0.7,0-0.9,0-1.9
	c0-1,0.1-1.4-0.3-2.5c0.4-0.1,0.8-0.3,1.1-0.5l0.6-0.4L19,3.5l0,0c-1.1-1.2-5.3-1.8-7.9-1.8c-0.4,0-0.8,0-1.2,0
	C6.8,2,4.3,2.9,4.3,2.9L3.8,3.1v1.3l0.1,0.2c0,0,0.4,0.5,1.2,1C5.1,5.9,4.7,7.1,4.9,7.5C5,8,5.2,9.7,5.1,10.1c0,0.5-0.5,2.3,0,3
	c0.5,0.7-0.3,4.4-0.8,5.2s-1.3,1.5-1.5,1.8v0.6c0,0,8,3.4,18.3,0v-0.6C21.2,20.2,19.7,18.4,19.7,17.9z M11.3,5.3
	c-0.8,0-1.5,0-2.2-0.1C7.6,5.1,6.5,4.7,6,4.4C5.8,4.3,5.7,4.2,5.6,4.1c0,0,1.2-0.7,2-1.1s2.7-0.8,3.7-0.5c1,0.3,1.9,0,2.9,0.4
	c0.9,0.3,3.2,0.8,3.7,1.6C16.5,5,14,5.3,11.3,5.3z"/>
</svg>
