<?xml version="1.0" encoding="utf-8"?>
<!-- Generator: Adobe Illustrator 24.1.2, SVG Export Plug-In . SVG Version: 6.00 Build 0)  -->
<svg version="1.1" id="Capa_1" xmlns="http://www.w3.org/2000/svg" xmlns:xlink="http://www.w3.org/1999/xlink" x="0px" y="0px"
	 viewBox="0 0 150 36" style="enable-background:new 0 0 150 36;" xml:space="preserve">
<style type="text/css">
	.st0{fill-rule:evenodd;clip-rule:evenodd;fill:#FDC301;}
</style>
<desc>Created with Sketch.</desc>
<g id="Page-1">
	<g id="productos-sabropollo" transform="translate(-824.000000, -911.000000)">
		<g id="Group" transform="translate(824.000000, 911.000000)">
			<polygon id="Path-3" class="st0" points="150,0 139,17.4 150,36 0,36 0,0 			"/>
			<path id="RECETADISPONIBLE" d="M7.6,22.2v-2.3h1.7l1.6,2.3h2L11,19.5c0.5-0.2,0.9-0.6,1.2-1c0.3-0.4,0.4-1,0.4-1.6
				c0-0.6-0.1-1.1-0.4-1.6c-0.3-0.4-0.7-0.8-1.2-1C10.5,14.1,9.9,14,9.2,14l0,0H5.7v8.1H7.6z M9.1,18.4H7.6v-2.8h1.5
				c0.6,0,1,0.1,1.3,0.4c0.3,0.2,0.4,0.6,0.4,1.1c0,0.4-0.1,0.8-0.4,1C10.1,18.3,9.6,18.4,9.1,18.4L9.1,18.4z M20.5,22.2v-1.5h-4.4
				v-1.9h3.8v-1.5h-3.8v-1.8h4.3V14h-6.1v8.1H20.5z M25.8,22.3c0.7,0,1.3-0.1,1.9-0.4c0.6-0.2,1.1-0.6,1.4-1.1l0,0L28,19.7
				c-0.5,0.6-1.2,1-2,1c-0.5,0-1-0.1-1.3-0.3c-0.4-0.2-0.7-0.5-0.9-0.9c-0.2-0.4-0.3-0.8-0.3-1.3s0.1-1,0.3-1.3
				c0.2-0.4,0.5-0.7,0.9-0.9c0.4-0.2,0.8-0.3,1.3-0.3c0.8,0,1.5,0.3,2,1l0,0l1.2-1.1c-0.4-0.5-0.9-0.8-1.4-1.1
				c-0.6-0.2-1.2-0.4-1.9-0.4c-0.8,0-1.6,0.2-2.3,0.5c-0.7,0.4-1.2,0.9-1.6,1.5s-0.6,1.4-0.6,2.2c0,0.8,0.2,1.5,0.6,2.2
				s0.9,1.1,1.6,1.5S25,22.3,25.8,22.3z M36.8,22.2v-1.5h-4.4v-1.9h3.8v-1.5h-3.8v-1.8h4.3V14h-6.1v8.1H36.8z M41.8,22.2v-6.6h2.6
				V14h-7.1v1.5h2.6v6.6H41.8z M45.9,22.2l0.7-1.7h3.8l0.7,1.7h2L49.4,14h-1.9l-3.6,8.1H45.9z M49.8,19h-2.6l1.3-3.1L49.8,19z
				 M60.9,22.2c0.9,0,1.7-0.2,2.3-0.5c0.7-0.3,1.2-0.8,1.6-1.4s0.6-1.3,0.6-2.1s-0.2-1.5-0.6-2.1c-0.4-0.6-0.9-1.1-1.6-1.4
				c-0.7-0.3-1.5-0.5-2.3-0.5l0,0h-3.7v8.1H60.9z M60.8,20.6h-1.7v-5h1.7c0.8,0,1.5,0.2,1.9,0.7c0.5,0.5,0.7,1.1,0.7,1.8
				c0,0.8-0.2,1.4-0.7,1.8C62.2,20.4,61.6,20.6,60.8,20.6L60.8,20.6z M68.7,22.2V14h-1.9v8.1H68.7z M73.2,22.3
				c0.7,0,1.4-0.1,1.9-0.3c0.5-0.2,0.9-0.5,1.2-0.9c0.3-0.4,0.4-0.8,0.4-1.3c0-0.5-0.1-1-0.4-1.3c-0.3-0.3-0.6-0.5-1-0.7
				c-0.4-0.1-0.9-0.3-1.5-0.4c-0.6-0.1-1-0.3-1.3-0.4c-0.3-0.1-0.4-0.3-0.4-0.6c0-0.3,0.1-0.5,0.4-0.7c0.3-0.2,0.6-0.3,1.2-0.3
				c0.8,0,1.5,0.2,2.3,0.6l0,0l0.6-1.4c-0.4-0.2-0.8-0.4-1.3-0.5c-0.5-0.1-1-0.2-1.5-0.2c-0.7,0-1.4,0.1-1.9,0.3
				c-0.5,0.2-0.9,0.5-1.2,0.9c-0.3,0.4-0.4,0.8-0.4,1.3c0,0.5,0.1,1,0.4,1.3c0.3,0.3,0.6,0.6,1,0.7c0.4,0.1,0.9,0.3,1.5,0.4
				c0.4,0.1,0.7,0.2,1,0.3c0.2,0.1,0.4,0.2,0.6,0.3c0.2,0.1,0.2,0.3,0.2,0.5c0,0.3-0.1,0.5-0.4,0.6c-0.3,0.2-0.6,0.2-1.2,0.2
				c-0.5,0-1-0.1-1.4-0.2s-0.9-0.4-1.2-0.6l0,0l-0.6,1.4c0.4,0.3,0.8,0.5,1.4,0.7C72,22.2,72.6,22.3,73.2,22.3z M79.9,22.2v-2.2h1.6
				c0.7,0,1.3-0.1,1.9-0.4c0.5-0.2,0.9-0.6,1.2-1c0.3-0.4,0.4-1,0.4-1.6c0-0.6-0.1-1.1-0.4-1.6c-0.3-0.4-0.7-0.8-1.2-1
				c-0.5-0.2-1.2-0.4-1.9-0.4l0,0H78v8.1H79.9z M81.4,18.4h-1.5v-2.8h1.5c0.6,0,1,0.1,1.3,0.4s0.4,0.6,0.4,1.1c0,0.4-0.1,0.8-0.4,1
				C82.4,18.3,82,18.4,81.4,18.4L81.4,18.4z M90.4,22.3c0.8,0,1.6-0.2,2.3-0.5c0.7-0.4,1.2-0.9,1.6-1.5s0.6-1.4,0.6-2.2
				c0-0.8-0.2-1.5-0.6-2.2c-0.4-0.6-0.9-1.1-1.6-1.5s-1.4-0.5-2.3-0.5s-1.6,0.2-2.3,0.5c-0.7,0.4-1.2,0.9-1.6,1.5
				c-0.4,0.6-0.6,1.4-0.6,2.2c0,0.8,0.2,1.5,0.6,2.2c0.4,0.6,0.9,1.1,1.6,1.5C88.8,22.1,89.6,22.3,90.4,22.3z M90.4,20.7
				c-0.5,0-0.9-0.1-1.3-0.3c-0.4-0.2-0.7-0.5-0.9-0.9c-0.2-0.4-0.3-0.8-0.3-1.3s0.1-1,0.3-1.3c0.2-0.4,0.5-0.7,0.9-0.9
				c0.4-0.2,0.8-0.3,1.3-0.3s0.9,0.1,1.3,0.3s0.7,0.5,0.9,0.9c0.2,0.4,0.3,0.8,0.3,1.3s-0.1,1-0.3,1.3c-0.2,0.4-0.5,0.7-0.9,0.9
				S90.9,20.7,90.4,20.7z M98.1,22.2v-4.9l4,4.9h1.5V14h-1.9V19l-4-4.9h-1.6v8.1H98.1z M107.5,22.2V14h-1.9v8.1H107.5z M113.6,22.2
				c1.1,0,1.9-0.2,2.4-0.6c0.6-0.4,0.8-0.9,0.8-1.6c0-0.5-0.1-0.9-0.4-1.3c-0.3-0.3-0.6-0.6-1.1-0.7c0.3-0.2,0.6-0.4,0.8-0.7
				c0.2-0.3,0.3-0.7,0.3-1.1c0-0.6-0.3-1.2-0.8-1.5c-0.5-0.4-1.3-0.6-2.3-0.6l0,0h-4v8.1H113.6z M113.2,17.4h-1.9v-1.9h1.9
				c0.5,0,0.8,0.1,1.1,0.2c0.2,0.2,0.4,0.4,0.4,0.7s-0.1,0.6-0.4,0.7C114,17.3,113.6,17.4,113.2,17.4L113.2,17.4z M113.5,20.7h-2.2
				v-2h2.2c1,0,1.5,0.3,1.5,1c0,0.3-0.1,0.6-0.4,0.8C114.4,20.7,114,20.7,113.5,20.7L113.5,20.7z M124.3,22.2v-1.5h-4.1V14h-1.9v8.1
				H124.3z M131.6,22.2v-1.5h-4.4v-1.9h3.8v-1.5h-3.8v-1.8h4.3V14h-6.1v8.1H131.6z"/>
		</g>
	</g>
</g>
</svg>
