<?xml version="1.0" encoding="utf-8"?>
<!-- Generator: Adobe Illustrator 24.1.2, SVG Export Plug-In . SVG Version: 6.00 Build 0)  -->
<svg version="1.1" id="Capa_2" xmlns="http://www.w3.org/2000/svg" xmlns:xlink="http://www.w3.org/1999/xlink" x="0px" y="0px"
	 viewBox="0 0 113.58 174.11" style="enable-background:new 0 0 113.58 174.11;" xml:space="preserve">
<style type="text/css">
	.st0{fill:#FFFFFF;}
</style>
<g>
	<path class="st0" d="M0.65,35.47C0.43,34.6,4.69,7.6,4.69,7.6s1.12-7.78,5.91-7.23c4.04,0.47,3.43,4.8,1.41,10.61
		c-1.75,5.01-7.7,23.11-9.2,25.25C1.47,36.73,0.82,36.05,0.65,35.47z"/>
	<path class="st0" d="M59.41,155.86c0.77,0,22.19,9.33,22.19,9.33s6.2,2.6,4.71,6.44c-1.26,3.24-4.71,1.8-9.07-1.11
		c-3.77-2.52-17.46-11.33-18.9-13.03C58.2,156.27,58.9,155.88,59.41,155.86z"/>
	<path class="st0" d="M56.32,104.01c0.84-0.6,31.09-7.97,31.09-7.97s8.68-2.24,10.01,2.74c1.12,4.19-3.7,5.45-10.65,5.94
		c-6,0.43-27.52,2.31-30.38,1.75C55.32,105.35,55.78,104.42,56.32,104.01z"/>
	<path class="st0" d="M31.33,62.53C32,61.5,60.54,37.46,60.54,37.46s8.15-7.01,11.11-3.16c2.49,3.24-2.03,7.15-8.97,11.56
		c-6,3.81-27.38,17.8-30.49,18.9C30.75,64.34,30.92,63.22,31.33,62.53z"/>
	<path class="st0" d="M19.93,43.14c0.33-1.21,19.56-34.25,19.56-34.25s5.46-9.57,9.04-7.07c3.02,2.1-0.01,7.43-5.04,14.12
		c-4.35,5.78-19.77,26.78-22.24,28.97C19.86,45.05,19.73,43.93,19.93,43.14z"/>
	<path class="st0" d="M63.32,132.21c1.24-0.21,39.3,3.4,39.3,3.4s10.98,0.94,10.21,5.24c-0.64,3.62-6.75,3.11-14.94,1.34
		c-7.08-1.53-32.6-6.72-35.62-8.05C61.56,132.95,62.51,132.37,63.32,132.21z"/>
	<path class="st0" d="M46.87,84.97C48,83.9,88.65,58.98,88.65,58.98s11.66-7.26,13.4-3.22c1.46,3.41-5.02,7.46-14.34,12.02
		c-8.05,3.94-36.93,18.4-40.76,19.53C45.52,86.86,46.14,85.69,46.87,84.97z"/>
</g>
</svg>
