<?xml version="1.0" encoding="UTF-8"?>
<svg width="119px" height="12px" viewBox="0 0 119 12" version="1.1" xmlns="http://www.w3.org/2000/svg" xmlns:xlink="http://www.w3.org/1999/xlink">
    <!-- Generator: sketchtool 53 (72520) - https://sketchapp.com -->
    <title>75EB5F73-26CF-4C73-9274-88438FB9A50B</title>
    <desc>Created with sketchtool.</desc>
    <g id="Page-1" stroke="none" stroke-width="1" fill="none" fill-rule="evenodd">
        <g id="index-sabropollo" transform="translate(-1027.000000, -1558.000000)" fill="#FFFFFF">
            <g id="footer" transform="translate(0.000000, 1525.000000)">
                <g id="siempre-confiable-blanco" transform="translate(1026.000000, 32.000000)">
                    <path d="M108.768625,10.5226396 L108.768625,9.03968189 L108.902535,9.03968189 C109.100331,9.03550317 109.296705,9.00781066 109.486757,8.95729535 C109.641842,8.88413871 109.791447,8.80156921 109.934578,8.71013573 L110.069734,8.58655592 C110.270506,8.35862308 110.559585,8.21098478 110.876309,8.17462322 C111.069726,8.15418748 111.259649,8.23338769 111.370219,8.38058957 C111.505786,8.49935626 111.585937,8.66178329 111.593818,8.83371554 C111.590207,8.9747706 111.559857,9.11416789 111.504129,9.24564824 C111.399921,9.40647417 111.27983,9.55815503 111.145375,9.69877421 C110.845393,9.96016239 110.496374,10.1695045 110.115201,10.3166733 C109.681816,10.4516405 109.227483,10.5211976 108.769871,10.5226396 L108.768625,10.5226396 Z M108.768625,7.43314435 L108.768625,6.23853952 L110.113955,6.23853952 C110.133336,5.86677118 110.005941,5.50107463 109.7552,5.20870776 C109.489775,4.97875056 109.132855,4.85952825 108.768625,4.8791616 L108.768625,3.39620388 C109.646102,3.35818868 110.497876,3.67416832 111.10053,4.26126255 C111.712549,4.9274959 112.032317,5.77932526 111.997417,6.65047222 C112.004549,6.86802768 111.942426,7.0827681 111.818662,7.26837127 C111.728351,7.39195108 111.459908,7.43314435 111.008973,7.43314435 L108.766757,7.43314435 L108.768625,7.43314435 Z M108.768625,3.39620388 L108.768625,4.8791616 L108.768625,4.8791616 C108.432333,4.86632569 108.10613,4.98626686 107.872362,5.20870776 C107.624195,5.50491737 107.483077,5.86499748 107.468763,6.23853952 L108.769248,6.23853952 L108.769248,7.43314435 L107.468763,7.43314435 C107.435793,7.86371174 107.579809,8.28998107 107.872362,8.62774919 C108.101403,8.86693313 108.422909,9.01470084 108.768625,9.03968189 L108.768625,10.5226396 L108.768625,10.5226396 C107.863981,10.5544049 106.997321,10.1869744 106.43672,9.53400113 C105.817657,8.77828783 105.514231,7.84366441 105.581564,6.89992036 C105.518954,5.9817511 105.822012,5.07400313 106.434229,4.34593761 C106.982083,3.7056174 107.83615,3.35180869 108.72129,3.39849239 L108.768625,3.39620388 Z M97.9150525,10.4814463 L97.9150525,8.99848862 L97.9150525,8.99848862 C98.3626576,9.00314925 98.7832514,8.80224693 99.0361607,8.46297611 C99.3001925,7.97818198 99.423751,7.43906246 99.3949153,6.89763184 C99.423912,6.39045205 99.2830588,5.88728626 98.9913164,5.45586739 C98.7650929,5.11103099 98.3530694,4.90602204 97.9150525,4.92035487 L97.9150525,4.92035487 L97.9150525,3.43739715 C98.0765682,3.40131881 98.2430146,3.38743679 98.4089629,3.39620388 C99.2187011,3.39716715 99.974987,3.7676802 100.426958,4.38484236 C100.963058,5.15834215 101.229253,6.06377191 101.189934,6.98001838 C101.236381,7.8840764 100.969227,8.77834408 100.426958,9.53400113 C99.9750631,10.1512407 99.2187287,10.5217775 98.4089629,10.5226396 C98.2430166,10.5312973 98.0765877,10.5174168 97.9150525,10.4814463 L97.9150525,10.4814463 Z M102.49042,2.1192125 C102.476004,1.85565964 102.55441,1.59485314 102.714018,1.37544513 C103.090711,1.04589896 103.682656,1.04589896 104.059348,1.37544513 C104.239509,1.58576314 104.320081,1.85377327 104.282947,2.1192125 L104.282947,9.41042132 C104.320081,9.67586055 104.239509,9.94387068 104.059348,10.1541887 C103.682656,10.4837349 103.090711,10.4837349 102.714018,10.1541887 C102.554369,9.93479785 102.475959,9.67397869 102.49042,9.41042132 L102.49042,2.1192125 Z M97.9150525,3.43510863 L97.9150525,4.92035487 C97.4723705,4.93377071 97.060136,5.1306801 96.7939443,5.45586739 C96.5351346,5.92760396 96.4116542,6.45220444 96.4351897,6.98001838 C96.4051379,7.49515404 96.5292084,8.00801539 96.7939443,8.46297611 C97.0329024,8.8163914 97.4628542,9.02176369 97.9150525,8.99848862 L97.9150525,10.4814463 C97.6771224,10.4349149 97.4496167,10.3513217 97.2423876,10.2342867 C96.8943485,10.0224081 96.6032241,9.74070517 96.3909682,9.41042132 L96.3909682,9.5751944 C96.4076947,9.80014525 96.3273738,10.0221063 96.1673695,10.1930935 C96.0064388,10.3506475 95.7727241,10.4273213 95.5395489,10.3990598 C95.2877902,10.4055437 95.044324,10.316086 94.866884,10.1519002 C94.7067002,9.93273439 94.6282402,9.67174895 94.6432852,9.4081328 L94.6432852,2.1192125 C94.6282854,1.85560089 94.7067416,1.59462835 94.866884,1.37544513 C95.044324,1.21125927 95.2877902,1.12180163 95.5395489,1.1282855 C95.7941703,1.10537802 96.0450312,1.19755271 96.2122138,1.37544513 C96.3718222,1.59485314 96.4502285,1.85565964 96.4358126,2.1192125 L96.4358126,4.46494039 C96.6317686,4.13676574 96.9078483,3.85476771 97.2423876,3.64107498 C97.4594786,3.55414125 97.6845964,3.48521138 97.9150525,3.43510863 L97.9150525,3.43510863 Z M90.0672954,10.3967713 L90.0672954,9.16097318 C90.3796672,9.11049479 90.6646835,8.96549158 90.8769846,8.74904048 C91.1873416,8.45114335 91.3496646,8.04855355 91.3254278,7.63682219 L91.3254278,7.01892314 C90.9917352,7.15335458 90.6470798,7.26354108 90.2946312,7.3484693 C90.2169315,7.34207714 90.1388717,7.35637829 90.0697867,7.38966257 L90.0697867,6.19734625 C90.1031037,6.19259886 90.1338847,6.1781606 90.1576068,6.15615298 C90.4451196,6.1388345 90.7303144,6.09746997 91.009649,6.03257317 C91.1019386,6.00155909 91.1806725,5.94370014 91.2338707,5.86780009 C91.2737187,5.76203567 91.2889951,5.64977419 91.278715,5.53825393 C91.3066155,5.32435078 91.2235959,5.11082137 91.0544934,4.96154814 C90.7997207,4.81525652 90.5026134,4.743436 90.2024512,4.75558179 L90.0672954,4.75558179 L90.0672954,3.39620388 L90.1121397,3.39620388 C90.8771731,3.34541471 91.6415208,3.5030329 92.3095117,3.84932985 C92.7875518,4.17738413 93.056538,4.70244261 93.0270209,5.24990103 L93.0270209,9.08316367 C93.0270209,9.20674348 93.0712424,9.36922805 93.0712424,9.53628965 C93.1012357,9.64396584 93.1163031,9.75469084 93.1160867,9.86583581 C93.1180084,10.0517152 93.0372458,10.2302603 92.8924879,10.360155 C92.7316661,10.4873316 92.5203462,10.5470593 92.3095117,10.5249281 C92.0420222,10.5472695 91.7780553,10.4562621 91.5926253,10.2777685 C91.4103202,10.0361768 91.3159176,9.74778853 91.3229365,9.4539031 C91.1203735,9.80472148 90.8079622,10.0916974 90.42605,10.2777685 C90.3093548,10.3250752 90.1895329,10.3655857 90.0672954,10.3990598 L90.0672954,10.3967713 Z M90.0672954,3.39391536 L90.0672954,4.75558179 C89.8885409,4.79677506 89.7558764,4.79677506 89.6194749,4.83796833 C89.4531646,4.9091692 89.3012971,5.00591188 89.1704088,5.12403271 C89.0844778,5.18138402 89.0090052,5.25090499 88.94681,5.32999906 C88.7606008,5.58115596 88.4654876,5.74631 88.1371208,5.78312503 C87.9499551,5.77606548 87.7731846,5.70216377 87.644456,5.57715868 C87.5056149,5.42725972 87.4265278,5.23837444 87.4202344,5.04164617 C87.4470062,4.56386931 87.7334683,4.13046318 88.182588,3.8882346 C88.7417015,3.55307618 89.3979468,3.38078598 90.0654268,3.39391536 L90.0672954,3.39391536 Z M90.0672954,6.19734625 L90.0672954,7.39195108 C89.9463384,7.41325483 89.8267742,7.44076001 89.7091636,7.47433762 C89.4586792,7.53128991 89.2275299,7.64453256 89.0364987,7.80388378 C88.8981229,7.96774326 88.8338724,8.17431128 88.8571214,8.38058957 C88.8557346,8.59096144 88.9348787,8.79508986 89.0807202,8.95729535 C89.28781,9.09822364 89.5406322,9.17079815 89.7982294,9.1632617 L90.0672954,9.1632617 L90.0672954,10.3990598 C89.7772813,10.4833741 89.4745896,10.5250812 89.1704088,10.5226396 C88.6000702,10.5653245 88.0391991,10.3694155 87.6438332,9.98941562 C87.2609234,9.56220953 87.0684201,9.01761271 87.1050784,8.46526462 C87.0826044,7.96570033 87.240478,7.47331594 87.5541445,7.06469344 C87.9790147,6.67113729 88.5283039,6.41084419 89.123696,6.32092606 C89.3479176,6.27973279 89.7072951,6.23853952 90.0654268,6.19734625 L90.0672954,6.19734625 Z M67.6009105,10.5226396 L67.6009105,9.03968189 L67.6009105,9.03968189 C68.0750506,9.05746241 68.5220285,8.83637731 68.766863,8.46297611 C69.1057308,8.01870965 69.264406,7.47941066 69.2153063,6.93882511 C69.2576198,6.39882228 69.099549,5.86157738 68.766863,5.41467411 C68.5158708,5.0518989 68.0674489,4.84594235 67.6009105,4.8791616 L67.6009105,4.8791616 L67.6009105,3.39620388 L67.6009105,3.39620388 C68.5535568,3.33207523 69.4836221,3.68296607 70.1121928,4.34364909 C70.7796485,5.06428599 71.1171831,5.99444722 71.0539237,6.93882511 C71.1089288,7.89474559 70.773048,8.83504157 70.1121928,9.5751944 C69.4715833,10.2202493 68.5501622,10.5678789 67.6009105,10.5226396 L67.6009105,10.5226396 Z M74.1033379,9.41042132 C74.117884,9.67406941 74.0392309,9.93497031 73.8791163,10.1541887 C73.6885558,10.3257821 73.4280088,10.4155324 73.161607,10.4013483 C72.910036,10.4078104 72.6667714,10.318344 72.489565,10.1541887 C72.328942,9.9351615 72.2500416,9.67416515 72.2647205,9.41042132 L72.2647205,4.50842217 C72.2515261,4.23262287 72.3299429,3.95965794 72.489565,3.72575004 C72.6668134,3.56165301 72.9100493,3.47219715 73.161607,3.47859042 C73.3922783,3.46954743 73.6177071,3.54342955 73.7900505,3.68455677 C73.931158,3.86467274 74.0091559,4.08001471 74.0136492,4.30188369 L74.0136492,4.54904331 C74.2277784,4.19539947 74.5364445,3.89768698 74.9105358,3.68398464 C75.2621554,3.4892878 75.6666381,3.39010169 76.0771111,3.39792026 C76.6987181,3.3357023 77.3152814,3.5500026 77.7363512,3.97462605 C78.1671478,4.4771461 78.375174,5.1107048 78.3187046,5.74822518 L78.3187046,9.41442622 C78.3331652,9.67798359 78.2547551,9.93880275 78.0951058,10.1581936 C77.7184135,10.4877398 77.1264684,10.4877398 76.749776,10.1581936 C76.5693941,9.94796258 76.4885951,9.67994384 76.5255544,9.41442622 L76.5255544,6.27973279 C76.562491,5.91848042 76.4676184,5.55620038 76.2558656,5.24990103 C76.0718713,5.0139199 75.7632922,4.8878423 75.4492905,4.92035487 C75.0767236,4.90273279 74.715012,5.03865833 74.4627153,5.2910943 C74.199237,5.57711085 74.070195,5.94753555 74.1039607,6.32092606 L74.1039607,9.41042132 L74.1033379,9.41042132 Z M81.9510951,4.8791616 L81.9510951,9.41042132 C81.9876611,9.6758233 81.9071489,9.94363499 81.7274963,10.1541887 C81.5602511,10.3320004 81.3094376,10.4241577 81.0548314,10.4013483 C80.8143626,10.4160886 80.5807413,10.324208 80.426388,10.1541887 C80.2462607,9.94383924 80.1654919,9.67592015 80.2021663,9.41042132 L80.2021663,4.8791616 L79.796076,4.8791616 C79.599657,4.89460326 79.4049931,4.83499822 79.2579441,4.71438852 C79.1274299,4.59559542 79.0618205,4.42928169 79.0791896,4.26126255 C79.054144,4.08011997 79.1198867,3.89831804 79.2579441,3.76694331 C79.4153118,3.66375798 79.6027834,3.60635519 79.796076,3.60217023 L80.1990521,3.60217023 L80.1990521,2.94307791 C80.1387227,2.43288272 80.3184261,1.92330142 80.6929626,1.54250672 C81.1210099,1.22425413 81.6695728,1.0759874 82.2170468,1.13057402 C82.5196132,1.09187083 82.8264545,1.16604436 83.069089,1.33654037 C83.2629653,1.48975859 83.3635685,1.7200429 83.3387778,1.95386729 C83.3487082,2.11440508 83.3012467,2.27352521 83.203622,2.40699327 C83.1116819,2.52488794 82.9575412,2.58791461 82.8006459,2.57176635 L82.5764243,2.57176635 C82.5064682,2.54203693 82.4298513,2.52792192 82.3528255,2.53057308 C82.2343465,2.52798045 82.1205634,2.57313282 82.0414066,2.65415289 C81.9756471,2.78278509 81.9446656,2.92409897 81.9510951,3.06608559 L81.9510951,3.6015981 L82.5340713,3.6015981 C82.727384,3.60567759 82.9148885,3.66309045 83.0722032,3.76637118 C83.1916579,3.90751075 83.2549548,4.08194129 83.2515805,4.26069042 C83.2476147,4.42573449 83.1845736,4.58498273 83.0722032,4.71381639 C82.9252301,4.83454629 82.7305081,4.89416911 82.5340713,4.87858947 L81.9510951,4.8791616 Z M85.8525515,9.41042132 C85.8673258,9.67401031 85.7888889,9.9349186 85.6289527,10.1541887 C85.2522603,10.4837349 84.6603152,10.4837349 84.2836229,10.1541887 C84.1034957,9.94383924 84.0227268,9.67592015 84.0594013,9.41042132 L84.0594013,4.50842217 C84.0243036,4.23091126 84.1043658,3.95144443 84.2836229,3.72575004 C84.6603152,3.39620388 85.2522603,3.39620388 85.6289527,3.72575004 C85.7878831,3.95988735 85.8658417,4.23276917 85.8525515,4.50842217 L85.8525515,9.41042132 L85.8525515,9.41042132 Z M84.0139341,2.07801923 C83.9979133,1.83365866 84.0946827,1.59440134 84.2805087,1.41892691 C84.4412593,1.22935607 84.6918105,1.1228041 84.9531736,1.13286253 C85.2049056,1.126516 85.4483147,1.21595263 85.6258385,1.38002216 C85.8061238,1.57516732 85.9019019,1.82444439 85.8949045,2.08030775 C85.8939549,2.32250113 85.7984883,2.55635209 85.6258385,2.73940007 C85.4590967,2.92220021 85.2127977,3.02779848 84.9531736,3.02779848 C84.6935495,3.02779848 84.4472505,2.92220021 84.2805087,2.73940007 C84.1080057,2.55553426 84.0133718,2.32074428 84.0139341,2.07801923 Z M67.6009105,3.39391536 L67.6009105,4.8791616 C67.1364771,4.85554764 66.6930525,5.05920896 66.434958,5.41467411 C66.1385142,5.8745886 65.9980016,6.40522005 66.0313591,6.93882511 C65.9918907,7.47292553 66.1328383,8.00519989 66.434958,8.46297611 C66.6875279,8.82883459 67.1293678,9.0473783 67.6009105,9.03968189 L67.6009105,10.5226396 C66.654839,10.5512279 65.7407164,10.2063519 65.0896282,9.5751944 C64.4627724,8.8205128 64.145439,7.88707321 64.1933645,6.93882511 C64.1374531,6.00229607 64.4562163,5.07930147 65.0896282,4.34364909 C65.7287251,3.69661099 66.6512174,3.34857727 67.6009105,3.39620388 L67.6009105,3.39391536 Z M47.0622089,10.5226396 L47.0622089,9.03968189 L47.1967419,9.03968189 C47.3790793,9.03225075 47.5597688,9.00458768 47.7348738,8.95729535 C47.9041347,8.88368325 48.0686298,8.80115952 48.2275386,8.71013573 C48.2275386,8.66894246 48.2723829,8.62774919 48.3178501,8.58655592 C48.5193721,8.35798017 48.8096973,8.21027603 49.1275393,8.17462322 C49.3334794,8.15408993 49.5365322,8.23180704 49.6656712,8.38058957 C49.7893227,8.5033177 49.8537809,8.66671338 49.8444257,8.83371554 C49.8409758,8.97473281 49.8108377,9.114123 49.7553599,9.24564824 C49.6663111,9.41507586 49.5450287,9.56852828 49.3972281,9.69877421 C49.0967551,9.96013884 48.7473331,10.1694693 48.3658086,10.3166733 C47.9469502,10.4482563 47.5079671,10.5177809 47.0653231,10.5226396 L47.0622089,10.5226396 Z M47.0622089,7.43314435 L47.0622089,6.23853952 L48.3626944,6.23853952 C48.3820755,5.86677118 48.2546806,5.50107463 48.0039398,5.20870776 C47.7519375,4.98570484 47.4118624,4.8667001 47.0622089,4.8791616 L47.0622089,3.39620388 C47.9250557,3.36625917 48.7595515,3.68189919 49.3492696,4.26126255 C49.9610638,4.92757953 50.2806071,5.77940012 50.2455333,6.65047222 C50.2748113,6.86989968 50.2107784,7.09124178 50.0667788,7.26837127 C49.9764673,7.39195108 49.7080242,7.43314435 49.2570896,7.43314435 L47.0622089,7.43314435 L47.0622089,7.43314435 Z M54.8202774,5.90899336 C54.746224,4.61364757 55.157984,3.33414762 55.9868528,2.28398558 C56.7997996,1.41078892 58.0113145,0.93810699 59.2598658,1.00699421 C59.76064,1.00889301 60.2584002,1.07828778 60.7372372,1.21296056 C61.2123362,1.37403983 61.6526291,1.61112878 62.0377227,1.91324615 C62.2974314,2.11575258 62.5239854,2.35160928 62.7103876,2.61353174 C62.8629298,2.85020944 62.9407806,3.12120435 62.935232,3.39620388 C62.9653486,3.63524311 62.8836276,3.87479413 62.7103876,4.0552962 C62.5379218,4.22625658 62.2909655,4.31699659 62.0377227,4.30245582 C61.8994964,4.29476247 61.7634771,4.26695397 61.6347466,4.22006928 C61.4750931,4.13892826 61.3248387,4.04308016 61.1863033,3.9340049 C61.141459,3.85161836 61.0511475,3.76923182 60.9620817,3.60445874 C60.9080338,3.5186738 60.8481213,3.43612179 60.7827044,3.35729912 C60.6094528,3.12432519 60.3571836,2.9505274 60.0651951,2.86297988 C59.7732361,2.72737568 59.4506227,2.65681678 59.1234643,2.65701353 C58.4292672,2.65219471 57.7761931,2.95887366 57.3739127,3.47859042 C56.92606,4.1753656 56.7095788,4.97715331 56.7510748,5.78541355 C56.7040641,6.5817516 56.923121,7.37226723 57.3788954,8.0510434 C57.8105806,8.5827247 58.4956341,8.88969008 59.2175128,8.87490881 C59.5391474,8.86789419 59.8573233,8.81222348 60.1592437,8.71013573 C60.4200884,8.59248534 60.6496958,8.42375441 60.8319086,8.21581649 C60.9169843,8.12780202 60.9919163,8.03193665 61.0555074,7.92975211 L61.1906632,7.68259249 C61.3700405,7.47662614 61.5020821,7.31185306 61.6391064,7.27065979 C61.7706459,7.18702984 61.9276173,7.14377243 62.0875497,7.14707998 C62.3262635,7.1403824 62.5560199,7.2308326 62.7153703,7.3942396 C62.8859177,7.54541393 62.9831071,7.75324495 62.9850591,7.97094538 C62.9908288,8.24589376 62.9131923,8.51689299 62.7608374,8.75361751 C62.5950568,9.03009023 62.3832236,9.28104508 62.1330169,9.49738489 C61.7436665,9.84580535 61.2875619,10.1251188 60.7876871,10.3212503 C60.2549065,10.493251 59.6930972,10.5769378 59.128447,10.5684099 C57.9305728,10.6242642 56.7719254,10.1680388 55.989967,9.33261181 C55.1654544,8.3573163 54.7502924,7.14215953 54.8202774,5.90899336 L54.8202774,5.90899336 Z M47.0622089,3.39620388 L47.0622089,4.8791616 L47.0173646,4.8791616 C46.6824213,4.87424208 46.3593298,4.99295672 46.1204781,5.20870776 C45.8728274,5.50517633 45.7317707,5.86509981 45.7168791,6.23853952 L47.0622089,6.23853952 L47.0622089,7.43314435 L45.7168791,7.43314435 C45.6842154,7.86367912 45.8281975,8.2898488 46.1204781,8.62774919 C46.3613105,8.87580329 46.7007661,9.02428827 47.0622089,9.03968189 L47.0622089,10.5226396 L47.0173646,10.5226396 C46.1122838,10.5538595 45.2455427,10.1855439 44.6854596,9.53171262 C44.0873365,8.76742569 43.7871598,7.84023843 43.8334174,6.89992036 C43.7919913,5.98424106 44.0926325,5.08307368 44.6854596,4.34593761 C45.251809,3.70419999 46.1194678,3.35167311 47.0173646,3.39849239 L47.0622089,3.39620388 Z M34.7748634,10.4814463 L34.7748634,8.95958386 L34.8197077,8.95958386 C35.2456969,8.9697503 35.6492321,8.78440988 35.8959716,8.46526462 C36.1498433,8.00668385 36.2730561,7.49648256 36.2541034,6.9823069 C36.2778039,6.45454473 36.15454,5.9299532 35.8959716,5.4581559 C35.6566336,5.10511751 35.226944,4.89987048 34.7748634,4.92264339 L34.7748634,3.43739715 C34.93651,3.40324874 35.1024507,3.38939143 35.268151,3.39620388 C36.0690755,3.38962642 36.8228094,3.74350327 37.2861457,4.34364909 C37.8423835,5.10884865 38.1101771,6.02046168 38.0484993,6.93882511 C38.1096713,7.85642445 37.8418975,8.76716626 37.2861457,9.53171262 C36.8487071,10.1634731 36.0829912,10.538606 35.268151,10.5203511 C35.1024534,10.5270582 34.936528,10.5132022 34.7748634,10.4791578 L34.7748634,10.4814463 Z M40.9633805,4.8791616 C41.0996172,4.48381891 41.3471384,4.12855491 41.6808897,3.84932985 C41.8961339,3.62193933 42.2050391,3.48752892 42.5329319,3.47859042 C42.7991573,3.46435382 43.059535,3.55412376 43.2498183,3.72575004 C43.4037684,3.931346 43.4825147,4.1766039 43.4746628,4.42603563 C43.4820506,4.5510409 43.4668983,4.67630838 43.4298185,4.79677506 C43.3811119,4.90725645 43.3042118,5.00536643 43.2055968,5.08283944 C43.0208697,5.19798202 42.8008416,5.25572896 42.5777763,5.24761252 C42.398399,5.24761252 42.2663573,5.28880579 42.1741773,5.28880579 C41.8501873,5.33684553 41.5595488,5.49949541 41.3644881,5.74193176 C41.1651489,6.05293354 41.0714572,6.4115321 41.0954221,6.77176351 L41.0954221,9.4081328 C41.1320966,9.67363163 41.0513277,9.94155072 40.8712005,10.1519002 C40.4945082,10.4814463 39.902563,10.4814463 39.5258707,10.1519002 C39.365756,9.93268179 39.2871029,9.67178089 39.3016491,9.4081328 L39.3016491,4.50842217 C39.2885841,4.23271356 39.3667582,3.95983775 39.5258707,3.72575004 C39.680224,3.55573073 39.9138454,3.46385011 40.1543141,3.47859042 C40.3834728,3.47713413 40.6058262,3.55008064 40.7821347,3.68455677 C40.9141664,3.8512906 40.9775093,4.05565013 40.9608891,4.26126255 L40.9608891,4.8791616 L40.9633805,4.8791616 Z M34.7748634,3.43739715 L34.7748634,4.92035487 L34.7748634,4.92035487 C34.322724,4.89733121 33.8929036,5.10264077 33.6537553,5.45586739 C33.3887786,5.91074614 33.2646929,6.42367002 33.2950006,6.93882511 C33.2614556,7.47237203 33.4017502,8.00299942 33.6979767,8.46297611 C33.9378588,8.78938506 34.3460399,8.97685929 34.7742406,8.95729535 L34.7742406,10.4814463 C34.5478354,10.4421443 34.3335441,10.3577823 34.14642,10.2342867 C33.7799648,10.0622715 33.481994,9.78836009 33.2950006,9.45161459 L33.2950006,12.0055973 C33.3098173,12.2692728 33.231141,12.5302507 33.070779,12.7493647 C32.9036592,12.9273379 32.6527508,13.0195301 32.3981141,12.9965243 C32.1464087,13.002734 31.9030566,12.9133183 31.7254492,12.7493647 C31.5658815,12.5299395 31.4874791,12.2691457 31.5018504,12.0055973 L31.5018504,4.50842217 C31.4891068,4.23282291 31.5670237,3.96008707 31.7254492,3.72575004 C31.9161373,3.55434087 32.1765924,3.4646222 32.4429584,3.47859042 C32.6584915,3.47689972 32.8666664,3.5505269 33.0253118,3.68455677 C33.1864488,3.85478313 33.2673329,4.0768563 33.2501563,4.30188369 L33.2943778,4.54904331 C33.4617119,4.19146852 33.744288,3.88956885 34.104067,3.68398464 C34.3073065,3.55981988 34.536338,3.47566602 34.7767319,3.43682502 L34.7748634,3.43739715 Z M15.9402462,10.5226396 L15.9402462,9.03968189 L16.075402,9.03968189 C16.2579108,9.03570014 16.4388825,9.00796175 16.6129111,8.95729535 C16.7823698,8.88367685 16.9470718,8.80115365 17.1061987,8.71013573 C17.1061987,8.66894246 17.151043,8.62774919 17.2407317,8.58655592 C17.4357306,8.35094675 17.7295491,8.20146539 18.0504209,8.17462322 C18.2419023,8.16279272 18.4270291,8.24018793 18.5430857,8.38058957 C18.6673133,8.50306329 18.7322492,8.66653046 18.7230858,8.83371554 C18.7416414,8.97629389 18.7102237,9.12059317 18.6333972,9.24564824 C18.544127,9.41510144 18.4226356,9.56855148 18.2746426,9.69877421 C17.9743919,9.96039751 17.6249156,10.1697605 17.2432231,10.3166733 C16.8243962,10.4483699 16.3853932,10.5178976 15.9427376,10.5226396 L15.9402462,10.5226396 Z M15.9402462,7.43314435 L15.9402462,6.23853952 L17.2407317,6.23853952 C17.2604526,5.86673015 17.1330205,5.50092684 16.8819771,5.20870776 C16.6300935,4.98553303 16.2899355,4.86649928 15.9402462,4.8791616 L15.9402462,3.39620388 C16.8031226,3.36610641 17.6376849,3.68177155 18.2273069,4.26126255 C18.8395905,4.9273576 19.1593956,5.77928409 19.1241934,6.65047222 C19.1539539,6.87001671 19.0896307,7.09158994 18.9448161,7.26837127 C18.8551275,7.39195108 18.5860615,7.43314435 18.1351269,7.43314435 L15.9402462,7.43314435 Z M25.8059981,4.34364909 C26.009634,4.0387112 26.306064,3.79525611 26.6586631,3.6433635 C26.9873108,3.47499834 27.3586907,3.38971247 27.734927,3.39620388 C28.3352666,3.37799979 28.9175366,3.58640437 29.3462085,3.97290966 C29.7558928,4.42082555 29.9643628,4.9953169 29.9291848,5.5794472 L29.9291848,9.41270983 C29.9658592,9.67820866 29.8850904,9.94612775 29.7049632,10.1564772 C29.5377806,10.3343696 29.2869197,10.4265443 29.0322983,10.4036368 C28.7918471,10.4182827 28.5582705,10.3264196 28.4038548,10.1564772 C28.2087502,9.95197489 28.1117368,9.68380504 28.1347889,9.41270983 L28.1347889,5.95018663 C28.1580562,5.67906733 28.0610157,5.41082253 27.8657229,5.20641925 C27.698766,5.00085668 27.4257013,4.89198829 27.1482137,4.92035487 C26.8266552,4.91566534 26.517733,5.03523525 26.2967943,5.24990103 C26.0875374,5.52796621 25.9786082,5.85936673 25.9853754,6.19734625 L25.9853754,9.41042132 C26.0220499,9.67592015 25.941281,9.94383924 25.7611538,10.1541887 C25.6068629,10.324285 25.3731966,10.4161833 25.1327104,10.4013483 C24.8780889,10.4242558 24.627228,10.3320811 24.4600455,10.1541887 C24.3003962,9.93479785 24.2219861,9.67397869 24.2364467,9.41042132 L24.2364467,5.95018663 C24.2594987,5.67909142 24.1624854,5.41092157 23.9673807,5.20641925 C23.7876817,5.01621213 23.5238509,4.91102519 23.2498715,4.92035487 C22.9177775,4.91218605 22.6013246,5.04988059 22.3978293,5.2910943 C22.2033957,5.55832771 22.1089486,5.87643877 22.1287633,6.19734625 L22.1287633,9.41042132 C22.1436252,9.67410129 22.064945,9.93509218 21.9045417,10.1541887 C21.7270178,10.3182582 21.4836088,10.4076949 21.2318768,10.4013483 C20.9772705,10.4241577 20.7264571,10.3320004 20.5592119,10.1541887 C20.3795593,9.94363499 20.299047,9.6758233 20.3356131,9.41042132 L20.3356131,4.50842217 C20.2991176,4.24302485 20.3796224,3.97523776 20.5592119,3.76465479 C20.6946855,3.56987857 20.9362414,3.45981438 21.1870324,3.47859042 C21.404223,3.46899628 21.6157939,3.54374458 21.7700087,3.68455677 C21.9388915,3.86968566 22.0340203,4.10217081 22.0396975,4.34364909 C22.2526315,4.03520615 22.5450676,3.77974515 22.8911169,3.59988171 C23.2133027,3.45981084 23.5661224,3.38935552 23.9225364,3.39391536 C24.2954633,3.36495153 24.6694902,3.43652967 24.9988002,3.59988171 C25.3313803,3.78166004 25.6087686,4.03744824 25.8053753,4.34364909 L25.8059981,4.34364909 Z M7.8234231,3.06665772 C7.82474954,3.28967865 7.7459353,3.50687109 7.59920147,3.68455677 C7.43369768,3.83594897 7.20320807,3.91148975 6.97075806,3.89052312 C6.57082944,3.85706828 6.21646438,3.64005895 6.0290272,3.31381734 C5.95419109,3.24164873 5.8936924,3.1579986 5.85027273,3.06665772 C5.68031898,2.88475451 5.46489391,2.74340739 5.22245216,2.65472501 C4.94871591,2.5672514 4.66016939,2.52540074 4.37040995,2.5311452 C3.95775752,2.501019 3.5463614,2.60200826 3.20508029,2.81720958 C2.93339251,2.99839278 2.78100852,3.29430816 2.80085852,3.60217023 C2.80085852,4.09648947 3.33899044,4.4672289 4.36978711,4.67319525 C4.63947591,4.75558179 4.81885322,4.79677506 4.95276336,4.83796833 C5.62542826,5.00274141 6.07387152,5.12403271 6.38529046,5.20870776 C6.6622455,5.30329713 6.93264627,5.41335113 7.19497969,5.53825393 C7.54387657,5.75448177 7.82258264,6.05339643 8.00155473,6.4033126 C8.23005136,6.7800619 8.33800502,7.20845245 8.31297367,7.6391107 C8.33911405,8.45098349 7.97891948,9.23303722 7.32639848,9.78116075 C6.5897467,10.3176118 5.66854195,10.5944036 4.72916456,10.5615444 C4.19767458,10.5658853 3.66852032,10.4964464 3.15961313,10.355578 C2.70648231,10.2153752 2.28207777,10.0065264 1.90397198,9.73767897 C1.63600829,9.55553593 1.42067236,9.31589245 1.27677425,9.03968189 C1.11256706,8.80552407 1.0194593,8.5353132 1.00708545,8.25700976 C0.998387681,8.02032362 1.07744425,7.78793935 1.23130708,7.59791743 C1.39260493,7.43177768 1.61753126,7.32929074 1.85912766,7.31185306 C2.21788227,7.31185306 2.48694823,7.55901268 2.80085852,7.97094538 C2.86924903,8.10650489 2.96000594,8.23155661 3.06992448,8.34168481 C3.25233703,8.54943856 3.48189642,8.71813418 3.74258938,8.83600405 C4.04457337,8.93788084 4.3627109,8.99354483 4.68432024,9.00077713 C5.13856577,9.0205356 5.58957322,8.92132867 5.98480571,8.71471276 C6.29709798,8.50583288 6.46748829,8.16197136 6.43387181,7.80846081 C6.43387181,7.2729483 5.67089542,6.8610156 4.14681115,6.49256468 C4.09549585,6.49606165 4.04532466,6.47745795 4.0110325,6.44221735 C3.12337849,6.31558994 2.28806849,5.97526861 1.5900617,5.45586739 C1.16603466,4.96690953 0.95790976,4.34925057 1.00708545,3.72575004 C0.949595306,2.9616422 1.28082685,2.21619559 1.90397198,1.7072798 C2.63841509,1.20236569 3.54455198,0.95411719 4.4600986,1.00699421 C4.91442705,0.995544249 5.36780999,1.05117663 5.80293705,1.17176729 C6.21422021,1.27412388 6.59662234,1.45678344 6.92404522,1.7072798 C7.1905448,1.87475885 7.4065322,2.10150459 7.55186579,2.36637212 C7.71377459,2.57097414 7.80805644,2.81410595 7.8234231,3.06665772 Z M15.9396234,3.39620388 L15.9396234,4.8791616 L15.9396234,4.8791616 C15.5899461,4.8665663 15.2498158,4.98559036 14.9978925,5.20870776 C14.7507527,5.50543246 14.6097564,5.86520152 14.5942936,6.23853952 L15.9396234,6.23853952 L15.9396234,7.43314435 L14.5942936,7.43314435 C14.6050251,7.85811143 14.744814,8.27186983 14.9978925,8.62774919 C15.2388111,8.87569777 15.5782155,9.02416034 15.9396234,9.03968189 L15.9396234,10.5226396 L15.8929105,10.5226396 C15.0011714,10.5529236 14.1489933,10.183394 13.6077184,9.53171262 C12.9753823,8.78140557 12.6573335,7.8474857 12.7114547,6.89992036 C12.6694037,5.98346041 12.9700789,5.08138374 13.5634969,4.34364909 C14.1291931,3.70243405 14.995834,3.34994414 15.8929105,3.39620388 L15.9396234,3.39620388 Z M11.4551907,9.41042132 C11.4697369,9.67406941 11.3910837,9.93497031 11.2309691,10.1541887 C11.0638493,10.3321619 10.8129409,10.4243541 10.5583042,10.4013483 C10.3036675,10.4243541 10.0527591,10.3321619 9.88563929,10.1541887 C9.70551208,9.94383924 9.6247432,9.67592015 9.66141766,9.41042132 L9.66141766,4.50842217 C9.62631997,4.23091126 9.70638224,3.95144443 9.88563929,3.72575004 C10.0528218,3.54785763 10.3036827,3.45568293 10.5583042,3.47859042 C10.8129257,3.45568293 11.0637865,3.54785763 11.2309691,3.72575004 C11.3900816,3.95983775 11.4682557,4.23271356 11.4551907,4.50842217 L11.4551907,9.41042132 L11.4551907,9.41042132 Z M9.61657333,2.07801923 C9.60145318,1.83324349 9.69936642,1.59395339 9.88626213,1.41892691 C10.0470128,1.22935607 10.2975639,1.1228041 10.558927,1.13286253 C10.8106857,1.12637866 11.0541519,1.2158363 11.2315919,1.38002216 C11.4121353,1.57503104 11.5079493,1.82440168 11.5006579,2.08030775 C11.4999855,2.32254769 11.4044838,2.55648439 11.2315919,2.73940007 C11.0647304,2.92201739 10.8184755,3.02748023 10.558927,3.02748023 C10.2993785,3.02748023 10.0531236,2.92201739 9.88626213,2.73940007 C9.71268174,2.55591801 9.61693172,2.32110207 9.61657333,2.07801923 L9.61657333,2.07801923 Z" id="Shape"></path>
                    <path d="M114,11 L114,7 L114.437405,7 L114.938164,9.86567164 C114.96854,10.1044776 115.000217,10.2802653 115.03146,10.4626866 C115.062703,10.2835821 115.093947,10.0480929 115.124756,9.80597015 L115.625515,7 L116,7 L116,11 L115.750054,11 L115.750054,7.65671642 L115.124756,11 L114.875678,11 L114.281623,7.60033167 L114.281623,11 L114,11 Z" id="Path"></path>
                    <path d="M118.882339,7.00016074 L118.984673,7.00016074 C119.145662,6.99711463 119.305969,7.03737959 119.460033,7.11955892 C119.565551,7.16960273 119.652349,7.30145794 119.695826,7.47775349 C119.760599,7.65634878 119.796016,7.86296209 119.798161,8.07474442 C119.811104,8.33641828 119.761755,8.59581387 119.661872,8.79113354 C119.530815,9.04435898 119.347169,9.19384538 119.152558,9.20571058 C119.223829,9.25277364 119.292108,9.31279849 119.356284,9.38480786 C119.451206,9.539801 119.530881,9.72135238 119.592077,9.9220997 L120,11 L119.626975,11 L119.321386,10.1642127 C119.247919,9.97702751 119.16824,9.79761909 119.082763,9.62692085 C119.046446,9.51601759 119.000817,9.41538597 118.947418,9.32842538 L118.87951,9.32842538 L118.87951,8.79113354 L118.947418,8.79113354 C119.053333,8.79375801 119.158134,8.75287376 119.253478,8.67173535 C119.329464,8.64843528 119.393362,8.55830758 119.422778,8.43293898 C119.471207,8.33372923 119.495737,8.20523702 119.491158,8.07474442 C119.493048,7.9169314 119.455675,7.76552555 119.388823,7.66016738 C119.291212,7.48604763 119.154232,7.39835882 119.015798,7.42137101 L118.87951,7.42137101 L118.882339,7.00016074 Z M118,11 L118,7.00016074 L118.882339,7.00016074 L118.882339,7.41473778 L118.27352,7.41473778 L118.27352,8.78781693 L118.884225,8.78781693 L118.884225,9.32510877 C118.850271,9.26540967 118.850271,9.26540967 118.816788,9.26540967 C118.765754,9.21113353 118.705518,9.19001029 118.646546,9.20571058 L118.27352,9.20571058 L118.27352,10.9966834 L118,11 Z" id="Shape"></path>
                </g>
            </g>
        </g>
    </g>
</svg>