<?xml version="1.0" encoding="utf-8"?>
<!-- Generator: Adobe Illustrator 24.1.2, SVG Export Plug-In . SVG Version: 6.00 Build 0)  -->
<svg version="1.1" id="Capa_1" xmlns="http://www.w3.org/2000/svg" xmlns:xlink="http://www.w3.org/1999/xlink" x="0px" y="0px"
	 viewBox="0 0 83 6" style="enable-background:new 0 0 83 6;" xml:space="preserve">
<style type="text/css">
	.st0{filter:url(#Adobe_OpacityMaskFilter);}
	.st1{fill-rule:evenodd;clip-rule:evenodd;fill:#FFFFFF;}
	.st2{mask:url(#mask-2_1_);fill-rule:evenodd;clip-rule:evenodd;}
</style>
<desc>Created with Sketch.</desc>
<g id="Symbols">
	<g id="Atoms-_x2F_-SELECT" transform="translate(-13.000000, -16.000000)">
		<g id="Group-3" transform="translate(13.000000, 16.000000)">
			<g id="Clip-2">
			</g>
			<defs>
				<filter id="Adobe_OpacityMaskFilter" filterUnits="userSpaceOnUse" x="0" y="0" width="83" height="6">
					<feColorMatrix  type="matrix" values="1 0 0 0 0  0 1 0 0 0  0 0 1 0 0  0 0 0 1 0"/>
				</filter>
			</defs>
			<mask maskUnits="userSpaceOnUse" x="0" y="0" width="83" height="6" id="mask-2_1_">
				<g class="st0">
					<polygon id="path-1_1_" class="st1" points="0,0 83,0 83,6 0,6 					"/>
				</g>
			</mask>
			<path id="Fill-1" class="st2" d="M67.2,2.9c0,0,0.1-0.1,0.1-0.1c0,0-0.1-0.1-0.1-0.1c0,0-0.1-0.1-0.1-0.1c0,0-0.1-0.1-0.1-0.1
				c0,0-0.1,0.1-0.1,0.1c0,0-0.1-0.1-0.1-0.1c0,0-0.1,0.1-0.1,0.1c0,0-0.1,0.1-0.1,0.1c0,0-0.1,0.1-0.1,0.1c0,0,0.1,0.1,0.1,0.1
				c0,0-0.1,0.1-0.1,0.1c0.1,0.1,0.2,0.2,0.3,0.2c0,0,0.1-0.1,0.1-0.1c0,0,0.1-0.1,0.1-0.1c0,0-0.2-0.1-0.1-0.1c0,0,0.1-0.1,0.1-0.1
				c0,0,0.1-0.1,0.1-0.1c0,0,0.1,0.1,0.1,0.1C67,2.8,67.2,2.9,67.2,2.9C67.2,2.9,67,3,67,3c0,0,0.1,0.1,0.1,0.1c0,0,0.1-0.1,0.1-0.1
				C67.3,3,67.2,2.9,67.2,2.9 M63.5,2.7c0,0,0.1-0.1,0.1-0.1c0,0-0.1-0.1-0.1-0.1c0,0-0.1,0.1-0.1,0.1c0,0-0.1,0.1-0.1,0.1
				c0,0-0.1-0.1-0.1-0.1c0,0,0.1-0.1,0.1-0.1c0,0-0.1-0.1-0.1-0.1c0,0-0.1-0.1-0.1-0.1c0,0-0.1,0.1-0.1,0.1c0,0,0.1,0.1,0.1,0.1
				c0,0,0.1,0.1,0.1,0.1c0,0-0.1,0.1-0.1,0.1c0,0,0.1,0.1,0.1,0.1c0,0,0.1,0.1,0.1,0.1c0,0,0.1-0.1,0.1-0.1c0,0,0.1,0.1,0.1,0.1
				c0,0,0.1-0.1,0.1-0.1C63.6,2.8,63.5,2.8,63.5,2.7 M51.9,1.8c0.1-0.1,0.2-0.2,0.3-0.3c0,0,0.1,0.1,0.1,0.1c0,0,0.1-0.1,0.1-0.1
				c0,0,0.1-0.1,0.1-0.1c0,0,0.1-0.1,0.1-0.1c0,0-0.1-0.1-0.1-0.1c0,0-0.1,0.1-0.1,0.1c0,0-0.1,0.1-0.1,0.1c0,0-0.1,0.1-0.1,0.1
				c0,0-0.1-0.1-0.1-0.1c0,0-0.1-0.1-0.1-0.1c0,0-0.1,0.1-0.1,0.1c0,0-0.1,0.1-0.1,0.1C51.7,1.7,51.8,1.8,51.9,1.8 M48.6,1.5
				c0,0,0.1-0.1,0.1-0.1c0,0,0.1-0.1,0.1-0.1c0,0-0.1-0.1-0.1-0.1c0,0-0.1-0.1-0.1-0.1c0,0,0.1-0.1,0.1-0.1c0,0,0.1-0.1,0.1-0.1
				c0,0-0.1-0.1-0.1-0.1c0,0-0.1-0.1-0.1-0.1c0,0-0.1,0.1-0.1,0.1c0,0,0.1,0.1,0.1,0.1c0,0-0.1,0.1-0.1,0.1c0,0,0.1,0.1,0.1,0.1
				c0,0-0.1,0.1-0.1,0.1c0,0,0.1,0.1,0.1,0.1c0,0-0.1,0.1-0.1,0.1c0,0-0.1,0.1-0.1,0.1c0,0-0.1-0.1-0.1-0.1c0,0,0.1-0.1,0.1-0.1
				c0,0-0.1-0.1-0.1-0.1c0,0-0.1,0.1-0.1,0.1c0,0-0.1,0.1-0.1,0.1c0,0-0.1,0.1-0.1,0.1c0,0-0.1-0.1-0.1-0.1c0,0-0.1,0.1-0.1,0.1
				c0,0-0.1,0.1-0.1,0.1c0.1,0,0.1,0.1,0.1,0.1c0,0,0.1-0.1,0.1-0.1c0,0,0.1,0.1,0.1,0.1c0,0,0.1-0.1,0.1-0.1c0,0,0.1,0.1,0.1,0.1
				c0,0,0.1,0.1,0.1,0.1c0,0,0.1,0.1,0.1,0.1c0,0,0.1-0.1,0.1-0.1c-0.1,0-0.1-0.1-0.1-0.1C48.4,1.7,48.5,1.6,48.6,1.5 M45.1,2
				c0,0,0.1-0.1,0.1-0.1c0.1,0,0.1,0.1,0.1,0.1c0,0,0.1-0.1,0.1-0.1c0,0,0.1,0.1,0.1,0.1c0,0,0.1-0.1,0.1-0.1c0,0,0.1-0.1,0.1-0.1
				c0,0,0.1-0.1,0.1-0.1c0,0,0.1,0.1,0.1,0.1c0,0,0.1,0.1,0.1,0.1c0,0,0.1-0.1,0.1-0.1c0,0,0.1-0.1,0.1-0.1c0,0,0.1,0.1,0.1,0.1
				c0,0,0.1,0.1,0.1,0.1c0.1-0.1,0.2-0.2,0.3-0.3c-0.1-0.1-0.2-0.2-0.3-0.2c-0.1,0-0.1-0.1-0.1-0.1c0,0-0.1,0.1-0.1,0.1
				c0,0-0.1,0.1-0.1,0.1c0,0-0.1,0.1-0.1,0.1c0,0-0.1-0.1-0.1-0.1c0,0-0.1,0.1-0.1,0.1c0,0-0.1-0.1-0.1-0.1c-0.1,0-0.1-0.1-0.1-0.1
				c0,0-0.1-0.1-0.1-0.1c0,0-0.1-0.1-0.1-0.1c0,0-0.1,0.1-0.1,0.1c0,0-0.1,0.1-0.1,0.1c0,0,0.1,0.1,0.1,0.1c0,0-0.1,0.1-0.1,0.1
				c-0.1,0.1-0.2,0.2-0.3,0.3C45,1.9,45,2,45.1,2 M43.6,3.9c0,0,0.1-0.1,0.1-0.1c0,0-0.1-0.1-0.1-0.1c0,0-0.1,0.1-0.1,0.1
				c0,0-0.1-0.1-0.1-0.1c0,0-0.1-0.1-0.1-0.1c0,0-0.1,0.1-0.1,0.1c0,0,0.1,0.1,0.1,0.1c0,0,0.1,0.1,0.1,0.1c0,0,0.1-0.1,0.1-0.1
				C43.5,3.8,43.5,3.9,43.6,3.9 M39.7,3.9c0,0-0.1,0.1-0.1,0.1c0,0,0.1,0.1,0.1,0.1c0,0,0.1,0.1,0.1,0.1c0,0,0.1-0.1,0.1-0.1
				c0,0-0.1-0.1-0.1-0.1c0,0,0.1-0.1,0.1-0.1c0.1-0.1,0.2-0.2,0.3-0.3c0,0,0.1,0.1,0.1,0.1c0,0,0.1-0.1,0.1-0.1c0,0,0.1,0.1,0.1,0.1
				c0,0-0.1,0.1-0.1,0.1c0,0,0.1,0.1,0.1,0.1c0,0-0.1,0.1-0.1,0.1c0,0,0.1,0.1,0.1,0.1c0,0,0.1-0.1,0.1-0.1C40.9,4.1,41,4,41,4
				c0,0,0.1-0.1,0.1-0.1c0,0-0.1-0.1-0.1-0.1c0,0,0.1-0.1,0.1-0.1c0,0-0.1-0.1-0.1-0.1c0,0-0.1,0.1-0.1,0.1c0,0-0.1-0.1-0.1-0.1
				c0,0-0.1-0.1-0.1-0.1c0,0-0.1,0.1-0.1,0.1c0,0-0.1,0.1-0.1,0.1c0,0-0.1-0.1-0.1-0.1c0,0-0.1,0.1-0.1,0.1c0,0-0.1-0.1-0.1-0.1
				c0,0-0.1,0.1-0.1,0.1c0,0-0.1,0.1-0.1,0.1C39.6,3.8,39.7,3.9,39.7,3.9 M37.9,3.6c0,0,0.1,0.1,0.1,0.1c0,0-0.1,0.1-0.1,0.1
				c0,0,0.1,0.1,0.1,0.1c0,0,0.1-0.1,0.1-0.1c0,0,0.1,0.1,0.1,0.1c0.1,0,0.1,0.1,0.1,0.1c0,0,0.1,0.1,0.1,0.1c0,0,0.1-0.1,0.1-0.1
				c0,0,0.1-0.1,0.1-0.1C38.9,3.9,39,4,39,4c0,0,0.1-0.1,0.1-0.1c0,0,0.1-0.1,0.1-0.1c0,0,0.1-0.1,0.1-0.1c-0.1-0.1-0.2-0.2-0.3-0.2
				c0,0-0.1,0.1-0.1,0.1c0,0-0.1,0.1-0.1,0.1c0,0-0.1-0.1-0.1-0.1c0,0-0.1,0.1-0.1,0.1c0,0-0.1,0.1-0.1,0.1c0,0-0.1-0.1-0.1-0.1
				c0,0-0.1-0.1-0.1-0.1c0,0-0.1-0.1-0.1-0.1C38,3.4,37.9,3.6,37.9,3.6c0,0-0.1-0.1-0.1-0.1c0,0-0.1,0.1-0.1,0.1
				c0,0,0.1,0.1,0.1,0.1C37.8,3.6,37.8,3.6,37.9,3.6 M36.5,5.6c0,0-0.1-0.1-0.1-0.1c0,0-0.1,0.1-0.1,0.1c0,0-0.1-0.1-0.1-0.1
				c0,0,0.1-0.1,0.1-0.1c0,0,0.1-0.1,0.1-0.1c0,0-0.1-0.1-0.1-0.1c0,0-0.1,0.1-0.1,0.1c0,0-0.1,0.1-0.1,0.1c0,0-0.1-0.1-0.1-0.1
				c0,0-0.1,0.1-0.1,0.1c0,0-0.1-0.1-0.1-0.1c0,0-0.1,0.1-0.1,0.1c0,0-0.1,0.1-0.1,0.1c0,0-0.1,0.1-0.1,0.1c0,0-0.1-0.1-0.1-0.1
				c0,0-0.1-0.1-0.1-0.1c0,0-0.1-0.1-0.1-0.1c0,0-0.1,0.1-0.1,0.1c-0.1,0-0.1,0.1-0.1,0.1c0,0-0.1,0.1-0.1,0.1c0,0-0.1-0.1-0.1-0.1
				c0,0-0.1-0.1-0.1-0.1c0,0-0.1-0.1-0.1-0.1c0,0-0.1,0.1-0.1,0.1c0,0-0.1,0.1-0.1,0.1c0,0-0.1-0.1-0.1-0.1s-0.1-0.1-0.1-0.1
				c0,0-0.1,0.1-0.1,0.1c0,0-0.1,0.1-0.1,0.1c0,0-0.1-0.1-0.1-0.1c0,0-0.1-0.1-0.1-0.1c0,0-0.1-0.1-0.1-0.1c0,0-0.1,0.1-0.1,0.1
				c0,0-0.1-0.1-0.1-0.1c0,0-0.1-0.1-0.1-0.1c0,0-0.1,0.1-0.1,0.1c0,0-0.1,0.1-0.1,0.1c0,0-0.1,0.1-0.1,0.1c0,0-0.1-0.1-0.1-0.1
				c0,0-0.1,0.1-0.1,0.1c0,0-0.1-0.1-0.1-0.1c0,0-0.1,0.1-0.1,0.1c0,0-0.1,0.1-0.1,0.1c0,0-0.1-0.1-0.1-0.1c0,0-0.1-0.1-0.1-0.1
				c0,0,0.1-0.1,0.1-0.1c0,0-0.1-0.1-0.1-0.1c0,0-0.1-0.1-0.1-0.1c0,0-0.1,0.1-0.1,0.1c0,0-0.1,0.1-0.1,0.1c0,0-0.1,0.1-0.1,0.1
				c0,0-0.1-0.1-0.1-0.1c0,0-0.1-0.1-0.1-0.1c0,0-0.1,0.1-0.1,0.1c0,0-0.1-0.1-0.1-0.1c0,0-0.1,0.1-0.1,0.1c0,0-0.1,0.1-0.1,0.1
				c0,0-0.1-0.1-0.1-0.1c0,0-0.1,0.1-0.1,0.1c0,0-0.1-0.1-0.1-0.1c0,0-0.1,0.1-0.1,0.1c0,0-0.1-0.1-0.1-0.1c0,0-0.1-0.1-0.1-0.1
				c0,0-0.1,0.1-0.1,0.1c0,0-0.1,0.1-0.1,0.1c0,0-0.1-0.1-0.1-0.1c0,0-0.1,0.1-0.1,0.1c0,0-0.1-0.1-0.1-0.1c-0.1,0-0.1,0.1-0.1,0.1
				c0,0-0.1-0.1-0.1-0.1c0,0-0.1,0.1-0.1,0.1c0,0-0.1-0.1-0.1-0.1c0,0-0.1,0.1-0.1,0.1c0,0-0.1,0.1-0.1,0.1c0,0-0.1-0.1-0.1-0.1
				c0,0-0.1-0.1-0.1-0.1c0,0-0.1,0.1-0.1,0.1c0,0-0.1,0.1-0.1,0.1c0,0-0.1-0.1-0.1-0.1c0,0-0.1-0.1-0.1-0.1c0,0-0.1-0.1-0.1-0.1
				c0,0-0.1,0.1-0.1,0.1c0,0-0.1,0.1-0.1,0.1c0,0-0.1,0.1-0.1,0.1c0,0-0.1-0.1-0.1-0.1c0,0-0.1-0.1-0.1-0.1c0,0-0.1-0.1-0.1-0.1
				c0,0-0.1,0.1-0.1,0.1c0,0-0.1-0.1-0.1-0.1c0,0,0.1-0.1,0.1-0.1c0,0-0.1-0.1-0.1-0.1c0,0-0.1,0.1-0.1,0.1c0,0,0.2,0.1,0.1,0.1
				c0,0-0.1,0.1-0.1,0.1c0,0-0.1,0.1-0.1,0.1c0,0-0.1-0.1-0.1-0.1c0,0,0.1-0.1,0.1-0.1c0,0-0.1-0.1-0.1-0.1c0,0-0.1,0.1-0.1,0.1
				c0,0,0.1,0.1,0.1,0.1c0,0-0.1,0.1-0.1,0.1c0,0-0.1-0.1-0.1-0.1c0,0-0.1-0.1-0.1-0.1c0,0-0.1-0.1-0.1-0.1c0,0-0.1,0.1-0.1,0.1
				c0,0-0.1,0.1-0.1,0.1c0,0-0.1-0.1-0.1-0.1c0,0-0.1,0.1-0.1,0.1c0,0-0.1-0.1-0.1-0.1c0,0-0.1,0.1-0.1,0.1c0,0-0.1-0.1-0.1-0.1
				c0,0-0.1-0.1-0.1-0.1c0,0-0.1,0.1-0.1,0.1c0,0-0.1-0.1-0.1-0.1c0,0-0.1-0.1-0.1-0.1c0,0-0.1,0.1-0.1,0.1c0,0-0.1-0.1-0.1-0.1
				c0,0-0.1,0.1-0.1,0.1c0,0-0.1-0.1-0.1-0.1c0,0-0.1,0.1-0.1,0.1c0,0-0.1,0.1-0.1,0.1c0,0-0.1,0.1-0.1,0.1c0,0-0.1-0.1-0.1-0.1
				c0,0-0.1-0.1-0.1-0.1c0,0-0.1-0.1-0.1-0.1c0,0-0.1,0.1-0.1,0.1c0,0-0.1,0.1-0.1,0.1c0,0-0.1-0.1-0.1-0.1c0,0-0.1,0.1-0.1,0.1
				c0,0-0.1-0.1-0.1-0.1c0,0-0.1-0.1-0.1-0.1c0,0-0.1-0.1-0.1-0.1c0,0-0.1,0.1-0.1,0.1c0,0-0.1,0.1-0.1,0.1c0,0-0.1-0.1-0.1-0.1
				c0,0-0.1,0.1-0.1,0.1c0,0-0.1-0.1-0.1-0.1c0,0-0.1,0.1-0.1,0.1c0,0-0.1,0.1-0.1,0.1c0,0-0.1-0.1-0.1-0.1c0,0-0.1-0.1-0.1-0.1
				c0,0-0.1,0.1-0.1,0.1c0,0-0.1-0.1-0.1-0.1c0,0-0.1,0.1-0.1,0.1c0,0-0.1,0.1-0.1,0.1c0,0-0.1-0.1-0.1-0.1c0,0-0.1-0.1-0.1-0.1
				c0,0-0.1,0.1-0.1,0.1c0,0-0.1-0.1-0.1-0.1c0,0,0.1-0.1,0.1-0.1c0,0-0.1-0.1-0.1-0.1c0,0-0.1,0.1-0.1,0.1c0,0,0.2,0.1,0.1,0.1
				c0,0-0.1,0.1-0.1,0.1c0,0-0.1,0.1-0.1,0.1c0,0-0.1-0.1-0.1-0.1c0,0-0.1-0.1-0.1-0.1c0,0-0.1-0.1-0.1-0.1c0,0-0.1,0.1-0.1,0.1
				c0,0-0.1,0.1-0.1,0.1c0,0-0.1-0.1-0.1-0.1c0,0-0.1,0.1-0.1,0.1c0,0-0.1-0.1-0.1-0.1c0,0-0.1-0.1-0.1-0.1c0,0-0.1-0.1-0.1-0.1
				c0,0-0.1,0.1-0.1,0.1c0,0-0.1-0.1-0.1-0.1c0,0-0.1-0.1-0.1-0.1C15.1,4.8,15,5,15,5c0,0-0.1,0.1-0.1,0.1c0,0-0.1,0.1-0.1,0.1
				c0,0-0.1-0.1-0.1-0.1c0,0-0.1,0.1-0.1,0.1c0,0,0.1,0.1,0.1,0.1c0,0-0.1,0.1-0.1,0.1c0,0-0.1-0.1-0.1-0.1c0,0-0.1-0.1-0.1-0.1
				c0,0-0.1,0.1-0.1,0.1c0,0-0.1-0.1-0.1-0.1c0,0-0.1-0.1-0.1-0.1c0,0-0.1,0.1-0.1,0.1c0,0-0.1,0.1-0.1,0.1c0,0-0.1,0.1-0.1,0.1
				c0,0-0.1-0.1-0.1-0.1c0,0-0.1,0.1-0.1,0.1c0,0-0.1-0.1-0.1-0.1c0,0-0.1,0.1-0.1,0.1c0,0-0.1,0.1-0.1,0.1c0,0-0.1,0.1-0.1,0.1
				c0,0-0.1-0.1-0.1-0.1c0,0-0.1,0.1-0.1,0.1c0,0-0.1-0.1-0.1-0.1c0,0,0.1-0.1,0.1-0.1c0,0-0.1-0.1-0.1-0.1c0,0-0.1-0.1-0.1-0.1
				c0,0-0.1,0.1-0.1,0.1c0,0-0.1,0.1-0.1,0.1c0,0-0.1-0.1-0.1-0.1c0,0-0.1,0.1-0.1,0.1c0,0-0.1-0.1-0.1-0.1c0,0-0.1,0.1-0.1,0.1
				c-0.1,0-0.1-0.1-0.1-0.1c0,0-0.1,0.1-0.1,0.1c0,0-0.1-0.1-0.1-0.1c0,0-0.1,0.1-0.1,0.1c0,0-0.1,0.1-0.1,0.1c0,0-0.1-0.1-0.1-0.1
				c0,0-0.1,0.1-0.1,0.1c0,0-0.1,0.1-0.1,0.1c0,0-0.1,0.1-0.1,0.1C9.6,5.9,9.5,5.8,9.5,5.7c0,0,0.1-0.1,0.1-0.1c0,0,0.1-0.1,0.1-0.1
				c0,0-0.1-0.1-0.1-0.1c0,0-0.1,0.1-0.1,0.1c0,0-0.1,0.1-0.1,0.1c0,0-0.1,0.1-0.1,0.1c0,0,0.1,0.1,0.1,0.1c0,0-0.1,0.1-0.1,0.1
				C9.1,6,9,5.9,9,5.9c0,0-0.1-0.1-0.1-0.1c0,0-0.1-0.1-0.1-0.1c0,0-0.1,0.1-0.1,0.1c0,0-0.1,0.1-0.1,0.1c0,0-0.1-0.1-0.1-0.1
				c0,0-0.1,0.1-0.1,0.1c0,0-0.1-0.1-0.1-0.1c0,0-0.1-0.1-0.1-0.1c0,0,0.1-0.1,0.1-0.1c0,0-0.1-0.1-0.1-0.1c0,0-0.1,0.1-0.1,0.1
				c0,0-0.1-0.1-0.1-0.1c0,0-0.1-0.1-0.1-0.1c0,0-0.1-0.1-0.1-0.1c0,0-0.1,0.1-0.1,0.1c0,0-0.1,0.1-0.1,0.1c0,0-0.1,0.1-0.1,0.1
				c0,0-0.1-0.1-0.1-0.1c0,0-0.1,0.1-0.1,0.1c0,0-0.1,0.1-0.1,0.1C6.4,5.6,6.3,5.5,6.2,5.4c0,0,0.1-0.1,0.1-0.1c0,0,0.1-0.1,0.1-0.1
				c0,0-0.1-0.1-0.1-0.1c0,0-0.1,0.1-0.1,0.1c0,0-0.1-0.1-0.1-0.1c0,0-0.1,0.1-0.1,0.1c0,0,0.1,0.1,0.1,0.1c0,0-0.1,0.1-0.1,0.1
				c0,0-0.1,0.1-0.1,0.1c0,0-0.1-0.1-0.1-0.1c0,0,0.1-0.1,0.1-0.1c0,0-0.1-0.1-0.1-0.1c0,0-0.1-0.1-0.1-0.1c0,0-0.1,0.1-0.1,0.1
				c0,0-0.1,0.1-0.1,0.1c0,0-0.1-0.1-0.1-0.1c0,0-0.1,0.1-0.1,0.1c0,0-0.1,0.1-0.1,0.1c0,0-0.1-0.1-0.1-0.1c0,0-0.1,0.1-0.1,0.1
				c0,0-0.1-0.1-0.1-0.1c0,0-0.1,0.1-0.1,0.1c0,0-0.1-0.1-0.1-0.1c0,0-0.1,0.1-0.1,0.1c0,0-0.1-0.1-0.1-0.1c0,0-0.1-0.1-0.1-0.1
				c0,0-0.1,0.1-0.1,0.1c0,0-0.1,0.1-0.1,0.1c0,0-0.1,0.1-0.1,0.1c0,0-0.1,0.1-0.1,0.1c0,0-0.1-0.1-0.1-0.1c0,0-0.1,0.1-0.1,0.1
				c-0.1,0-0.1-0.1-0.1-0.1c0,0-0.1,0.1-0.1,0.1c0,0-0.1-0.1-0.1-0.1c0,0-0.1-0.1-0.1-0.1c0,0-0.1,0.1-0.1,0.1c0,0-0.1,0.1-0.1,0.1
				c0,0-0.1,0.1-0.1,0.1c0,0-0.1-0.1-0.1-0.1c0,0-0.1-0.1-0.1-0.1c0,0-0.1,0.1-0.1,0.1c-0.1,0-0.1-0.1-0.1-0.1c0,0-0.1-0.1-0.1-0.1
				c0,0-0.1-0.1-0.1-0.1c0,0-0.1-0.1-0.1-0.1c0,0,0.1-0.1,0.1-0.1c0,0-0.2-0.1-0.1-0.1c0,0,0.1-0.1,0.1-0.1c0,0-0.1-0.1-0.1-0.1
				c0,0-0.1-0.1-0.1-0.1c0,0-0.1-0.1-0.1-0.1c0,0-0.1-0.1-0.1-0.1c0,0,0.1-0.1,0.1-0.1c0,0,0.1,0.1,0.1,0.1c0,0,0.1-0.1,0.1-0.1
				c0,0-0.1-0.1-0.1-0.1c0,0-0.1,0.1-0.1,0.1c-0.1,0-0.1-0.1-0.1-0.1c0,0-0.1-0.1-0.1-0.1C0.1,4,0,4,0,3.9c0,0,0.1-0.1,0.1-0.1
				c0,0,0.1-0.1,0.1-0.1c0,0,0.1-0.1,0.1-0.1c0,0-0.2-0.1-0.1-0.1c0,0,0.1-0.1,0.1-0.1c0,0,0.1-0.1,0.1-0.1c0,0-0.1-0.1-0.1-0.1
				c0,0,0.1-0.1,0.1-0.1c0,0,0.1,0.1,0.1,0.1c0,0,0.1-0.1,0.1-0.1C0.9,2.9,0.9,3,1,3c0,0,0.1,0.1,0.1,0.1c0,0,0.1-0.1,0.1-0.1
				c0,0,0.1-0.1,0.1-0.1c0,0,0.1,0.1,0.1,0.1c0,0,0.1,0.1,0.1,0.1c0,0,0.1-0.1,0.1-0.1c0,0,0.1-0.1,0.1-0.1C2,2.9,2.1,3,2.1,3
				c0,0,0.1-0.1,0.1-0.1c0,0,0.1,0.1,0.1,0.1c0,0,0.1-0.1,0.1-0.1c0,0,0.1-0.1,0.1-0.1c0,0,0.1,0.1,0.1,0.1c0,0,0.1-0.1,0.1-0.1
				C3,2.7,3,2.8,3.1,2.8c0,0,0.1,0.1,0.1,0.1c0,0,0.1-0.1,0.1-0.1c0,0,0.1-0.1,0.1-0.1c0,0,0.1,0.1,0.1,0.1c0,0,0.1,0.1,0.1,0.1
				c0,0,0.1,0.1,0.1,0.1c0,0,0.1-0.1,0.1-0.1c0,0,0.1,0.1,0.1,0.1c0,0,0.1-0.1,0.1-0.1c0,0,0.1-0.1,0.1-0.1c0,0,0.1-0.1,0.1-0.1
				c0,0,0.1,0.1,0.1,0.1c0,0,0.1,0.1,0.1,0.1c0,0,0.1-0.1,0.1-0.1c0,0,0.1,0.1,0.1,0.1c0,0,0.1-0.1,0.1-0.1c0,0,0.1,0.1,0.1,0.1
				c0,0,0.1-0.1,0.1-0.1c0,0,0.1-0.1,0.1-0.1c0,0,0.1,0.1,0.1,0.1c0,0,0.1-0.1,0.1-0.1c0,0,0.1-0.1,0.1-0.1c0,0,0.1,0.1,0.1,0.1
				c0,0,0.1,0.1,0.1,0.1c0,0,0.1-0.1,0.1-0.1c0,0,0.1-0.1,0.1-0.1c0,0,0.1,0.1,0.1,0.1c0,0,0.1-0.1,0.1-0.1c0,0,0.1,0.1,0.1,0.1
				c0,0,0.1,0.1,0.1,0.1c0,0,0.1-0.1,0.1-0.1c0,0,0.1-0.1,0.1-0.1c0,0,0.1-0.1,0.1-0.1c0,0,0.1-0.1,0.1-0.1c0,0,0.1,0.1,0.1,0.1
				c0,0,0.1,0.1,0.1,0.1c0.1,0,0.1-0.1,0.1-0.1c0,0,0.1-0.1,0.1-0.1c0,0,0.1,0.1,0.1,0.1c0,0,0.1-0.1,0.1-0.1c0,0,0.1,0.1,0.1,0.1
				c0,0,0.1-0.1,0.1-0.1c0,0,0.1,0.1,0.1,0.1c0,0,0.1-0.1,0.1-0.1c0,0,0.1-0.1,0.1-0.1c0,0,0.1-0.1,0.1-0.1c0,0,0.1,0.1,0.1,0.1
				c0,0-0.1,0.1-0.1,0.1c0,0,0.1,0.1,0.1,0.1c0,0,0.1,0.1,0.1,0.1c0,0,0.1-0.1,0.1-0.1c0,0,0.1,0.1,0.1,0.1c0,0,0.1-0.1,0.1-0.1
				c0,0-0.1-0.1-0.1-0.1c0,0,0.1-0.1,0.1-0.1c0,0,0.1,0.1,0.1,0.1c0.1,0,0.1,0.1,0.1,0.1c0,0,0.1,0.1,0.1,0.1c0,0,0.1-0.1,0.1-0.1
				c0,0-0.1-0.1-0.1-0.1c0,0-0.1-0.1-0.1-0.1c0,0-0.1-0.1-0.1-0.1c0,0,0.1-0.1,0.1-0.1c0,0,0.1,0.1,0.1,0.1c0.1,0,0.1,0.1,0.1,0.1
				c0,0,0.1,0.1,0.1,0.1c0,0,0.1,0.1,0.1,0.1c0,0,0.1-0.1,0.1-0.1c0,0-0.1-0.1-0.1-0.1c0,0,0.1-0.1,0.1-0.1c0,0,0.1,0.1,0.1,0.1
				c0,0,0.1-0.1,0.1-0.1c0,0,0.1,0.1,0.1,0.1c0,0,0.1-0.1,0.1-0.1C11.9,1.9,12,2,12,2c0,0,0.1-0.1,0.1-0.1c0,0,0.1-0.1,0.1-0.1
				c0,0,0.1,0.1,0.1,0.1c0,0,0.1-0.1,0.1-0.1c0,0,0.1-0.1,0.1-0.1c0,0,0.1,0.1,0.1,0.1c0,0,0.1,0.1,0.1,0.1c0,0,0.1-0.1,0.1-0.1
				c0,0,0.1,0.1,0.1,0.1c0,0,0.1-0.1,0.1-0.1c0,0,0.1,0.1,0.1,0.1c0,0,0.1,0.1,0.1,0.1c0,0,0.1,0.1,0.1,0.1C13.9,2.1,14,2,14,2
				c0,0,0.1,0.1,0.1,0.1c0.1-0.1,0.2-0.2,0.3-0.3c0,0,0.1-0.1,0.1-0.1c0,0,0.1-0.1,0.1-0.1c0,0,0.1-0.1,0.1-0.1
				c0.1,0,0.1-0.1,0.1-0.1c0,0,0.1-0.1,0.1-0.1c0,0,0.1,0.1,0.1,0.1c0,0,0.1-0.1,0.1-0.1c0,0,0.1-0.1,0.1-0.1c0.1,0,0.1,0.1,0.1,0.1
				c0,0,0.1,0.1,0.1,0.1c0,0-0.1,0.1-0.1,0.1c0,0,0.1,0.1,0.1,0.1c0,0,0.1-0.1,0.1-0.1c0,0,0.1-0.1,0.1-0.1c0,0,0.1,0.1,0.1,0.1
				c0,0,0.1,0.1,0.1,0.1c0,0,0.1-0.1,0.1-0.1c0,0-0.2-0.1-0.1-0.1c0,0,0.1-0.1,0.1-0.1c0,0,0.1-0.1,0.1-0.1c0,0,0.1,0.1,0.1,0.1
				c0,0,0.1,0.1,0.1,0.1c0,0,0.1-0.1,0.1-0.1c0,0,0.1,0.1,0.1,0.1c0,0,0.1-0.1,0.1-0.1c0.1,0,0.1,0.1,0.1,0.1c0,0,0.1,0.1,0.1,0.1
				c0,0,0.1-0.1,0.1-0.1c0,0,0.1-0.1,0.1-0.1c0,0,0.1,0.1,0.1,0.1c0,0,0.1,0.1,0.1,0.1c0,0,0.1-0.1,0.1-0.1c0,0,0.1,0.1,0.1,0.1
				c0,0,0.1-0.1,0.1-0.1c0,0,0.1,0.1,0.1,0.1c0,0,0.1-0.1,0.1-0.1c0,0,0.1,0.1,0.1,0.1c0,0,0.1-0.1,0.1-0.1c0,0,0.1,0.1,0.1,0.1
				c0,0,0.1-0.1,0.1-0.1c0,0,0.1,0.1,0.1,0.1c0,0,0.1-0.1,0.1-0.1c0,0,0.1,0.1,0.1,0.1c0,0,0.1-0.1,0.1-0.1c0,0,0.1-0.1,0.1-0.1
				c0,0,0.1,0.1,0.1,0.1c0,0,0.1-0.1,0.1-0.1c0,0,0.1-0.1,0.1-0.1c0,0,0.1,0.1,0.1,0.1c0,0,0.1,0.1,0.1,0.1c0,0,0.1,0.1,0.1,0.1
				c0,0,0.1-0.1,0.1-0.1c0.1,0,0.1,0.1,0.1,0.1c0,0,0.1-0.1,0.1-0.1c0,0,0.1,0.1,0.1,0.1c0,0,0.1-0.1,0.1-0.1c0,0,0.1-0.1,0.1-0.1
				c0,0,0.1,0.1,0.1,0.1c0,0,0.1-0.1,0.1-0.1c0,0,0.1,0.1,0.1,0.1c0,0,0.1,0.1,0.1,0.1c0,0,0.1-0.1,0.1-0.1c0,0,0.1-0.1,0.1-0.1
				c0,0,0.1,0.1,0.1,0.1c0,0,0.1,0.1,0.1,0.1c0,0,0.1-0.1,0.1-0.1c0,0,0.1,0.1,0.1,0.1c0,0,0.1-0.1,0.1-0.1c0.1,0,0.1,0.1,0.1,0.1
				c0,0,0.1,0.1,0.1,0.1c0,0,0.1-0.1,0.1-0.1c0.1,0,0.1,0.1,0.1,0.1c0,0,0.1-0.1,0.1-0.1c0,0,0.1,0.1,0.1,0.1c0,0,0.1-0.1,0.1-0.1
				c0,0,0.1,0.1,0.1,0.1c0,0,0.1-0.1,0.1-0.1c0,0,0.1-0.1,0.1-0.1c0,0,0.1,0.1,0.1,0.1c0,0,0.1,0.1,0.1,0.1c0,0,0.1-0.1,0.1-0.1
				c0,0,0.1,0.1,0.1,0.1c0,0,0.1,0.1,0.1,0.1c0,0,0.1-0.1,0.1-0.1c0,0,0.1-0.1,0.1-0.1c0,0,0.1,0.1,0.1,0.1c0,0,0.1-0.1,0.1-0.1
				c0,0,0.1-0.1,0.1-0.1c0,0,0.1,0.1,0.1,0.1c0,0,0.1-0.1,0.1-0.1c0,0,0.1,0.1,0.1,0.1C26.9,1.1,26.9,1,27,1c0,0,0.1-0.1,0.1-0.1
				c0,0,0.1,0.1,0.1,0.1c0.1,0,0.1-0.1,0.1-0.1c0,0,0.1,0.1,0.1,0.1c0,0-0.1,0.1-0.1,0.1c0,0,0.1,0.1,0.1,0.1c0,0,0.1-0.1,0.1-0.1
				c0,0,0.1-0.1,0.1-0.1c0,0,0.1,0.1,0.1,0.1c0,0,0.1,0.1,0.1,0.1c0,0,0.1-0.1,0.1-0.1c0,0,0.1-0.1,0.1-0.1c0,0,0.1-0.1,0.1-0.1
				c0,0,0.1,0.1,0.1,0.1c0,0,0.1-0.1,0.1-0.1c0,0,0.1,0.1,0.1,0.1c0,0,0.1-0.1,0.1-0.1c0,0,0.1,0.1,0.1,0.1c0,0,0.1,0.1,0.1,0.1
				c0,0,0.1,0.1,0.1,0.1c0,0,0.1-0.1,0.1-0.1c0,0,0.1-0.1,0.1-0.1c0,0,0.1-0.1,0.1-0.1c0,0,0.1,0.1,0.1,0.1c0,0,0.1,0.1,0.1,0.1
				c0,0,0.1-0.1,0.1-0.1c0,0,0.1,0.1,0.1,0.1c0,0,0.1-0.1,0.1-0.1c0,0,0.1-0.1,0.1-0.1c0,0,0.1-0.1,0.1-0.1c0,0,0.1,0.1,0.1,0.1
				c0,0,0.1,0.1,0.1,0.1c0,0,0.1-0.1,0.1-0.1c0,0,0.1-0.1,0.1-0.1c0,0,0.1-0.1,0.1-0.1c0,0,0.1,0.1,0.1,0.1c0,0,0.1,0.1,0.1,0.1
				c0,0,0.1-0.1,0.1-0.1c0,0,0.1-0.1,0.1-0.1c0,0,0.1,0.1,0.1,0.1c0,0-0.1,0.1-0.1,0.1c0,0,0.1,0.1,0.1,0.1c0,0,0.1-0.1,0.1-0.1
				c0,0,0.1-0.1,0.1-0.1c0,0,0.1,0.1,0.1,0.1c0,0,0.1,0.1,0.1,0.1c0,0,0.1-0.1,0.1-0.1c0,0,0.1-0.1,0.1-0.1c0,0,0.1,0.1,0.1,0.1
				c0,0,0.1,0.1,0.1,0.1c0,0,0.1-0.1,0.1-0.1c0,0,0.1-0.1,0.1-0.1c0,0,0.1,0.1,0.1,0.1c0,0,0.1-0.1,0.1-0.1c0,0,0.1,0.1,0.1,0.1
				c0,0,0.1-0.1,0.1-0.1c0,0,0.1,0.1,0.1,0.1c0,0-0.1,0.1-0.1,0.1c0,0,0.1,0.1,0.1,0.1c0,0,0.1-0.1,0.1-0.1c0,0,0.1,0.1,0.1,0.1
				c0,0,0.1,0.1,0.1,0.1c0,0,0.1-0.1,0.1-0.1c0,0-0.1-0.1-0.1-0.1c0,0,0.1-0.1,0.1-0.1c0,0,0.1,0.1,0.1,0.1c0.1,0,0.1-0.1,0.1-0.1
				c0,0,0.1,0.1,0.1,0.1s0.1-0.1,0.1-0.1c0,0,0.1-0.1,0.1-0.1c0,0,0.1,0.1,0.1,0.1c0,0,0.1-0.1,0.1-0.1c0,0,0.1-0.1,0.1-0.1
				c0,0,0.1,0.1,0.1,0.1c0,0,0.1,0.1,0.1,0.1c0,0,0.1,0.1,0.1,0.1c0,0,0.1-0.1,0.1-0.1c0,0,0.1,0.1,0.1,0.1c0,0,0.1-0.1,0.1-0.1
				c0,0,0.1-0.1,0.1-0.1c0,0,0.1,0.1,0.1,0.1c0,0,0.1,0.1,0.1,0.1c0,0,0.1-0.1,0.1-0.1c0,0,0.1-0.1,0.1-0.1c0,0,0.1,0.1,0.1,0.1
				c0,0,0.1-0.1,0.1-0.1c0,0,0.1-0.1,0.1-0.1c0,0,0.1,0.1,0.1,0.1c0,0,0.1,0.1,0.1,0.1c0,0,0.1-0.1,0.1-0.1c0,0,0.1-0.1,0.1-0.1
				c0,0,0.1,0.1,0.1,0.1c0,0,0.1,0.1,0.1,0.1c0,0,0.1,0.1,0.1,0.1c0,0,0.1-0.1,0.1-0.1c0,0,0.1,0.1,0.1,0.1c0,0,0.1-0.1,0.1-0.1
				c0,0,0.1-0.1,0.1-0.1c0,0,0.1,0.1,0.1,0.1c0,0,0.1-0.1,0.1-0.1c0,0,0.1,0.1,0.1,0.1c0,0,0.1,0.1,0.1,0.1c0,0,0.1-0.1,0.1-0.1
				c0,0,0.1-0.1,0.1-0.1c0,0,0.1-0.1,0.1-0.1c0,0,0.1-0.1,0.1-0.1c0,0,0.1,0.1,0.1,0.1c0,0,0.1-0.1,0.1-0.1c0,0,0.1,0.1,0.1,0.1
				c0,0,0.1,0.1,0.1,0.1c0,0-0.1,0.1-0.1,0.1c0,0-0.1,0.1-0.1,0.1c0,0,0.1,0.1,0.1,0.1c0,0,0.1-0.1,0.1-0.1c0,0,0.1,0.1,0.1,0.1
				c0,0,0.1-0.1,0.1-0.1c0,0,0.1-0.1,0.1-0.1c0,0,0.1-0.1,0.1-0.1c0,0,0.1,0.1,0.1,0.1c0,0,0.1,0.1,0.1,0.1c0,0,0.1,0.1,0.1,0.1
				c0,0,0.1-0.1,0.1-0.1c0,0,0.1-0.1,0.1-0.1c0,0,0.1-0.1,0.1-0.1c0,0,0.1-0.1,0.1-0.1c0,0,0.1,0.1,0.1,0.1c0,0,0.1-0.1,0.1-0.1
				c0,0,0.1,0.1,0.1,0.1c0,0,0.1,0.1,0.1,0.1c0,0,0.1-0.1,0.1-0.1c0,0,0.1,0.1,0.1,0.1c0,0,0.1,0.1,0.1,0.1c0,0,0.1-0.1,0.1-0.1
				c0,0,0.1-0.1,0.1-0.1c0,0,0.1,0.1,0.1,0.1c0,0,0.1,0.1,0.1,0.1c0,0,0.1-0.1,0.1-0.1c0,0-0.1-0.1-0.1-0.1c0,0,0.1-0.1,0.1-0.1
				c0,0,0.1,0.1,0.1,0.1c0,0,0.1-0.1,0.1-0.1c0,0,0.1,0.1,0.1,0.1c0,0,0.1,0.1,0.1,0.1c0,0,0.1,0.1,0.1,0.1c0,0,0.1-0.1,0.1-0.1
				c0,0,0.1,0.1,0.1,0.1c0,0,0.1-0.1,0.1-0.1c0,0,0.1-0.1,0.1-0.1c0,0,0.1-0.1,0.1-0.1c0,0,0.1,0.1,0.1,0.1c0,0,0.1,0.1,0.1,0.1
				c0,0,0.1-0.1,0.1-0.1c0,0,0.1,0.1,0.1,0.1c0,0,0.1-0.1,0.1-0.1c0,0,0.1,0.1,0.1,0.1c0,0-0.1,0.1-0.1,0.1c0,0,0.1,0.1,0.1,0.1
				c0,0,0.1-0.1,0.1-0.1c0,0,0.1,0.1,0.1,0.1c0,0,0.1-0.1,0.1-0.1c0,0-0.2-0.1-0.1-0.1c0,0,0.1-0.1,0.1-0.1c0,0,0.1-0.1,0.1-0.1
				c0,0,0.1,0.1,0.1,0.1c0,0,0.1,0.1,0.1,0.1c0,0,0.1-0.1,0.1-0.1c0,0,0.1,0.1,0.1,0.1c0,0,0.1-0.1,0.1-0.1c0,0,0.1,0.1,0.1,0.1
				c0,0,0.1-0.1,0.1-0.1c0,0,0.1,0.1,0.1,0.1c0,0,0.1,0.1,0.1,0.1c0,0,0.1-0.1,0.1-0.1c0,0,0.1-0.1,0.1-0.1c0,0,0.1,0.1,0.1,0.1
				c0,0,0.1-0.1,0.1-0.1c0,0,0.1-0.1,0.1-0.1c0,0,0.1,0.1,0.1,0.1c0,0,0.1-0.1,0.1-0.1c0,0,0.1,0.1,0.1,0.1c0,0,0.1-0.1,0.1-0.1
				c0,0,0.1,0.1,0.1,0.1c0,0,0.1,0.1,0.1,0.1c0,0-0.1,0.1-0.1,0.1c0,0,0.1,0.1,0.1,0.1c0,0,0.1-0.1,0.1-0.1c0,0-0.1-0.1-0.1-0.1
				c0,0,0.1-0.1,0.1-0.1c0,0,0.1,0.1,0.1,0.1c0,0,0.1-0.1,0.1-0.1c0,0,0.1,0.1,0.1,0.1c0,0,0.1-0.1,0.1-0.1c0,0,0.1,0.1,0.1,0.1
				c0,0,0.1-0.1,0.1-0.1c0,0,0.1-0.1,0.1-0.1c0,0,0.1,0.1,0.1,0.1c0,0,0.1-0.1,0.1-0.1c0,0,0.1,0.1,0.1,0.1c0,0,0.1,0.1,0.1,0.1
				c0,0,0.1-0.1,0.1-0.1c0,0,0.1-0.1,0.1-0.1c0,0,0.1,0.1,0.1,0.1c0,0,0.1-0.1,0.1-0.1c0,0,0.1,0.1,0.1,0.1C52.9,0.2,53,0,53,0
				c0.1,0,0.1,0.1,0.1,0.1c0,0,0.1,0.1,0.1,0.1c0,0,0.1-0.1,0.1-0.1c0,0,0.1-0.1,0.1-0.1c0,0,0.1,0.1,0.1,0.1c0,0,0.1,0.1,0.1,0.1
				c0,0,0.1,0.1,0.1,0.1c0,0,0.1-0.1,0.1-0.1c0,0,0.1-0.1,0.1-0.1c0,0,0.1-0.1,0.1-0.1c0,0,0.1,0.1,0.1,0.1c0,0,0.1,0.1,0.1,0.1
				c0,0,0.1,0.1,0.1,0.1c0,0,0.1,0.1,0.1,0.1c0,0,0.1-0.1,0.1-0.1c0,0,0.1-0.1,0.1-0.1c0,0,0.1,0.1,0.1,0.1c0,0,0.1-0.1,0.1-0.1
				c0,0,0.1,0.1,0.1,0.1c0,0,0.1,0.1,0.1,0.1c0,0,0.1-0.1,0.1-0.1c0,0,0.1,0.1,0.1,0.1c0,0,0.1-0.1,0.1-0.1c0,0,0.1,0.1,0.1,0.1
				c0,0,0.1-0.1,0.1-0.1c0,0,0.1-0.1,0.1-0.1c0,0,0.1,0.1,0.1,0.1c0,0,0.1-0.1,0.1-0.1c0,0,0.1,0.1,0.1,0.1c0,0,0.1,0.1,0.1,0.1
				c0,0,0.1-0.1,0.1-0.1c0,0,0.1,0.1,0.1,0.1c0.1,0,0.1-0.1,0.1-0.1c0,0,0.1,0.1,0.1,0.1c0,0,0.1-0.1,0.1-0.1c0,0,0.1-0.1,0.1-0.1
				c0,0,0.1,0.1,0.1,0.1c0,0,0.1,0.1,0.1,0.1c0,0,0.1,0.1,0.1,0.1c0,0,0.1,0.1,0.1,0.1c0,0,0.1-0.1,0.1-0.1c0,0,0.1-0.1,0.1-0.1
				c0,0,0.1,0.1,0.1,0.1c0,0,0.1,0.1,0.1,0.1c0,0-0.1,0.1-0.1,0.1c0.1,0,0.1,0.1,0.1,0.1c0.1-0.1,0.2-0.2,0.3-0.3
				c0,0,0.1-0.1,0.1-0.1c0,0,0.1-0.1,0.1-0.1c0,0,0.1,0.1,0.1,0.1c0,0,0.1-0.1,0.1-0.1c0,0,0.1,0.1,0.1,0.1c0,0,0.1,0.1,0.1,0.1
				c0,0-0.1,0.1-0.1,0.1c0,0,0.1,0.1,0.1,0.1c0,0,0.1-0.1,0.1-0.1c0,0,0.1-0.1,0.1-0.1c0,0,0.1-0.1,0.1-0.1c0,0,0.1-0.1,0.1-0.1
				c0,0,0.1,0.1,0.1,0.1c0,0,0.1,0.1,0.1,0.1c0,0,0.1-0.1,0.1-0.1c0,0,0.1,0.1,0.1,0.1c0,0,0.1,0.1,0.1,0.1c0,0,0.1-0.1,0.1-0.1
				c0,0,0.1-0.1,0.1-0.1c0,0,0.1,0.1,0.1,0.1c0,0,0.1,0.1,0.1,0.1c0,0,0.1,0.1,0.1,0.1c0,0,0.1-0.1,0.1-0.1c0.1,0,0.1,0.1,0.1,0.1
				c0,0,0.1-0.1,0.1-0.1c0,0,0.1,0.1,0.1,0.1c0,0,0.1,0.1,0.1,0.1c0,0,0.1-0.1,0.1-0.1c0,0-0.2-0.1-0.1-0.1c0,0,0.1-0.1,0.1-0.1
				c0,0,0.1,0.1,0.1,0.1c0,0,0.1,0.1,0.1,0.1c0,0,0.1-0.1,0.1-0.1c0,0,0.1-0.1,0.1-0.1c0,0,0.1,0.1,0.1,0.1c0,0-0.1,0.1-0.1,0.1
				c0,0,0.1,0.1,0.1,0.1c0,0,0.1-0.1,0.1-0.1c0,0,0.1,0.1,0.1,0.1c0,0,0.1-0.1,0.1-0.1c0,0,0.1,0.1,0.1,0.1c0,0,0.1-0.1,0.1-0.1
				c0,0,0.1,0.1,0.1,0.1C64.9,0.9,65,1,65,1c0,0,0.1,0.1,0.1,0.1c0,0,0.1-0.1,0.1-0.1c0,0,0.1-0.1,0.1-0.1c0,0,0.1,0.1,0.1,0.1
				c0,0,0.1-0.1,0.1-0.1c0,0,0.1,0.1,0.1,0.1c0,0,0.1-0.1,0.1-0.1c0,0,0.1-0.1,0.1-0.1c0,0,0.1,0.1,0.1,0.1c0,0,0.1-0.1,0.1-0.1
				c0,0,0.1,0.1,0.1,0.1c0,0,0.1,0.1,0.1,0.1c0,0-0.1,0.1-0.1,0.1c0,0,0.1,0.1,0.1,0.1c0,0,0.1-0.1,0.1-0.1c0,0,0.1,0.1,0.1,0.1
				c0,0,0.1-0.1,0.1-0.1c0,0,0.1,0.1,0.1,0.1c0,0,0.1-0.1,0.1-0.1c0,0,0.1-0.1,0.1-0.1c0,0,0.1,0.1,0.1,0.1c0,0,0.1,0.1,0.1,0.1
				c0,0,0.1-0.1,0.1-0.1c0,0,0.1,0.1,0.1,0.1c0,0,0.1-0.1,0.1-0.1c0,0,0.1,0.1,0.1,0.1c0,0,0.1-0.1,0.1-0.1c0,0,0.1,0.1,0.1,0.1
				c0,0,0.1,0.1,0.1,0.1c0,0,0.1-0.1,0.1-0.1c0,0,0.1,0.1,0.1,0.1c0,0,0.1-0.1,0.1-0.1c0,0,0.1-0.1,0.1-0.1c0,0,0.1,0.1,0.1,0.1
				c0,0-0.1,0.1-0.1,0.1c0,0,0.1,0.1,0.1,0.1c0,0,0.1-0.1,0.1-0.1c0.1,0,0.1,0.1,0.1,0.1c0,0,0.1-0.1,0.1-0.1c0,0,0.1,0.1,0.1,0.1
				c0,0,0.1-0.1,0.1-0.1c0,0,0.1-0.1,0.1-0.1c0,0,0.1,0.1,0.1,0.1c0,0,0.1-0.1,0.1-0.1c0,0,0.1-0.1,0.1-0.1c0,0,0.1,0.1,0.1,0.1
				c0,0-0.1,0.1-0.1,0.1c0,0,0.1,0.1,0.1,0.1c0,0-0.1,0.1-0.1,0.1c0,0,0.1,0.1,0.1,0.1c0,0,0.1-0.1,0.1-0.1c0.1,0,0.1,0.1,0.1,0.1
				c0,0,0.1-0.1,0.1-0.1c0,0,0.1-0.1,0.1-0.1c0,0,0.1,0.1,0.1,0.1c0,0,0.1-0.1,0.1-0.1c0,0,0.1-0.1,0.1-0.1c0,0,0.1,0.1,0.1,0.1
				c0,0,0.1-0.1,0.1-0.1c0,0,0.1-0.1,0.1-0.1c0,0,0.1,0.1,0.1,0.1c0,0,0.1,0.1,0.1,0.1c0,0,0.1-0.1,0.1-0.1c0,0,0.1,0.1,0.1,0.1
				c0,0,0.1-0.1,0.1-0.1c0,0,0.1,0.1,0.1,0.1c0,0,0.1,0.1,0.1,0.1c0,0,0.1,0.1,0.1,0.1c0,0-0.1,0.1-0.1,0.1c0,0,0.1,0.1,0.1,0.1
				c0.1-0.1,0.2-0.2,0.3-0.3c0,0,0.1-0.1,0.1-0.1c0,0,0.1-0.1,0.1-0.1c0,0,0.1,0.1,0.1,0.1c0,0,0.1,0.1,0.1,0.1c0,0,0.1,0.1,0.1,0.1
				c0,0,0.1-0.1,0.1-0.1c0,0,0.1-0.1,0.1-0.1c0,0,0.1,0.1,0.1,0.1c0,0,0.1-0.1,0.1-0.1c0,0,0.1,0.1,0.1,0.1c0,0,0.1,0.1,0.1,0.1
				c0,0,0.1,0.1,0.1,0.1c0,0,0.1-0.1,0.1-0.1c0,0,0.1,0.1,0.1,0.1c0,0,0.1-0.1,0.1-0.1c0,0,0.1-0.1,0.1-0.1c0,0,0.1,0.1,0.1,0.1
				c0,0,0.1,0.1,0.1,0.1c0,0-0.1,0.1-0.1,0.1c0,0,0.1,0.1,0.1,0.1c0,0,0.1,0.1,0.1,0.1c0,0,0.1-0.1,0.1-0.1c0,0,0.1,0.1,0.1,0.1
				c0.1,0,0.1,0.1,0.1,0.1c0,0,0.1,0.1,0.1,0.1c-0.1,0.1-0.2,0.2-0.3,0.3c0,0-0.1,0.1-0.1,0.1c0,0-0.1-0.1-0.1-0.1
				c0,0-0.1,0.1-0.1,0.1c0,0-0.1-0.1-0.1-0.1c0,0-0.1,0.1-0.1,0.1c0,0-0.1,0.1-0.1,0.1c0,0-0.1,0.1-0.1,0.1c0,0-0.1-0.1-0.1-0.1
				c0,0-0.1,0.1-0.1,0.1c0,0-0.1-0.1-0.1-0.1c0,0,0.1-0.1,0.1-0.1c0,0-0.1-0.1-0.1-0.1c0,0-0.1,0.1-0.1,0.1c-0.1,0-0.1-0.1-0.1-0.1
				c0,0-0.1,0.1-0.1,0.1c0,0-0.1-0.1-0.1-0.1c0,0-0.1-0.1-0.1-0.1c0,0-0.1,0.1-0.1,0.1c-0.1,0-0.1-0.1-0.1-0.1c0,0-0.1,0.1-0.1,0.1
				c0,0-0.1-0.1-0.1-0.1c0,0-0.1,0.1-0.1,0.1c0,0-0.1,0.1-0.1,0.1c0,0-0.1-0.1-0.1-0.1c0,0-0.1,0.1-0.1,0.1c0,0-0.1-0.1-0.1-0.1
				c0,0-0.1,0.1-0.1,0.1c0,0-0.1-0.1-0.1-0.1c0,0,0.1-0.1,0.1-0.1c0,0-0.1-0.1-0.1-0.1c0,0-0.1,0.1-0.1,0.1c0,0,0.2,0.1,0.1,0.1
				c0,0-0.1,0.1-0.1,0.1c0,0,0.1,0.1,0.1,0.1c0,0-0.1,0.1-0.1,0.1c0,0-0.1,0.1-0.1,0.1c0,0,0.2,0.1,0.1,0.1c0,0-0.1,0.1-0.1,0.1
				c0,0-0.1,0.1-0.1,0.1c0.1,0.1,0.2,0.2,0.3,0.2c0,0,0.1-0.1,0.1-0.1c0,0,0.1-0.1,0.1-0.1c0,0,0.1,0.1,0.1,0.1c0,0,0.1-0.1,0.1-0.1
				c0,0,0.1,0.1,0.1,0.1c0,0,0.1-0.1,0.1-0.1c0,0,0.1,0.1,0.1,0.1c0,0,0.1,0.1,0.1,0.1c0,0,0.1-0.1,0.1-0.1c0,0,0.1-0.1,0.1-0.1
				c0,0,0.1-0.1,0.1-0.1c0,0,0.1-0.1,0.1-0.1c0,0,0.1,0.1,0.1,0.1c0,0-0.1,0.1-0.1,0.1c0,0,0.1,0.1,0.1,0.1c0,0,0.1,0.1,0.1,0.1
				c0,0,0.1-0.1,0.1-0.1c0,0,0.1-0.1,0.1-0.1c0,0,0.1,0.1,0.1,0.1c0,0,0.1-0.1,0.1-0.1c0,0,0.1,0.1,0.1,0.1c0,0,0.1-0.1,0.1-0.1
				c0,0,0.1,0.1,0.1,0.1c0.1,0,0.1-0.1,0.1-0.1c0,0,0.1,0.1,0.1,0.1c0,0,0.1-0.1,0.1-0.1c0,0,0.1,0.1,0.1,0.1c0,0,0.1-0.1,0.1-0.1
				c0,0,0.1,0.1,0.1,0.1c0,0,0.1,0.1,0.1,0.1c0,0,0.1-0.1,0.1-0.1c0,0,0.1-0.1,0.1-0.1c0,0,0.1-0.1,0.1-0.1c0,0,0.1,0.1,0.1,0.1
				c0,0,0.1,0.1,0.1,0.1c0,0,0.1-0.1,0.1-0.1c0,0,0.1-0.1,0.1-0.1c0,0,0.1-0.1,0.1-0.1c0,0,0.1,0.1,0.1,0.1c0,0,0.1-0.1,0.1-0.1
				c0,0,0.1,0.1,0.1,0.1c0,0-0.1,0.1-0.1,0.1c0,0,0.1,0.1,0.1,0.1c0,0,0.1-0.1,0.1-0.1c0,0,0.1-0.1,0.1-0.1c0,0,0.1-0.1,0.1-0.1
				c0,0,0.1,0.1,0.1,0.1c0,0,0.1-0.1,0.1-0.1c0,0,0.1,0.1,0.1,0.1c0.1,0,0.1-0.1,0.1-0.1c0,0,0.1-0.1,0.1-0.1c0,0-0.2-0.1-0.1-0.1
				c0,0,0.1-0.1,0.1-0.1c0,0,0.1-0.1,0.1-0.1c0,0,0.1,0.1,0.1,0.1c0,0,0.1-0.1,0.1-0.1c0,0,0.1,0.1,0.1,0.1c0,0,0.1,0.1,0.1,0.1
				c0,0,0.1-0.1,0.1-0.1c0,0,0.1,0.1,0.1,0.1c0,0,0.1-0.1,0.1-0.1c0,0,0.1,0.1,0.1,0.1c0,0,0.1,0.1,0.1,0.1c0,0,0.1,0.1,0.1,0.1
				c0,0,0.1-0.1,0.1-0.1c0,0,0.1,0.1,0.1,0.1c0,0,0.1-0.1,0.1-0.1c0,0,0.1,0.1,0.1,0.1c0,0-0.1,0.1-0.1,0.1c0,0,0.1,0.1,0.1,0.1
				c0,0-0.1,0.1-0.1,0.1c0,0,0.1,0.1,0.1,0.1c0,0,0.1-0.1,0.1-0.1c0,0,0.1,0.1,0.1,0.1c0,0,0.1-0.1,0.1-0.1c0,0,0.1,0.1,0.1,0.1
				c0,0,0.1-0.1,0.1-0.1c0,0,0.1,0.1,0.1,0.1c0,0,0.1-0.1,0.1-0.1c0,0,0.1,0.1,0.1,0.1c0,0-0.1,0.1-0.1,0.1c0,0-0.1,0.1-0.1,0.1
				c0,0-0.1-0.1-0.1-0.1c0,0-0.1,0.1-0.1,0.1c0,0-0.1,0.1-0.1,0.1c0,0-0.1-0.1-0.1-0.1c0,0-0.1-0.1-0.1-0.1c0,0-0.1,0.1-0.1,0.1
				c0,0-0.1,0.1-0.1,0.1c0,0-0.1-0.1-0.1-0.1c0,0-0.1-0.1-0.1-0.1c0,0-0.1,0.1-0.1,0.1c0,0-0.1-0.1-0.1-0.1c0,0-0.1,0.1-0.1,0.1
				c0,0-0.1-0.1-0.1-0.1c0,0-0.1,0.1-0.1,0.1c0,0-0.1-0.1-0.1-0.1c0,0,0.1-0.1,0.1-0.1c0,0-0.1-0.1-0.1-0.1c0,0,0.1-0.1,0.1-0.1
				c0,0-0.1-0.1-0.1-0.1c0,0,0.1-0.1,0.1-0.1c0,0-0.1-0.1-0.1-0.1c0,0-0.1-0.1-0.1-0.1c0,0-0.1,0.1-0.1,0.1c0,0-0.1,0.1-0.1,0.1
				c0,0-0.1-0.1-0.1-0.1c0,0-0.1,0.1-0.1,0.1c0,0,0.2,0.1,0.1,0.1c0,0-0.1,0.1-0.1,0.1c0,0-0.1,0.1-0.1,0.1c0,0-0.1-0.1-0.1-0.1
				c0,0-0.1-0.1-0.1-0.1c0,0-0.1,0.1-0.1,0.1c0,0-0.1-0.1-0.1-0.1c0,0-0.1,0.1-0.1,0.1c0,0-0.1,0.1-0.1,0.1c0,0,0.1,0.1,0.1,0.1
				c0,0,0.1,0.1,0.1,0.1c0,0,0.1,0.1,0.1,0.1c0,0-0.1,0.1-0.1,0.1c0,0-0.1-0.1-0.1-0.1c0,0-0.1,0.1-0.1,0.1c0,0-0.1-0.1-0.1-0.1
				c0,0-0.1,0.1-0.1,0.1c0,0-0.1-0.1-0.1-0.1c-0.1,0-0.1,0.1-0.1,0.1c-0.1,0-0.1,0.1-0.1,0.1c0,0,0.1,0.1,0.1,0.1
				c0,0,0.1-0.1,0.1-0.1c0.1,0,0.1,0.1,0.1,0.1c0,0,0.1-0.1,0.1-0.1c0,0,0.1,0.1,0.1,0.1c0,0-0.1,0.1-0.1,0.1c0,0-0.1,0.1-0.1,0.1
				c-0.1,0-0.1-0.1-0.1-0.1c0,0-0.1-0.1-0.1-0.1c0,0-0.1,0.1-0.1,0.1c0,0-0.1,0.1-0.1,0.1c0,0-0.1-0.1-0.1-0.1c0,0-0.1,0.1-0.1,0.1
				c0,0-0.1-0.1-0.1-0.1c0,0-0.1,0.1-0.1,0.1c0,0-0.1-0.1-0.1-0.1c0,0-0.1,0.1-0.1,0.1c0,0-0.1-0.1-0.1-0.1c0,0-0.1,0.1-0.1,0.1
				c-0.1,0-0.1-0.1-0.1-0.1c0,0-0.1-0.1-0.1-0.1c0,0-0.1,0.1-0.1,0.1c0,0-0.1,0.1-0.1,0.1c0,0-0.1-0.1-0.1-0.1c0,0-0.1,0.1-0.1,0.1
				c0,0-0.1-0.1-0.1-0.1c0,0-0.1-0.1-0.1-0.1c0,0-0.1,0.1-0.1,0.1c0,0-0.1,0.1-0.1,0.1c0,0-0.1,0.1-0.1,0.1c0,0-0.1-0.1-0.1-0.1
				c0,0-0.1,0.1-0.1,0.1c0,0-0.1-0.1-0.1-0.1c0,0-0.1,0.1-0.1,0.1c0,0-0.1-0.1-0.1-0.1c0,0-0.1-0.1-0.1-0.1c0,0-0.1,0.1-0.1,0.1
				c0,0-0.1-0.1-0.1-0.1c0,0-0.1,0.1-0.1,0.1c0,0-0.1,0.1-0.1,0.1c0,0-0.1,0.1-0.1,0.1c0,0-0.1-0.1-0.1-0.1c0,0-0.1-0.1-0.1-0.1
				c0,0-0.1,0.1-0.1,0.1c0,0-0.1-0.1-0.1-0.1c0,0-0.1,0.1-0.1,0.1c0,0-0.1-0.1-0.1-0.1c0,0,0.1-0.1,0.1-0.1c0,0-0.1-0.1-0.1-0.1
				c0,0-0.1,0.1-0.1,0.1c0,0-0.1,0.1-0.1,0.1c0,0-0.1,0.1-0.1,0.1c0,0-0.1,0.1-0.1,0.1c0,0-0.1-0.1-0.1-0.1c0,0-0.1-0.1-0.1-0.1
				c-0.1,0-0.1,0.1-0.1,0.1c0,0-0.1,0.1-0.1,0.1c0,0-0.1-0.1-0.1-0.1c0,0-0.1,0.1-0.1,0.1c0,0-0.1-0.1-0.1-0.1c0,0-0.1-0.1-0.1-0.1
				c0,0-0.1,0.1-0.1,0.1c0,0-0.1-0.1-0.1-0.1c0,0-0.1-0.1-0.1-0.1c0,0-0.1-0.1-0.1-0.1c0,0-0.1,0.1-0.1,0.1c0,0-0.1,0.1-0.1,0.1
				c0,0-0.1,0.1-0.1,0.1c0,0-0.1-0.1-0.1-0.1C70,4.8,70,5,69.9,5c0,0-0.1-0.1-0.1-0.1c0,0-0.1,0.1-0.1,0.1c0,0-0.1,0.1-0.1,0.1
				c0,0-0.1-0.1-0.1-0.1c0,0-0.1-0.1-0.1-0.1c0,0-0.1-0.1-0.1-0.1c0,0-0.1,0.1-0.1,0.1c0,0-0.1-0.1-0.1-0.1c0,0-0.1,0.1-0.1,0.1
				c0,0-0.1-0.1-0.1-0.1c-0.1,0-0.1-0.1-0.1-0.1c0,0-0.1-0.1-0.1-0.1c0,0,0.1-0.1,0.1-0.1c0,0-0.1-0.1-0.1-0.1c0,0-0.1-0.1-0.1-0.1
				c0,0-0.1,0.1-0.1,0.1c0,0-0.1,0.1-0.1,0.1c0,0-0.1-0.1-0.1-0.1c0,0-0.1-0.1-0.1-0.1c0,0-0.1,0.1-0.1,0.1c0,0-0.1,0.1-0.1,0.1
				c0,0-0.1-0.1-0.1-0.1c0,0-0.1,0.1-0.1,0.1c0,0-0.1,0.1-0.1,0.1c-0.1,0-0.1-0.1-0.1-0.1c0,0-0.1,0.1-0.1,0.1c0,0-0.1-0.1-0.1-0.1
				c0,0,0.1-0.1,0.1-0.1c0,0,0.1-0.1,0.1-0.1c0,0-0.1-0.1-0.1-0.1c0,0-0.1-0.1-0.1-0.1c0,0-0.1-0.1-0.1-0.1c0,0-0.1,0.1-0.1,0.1
				C66,3.9,66,4,65.9,4c0,0-0.1-0.1-0.1-0.1c0,0-0.1,0.1-0.1,0.1c0,0-0.1,0.1-0.1,0.1c0,0-0.1,0.1-0.1,0.1c-0.1,0.1-0.2,0.2-0.3,0.3
				c0,0-0.1,0.1-0.1,0.1c0,0-0.1-0.1-0.1-0.1c0,0,0.1-0.1,0.1-0.1c0,0,0.1-0.1,0.1-0.1c0,0-0.1-0.1-0.1-0.1c0,0-0.1,0.1-0.1,0.1
				c0,0-0.1-0.1-0.1-0.1c0,0-0.1,0.1-0.1,0.1c0,0-0.1,0.1-0.1,0.1c0,0,0.1,0.1,0.1,0.1c0,0-0.1,0.1-0.1,0.1c0,0,0.1,0.1,0.1,0.1
				c0,0-0.1,0.1-0.1,0.1c0,0-0.1,0.1-0.1,0.1c0,0-0.1-0.1-0.1-0.1C64,5,64,4.9,64,4.9c0,0-0.1-0.1-0.1-0.1c0,0-0.1,0.1-0.1,0.1
				c0,0-0.1-0.1-0.1-0.1c0,0-0.1,0.1-0.1,0.1c0,0-0.1-0.1-0.1-0.1c0,0-0.1,0.1-0.1,0.1c0,0-0.1-0.1-0.1-0.1c0,0-0.1-0.1-0.1-0.1
				c0,0-0.1,0.1-0.1,0.1c0,0-0.1-0.1-0.1-0.1c0,0-0.1,0.1-0.1,0.1c0,0-0.1,0.1-0.1,0.1c0,0-0.1-0.1-0.1-0.1c0,0-0.1-0.1-0.1-0.1
				c0,0-0.1,0.1-0.1,0.1c0,0-0.1-0.1-0.1-0.1c0,0-0.1,0.1-0.1,0.1c0,0-0.1-0.1-0.1-0.1c0,0-0.1,0.1-0.1,0.1c0,0-0.1-0.1-0.1-0.1
				c0,0-0.1,0.1-0.1,0.1c0,0-0.1-0.1-0.1-0.1c0,0,0.1-0.1,0.1-0.1c0,0-0.1-0.1-0.1-0.1c0,0-0.1,0.1-0.1,0.1c0,0-0.1-0.1-0.1-0.1
				c0,0-0.1,0.1-0.1,0.1c0,0-0.1-0.1-0.1-0.1c0,0-0.1,0.1-0.1,0.1c0,0,0.1,0.1,0.1,0.1c0,0-0.1,0.1-0.1,0.1c0,0-0.1-0.1-0.1-0.1
				c0,0-0.1-0.1-0.1-0.1c0,0-0.1,0.1-0.1,0.1c0,0-0.1,0.1-0.1,0.1c0,0-0.1-0.1-0.1-0.1c0,0-0.1,0.1-0.1,0.1c0,0-0.1-0.1-0.1-0.1
				c0,0-0.1-0.1-0.1-0.1c0,0-0.1,0.1-0.1,0.1c0,0-0.1-0.1-0.1-0.1c0,0-0.1,0.1-0.1,0.1c0,0-0.1,0.1-0.1,0.1c0,0-0.1-0.1-0.1-0.1
				c0,0-0.1-0.1-0.1-0.1c0,0-0.1,0.1-0.1,0.1c0,0-0.1-0.1-0.1-0.1c0,0-0.1,0.1-0.1,0.1c0,0-0.1,0.1-0.1,0.1c0,0-0.1-0.1-0.1-0.1
				c0,0-0.1-0.1-0.1-0.1c0,0-0.1-0.1-0.1-0.1c0,0-0.1,0.1-0.1,0.1c0,0-0.1-0.1-0.1-0.1c0,0-0.1,0.1-0.1,0.1c0,0-0.1,0.1-0.1,0.1
				c0,0-0.1-0.1-0.1-0.1c0,0-0.1,0.1-0.1,0.1c0,0-0.1-0.1-0.1-0.1c0,0-0.1,0.1-0.1,0.1c-0.1,0-0.1-0.1-0.1-0.1c0,0-0.1-0.1-0.1-0.1
				c0,0-0.1,0.1-0.1,0.1c0,0-0.1-0.1-0.1-0.1c0,0-0.1,0.1-0.1,0.1c0,0-0.1,0.1-0.1,0.1c0,0-0.1,0.1-0.1,0.1c0,0-0.1-0.1-0.1-0.1
				c0,0-0.1,0.1-0.1,0.1c0,0-0.1-0.1-0.1-0.1c0,0-0.1,0.1-0.1,0.1c0,0-0.1,0.1-0.1,0.1c0,0-0.1-0.1-0.1-0.1c0,0-0.1,0.1-0.1,0.1
				c0,0-0.1-0.1-0.1-0.1c0,0-0.1-0.1-0.1-0.1c0,0-0.1-0.1-0.1-0.1c0,0-0.1,0.1-0.1,0.1c0,0-0.1,0.1-0.1,0.1c0,0-0.1-0.1-0.1-0.1
				C53.1,4.9,53,5,53,5c0,0-0.1-0.1-0.1-0.1c0,0-0.1,0.1-0.1,0.1c0,0-0.1-0.1-0.1-0.1c0,0-0.1-0.1-0.1-0.1c0,0-0.1-0.1-0.1-0.1
				c0,0-0.1,0.1-0.1,0.1c0,0-0.1,0.1-0.1,0.1c0,0-0.1-0.1-0.1-0.1c0,0-0.1-0.1-0.1-0.1c0,0-0.1-0.1-0.1-0.1c0,0-0.1,0.1-0.1,0.1
				c0,0-0.1,0.1-0.1,0.1c0,0-0.1,0.1-0.1,0.1C51.1,4.9,51,5,51,5c0,0-0.1-0.1-0.1-0.1c0,0-0.1,0.1-0.1,0.1c0,0-0.1-0.1-0.1-0.1
				c0,0-0.1,0.1-0.1,0.1c0,0-0.1-0.1-0.1-0.1c0,0-0.1-0.1-0.1-0.1c0,0-0.1,0.1-0.1,0.1c0,0-0.1,0.1-0.1,0.1c0,0-0.1-0.1-0.1-0.1
				c0,0,0.1-0.1,0.1-0.1c0,0-0.1-0.1-0.1-0.1c0,0-0.1,0.1-0.1,0.1c-0.1,0-0.1-0.1-0.1-0.1c0,0-0.1,0.1-0.1,0.1c0,0-0.1-0.1-0.1-0.1
				c0,0-0.1,0.1-0.1,0.1c0,0-0.1,0.1-0.1,0.1c0,0-0.1,0.1-0.1,0.1c0,0-0.1-0.1-0.1-0.1c0,0-0.1,0.1-0.1,0.1c0,0-0.1-0.1-0.1-0.1
				c0,0,0.1-0.1,0.1-0.1c0,0-0.1-0.1-0.1-0.1c0,0-0.1,0.1-0.1,0.1c0,0-0.1,0.1-0.1,0.1c0,0-0.1,0.1-0.1,0.1c0,0-0.1-0.1-0.1-0.1
				c0,0-0.1-0.1-0.1-0.1c0,0-0.1,0.1-0.1,0.1c0,0-0.1-0.1-0.1-0.1c0,0-0.1-0.1-0.1-0.1c0,0-0.1,0.1-0.1,0.1c0,0-0.1,0.1-0.1,0.1
				c0,0-0.1-0.1-0.1-0.1c0,0-0.1,0.1-0.1,0.1c0,0-0.1,0.1-0.1,0.1c0,0-0.1-0.1-0.1-0.1c0,0-0.1,0.1-0.1,0.1c0,0-0.1,0.1-0.1,0.1
				c0,0-0.1-0.1-0.1-0.1c0,0-0.1-0.1-0.1-0.1c0,0-0.1-0.1-0.1-0.1c0,0-0.1,0.1-0.1,0.1c0,0-0.1,0.1-0.1,0.1c0,0-0.1-0.1-0.1-0.1
				c0,0-0.1,0.1-0.1,0.1c0,0-0.1-0.1-0.1-0.1c0,0-0.1-0.1-0.1-0.1c0,0-0.1-0.1-0.1-0.1c0,0-0.1,0.1-0.1,0.1c0,0-0.1,0.1-0.1,0.1
				c0,0-0.1-0.1-0.1-0.1c0,0-0.1,0.1-0.1,0.1c0,0-0.1-0.1-0.1-0.1c0,0-0.1,0.1-0.1,0.1c0,0-0.1-0.1-0.1-0.1c0,0-0.1-0.1-0.1-0.1
				c0,0-0.1-0.1-0.1-0.1c0,0-0.1,0.1-0.1,0.1c0,0-0.1,0.1-0.1,0.1c0,0-0.1,0.1-0.1,0.1c0,0-0.1-0.1-0.1-0.1c0,0-0.1,0.1-0.1,0.1
				c0,0-0.1-0.1-0.1-0.1c0,0-0.1,0.1-0.1,0.1c0,0-0.1,0.1-0.1,0.1c-0.1,0-0.1-0.1-0.1-0.1c-0.1,0.1-0.2,0.2-0.3,0.3
				c-0.1-0.1-0.2-0.2-0.3-0.2C41.6,5,41.7,5,41.7,4.9c0,0,0.1-0.1,0.1-0.1c0,0-0.1-0.1-0.1-0.1c-0.1,0.1-0.2,0.2-0.3,0.3
				c0,0-0.1,0.1-0.1,0.1c0,0-0.1-0.1-0.1-0.1c0,0-0.1,0.1-0.1,0.1c-0.1,0-0.1-0.1-0.1-0.1c0,0-0.1,0.1-0.1,0.1c0,0-0.1-0.1-0.1-0.1
				c0,0-0.1,0.1-0.1,0.1c0,0-0.1,0.1-0.1,0.1c0,0-0.1,0.1-0.1,0.1c0,0-0.1-0.1-0.1-0.1c0,0-0.1,0.1-0.1,0.1c0,0-0.1-0.1-0.1-0.1
				c0,0,0.1-0.1,0.1-0.1c0,0-0.1-0.1-0.1-0.1c0,0,0.1-0.1,0.1-0.1c0,0-0.1-0.1-0.1-0.1c0,0-0.1,0.1-0.1,0.1c-0.1,0-0.1-0.1-0.1-0.1
				c0,0-0.1,0.1-0.1,0.1c0,0-0.1,0.1-0.1,0.1c0,0,0.2,0.1,0.1,0.1c0,0-0.1,0.1-0.1,0.1c0,0-0.1-0.1-0.1-0.1c0,0-0.1,0.1-0.1,0.1
				c0,0-0.1,0.1-0.1,0.1c0,0-0.1-0.1-0.1-0.1c0,0-0.1,0.1-0.1,0.1c0,0-0.1-0.1-0.1-0.1c0,0-0.1,0.1-0.1,0.1c0,0,0.1,0.1,0.1,0.1
				c0,0-0.1,0.1-0.1,0.1c0,0-0.1-0.1-0.1-0.1c0,0,0.1-0.1,0.1-0.1c0,0-0.1-0.1-0.1-0.1c0,0-0.1,0.1-0.1,0.1c0,0-0.1-0.1-0.1-0.1
				c0,0-0.1-0.1-0.1-0.1c0,0-0.1,0.1-0.1,0.1c0,0-0.1,0.1-0.1,0.1c0,0-0.1-0.1-0.1-0.1c0,0-0.1-0.1-0.1-0.1c0,0-0.1,0.1-0.1,0.1
				c0,0-0.1,0.1-0.1,0.1C36.7,5.4,36.6,5.5,36.5,5.6"/>
		</g>
	</g>
</g>
</svg>
