<?xml version="1.0" encoding="utf-8"?>
<!-- Generator: Adobe Illustrator 24.1.2, SVG Export Plug-In . SVG Version: 6.00 Build 0)  -->
<svg version="1.1" id="Capa_1" xmlns="http://www.w3.org/2000/svg" xmlns:xlink="http://www.w3.org/1999/xlink" x="0px" y="0px"
	 viewBox="0 0 300 225" style="enable-background:new 0 0 300 225;" xml:space="preserve">
<style type="text/css">
	.st0{fill:#BBEDED;}
	.st1{fill:#ACE0E0;}
	.st2{fill:#D1FFFF;}
	.st3{fill:#E6E9ED;stroke:#080808;stroke-width:3;}
	.st4{fill:#F5A8A2;stroke:#000000;stroke-width:4;}
</style>
<desc>Created with Sketch.</desc>
<g id="Page-1">
	<g id="tips-sabropollo" transform="translate(-328.000000, -1224.000000)">
		
			<g id="chicken-_x28_1_x29_" transform="translate(476.000000, 1335.500000) rotate(90.000000) translate(-476.000000, -1335.500000) translate(365.000000, 1188.000000)">
			<path id="Path" class="st0" d="M188.1,288H31.9C15.9,288,3,275.1,3,259.1V29.9C3,13.9,15.9,1,31.9,1h156.2
				c16,0,28.9,12.9,28.9,28.9v229.3C217,275.1,204.1,288,188.1,288z"/>
			<path id="Path_1_" class="st1" d="M191.2,1H174c15.9,0,28.8,12.9,28.8,28.9v229.3c0,15.9-12.9,28.9-28.8,28.9h17.2
				c15.9,0,28.8-12.9,28.8-28.9V29.9C220,13.9,207.1,1,191.2,1z"/>
			<path id="Path_2_" class="st2" d="M33.5,272c-6.4,0-11.5-5.2-11.5-11.5V31.5C22,25.2,27.2,20,33.5,20h155.9
				c6.4,0,11.5,5.2,11.5,11.5v228.9c0,6.4-5.2,11.5-11.5,11.5H33.5z"/>
			<path id="Path_3_" d="M189.8-2H34.2C15.9-2,1,12.9,1,31.1v22.2c0,2.4,1.9,4.3,4.3,4.3s4.3-1.9,4.3-4.3V31.1
				c0-13.5,11-24.5,24.5-24.5h155.7c13.5,0,24.5,11,24.5,24.5v228.7c0,13.5-11,24.5-24.5,24.5H34.2c-13.5,0-24.5-11-24.5-24.5V71.6
				c0-2.4-1.9-4.3-4.3-4.3S1,69.2,1,71.6v188.3C1,278.1,15.9,293,34.2,293h155.7c18.3,0,33.2-14.9,33.2-33.1V31.1
				C223,12.9,208.1-2,189.8-2z"/>
			<path id="Path_4_" d="M190.9,14H33.1C24.2,14,17,21.2,17,30v231c0,8.8,7.2,16,16.1,16h157.8c8.9,0,16.1-7.2,16.1-16V145.5
				c0-2.4-2-4.4-4.4-4.4s-4.4,2-4.4,4.4v66h-10.7c-2.4,0-4.4,2-4.4,4.4s2,4.4,4.4,4.4h10.7V261c0,4-3.3,7.3-7.3,7.3H33.1
				c-4,0-7.3-3.3-7.3-7.3v-24.4h8.9c2.4,0,4.4-2,4.4-4.4s-2-4.4-4.4-4.4h-8.9v-72.5h11.6c2.4,0,4.4-2,4.4-4.4c0-2.4-2-4.4-4.4-4.4
				H25.8V68.7h8.9c2.4,0,4.4-2,4.4-4.4c0-2.4-2-4.4-4.4-4.4h-8.9V30c0-4,3.3-7.3,7.3-7.3h157.8c4,0,7.3,3.3,7.3,7.3v49.9h-10.7
				c-2.4,0-4.4,2-4.4,4.4c0,2.4,2,4.4,4.4,4.4h10.7v38.2c0,2.4,2,4.4,4.4,4.4s4.4-2,4.4-4.4c0-2.6,0-80.8,0-96.9
				C207,21.2,199.8,14,190.9,14z"/>
			<path id="Path_5_" class="st3" d="M161.1,85.2h-25.6c1.6-2.6,2.5-5.4,2.5-8.2s-0.9-5.6-2.5-8.2h25.6c0-4.5,3.5-8.2,7.7-8.2
				c4.3,0,7.7,3.7,7.7,8.2v16.5c0,4.6-3.4,8.2-7.7,8.2C164.6,93.5,161.1,89.8,161.1,85.2z"/>
			<path id="Path-Copy" class="st3" d="M63.9,158.2h25.6c-1.6-2.6-2.5-5.4-2.5-8.2s0.9-5.6,2.5-8.2H63.9c0-4.5-3.5-8.2-7.7-8.2
				c-4.3,0-7.7,3.7-7.7,8.2v16.5c0,4.6,3.4,8.2,7.7,8.2C60.4,166.5,63.9,162.8,63.9,158.2z"/>
			<path id="Path-Copy-3" class="st3" d="M161.1,231.2h-25.6c1.6-2.6,2.5-5.4,2.5-8.2s-0.9-5.6-2.5-8.2h25.6c0-4.5,3.5-8.2,7.7-8.2
				c4.3,0,7.7,3.7,7.7,8.2v16.5c0,4.6-3.4,8.2-7.7,8.2C164.6,239.5,161.1,235.8,161.1,231.2z"/>
			<path id="Path_6_" class="st4" d="M134.4,70.5c1.7,2.4,2.6,4.9,2.6,7.5s-0.9,5.1-2.6,7.5C125.7,98.4,96.4,108,81.6,108
				C64.2,108,50,94.6,50,78s14.2-30,31.6-30C96.4,48,125.7,57.6,134.4,70.5z"/>
			<path id="Path-Copy-2" class="st4" d="M93.6,143.5c-1.7,2.4-2.6,4.9-2.6,7.5s0.9,5.1,2.6,7.5c8.8,12.9,38.1,22.5,52.8,22.5
				c17.5,0,31.6-13.4,31.6-30s-14.2-30-31.6-30C131.6,121,102.3,130.6,93.6,143.5z"/>
			<path id="Path-Copy-4" class="st4" d="M134.4,217.5c1.7,2.4,2.6,4.9,2.6,7.5s-0.9,5.1-2.6,7.5c-8.8,12.9-38.1,22.5-52.8,22.5
				C64.2,255,50,241.6,50,225s14.2-30,31.6-30C96.4,195,125.7,204.6,134.4,217.5z"/>
		</g>
	</g>
</g>
</svg>
