<?xml version="1.0" encoding="utf-8"?>
<!-- Generator: Adobe Illustrator 24.1.0, SVG Export Plug-In . SVG Version: 6.00 Build 0)  -->
<svg version="1.1" id="Capa_1" xmlns="http://www.w3.org/2000/svg" xmlns:xlink="http://www.w3.org/1999/xlink" x="0px" y="0px"
	 viewBox="0 0 300 225" style="enable-background:new 0 0 300 225;" xml:space="preserve">
<style type="text/css">
	.st0{fill:#4B6675;}
	.st1{fill:#294A59;}
	.st2{fill:#9FC3D7;}
	.st3{fill:#00B1FF;}
	.st4{fill:#FFFFFF;}
	.st5{fill:#C62430;}
</style>
<g id="Page-1">
	<g id="tips-sabrohuevo" transform="translate(-324.000000, -1228.000000)">
		<g id="Group-2" transform="translate(324.000000, 1228.000000)">
			<g id="wash" transform="translate(67.000000, 0.000000)">
				<g id="Group" transform="translate(35.000000, 6.000000)">
					<polygon id="Path" class="st0" points="178.5,44.7 178.5,87.9 135.8,87.9 135.8,2.5 178.5,2.5 178.5,21.6 					"/>
					<polygon id="Path_1_" class="st1" points="161.8,2.5 178.5,2.5 178.5,87.9 161.8,87.9 					"/>
					<path id="Path_2_" class="st2" d="M135.8,25.3v40H49.1v42.6h-40V62.8c0-20.7,16.8-37.5,37.5-37.5H135.8z"/>
					<polygon id="Path_3_" class="st0" points="9.1,87.9 49.1,87.9 49.1,107.9 9.1,107.9 					"/>
					<g id="Path_4_" transform="translate(0.000000, 138.817500)">
						<path class="st3" d="M5.5,11.6c0,6.2,5.1,11.3,11.3,11.3s11.3-5.1,11.3-11.3s-11.3-22-11.3-22S5.5,5.3,5.5,11.6L5.5,11.6z"/>
						<path class="st3" d="M50.2,29.2c0,0-11.3,15.8-11.3,22s5.1,11.3,11.3,11.3s11.3-5.1,11.3-11.3S50.2,29.2,50.2,29.2z"/>
					</g>
				</g>
				<g id="Group_1_">
					<path id="Shape" d="M213.3,31.9c2.8,0,5-2.2,5-5V7.7c0-2.8-2.3-5-5-5h-42.9c-2.8,0-5,2.2-5,5v17.9H80.8
						c-23.5,0-42.7,19.1-42.7,42.7v45.4c0,2.8,2.3,5,5,5h40.2c2.8,0,5-2.2,5-5V75.9h33.1c2.8,0,5-2.2,5-5c0-2.8-2.3-5-5-5H83.4
						c-2.8,0-5,2.2-5,5v17.7H48.2V68.3c0-18,14.6-32.6,32.6-32.6h84.6v30.2H145c-2.8,0-5,2.2-5,5c0,2.8,2.3,5,5,5h20.4v17.6
						c0,2.8,2.3,5,5,5h42.9c2.8,0,5-2.2,5-5V50.1c0-2.8-2.3-5-5-5s-5,2.2-5,5v38.3h-32.8V12.8h32.8v14.1
						C208.3,29.7,210.5,31.9,213.3,31.9L213.3,31.9z M78.3,98.6v10.1H48.2V98.6H78.3z"/>
					<path id="Shape_1_" d="M67.3,156.3c0-7.3-9.4-21-12.3-25.1c-0.9-1.3-2.5-2.1-4.1-2.1c-1.6,0-3.1,0.8-4.1,2.1
						c-2.9,4-12.3,17.7-12.3,25.1c0,9,7.4,16.4,16.4,16.4S67.3,165.3,67.3,156.3z M50.9,162.6c-3.5,0-6.3-2.8-6.3-6.3
						c0-1.8,2.7-7.3,6.3-13.1c3.7,5.8,6.3,11.3,6.3,13.1C57.2,159.8,54.4,162.6,50.9,162.6z"/>
					<path id="Shape_2_" d="M84.4,212.5c9,0,16.4-7.4,16.4-16.4c0-7.3-9.4-21-12.3-25.1c-0.9-1.3-2.5-2.1-4.1-2.1
						c-1.6,0-3.1,0.8-4.1,2.1c-2.9,4-12.3,17.7-12.3,25.1C68,205.2,75.4,212.5,84.4,212.5z M84.4,183c3.7,5.8,6.3,11.3,6.3,13.1
						c0,3.5-2.8,6.3-6.3,6.3c-3.5,0-6.3-2.8-6.3-6.3C78.1,194.3,80.8,188.9,84.4,183z"/>
					<path id="Path_5_" d="M84.4,154c2.8,0,5-2.2,5-5v-14.8c0-2.8-2.3-5-5-5c-2.8,0-5,2.2-5,5V149C79.4,151.8,81.6,154,84.4,154z"/>
					<path id="Path_6_" d="M46.9,184.1c-2.8,0-5,2.2-5,5v14.8c0,2.8,2.3,5,5,5c2.8,0,5-2.2,5-5v-14.8
						C51.9,186.3,49.7,184.1,46.9,184.1z"/>
					<path id="Path_7_" d="M12.8,180.8c0.5,0.1,1,0.2,1.4,0.2c2.2,0,4.2-1.4,4.8-3.6l12.5-41.8c0.8-2.7-0.7-5.5-3.4-6.3
						c-2.7-0.8-5.5,0.7-6.3,3.4L9.4,174.5C8.6,177.2,10.1,180,12.8,180.8L12.8,180.8z"/>
					<path id="Path_8_" d="M109.2,132.7c-0.8-2.7-3.6-4.2-6.3-3.4c-2.7,0.8-4.2,3.6-3.4,6.3l24.7,82.9c0.7,2.2,2.6,3.6,4.8,3.6
						c0.5,0,1-0.1,1.4-0.2c2.7-0.8,4.2-3.6,3.4-6.3L109.2,132.7z"/>
				</g>
			</g>
			
				<g id="no-stopping" transform="translate(92.000000, 134.500000) scale(-1, 1) translate(-92.000000, -134.500000) translate(0.000000, 43.000000)">
				<path id="Shape_3_" class="st4" d="M84.4,1.4C39,1.4,2.2,38,2.2,83.1s36.8,81.7,82.2,81.7s82.2-36.6,82.2-81.7
					S129.8,1.4,84.4,1.4z M20.2,83.1c0-14.4,4.8-27.6,12.8-38.3l89.9,89.4c-10.7,8-24.1,12.8-38.5,12.8
					C48.9,147,20.2,118.4,20.2,83.1z M135.7,121.6l-90-89.5C56.5,24,69.9,19.2,84.4,19.2c35.5,0,64.2,28.6,64.2,63.9
					C148.6,97.6,143.8,110.9,135.7,121.6z"/>
				<path id="Path_9_" class="st5" d="M82.6,1.4c-1.7,0-3.3,0.1-5,0.2c43.1,2.6,77.3,38.1,77.3,81.6c0,43.5-34.2,79-77.3,81.6
					c1.6,0.1,3.3,0.2,5,0.2c45.4,0,82.2-36.6,82.2-81.7S128,1.4,82.6,1.4z"/>
				<path id="Path_10_" d="M100.5,83.9c-1-1-2.6-1-3.6,0c-1,1-1,2.5,0,3.5l37.5,35.9c0.5,0.5,1.1,0.7,1.8,0.7c0.1,0,0.1,0,0.2,0
					c0.7,0,1.4-0.4,1.9-1c9.1-11.5,13.9-25.2,13.9-39.7c0-16.6-6.4-32.4-18.1-44.6c-11.6-12.1-27.4-19.6-44.5-21
					c-1.4-0.1-2.7,0.9-2.8,2.2c-0.1,1.3,0.9,2.5,2.3,2.7c15.8,1.3,30.4,8.3,41.2,19.5C141,53.4,147,68,147,83.3
					c0,12.4-3.8,24.3-11.1,34.4L100.5,83.9z"/>
				<path id="Path_11_" d="M81.3,17.3c-0.1-1.4-1.3-2.5-2.7-2.3c-12.5,1.1-24.4,5.9-34.5,13.7c-0.6,0.4-0.9,1.1-1,1.9
					c0,0.7,0.2,1.5,0.7,2l45.9,47.1c0.5,0.5,1.1,0.8,1.8,0.8c0.6,0,1.3-0.3,1.8-0.8c1-1,1-2.6,0-3.6L49.4,31.1
					c8.8-6.2,19-10,29.6-10.9C80.4,20,81.4,18.7,81.3,17.3z"/>
				<path id="Shape_4_" d="M36.2,39.5c-0.7,0.1-1.4,0.4-1.8,1C25.8,52,21.3,65.6,21.3,80c0,36.3,29.5,65.8,65.8,65.8
					c14.4,0,28-4.5,39.5-13.1c0.6-0.4,0.9-1.1,1-1.8c0-0.7-0.2-1.4-0.7-1.9L38.1,40.2C37.6,39.7,36.9,39.5,36.2,39.5z M87.1,140.9
					c-33.6,0-60.9-27.3-60.9-60.9c0-12.3,3.6-24.1,10.5-34.2l84.6,84.6C111.2,137.3,99.5,140.9,87.1,140.9z"/>
				<path id="Path_12_" d="M144.9,23C129.1,7.3,108.1-1.4,85.8-1.4S42.5,7.3,26.7,23C10.9,38.7,2.2,59.6,2.2,81.8
					c0,21.2,8,41.4,22.6,56.9c14.5,15.4,34.1,24.7,55.1,26.1c1.3,0.1,2.5-0.9,2.6-2.3c0.1-1.3-0.9-2.5-2.3-2.6
					c-19.8-1.4-38.3-10.1-51.9-24.6C14.6,120.8,7.1,101.8,7.1,81.8c0-20.9,8.2-40.6,23-55.4C45,11.7,64.8,3.5,85.8,3.5
					s40.8,8.1,55.6,22.9c14.9,14.8,23,34.5,23,55.4c0,20-7.5,39-21.2,53.5c-13.6,14.5-32.1,23.2-51.9,24.6c-1.3,0.1-2.4,1.3-2.3,2.6
					c0.1,1.3,1.2,2.3,2.4,2.3c0.1,0,0.1,0,0.2,0c21.1-1.5,40.6-10.7,55.1-26.1c14.6-15.5,22.6-35.7,22.6-56.9
					C169.3,59.6,160.6,38.7,144.9,23z"/>
			</g>
		</g>
	</g>
</g>
</svg>
