<?xml version="1.0" encoding="utf-8"?>
<!-- Generator: Adobe Illustrator 24.1.2, SVG Export Plug-In . SVG Version: 6.00 Build 0)  -->
<svg version="1.1" id="Capa_1" xmlns="http://www.w3.org/2000/svg" xmlns:xlink="http://www.w3.org/1999/xlink" x="0px" y="0px"
	 viewBox="0 0 300 225" style="enable-background:new 0 0 300 225;" xml:space="preserve">
<style type="text/css">
	.st0{fill:#353B44;}
	.st1{fill:#434A54;}
	.st2{fill:#FFCE54;}
	.st3{fill:#CCD1D9;}
	.st4{fill:#965353;}
	.st5{fill:#5D9CEC;}
	.st6{fill:#545C66;}
	.st7{fill:#656D78;}
	.st8{fill:#E6E9ED;}
</style>
<desc>Created with Sketch.</desc>
<g id="Page-1">
	<g id="tips-sabropollo" transform="translate(-339.000000, -3737.000000)">
		<g id="microwave" transform="translate(339.000000, 3737.000000)">
			<path id="Path" class="st0" d="M90.2,186.6c2.7,0,4.9,2.2,4.9,5v5c0,2.7-2.2,5-4.9,5H51c-2.7,0-4.9-2.2-4.9-5v-5
				c0-2.7,2.2-5,4.9-5H90.2z"/>
			<path id="Path_1_" class="st0" d="M273.5,186.6c2.7,0,4.9,2.2,4.9,5v5c0,2.7-2.2,5-4.9,5h-39.2c-2.7,0-4.9-2.2-4.9-5v-5
				c0-2.7,2.2-5,4.9-5H273.5z"/>
			<path id="Path_2_" class="st1" d="M29,189.3c0,2.6,2.1,4.7,4.7,4.7h257.1c2.6,0,4.7-2.1,4.7-4.7V37.8c0-2.6-2.1-4.7-4.7-4.7H33.7
				c-2.6,0-4.7,2.1-4.7,4.7V189.3z"/>
			<path id="Path_3_" class="st0" d="M36.5,170.2c0,2.6,2.1,4.7,4.7,4.7h173.9c2.6,0,4.7-2.1,4.7-4.7V58c0-2.6-2.1-4.7-4.7-4.7H41.2
				c-2.6,0-4.7,2.1-4.7,4.7V170.2z"/>
			<path id="Path_4_" class="st2" d="M183.5,138.6h13.9c0,18.9-14.5,34.1-32.4,34.1H95.5c-17.9,0-32.4-15.2-32.4-34.1h15.4h64.7
				H183.5z"/>
			<path id="Path_5_" class="st3" d="M172.1,126v-2.5c0-4.1,3-7.4,6.8-7.4c3.7,0,6.8,3.3,6.8,7.4v17.2h-39.4c2-3.1,3.1-6.4,3.1-9.8
				c0-1.7-0.3-3.3-0.8-4.9H172.1z"/>
			<path id="Path_6_" class="st4" d="M150.8,129.3c0.5,1.5,0.8,3,0.8,4.5c0,3.2-1.2,6.2-3.3,9.1H81.8v0c-1-2.8-1.6-5.8-1.6-9
				c0-15,12.8-27.2,28.6-27.2C122.9,106.6,146.2,116.5,150.8,129.3z"/>
			<polygon id="Path_7_" class="st5" points="242.2,69.3 278.4,69.3 278.4,93.8 242.2,93.8 			"/>
			<polygon id="Path_8_" class="st6" points="29.4,32.8 49.3,51.5 49.3,172.8 29.4,191.5 24.4,196.2 19.4,196.2 19.4,23.5 			"/>
			<polygon id="Path_9_" class="st7" points="4.5,23.5 19.4,23.5 19.4,196.2 4.5,196.2 			"/>
			<g id="Group" transform="translate(218.000000, 80.000000)">
				<path id="Path_10_" class="st8" d="M23.8,38.5c-2.7,0-4.9-2.2-4.9-4.8s2.1-4.8,4.8-4.8h0.1c2.7,0,4.8,2.2,4.8,4.8
					S26.5,38.5,23.8,38.5z"/>
				<path id="Path_11_" class="st8" d="M43.2,38.5c-2.7,0-4.9-2.2-4.9-4.8s2.1-4.8,4.8-4.8h0.1c2.7,0,4.8,2.2,4.8,4.8
					S45.8,38.5,43.2,38.5z"/>
				<path id="Path_12_" class="st8" d="M62.5,38.5c-2.7,0-4.9-2.2-4.9-4.8s2.1-4.8,4.8-4.8h0.1c2.7,0,4.8,2.2,4.8,4.8
					S65.1,38.5,62.5,38.5z"/>
				<path id="Path_13_" class="st8" d="M23.8,57.9c-2.7,0-4.9-2.2-4.9-4.8c0-2.7,2.1-4.8,4.8-4.8h0.1c2.7,0,4.8,2.2,4.8,4.8
					C28.7,55.7,26.5,57.9,23.8,57.9z"/>
				<path id="Path_14_" class="st8" d="M43.2,57.9c-2.7,0-4.9-2.2-4.9-4.8c0-2.7,2.1-4.8,4.8-4.8h0.1c2.7,0,4.8,2.2,4.8,4.8
					C48,55.7,45.8,57.9,43.2,57.9z"/>
				<path id="Path_15_" class="st8" d="M62.5,57.9c-2.7,0-4.9-2.2-4.9-4.8c0-2.7,2.1-4.8,4.8-4.8h0.1c2.7,0,4.8,2.2,4.8,4.8
					C67.3,55.7,65.1,57.9,62.5,57.9z"/>
				<path id="Path_16_" class="st8" d="M23.8,77.3c-2.7,0-4.9-2.2-4.9-4.8c0-2.7,2.1-4.8,4.8-4.8h0.1c2.7,0,4.8,2.2,4.8,4.8
					C28.7,75.1,26.5,77.3,23.8,77.3z"/>
				<path id="Path_17_" class="st8" d="M43.2,77.3c-2.7,0-4.9-2.2-4.9-4.8c0-2.7,2.1-4.8,4.8-4.8h0.1c2.7,0,4.8,2.2,4.8,4.8
					C48,75.1,45.8,77.3,43.2,77.3z"/>
				<path id="Path_18_" class="st8" d="M62.5,77.3c-2.7,0-4.9-2.2-4.9-4.8c0-2.7,2.1-4.8,4.8-4.8h0.1c2.7,0,4.8,2.2,4.8,4.8
					C67.3,75.1,65.1,77.3,62.5,77.3z"/>
			</g>
			<path id="Shape" class="st5" d="M281,99.2h-39.2c-2.7,0-4.9-2.2-4.9-4.9V69.9c0-2.7,2.2-4.9,4.9-4.9H281c2.7,0,4.9,2.2,4.9,4.9
				v24.4C285.9,97,283.7,99.2,281,99.2z M246.7,89.4h29.4V74.8h-29.4V89.4z"/>
			<path id="Path_19_" class="st8" d="M102.6,93.8c-1.9,0-3.7-1-4.6-2.7c-1.2-2.2-0.4-4.8,1.7-6.1c0-0.3-0.2-1.3-1.4-2.9
				c-2.8-3.9-3.8-7.6-2.8-10.9c1.1-3.8,4.2-5.4,4.8-5.7c2.5-1.2,5.6-0.2,6.9,2.1c1.2,2.2,0.4,4.8-1.7,6.1c0,0.3,0.2,1.3,1.4,2.9
				c2.8,3.9,3.8,7.6,2.8,10.9c-1.1,3.8-4.2,5.4-4.8,5.7C104.1,93.7,103.3,93.8,102.6,93.8L102.6,93.8z"/>
			<path id="Path_20_" class="st8" d="M129.2,93.8c-1.9,0-3.7-1-4.6-2.7c-1.2-2.2-0.4-4.8,1.7-6.1c0-0.3-0.2-1.3-1.4-2.9
				c-2.8-3.9-3.8-7.6-2.8-10.9c1.1-3.8,4.2-5.4,4.8-5.7c2.5-1.2,5.7-0.2,6.9,2.1c1.2,2.2,0.4,4.8-1.7,6.1c0,0.3,0.2,1.3,1.4,2.9
				c2.8,3.9,3.8,7.6,2.8,10.9c-1.1,3.8-4.2,5.4-4.8,5.7C130.8,93.7,130,93.8,129.2,93.8L129.2,93.8z"/>
			<path id="Path_21_" class="st8" d="M161.2,93.8c-1.9,0-3.7-1-4.6-2.7c-1.2-2.2-0.4-4.8,1.7-6.1c0-0.3-0.2-1.3-1.4-2.9
				c-2.8-3.9-3.8-7.6-2.8-10.9c1.1-3.8,4.2-5.4,4.8-5.7c2.6-1.2,5.6-0.2,6.9,2.1c1.2,2.2,0.4,4.8-1.7,6.1c0,0.3,0.2,1.3,1.4,2.9
				c2.8,3.9,3.8,7.6,2.8,10.9c-1.1,3.8-4.2,5.4-4.8,5.7C162.8,93.7,162,93.8,161.2,93.8z"/>
		</g>
	</g>
</g>
</svg>
