<?xml version="1.0" encoding="utf-8"?>
<!-- Generator: Adobe Illustrator 24.1.0, SVG Export Plug-In . SVG Version: 6.00 Build 0)  -->
<svg version="1.1" id="Capa_1" xmlns="http://www.w3.org/2000/svg" xmlns:xlink="http://www.w3.org/1999/xlink" x="0px" y="0px"
	 viewBox="0 0 300 225" style="enable-background:new 0 0 300 225;" xml:space="preserve">
<style type="text/css">
	.st0{fill:#D8D8D8;}
	.st1{fill:#F3E8D7;}
	.st2{fill:#69E6ED;}
	.st3{fill:#33D8DD;}
	.st4{fill:#0D6E9A;}
	.st5{fill:#FD8F31;}
	.st6{fill:#FF7F1F;}
	.st7{fill:#FCCF3F;}
	.st8{fill:#FC4E51;}
	.st9{fill:#E5394B;}
	.st10{fill:#FFFFFF;}
	.st11{fill:#C62430;}
</style>
<g id="Page-1">
	<g id="tips-sabrohuevo" transform="translate(-1274.000000, -1186.000000)">
		<g id="Group-2" transform="translate(1274.000000, 1186.000000)">
			<g id="cold">
				<path id="Path" class="st0" d="M95.9,85.7V22.3c0-8.6-6.9-15.6-15.4-15.6c-8.5,0-15.4,7-15.4,15.6v63.5
					c-6.9,4.9-11.4,13-11.4,22.2c0,15,12,27.1,26.8,27.1s26.8-12.1,26.8-27.1C107.3,98.7,102.8,90.6,95.9,85.7L95.9,85.7z"/>
				<path id="Path_1_" class="st1" d="M79.3,126c-10.5,0-19-8.4-19-18.7c0-7.8,4.9-14.8,12.4-17.5V22.2c0-3.6,3-6.5,6.6-6.5
					c3.7,0,6.6,2.9,6.6,6.5v67.6c7.4,2.7,12.4,9.7,12.4,17.5C98.3,117.6,89.8,126,79.3,126z"/>
				<path id="Path_2_" class="st2" d="M72.7,81v8.4c-7.4,2.8-12.4,9.8-12.4,17.7c0,10.4,8.5,18.9,19,18.9c10.5,0,19-8.5,19-18.9
					c0-7.9-4.9-15-12.4-17.7V81H72.7z"/>
				<path id="Path_3_" class="st3" d="M86.1,89.4V81H73.1v8.4c0,0,9,4.2,9,17.7c0,7.5-4.3,14-10.6,17.1c2.5,1.2,5.2,1.9,8.1,1.9
					c10.3,0,18.7-8.5,18.7-18.9C98.3,99.2,93.5,92.1,86.1,89.4L86.1,89.4z"/>
				<g id="Group" transform="translate(102.565583, 13.245614)">
					<path id="Path_4_" class="st4" d="M13.9,39.2H2.4c-1.1,0-2-0.8-2-1.9c0-1,0.9-1.9,2-1.9h11.5c1.1,0,2,0.8,2,1.9
						C15.8,38.4,15,39.2,13.9,39.2L13.9,39.2z"/>
					<path id="Path_5_" class="st4" d="M7.6,23.9H2.4c-1.1,0-2-0.8-2-1.9c0-1,0.9-1.9,2-1.9h5.2c1.1,0,2,0.8,2,1.9
						C9.6,23.1,8.7,23.9,7.6,23.9z"/>
					<path id="Path_6_" class="st4" d="M9.4,8.6H2.4c-1.1,0-2-0.8-2-1.9s0.9-1.9,2-1.9h7.1c1.1,0,2,0.8,2,1.9S10.5,8.6,9.4,8.6z"/>
					<path id="Path_7_" class="st4" d="M9.4,69.9H2.4c-1.1,0-2-0.8-2-1.9c0-1,0.9-1.9,2-1.9h7.1c1.1,0,2,0.8,2,1.9
						C11.4,69,10.5,69.9,9.4,69.9z"/>
					<path id="Path_8_" class="st4" d="M7.6,54.5H2.4c-1.1,0-2-0.8-2-1.9c0-1,0.9-1.9,2-1.9h5.2c1.1,0,2,0.8,2,1.9
						C9.6,53.7,8.7,54.5,7.6,54.5z"/>
				</g>
				<path id="Path_9_" class="st3" d="M52.7,44.3l-3.2-1.9l2.4-1c1-0.4,1.4-1.6,1-2.6c-0.4-1-1.5-1.5-2.5-1.1l-5.1,2.2l-6.7-4l6.7-4
					l5.1,2.2c0.2,0.1,0.5,0.1,0.7,0.1c0.7,0,1.4-0.5,1.7-1.2c0.4-1-0.1-2.2-1-2.6l-2.4-1l3.2-1.9c0.9-0.5,1.2-1.7,0.7-2.7
					c-0.5-1-1.7-1.3-2.6-0.8l-3.2,1.9l0.4-2.6c0.2-1.1-0.5-2.1-1.6-2.3c-1-0.2-2,0.6-2.2,1.6l-0.9,5.7l-6.9,4v-8.3l4.4-3.6
					c0.8-0.7,1-1.9,0.3-2.8c-0.6-0.9-1.8-1-2.7-0.3l-2,1.7v-3.9c0-1.1-0.8-2-1.9-2c-1,0-1.9,0.9-1.9,2v3.9l-2-1.7
					c-0.8-0.7-2-0.5-2.7,0.3c-0.6,0.9-0.5,2.1,0.3,2.8l4.4,3.6v8.3l-6.9-4L25,22.8c-0.2-1.1-1.1-1.8-2.2-1.6c-1,0.2-1.7,1.2-1.6,2.3
					l0.4,2.6l-3.2-1.9c-0.9-0.5-2.1-0.2-2.6,0.8c-0.5,1-0.2,2.2,0.7,2.7l3.2,1.9l-2.4,1c-1,0.4-1.4,1.6-1,2.6c0.3,0.8,1,1.2,1.7,1.2
					c0.2,0,0.5,0,0.7-0.1L24,32l6.7,4l-6.7,4l-5.1-2.2c-1-0.4-2.1,0.1-2.5,1.1c-0.4,1,0.1,2.2,1,2.6l2.4,1l-3.2,1.9
					c-0.9,0.5-1.2,1.7-0.7,2.7c0.3,0.6,1,1,1.6,1c0.3,0,0.6-0.1,0.9-0.3l3.2-1.9l-0.4,2.6c-0.2,1.1,0.5,2.1,1.6,2.3
					c0.1,0,0.2,0,0.3,0c0.9,0,1.7-0.7,1.9-1.7l0.9-5.7l6.9-4v8.3l-4.4,3.6c-0.8,0.7-1,1.9-0.3,2.8c0.6,0.9,1.8,1,2.7,0.3l2-1.7v3.9
					c0,1.1,0.8,2,1.9,2c1,0,1.9-0.9,1.9-2v-3.9l2,1.7c0.3,0.3,0.8,0.4,1.2,0.4c0.6,0,1.1-0.3,1.5-0.7c0.6-0.9,0.5-2.1-0.3-2.8
					l-4.4-3.6v-8.3l6.9,4l0.9,5.7c0.1,1,1,1.7,1.9,1.7c0.1,0,0.2,0,0.3,0c1-0.2,1.7-1.2,1.6-2.3l-0.4-2.6l3.2,1.9
					c0.3,0.2,0.6,0.3,0.9,0.3c0.7,0,1.3-0.4,1.6-1C53.9,46,53.6,44.8,52.7,44.3z"/>
			</g>
			<g id="hot" transform="translate(153.000000, 56.000000)">
				<path id="Path_10_" class="st5" d="M19.6,10.3c1.4,6.2,9,8.6,13.8,4.4c0.8-0.7,2,0.2,1.6,1.1c-2.5,5.8,2.1,12.2,8.5,11.6
					c1.1-0.1,1.5,1.3,0.6,1.9c-5.5,3.2-5.5,11.1,0,14.3c0.9,0.5,0.5,2-0.6,1.9c-6.4-0.6-11,5.8-8.5,11.6c0.4,1-0.8,1.9-1.6,1.1
					c-4.8-4.2-12.4-1.7-13.8,4.4c-0.2,1-1.7,1-2,0c-1.4-6.2-9-8.6-13.8-4.4c-0.8,0.7-2-0.2-1.6-1.1c2.5-5.8-2.1-12.2-8.5-11.6
					c-1.1,0.1-1.5-1.3-0.6-1.9c5.5-3.2,5.5-11.1,0-14.3c-0.9-0.5-0.5-2,0.6-1.9c6.4,0.6,11-5.8,8.5-11.6c-0.4-1,0.8-1.9,1.6-1.1
					c4.8,4.2,12.4,1.7,13.8-4.4C17.9,9.2,19.4,9.2,19.6,10.3z"/>
				<path id="Path_11_" class="st6" d="M46.3,43.6c-5.7-3.2-5.7-11.1,0-14.3c1-0.5,0.5-2-0.6-1.9c-6.6,0.6-11.4-5.8-8.8-11.6
					c0.4-1-0.8-1.9-1.7-1.1c-5,4.2-12.8,1.7-14.2-4.4c-0.2-1-1.8-1-2,0c-0.5,2.3-1.9,4-3.8,5.2c6.4,4.9,10.5,12.5,10.5,21
					c0,8.5-4.1,16.1-10.5,21c1.8,1.1,3.2,2.9,3.8,5.2c0.2,1,1.8,1,2,0c1.5-6.2,9.3-8.6,14.2-4.4c0.8,0.7,2.1-0.2,1.7-1.1
					c-2.6-5.8,2.2-12.2,8.8-11.6C46.8,45.6,47.3,44.2,46.3,43.6z"/>
				<path id="Path_12_" class="st7" d="M28.8,36.5c0,6.2-5.1,11.2-11.3,11.2c-6.2,0-11.3-5-11.3-11.2c0-6.2,5.1-11.2,11.3-11.2
					C23.7,25.2,28.8,30.3,28.8,36.5z"/>
				<path id="Path_13_" class="st0" d="M99.7,99.3V18.2c0-11-9-19.9-20.1-19.9c-11.1,0-20.1,8.9-20.1,19.9v81.1
					c-9,6.3-14.9,16.6-14.9,28.4c0,19.1,15.7,34.7,35,34.7s35-15.5,35-34.7C114.5,116,108.7,105.6,99.7,99.3L99.7,99.3z"/>
				<path id="Path_14_" class="st1" d="M79.6,151.1c-13.1,0-23.7-10.8-23.7-24c0-10.1,6.2-19,15.4-22.5V17.9c0-4.6,3.7-8.4,8.3-8.4
					c4.6,0,8.3,3.8,8.3,8.4v86.7c9.3,3.5,15.4,12.4,15.4,22.5C103.3,140.3,92.6,151.1,79.6,151.1z"/>
				<path id="Path_15_" class="st8" d="M71.3,34.2V105c-9.3,3.5-15.4,12.3-15.4,22.3c0,13.1,10.6,23.8,23.7,23.8
					s23.7-10.7,23.7-23.8c0-10-6.2-18.8-15.4-22.3V34.2H71.3z"/>
				<g id="Group_1_" transform="translate(138.071384, 13.219178)">
					<path id="Path_16_" class="st4" d="M-10.4,41.5h-14.9c-1.4,0-2.6-1.1-2.6-2.5c0-1.4,1.2-2.5,2.6-2.5h14.9
						c1.4,0,2.6,1.1,2.6,2.5C-7.8,40.4-8.9,41.5-10.4,41.5L-10.4,41.5z"/>
					<path id="Path_17_" class="st4" d="M-18.5,21.4h-6.8c-1.4,0-2.6-1.1-2.6-2.5s1.2-2.5,2.6-2.5h6.8c1.4,0,2.6,1.1,2.6,2.5
						S-17.1,21.4-18.5,21.4z"/>
					<path id="Path_18_" class="st4" d="M-16.1,1.4h-9.2c-1.4,0-2.6-1.1-2.6-2.5s1.2-2.5,2.6-2.5h9.2c1.4,0,2.6,1.1,2.6,2.5
						S-14.7,1.4-16.1,1.4z"/>
					<path id="Path_19_" class="st4" d="M-16.1,81.5h-9.2c-1.4,0-2.6-1.1-2.6-2.5c0-1.4,1.2-2.5,2.6-2.5h9.2c1.4,0,2.6,1.1,2.6,2.5
						C-13.5,80.4-14.7,81.5-16.1,81.5z"/>
					<path id="Path_20_" class="st4" d="M-18.5,61.5h-6.8c-1.4,0-2.6-1.1-2.6-2.5c0-1.4,1.2-2.5,2.6-2.5h6.8c1.4,0,2.6,1.1,2.6,2.5
						C-15.9,60.4-17.1,61.5-18.5,61.5z"/>
				</g>
				<path id="Path_21_" class="st9" d="M87.9,105V34.2H71.4V105c0,0,11.4,5.3,11.4,22.3c0,9.4-5.5,17.6-13.4,21.5
					c3.1,1.5,6.6,2.4,10.2,2.4c13,0,23.6-10.7,23.6-23.8C103.3,117.3,97.1,108.5,87.9,105L87.9,105z"/>
			</g>
			
				<g id="no-stopping-copy" transform="translate(152.000000, 152.500000) scale(-1, 1) translate(-152.000000, -152.500000) translate(61.000000, 61.000000)">
				<path id="Shape" class="st10" d="M97.1-0.2C55-0.2,20.8,34.1,20.8,76.4s34.1,76.6,76.2,76.6s76.2-34.3,76.2-76.6
					S139.2-0.2,97.1-0.2z M37.5,76.4c0-13.5,4.4-25.9,11.9-35.9l83.4,83.8c-10,7.5-22.3,12-35.7,12C64.2,136.3,37.5,109.5,37.5,76.4
					z M144.6,112.5L61.2,28.6c10-7.6,22.4-12.1,35.9-12.1c32.9,0,59.6,26.8,59.6,59.9C156.6,90,152.1,102.5,144.6,112.5z"/>
				<path id="Path_22_" class="st11" d="M94.9-0.2c-1.5,0-3.1,0.1-4.6,0.1c39.9,2.4,71.5,35.7,71.5,76.5c0,40.8-31.6,74.1-71.5,76.5
					c1.5,0.1,3.1,0.1,4.6,0.1c42,0,76.1-34.3,76.1-76.6S137-0.2,94.9-0.2z"/>
				<path id="Path_23_" d="M112.1,77.4c-0.9-0.9-2.4-0.9-3.4,0c-0.9,0.9-0.9,2.3,0,3.2l34.7,33.5c0.4,0.4,1,0.7,1.7,0.7
					c0.1,0,0.1,0,0.2,0c0.7,0,1.3-0.4,1.7-0.9c8.4-10.7,12.9-23.6,12.9-37c0-15.5-6-30.2-16.8-41.6c-10.8-11.3-25.4-18.3-41.2-19.6
					c-1.3-0.1-2.5,0.8-2.6,2.1c-0.1,1.3,0.8,2.4,2.1,2.5c14.6,1.3,28.1,7.7,38.1,18.2c10,10.5,15.5,24.2,15.5,38.5
					c0,11.6-3.6,22.7-10.3,32.1L112.1,77.4z"/>
				<path id="Path_24_" d="M94.3,15.5c-0.1-1.3-1.2-2.3-2.5-2.2C80.2,14.4,69.2,18.8,59.9,26c-0.5,0.4-0.9,1.1-0.9,1.7
					c0,0.7,0.2,1.4,0.7,1.9l42.4,43.8c0.5,0.5,1,0.7,1.6,0.7c0.6,0,1.2-0.2,1.6-0.7c0.9-0.9,0.9-2.5,0-3.4L64.8,28.3
					C73,22.5,82.4,19,92.2,18.1C93.5,18,94.4,16.8,94.3,15.5z"/>
				<path id="Shape_1_" d="M52.6,35.9c-0.7,0-1.3,0.4-1.7,0.9c-8,10.7-12.2,23.4-12.2,36.8c0,33.9,27.4,61.4,61.1,61.4
					c13.3,0,26-4.2,36.6-12.3c0.5-0.4,0.9-1,0.9-1.7c0-0.7-0.2-1.3-0.7-1.8L54.4,36.5C53.9,36,53.3,35.8,52.6,35.9z M99.9,130.5
					c-31.2,0-56.6-25.5-56.6-56.9c0-11.5,3.4-22.5,9.8-32l78.6,79C122.3,127.1,111.3,130.5,99.9,130.5z"/>
				<path id="Path_25_" d="M152.9,20.3c-14.6-14.7-34-22.8-54.7-22.8S58.1,5.6,43.5,20.3C28.9,35,20.8,54.6,20.8,75.4
					c0,19.8,7.4,38.7,20.9,53.2c13.4,14.4,31.5,23.1,51,24.5c1.2,0.1,2.3-0.9,2.4-2.1c0.1-1.3-0.9-2.3-2.1-2.4
					c-18.4-1.3-35.4-9.5-48-23c-12.7-13.6-19.7-31.4-19.7-50.1c0-19.6,7.6-38,21.3-51.8C60.4,9.7,78.7,2.1,98.2,2.1
					s37.7,7.6,51.5,21.5C163.4,37.4,171,55.8,171,75.4c0,18.7-7,36.5-19.7,50.1c-12.6,13.6-29.7,21.7-48,23
					c-1.2,0.1-2.2,1.2-2.1,2.4c0.1,1.2,1.1,2.1,2.3,2.1c0.1,0,0.1,0,0.2,0c19.5-1.4,37.6-10.1,51-24.5
					c13.5-14.5,20.9-33.4,20.9-53.2C175.5,54.6,167.5,35,152.9,20.3z"/>
			</g>
		</g>
	</g>
</g>
</svg>
