<?xml version="1.0" encoding="utf-8"?>
<!-- Generator: Adobe Illustrator 24.1.2, SVG Export Plug-In . SVG Version: 6.00 Build 0)  -->
<svg version="1.1" id="Capa_1" xmlns="http://www.w3.org/2000/svg" xmlns:xlink="http://www.w3.org/1999/xlink" x="0px" y="0px"
	 viewBox="0 0 300 225" style="enable-background:new 0 0 300 225;" xml:space="preserve">
<style type="text/css">
	.st0{fill-rule:evenodd;clip-rule:evenodd;fill:#DB885E;}
	.st1{fill-rule:evenodd;clip-rule:evenodd;fill:#B3E59F;}
	.st2{fill-rule:evenodd;clip-rule:evenodd;fill:#C57142;}
	.st3{fill-rule:evenodd;clip-rule:evenodd;fill:#EFECFF;}
	.st4{fill-rule:evenodd;clip-rule:evenodd;fill:#95D6A4;}
	.st5{fill-rule:evenodd;clip-rule:evenodd;fill:#F8D2AB;}
	.st6{fill-rule:evenodd;clip-rule:evenodd;fill:#FFBB8B;}
	.st7{fill-rule:evenodd;clip-rule:evenodd;fill:#D5CEF7;}
	.st8{fill-rule:evenodd;clip-rule:evenodd;fill:#A9AAC9;}
	.st9{fill-rule:evenodd;clip-rule:evenodd;fill:#8080A4;}
	.st10{fill-rule:evenodd;clip-rule:evenodd;fill:#FF9A9F;}
	.st11{fill-rule:evenodd;clip-rule:evenodd;fill:#FF8086;}
</style>
<desc>Created with Sketch.</desc>
<g id="Page-1">
	<g id="tips-sabropollo" transform="translate(-1338.000000, -5511.000000)">
		<g id="bbq" transform="translate(1338.000000, 5511.000000)">
			<path id="Path" class="st0" d="M134.7,179.6l117.1-8.7c22.8-25.5,14-63.8-16.3-76.8l-53.1-18.6l1.5-0.8
				c-28.1-5.1-52.8,4.6-66.6,22.2c-23.3,7.5-32.4,19.4-36,29.3C77,145.5,74.2,179.3,134.7,179.6z"/>
			<path id="Path_1_" class="st1" d="M58.6,145.7c-15.4,1.4-22.2,16.5-18.7,27.7l38.7,9.9l41.1-9.9c3.9-12-3.3-26.3-18.7-27.7
				c-2.2-11.9-11-18.1-20.1-18.5C71.2,126.7,61.1,132.9,58.6,145.7z"/>
			<path id="Path_2_" class="st2" d="M134.2,81.8c7.6-0.8,15.7-0.6,24.1,0.8l9.3,3.1c3.9-3.7,8.9-7.2,15.1-10.2l1.5-0.7
				C165.3,71.5,147.9,74.5,134.2,81.8z"/>
			<path id="Path_3_" class="st2" d="M230.6,115.7c12.1,15.7,13.4,38.8,2.6,57.8h19c22.3-26.3,13.7-65.8-16-79.3l-5.1,19.7
				C230.9,114.5,230.7,115.1,230.6,115.7L230.6,115.7z"/>
			<path id="Path_4_" class="st3" d="M237.4,45.5l-10.5,13l0.8,10.1l10.3-1.1l10.5-13c9.3,7.5,19.3-5,10-12.4
				c-2.2-1.7-5.6-0.9-7.3-2.2c-1.7-1.4-1.7-4.9-3.9-6.7C238.1,25.6,228.1,38,237.4,45.5L237.4,45.5z"/>
			<path id="Path_5_" class="st4" d="M91.5,157.9c0,5.5-0.8,10.7-2.2,15.6h29.1c3.9-11.5-3.3-25.4-18.6-26.7
				c-0.3-1.8-0.9-3.6-1.5-5.1c-0.2-0.4-0.4-0.9-0.6-1.3c-3-5.8-8-9.4-13.6-10.8c4.6,7.9,7.4,17.6,7.4,28.1
				C91.5,157.8,91.5,157.8,91.5,157.9L91.5,157.9z"/>
			<path id="Path_6_" class="st5" d="M182.9,74.3c-34.3,18.1-30,52.5-10.7,66.5c17.8,13,50.1,4.3,58.4-27.4l5.2-19.8l5.2-19.9
				c1.1-4.1,0.3-7.4-1.8-9.1l-11.4-9.4c-2.1-1.7-5.5-1.8-9.1,0.2l-34.3,18.2L182.9,74.3z"/>
			<path id="Path_7_" class="st6" d="M171.9,140.9c17.6,12.8,49.4,4.3,57.6-27.2l5.2-19.7l5.2-19.7c1.1-4.1,0.3-7.3-1.8-9l-9.5-7.8
				c0,1-0.2,2-0.5,3.2L223,80.4l-5.2,19.7c-8.1,30.9-39,39.7-56.8,27.8C163.6,133,167.3,137.6,171.9,140.9z"/>
			<path id="Path_8_" class="st7" d="M233,61.5l5.6,4.6l10.3-13.5c9.1,7.8,18.9-5.1,9.8-12.9c-0.2-0.2-0.4-0.3-0.6-0.4
				c0.3,6-3.9,10-10.2,5.8c-1.4-0.9-1.8-0.1-2.8,1.3L233,61.5z"/>
			<path id="Path_9_" class="st8" d="M148.2,186.9l101.9,13.6v9.1c0,5-4,9.1-9,9.1H55.3c-4.9,0-9-4.1-9-9.1v-9.1L148.2,186.9z"/>
			<path id="Path_10_" class="st9" d="M210.1,199.1v9.8c0,1-0.1,1.9-0.4,2.8c-1.1,4-4.5,7-8.4,7h38.8c4.8,0,8.8-4.4,8.8-9.8v-9.8
				h-11h-15L210.1,199.1L210.1,199.1z"/>
			<path id="Path_11_" class="st10" d="M272,176.6v10.3c0,7.4-6.1,13.4-13.5,13.4h-5.9h-11.2H104H48.6h-5.9c-7.4,0-13.5-6-13.5-13.4
				v-10.3c0-1.7,1.4-3.1,3.2-3.1H78h1.7h53.6h123.2h12.4C270.6,173.5,272,174.9,272,176.6z"/>
			<path id="Path_12_" class="st11" d="M224.5,200.3h15.1h11h5.8c7.3,0,13.2-6,13.2-13.4v-10.3c0-1.7-1.4-3.1-3.1-3.1h-12.2h-16.5
				v11.6C237.8,193.3,236.5,200.3,224.5,200.3L224.5,200.3z"/>
			<g id="Group">
				<path id="Path_13_" d="M138.8,44.8c0.7,0.5,1.5,0.8,2.3,0.8c1.1,0,2.1-0.5,2.9-1.4c1.2-1.6,1-3.9-0.6-5.1c0,0-1.7-1.4-2.7-3.6
					c-1.3-2.9-1-5.8,1.1-8.8c8-11.8,0.5-18.5-2-20.8c-0.2-0.2-0.4-0.3-0.5-0.5c-1.4-1.4-3.7-1.4-5.1,0c-1.4,1.4-1.4,3.7,0,5.1
					c0.2,0.2,0.5,0.4,0.7,0.7c2.4,2.1,5.3,4.8,0.9,11.3C128.8,32.7,134.7,41.5,138.8,44.8z"/>
				<path id="Path_14_" d="M97.2,59.6c0.7,0.5,1.5,0.8,2.3,0.8c1.1,0,2.1-0.5,2.9-1.4c1.2-1.6,1-3.9-0.6-5.1c0,0-1.8-1.5-2.8-3.8
					c-1.2-2.8-0.8-5.6,1.2-8.6c8-11.8,0.5-18.5-2-20.8c-0.2-0.2-0.4-0.3-0.5-0.5c-1.4-1.4-3.7-1.4-5.1,0c-1.4,1.4-1.4,3.7,0,5.1
					c0.2,0.2,0.5,0.4,0.7,0.7c2.4,2.1,5.3,4.8,0.9,11.3C87.2,47.6,93.1,56.4,97.2,59.6z"/>
				<path id="Shape" d="M267.2,169.4h-8.8c8.2-12.1,11-26.7,7.9-40.9c-3.4-15.4-13.3-28-27.4-35.1l4.5-16.4c1-3.7,0.7-7.2-0.7-9.8
					l7-8.6c3.2,1.5,6.5,1.6,9.6,0.4c3.9-1.5,6.7-5,7.3-9.1c0.6-4.3-1.2-8.5-5.1-11.6c-2-1.6-4.3-1.9-6-2.1c-0.5-0.1-1.1-0.1-1.5-0.2
					c-0.2-0.3-0.4-1-0.6-1.4c-0.6-1.6-1.4-3.8-3.5-5.4c-6.7-5.3-13.9-3.3-17.6,1.3c-3,3.8-3.7,9.6,0.1,14.5l-7,8.6
					c-2.9-0.8-6.4-0.3-9.8,1.4l-33.5,17.1c-13.7-2.3-27.3-1.3-39.4,3c-11.6,4.1-21.7,11.1-29,20.2c-18.5,6.2-30.8,16-36.5,29.1
					c-9.3,0.5-19.4,6.3-22.9,18.4c-6.7,1.2-12.4,4.9-16.1,10.5c-3.2,4.8-4.6,10.6-4.1,16.1h-1.9c-3.7,0-6.8,3-6.8,6.7v10.1
					c0,9.3,7.6,16.8,17,16.8h2.2v5.1c0,6.9,5.6,12.4,12.5,12.4h184.9c6.9,0,12.6-5.6,12.6-12.4V203h2.2c9.4,0,17-7.5,17-16.8v-10.1
					C274,172.4,271,169.4,267.2,169.4L267.2,169.4z M240.3,47c0.6-0.8,0.9-1.7,0.8-2.7c-0.1-1-0.6-1.9-1.4-2.5
					c-3.2-2.5-2.8-5.3-1.5-6.9c1.3-1.7,4.1-2.7,7.4-0.1c0.4,0.3,0.8,1.3,1.2,2.3c0.6,1.5,1.2,3.3,2.8,4.6c1.6,1.3,3.5,1.5,5.1,1.7
					c0.9,0.1,2,0.3,2.4,0.6c1.8,1.5,2.7,3.1,2.4,4.8c-0.2,1.5-1.3,2.9-2.8,3.4c-1.7,0.7-3.6,0.2-5.5-1.3c-1.6-1.2-3.8-1-5.1,0.6
					l-8.6,10.6l-5.8-4.6L240.3,47z M183,79.9l36-18.4c2.2-1.1,4.3-1.4,5.3-0.6l11.5,9.1c0,0,0,0,0,0l0,0c1,0.8,1.2,2.7,0.6,5.1
					l-10.5,38.6c-3.6,13.2-12.5,23.2-24.4,27.5c-10.1,3.6-21.2,2.6-28.8-2.8c-8.9-6.3-14-16.9-13.3-27.8
					C160.3,98.2,168.7,87.2,183,79.9L183,79.9z M44.4,157.3c2.9-4.4,7.7-7.1,13.3-7.6c1.6-0.1,2.9-1.3,3.3-2.9
					c2.2-11.3,11.1-15.2,17.9-15.2c6.8,0,15.5,4,17.6,15.1c0.3,1.6,1.6,2.8,3.3,3c5.9,0.5,10.8,3.2,13.7,7.7c2.3,3.5,3.2,7.9,2.5,12
					H82.4V163c0,0,0,0,0,0v-14.7c0-2-1.6-3.6-3.6-3.6c-2,0-3.6,1.6-3.6,3.6v9.1l-8.1-3.6c-1.8-0.8-4,0-4.8,1.8c-0.8,1.8,0,4,1.8,4.8
					l11.1,4.9v4.1H41.6C41,165.3,42,160.9,44.4,157.3L44.4,157.3z M266.7,186.2c0,5.3-4.4,9.6-9.7,9.6H119.2c-2,0-3.6,1.6-3.6,3.6
					c0,2,1.6,3.6,3.6,3.6h128.3v5.1c0,2.8-2.4,5.2-5.3,5.2H57.4c-2.9,0-5.3-2.3-5.3-5.2V203h49.1c2,0,3.6-1.6,3.6-3.6
					c0-2-1.6-3.6-3.6-3.6H42.6c-5.4,0-9.7-4.3-9.7-9.6v-9.5h5.8h0.1h147c2,0,3.6-1.6,3.6-3.6c0-2-1.6-3.6-3.6-3.6h-62.4
					c0.6-5.6-0.7-11.3-3.8-16c-3.7-5.7-9.5-9.4-16.5-10.6c-2.8-10-10.2-15.7-17.9-17.7c5.4-10.3,16.1-18.1,32.1-23.3
					c0.7-0.2,1.3-0.6,1.7-1.2c11.9-15.2,31.5-23.3,52.8-22.3c-11.8,8.3-18.6,19.4-19.5,31.9c-0.9,13.4,5.3,26.5,16.3,34.2
					c5.9,4.2,13.2,6.3,20.8,6.3c4.8,0,9.8-0.9,14.6-2.6c14.2-5.1,24.7-16.9,28.9-32.4l4.1-15.1c11.4,6.2,19.4,16.7,22.2,29.4
					c3.1,13.9-0.5,28.1-9.9,39.4h-47.7c-2,0-3.6,1.6-3.6,3.6s1.6,3.6,3.6,3.6h65V186.2z"/>
			</g>
		</g>
	</g>
</g>
</svg>
