<?xml version="1.0" encoding="utf-8"?>
<!-- Generator: Adobe Illustrator 24.1.0, SVG Export Plug-In . SVG Version: 6.00 Build 0)  -->
<svg version="1.1" id="Capa_1" xmlns="http://www.w3.org/2000/svg" xmlns:xlink="http://www.w3.org/1999/xlink" x="0px" y="0px"
	 viewBox="0 0 300 225" style="enable-background:new 0 0 300 225;" xml:space="preserve">
<style type="text/css">
	.st0{fill:#D9CCBC;}
	.st1{fill:#EBE5DD;}
	.st2{fill:#FFFFFF;}
	.st3{fill:#C62430;}
</style>
<g id="Page-1">
	<g id="tips-sabrohuevo" transform="translate(-1328.000000, -3075.000000)">
		<g id="Group" transform="translate(1328.000000, 3075.000000)">
			<g id="egg-_x28_2_x29_-copy" transform="translate(73.000000, 0.000000)">
				<path id="Path" class="st0" d="M179.6,111.4c0,49.1-23.5,73-53.5,76.8c-2.8,0.4-5.7,0.5-8.6,0.5c-34,0-61-23.6-61-77.3
					c0-53.7,34.6-104.8,61.6-104.4c2.9,0.1,5.8,0.5,8.7,1.4C154.3,17.1,179.6,62.8,179.6,111.4z"/>
				<path id="Path_1_" class="st1" d="M179.6,111.1c0,49.7-23.3,73.8-53.1,77.6c-29.6-3.8-52.1-27.9-52.1-77.6
					c0-48.7,27.7-95.3,52.7-104C154.5,15.7,179.6,61.9,179.6,111.1z"/>
				<path id="Path_2_" d="M59.8,121.8c-2.3-29.1,5.4-58.3,19.5-81.3c7.9-12.9,23.1-30.8,38.3-30.6c4.7,0.1,9.5,1.5,14.3,4.1
					c1.3,0.7,3,0.2,3.7-1.1c0.7-1.3,0.2-3-1.1-3.7c-5.2-2.9-11.2-4.8-17.3-4.8c-13.9,0-29.9,12.4-42.6,33.2
					C60,61.6,52,91.9,54.3,122.2c0.1,1.4,1.3,2.5,2.7,2.5C58.7,124.7,59.9,123.4,59.8,121.8z"/>
				<path id="Path_3_" d="M168.1,160.3c-1.3-0.8-3-0.5-3.8,0.8c-10.3,16.1-26.3,24.6-46.4,24.6c-29.9,0-50.3-19.5-56-53.5
					c-0.3-1.5-1.7-2.5-3.2-2.3c-1.5,0.3-2.5,1.7-2.2,3.2c6.5,39.1,30.7,58.2,61.4,58.2c21.7,0,39.8-9.6,51-27.1
					C169.7,162.8,169.4,161.1,168.1,160.3z"/>
				<path id="Path_4_" d="M145.6,15.4c-1.1-1-2.8-0.9-3.8,0.3c-1,1.1-0.8,2.9,0.3,3.9c30.8,27.1,44.2,93,27.5,132.1
					c-0.6,1.4,0,3,1.4,3.6c1.4,0.6,2.9,0,3.5-1.4C192,112.8,178.5,44.4,145.6,15.4z"/>
			</g>
			<g id="freezer-copy-2" transform="translate(0.000000, 69.000000)">
				<path id="Path_5_" class="st2" d="M115.4,68.5l-8.4-4.6l7.2-4.1c1.3-0.8,1.8-2.4,1-3.7c-0.8-1.3-2.5-1.7-3.8-0.9l-10,5.6
					l-15-8.3l15-8.3l10,5.6c0.4,0.3,0.9,0.4,1.4,0.4c1,0,1.9-0.5,2.4-1.3c0.8-1.3,0.3-2.9-1-3.7l-7.2-4.1l8.4-4.6
					c1.3-0.7,1.8-2.4,1-3.7c-0.8-1.3-2.5-1.7-3.8-1l-8.4,4.6l-0.1-8c0-1.5-1.3-2.7-2.8-2.7c-1.6,0-2.8,1.2-2.8,2.7l0.1,11.1l-15,8.3
					V31.2l10.1-5.5c1.3-0.7,1.8-2.4,1.1-3.7c-0.8-1.3-2.5-1.7-3.8-1l-7.3,4v-9.2c0-1.5-1.3-2.7-2.8-2.7S78,14.3,78,15.8V25l-7.3-4
					c-1.4-0.7-3.1-0.3-3.8,1c-0.8,1.3-0.3,2.9,1.1,3.7L78,31.2v16.6l-15-8.3l0.1-11.1c0-1.5-1.2-2.7-2.8-2.7c0,0,0,0,0,0
					c-1.5,0-2.8,1.2-2.8,2.7l-0.1,8L49,31.8c-1.3-0.7-3.1-0.3-3.8,1c-0.8,1.3-0.3,2.9,1,3.7l8.4,4.6l-7.2,4.1
					c-1.3,0.8-1.8,2.4-1,3.7c0.5,0.9,1.5,1.3,2.4,1.3c0.5,0,1-0.1,1.4-0.4l10-5.6l15,8.3l-15,8.3l-10-5.6c-1.3-0.8-3.1-0.3-3.8,0.9
					c-0.8,1.3-0.3,2.9,1,3.7l7.2,4.1l-8.4,4.6c-1.3,0.7-1.8,2.4-1,3.7c0.5,0.9,1.5,1.3,2.4,1.3c0.5,0,1-0.1,1.4-0.4l8.4-4.6l0.1,8
					c0,1.5,1.3,2.7,2.8,2.7c0,0,0,0,0,0c1.6,0,2.8-1.2,2.8-2.7L63,65.5l15-8.3v16.6l-10.1,5.5c-1.3,0.7-1.8,2.4-1.1,3.7
					c0.5,0.9,1.5,1.4,2.4,1.4c0.5,0,0.9-0.1,1.4-0.3l7.3-4v9.2c0,1.5,1.3,2.7,2.8,2.7s2.8-1.2,2.8-2.7V80l7.3,4
					c0.4,0.2,0.9,0.3,1.4,0.3c1,0,1.9-0.5,2.4-1.4c0.8-1.3,0.3-2.9-1.1-3.7l-10.1-5.5V57.2l15,8.3l-0.1,11.1c0,1.5,1.2,2.7,2.8,2.7
					c0,0,0,0,0,0c1.5,0,2.8-1.2,2.8-2.7l0.1-8l8.4,4.6c0.4,0.2,0.9,0.4,1.4,0.4c1,0,1.9-0.5,2.4-1.3
					C117.2,70.9,116.8,69.3,115.4,68.5z"/>
			</g>
			
				<g id="no-stopping-copy" transform="translate(109.500000, 114.000000) scale(-1, 1) translate(-109.500000, -114.000000) translate(32.000000, 36.000000)">
				<path id="Shape" class="st2" d="M17.7,11.6c-47.4,0-85.9,38.7-85.9,86.5s38.5,86.5,85.9,86.5s85.9-38.7,85.9-86.5
					S65.2,11.6,17.7,11.6z M-49.4,98c0-15.2,5-29.2,13.4-40.5l94,94.6c-11.2,8.5-25.1,13.5-40.3,13.5
					C-19.3,165.6-49.4,135.3-49.4,98z M71.3,138.7l-94-94.6c11.2-8.6,25.3-13.6,40.4-13.6c37.1,0,67.1,30.2,67.1,67.5
					C84.8,113.3,79.8,127.4,71.3,138.7z"/>
				<path id="Path_6_" class="st3" d="M16.4,11.6c-1.7,0-3.4,0.1-5.1,0.2C55.7,14.4,90.8,52,90.8,98c0,46-35.2,83.6-79.5,86.3
					c1.7,0.1,3.4,0.2,5.1,0.2c46.7,0,84.6-38.7,84.6-86.5S63.2,11.6,16.4,11.6z"/>
				<path id="Path_7_" d="M33.6,98.8c-1.1-1-2.8-1-3.8,0c-1.1,1-1.1,2.6,0,3.6l39.7,37.5c0.5,0.5,1.2,0.7,1.9,0.7c0.1,0,0.1,0,0.2,0
					c0.8-0.1,1.5-0.4,2-1c9.6-12,14.7-26.3,14.7-41.4c0-17.3-6.8-33.8-19.2-46.5C56.7,39,40,31.2,22,29.7c-1.5-0.1-2.8,0.9-2.9,2.3
					c-0.1,1.4,1,2.7,2.5,2.8c16.7,1.4,32.2,8.6,43.6,20.3c11.5,11.8,17.8,27.1,17.8,43.1c0,13-4.1,25.4-11.8,36L33.6,98.8z"/>
				<path id="Path_8_" d="M15.9,29.6c-0.1-1.5-1.4-2.6-2.9-2.5c-13.3,1.2-25.9,6.3-36.5,14.6c-0.6,0.5-1,1.2-1,2
					c-0.1,0.8,0.2,1.6,0.8,2.1l48.5,50.2c0.5,0.5,1.2,0.8,1.9,0.8c0.7,0,1.4-0.3,1.9-0.8c1-1.1,1-2.8,0-3.9l-46.3-47.9
					c9.3-6.6,20.1-10.6,31.3-11.6C14.9,32.4,16,31.1,15.9,29.6z"/>
				<path id="Shape_1_" d="M-32.2,52.9c-0.7,0.1-1.4,0.4-1.9,1c-8.9,12-13.6,26.2-13.6,41.2c0,37.9,30.6,68.7,68.3,68.7
					c14.9,0,29.1-4.7,41-13.7c0.6-0.4,1-1.1,1-1.9c0.1-0.7-0.2-1.5-0.7-2l-92.1-92.6C-30.7,53.1-31.4,52.8-32.2,52.9z M20.6,158.7
					c-34.9,0-63.2-28.5-63.2-63.6c0-12.9,3.8-25.2,10.9-35.7l87.8,88.4C45.6,154.9,33.4,158.7,20.6,158.7z"/>
				<path id="Path_9_" d="M80.7,34.7C64.2,18.1,42.3,9,19,9s-45.2,9.1-61.7,25.7c-16.5,16.6-25.5,38.7-25.5,62.1
					c0,22.4,8.4,43.7,23.5,60c15.1,16.3,35.5,26.1,57.5,27.6c1.4,0.1,2.6-1,2.7-2.4c0.1-1.4-1-2.6-2.4-2.7
					c-20.7-1.5-39.9-10.7-54.1-26c-14.3-15.4-22.2-35.4-22.2-56.5c0-22.1,8.5-42.9,24-58.5c15.5-15.6,36.1-24.2,58-24.2
					s42.5,8.6,58,24.2c15.5,15.6,24,36.4,24,58.5c0,21.1-7.9,41.1-22.2,56.5c-14.2,15.3-33.4,24.5-54.1,26c-1.4,0.1-2.5,1.3-2.4,2.7
					c0.1,1.4,1.2,2.4,2.5,2.4c0.1,0,0.1,0,0.2,0c22-1.5,42.4-11.3,57.5-27.6c15.2-16.3,23.5-37.7,23.5-60
					C106.2,73.4,97.1,51.3,80.7,34.7z"/>
			</g>
		</g>
	</g>
</g>
</svg>
