<?xml version="1.0" encoding="utf-8"?>
<!-- Generator: Adobe Illustrator 24.1.2, SVG Export Plug-In . SVG Version: 6.00 Build 0)  -->
<svg version="1.1" id="Capa_1" xmlns="http://www.w3.org/2000/svg" xmlns:xlink="http://www.w3.org/1999/xlink" x="0px" y="0px"
	 viewBox="0 0 300 225" style="enable-background:new 0 0 300 225;" xml:space="preserve">
<style type="text/css">
	.st0{fill:#FE8205;stroke:#000000;stroke-width:8;}
	.st1{fill:#FA5D0F;}
	.st2{fill:#F0F7FF;}
	.st3{fill:#DFE7F4;}
	.st4{fill:#575F64;}
	.st5{fill:#474F54;}
</style>
<desc>Created with Sketch.</desc>
<g id="Page-1">
	<g id="tips-sabropollo" transform="translate(-1318.000000, -1933.000000)">
		<g id="clock" transform="translate(1322.000000, 1937.000000)">
			<circle id="Oval" class="st0" cx="146" cy="108.5" r="105.5"/>
			<path id="Path" class="st1" d="M251.5,108.5C251.5,50.6,203.7,3,145.6,3v211C203.7,214,251.5,166.4,251.5,108.5z"/>
			<path id="Path_1_" class="st2" d="M147.3,28.1c-43.6,0-79,36-79,80.2s35.4,80.6,79,80.6s79-36.4,79-80.6S190.9,28.1,147.3,28.1z"
				/>
			<path id="Path_2_" class="st3" d="M230,108.3c0-44.2-36.3-80.2-80.8-80.2v160.7C193.7,188.9,230,152.5,230,108.3z"/>
			<path id="Path_3_" class="st4" d="M146.4,53.3c-3,0-5.4,2.8-5.4,6.2v62.1c0,3.4,2.4,6.2,5.4,6.2c3,0,5.4-2.8,5.4-6.2V59.5
				C151.8,56.1,149.4,53.3,146.4,53.3z"/>
			<path id="Path_4_" class="st5" d="M151.8,121.6V59.5c0-3.4-2.8-6.2-6.3-6.2v74.5C149,127.8,151.8,125,151.8,121.6z"/>
			<path id="Path_5_" class="st4" d="M184.3,103.6h-36.6h-12.2c-3.4,0-6.1,2.4-6.1,5.4s2.7,5.4,6.1,5.4h12.2h36.6
				c3.4,0,6.1-2.4,6.1-5.4S187.7,103.6,184.3,103.6z"/>
			<path id="Path_6_" class="st5" d="M190.4,108.9c0-3-2.8-5.4-6.3-5.4h-37.7v10.8h37.7C187.6,114.3,190.4,111.9,190.4,108.9z"/>
		</g>
	</g>
</g>
</svg>
