<?xml version="1.0" encoding="utf-8"?>
<!-- Generator: Adobe Illustrator 24.1.0, SVG Export Plug-In . SVG Version: 6.00 Build 0)  -->
<svg version="1.1" id="Capa_1" xmlns="http://www.w3.org/2000/svg" xmlns:xlink="http://www.w3.org/1999/xlink" x="0px" y="0px"
	 viewBox="0 0 300 225" style="enable-background:new 0 0 300 225;" xml:space="preserve">
<style type="text/css">
	.st0{fill:#D9CCBC;}
	.st1{fill:#EBE5DD;}
	.st2{fill:#FFFFFF;}
	.st3{enable-background:new    ;}
</style>
<g id="Page-1">
	<g id="tips-sabrohuevo" transform="translate(-381.000000, -3081.000000)">
		<g id="Group-3" transform="translate(381.000000, 3081.000000)">
			<g id="egg-_x28_2_x29_" transform="translate(0.000000, 29.000000)">
				<path id="Path" class="st0" d="M144,114.4c0,47-22.4,69.8-51,73.4c-2.7,0.3-5.4,0.5-8.2,0.5c-32.4,0-58.2-22.5-58.2-73.9
					c0-51.4,33-100.3,58.7-99.8c2.8,0,5.5,0.5,8.3,1.4C119.9,24.2,144,67.9,144,114.4z"/>
				<path id="Path_1_" class="st1" d="M144,114.1c0,47.5-22.3,70.6-50.8,74.2c-28.4-3.6-49.8-26.7-49.8-74.2
					c0-46.6,26.5-91.2,50.4-99.5C120,22.9,144,67.1,144,114.1z"/>
				<path id="Path_2_" d="M28.7,123.2c-2.2-27.9,5.2-55.7,18.8-77.7C55.1,33.1,69.7,16,84.4,16.2c4.5,0.1,9.2,1.4,13.8,3.9
					c1.3,0.7,2.9,0.2,3.6-1c0.7-1.3,0.2-2.8-1-3.5C95.7,12.8,89.9,11,84,11C70.6,11,55.3,22.9,43,42.8
					c-14.1,22.9-21.8,51.8-19.6,80.9c0.1,1.4,1.3,2.4,2.6,2.4C27.6,126,28.8,124.7,28.7,123.2z"/>
				<path id="Path_3_" d="M133.2,161.1c-1.2-0.8-2.9-0.4-3.7,0.8c-9.9,15.4-25.4,23.5-44.8,23.5c-28.9,0-48.6-18.7-54.1-51.2
					c-0.2-1.4-1.6-2.4-3.1-2.2c-1.4,0.2-2.4,1.6-2.2,3.1c6.3,37.4,29.6,55.6,59.3,55.6c21,0,38.5-9.2,49.3-26
					C134.8,163.5,134.4,161.9,133.2,161.1z"/>
				<path id="Path_4_" d="M110.1,21.2c-1.1-1-2.8-0.8-3.8,0.3c-1,1.1-0.8,2.8,0.3,3.7c30.5,26.1,43.9,89.4,27.3,127.1
					c-0.6,1.3,0,2.9,1.4,3.5c1.3,0.6,2.9,0,3.5-1.4C156.1,115,142.8,49.2,110.1,21.2z"/>
			</g>
			<g id="freezer" transform="translate(111.000000, 0.000000)">
				<path id="Path_5_" class="st2" d="M163.6,99.7l-14-7.9l12.2-7c2.2-1.3,3-4.1,1.7-6.3c-1.3-2.2-4.2-2.9-6.5-1.6l-16.8,9.6
					l-25.3-14.2l25.3-14.2l16.8,9.6c0.8,0.4,1.6,0.6,2.4,0.6c1.6,0,3.2-0.8,4.1-2.3c1.3-2.2,0.6-5-1.7-6.3l-12.2-7l14-7.9
					c2.3-1.3,3-4.1,1.7-6.3c-1.3-2.2-4.2-2.9-6.4-1.7l-14,7.9l-0.1-13.7c0-2.5-2.2-4.6-4.8-4.5c-2.6,0-4.7,2.1-4.7,4.6l0.2,18.9
					l-25.3,14.2V36.1l16.9-9.3c2.3-1.2,3.1-4,1.8-6.2c-1.3-2.2-4.2-3-6.4-1.7l-12.3,6.7V9.8c0-2.5-2.1-4.6-4.7-4.6
					c-2.6,0-4.7,2.1-4.7,4.6v15.7l-12.3-6.7c-2.3-1.2-5.1-0.5-6.4,1.7c-1.3,2.2-0.5,5,1.8,6.2l16.9,9.3v28.3L75.5,50.3l0.2-18.9
					c0-2.5-2.1-4.6-4.7-4.6c0,0,0,0,0,0c-2.6,0-4.7,2-4.7,4.5L66.1,45l-14-7.9c-2.3-1.3-5.1-0.5-6.4,1.7c-1.3,2.2-0.5,5,1.7,6.3
					l14,7.9l-12.2,7c-2.2,1.3-3,4.1-1.7,6.3c0.9,1.4,2.5,2.3,4.1,2.3c0.8,0,1.6-0.2,2.4-0.6l16.8-9.6l25.3,14.2L70.8,86.5L54,76.9
					c-2.2-1.3-5.1-0.6-6.5,1.6c-1.3,2.2-0.6,5,1.7,6.3l12.2,7l-14,7.9c-2.3,1.3-3,4.1-1.7,6.3c0.9,1.5,2.5,2.3,4.1,2.3
					c0.8,0,1.6-0.2,2.4-0.6l14-7.9l0.1,13.7c0,2.5,2.1,4.5,4.7,4.5c0,0,0,0,0,0c2.6,0,4.7-2.1,4.7-4.6l-0.2-18.9l25.3-14.2v28.3
					l-16.9,9.3c-2.3,1.2-3.1,4-1.8,6.2c0.9,1.5,2.5,2.3,4.1,2.3c0.8,0,1.6-0.2,2.3-0.6l12.3-6.7v15.7c0,2.5,2.1,4.6,4.7,4.6
					c2.6,0,4.7-2.1,4.7-4.6v-15.7l12.3,6.7c0.7,0.4,1.5,0.6,2.3,0.6c1.6,0,3.2-0.8,4.1-2.3c1.3-2.2,0.5-5-1.8-6.2l-16.9-9.3V80.3
					l25.3,14.2l-0.2,18.9c0,2.5,2.1,4.6,4.7,4.6c0,0,0,0,0,0c2.6,0,4.7-2,4.7-4.5l0.1-13.7l14,7.9c0.7,0.4,1.6,0.6,2.4,0.6
					c1.6,0,3.2-0.8,4.1-2.3C166.7,103.7,165.9,100.9,163.6,99.7z"/>
			</g>
			<g class="st3">
				<path class="st2" d="M226.7,194.6h-18.7v-3.7l8.8-9.4c1.2-1.3,2.1-2.5,2.7-3.5c0.6-1,0.9-1.9,0.9-2.8c0-1.2-0.3-2.2-0.9-2.9
					c-0.6-0.7-1.5-1-2.6-1c-1.2,0-2.2,0.4-2.9,1.3s-1.1,2-1.1,3.3h-5.4c0-1.7,0.4-3.2,1.2-4.5c0.8-1.4,1.9-2.4,3.4-3.2
					c1.4-0.8,3.1-1.2,4.9-1.2c2.8,0,5,0.7,6.5,2c1.6,1.3,2.3,3.3,2.3,5.7c0,1.3-0.3,2.7-1,4.1c-0.7,1.4-1.9,3-3.6,4.9l-6.2,6.5h11.7
					V194.6z"/>
				<path class="st2" d="M230.4,173.6c0-2,0.6-3.6,1.8-4.8c1.2-1.2,2.8-1.8,4.7-1.8s3.5,0.6,4.7,1.8c1.2,1.2,1.8,2.9,1.8,4.9v1.3
					c0,2-0.6,3.6-1.8,4.8c-1.2,1.2-2.7,1.8-4.7,1.8c-2,0-3.6-0.6-4.7-1.8c-1.2-1.2-1.8-2.9-1.8-4.9V173.6z M233.7,175
					c0,1.2,0.3,2.2,0.9,2.9s1.4,1,2.4,1c1,0,1.7-0.3,2.3-1c0.6-0.7,0.9-1.6,0.9-2.8v-1.5c0-1.2-0.3-2.2-0.9-2.8
					c-0.6-0.7-1.4-1-2.3-1c-1,0-1.8,0.3-2.3,1c-0.6,0.7-0.9,1.7-0.9,2.9V175z"/>
				<path class="st2" d="M269.5,185.5c-0.2,2.9-1.3,5.2-3.2,6.9c-2,1.7-4.5,2.5-7.7,2.5c-3.5,0-6.2-1.2-8.2-3.5c-2-2.4-3-5.6-3-9.7
					v-1.7c0-2.6,0.5-4.9,1.4-6.9c0.9-2,2.2-3.5,4-4.6c1.7-1.1,3.7-1.6,6-1.6c3.1,0,5.7,0.8,7.6,2.5c1.9,1.7,3,4.1,3.3,7.1H264
					c-0.1-1.8-0.6-3-1.5-3.8c-0.8-0.8-2.1-1.2-3.8-1.2c-1.9,0-3.3,0.7-4.2,2s-1.4,3.4-1.4,6.2v2.1c0,2.9,0.4,5.1,1.3,6.5
					c0.9,1.4,2.3,2,4.2,2c1.7,0,3-0.4,3.9-1.2c0.9-0.8,1.3-2,1.5-3.7H269.5z"/>
			</g>
		</g>
	</g>
</g>
</svg>
