<?xml version="1.0" encoding="utf-8"?>
<!-- Generator: Adobe Illustrator 24.1.2, SVG Export Plug-In . SVG Version: 6.00 Build 0)  -->
<svg version="1.1" id="Capa_1" xmlns="http://www.w3.org/2000/svg" xmlns:xlink="http://www.w3.org/1999/xlink" x="0px" y="0px"
	 viewBox="0 0 300 225" style="enable-background:new 0 0 300 225;" xml:space="preserve">
<style type="text/css">
	.st0{fill:#FFFFFF;}
	.st1{font-family:'Helvetica';}
	.st2{font-size:29.9456px;}
	.st3{fill:#57545C;stroke:#000000;stroke-width:3;}
	.st4{fill:#FFFFFF;stroke:#000000;stroke-width:8;}
	.st5{fill:#DEFAF7;}
	.st6{fill:#CAC7CD;}
	.st7{fill:#8D8A94;}
</style>
<desc>Created with Sketch.</desc>
<g id="Page-1">
	<g id="tips-sabropollo" transform="translate(-376.000000, -3036.000000)">
		<g id="Group-3" transform="translate(380.000000, 3040.000000)">
			<g id="freezer" transform="translate(156.000000, 3.000000)">
				<path id="Path" class="st0" d="M105.2,75.4l-11-6.1l9.5-5.4c1.8-1,2.3-3.2,1.3-4.9c-1-1.7-3.3-2.3-5-1.3l-13.1,7.5L67.1,54.1
					L86.9,43l13.1,7.5c0.6,0.3,1.2,0.5,1.9,0.5c1.3,0,2.5-0.6,3.2-1.8c1-1.7,0.4-3.9-1.3-4.9l-9.5-5.4l11-6.1c1.8-1,2.4-3.2,1.3-4.9
					c-1-1.7-3.3-2.3-5-1.3l-11,6.1L90.4,22c0-2-1.7-3.6-3.7-3.5c-2,0-3.7,1.6-3.7,3.6l0.1,14.8L63.5,47.9V25.8l13.2-7.3
					c1.8-1,2.4-3.2,1.4-4.9c-1-1.7-3.2-2.3-5-1.4l-9.6,5.3V5.3c0-2-1.7-3.6-3.7-3.6c-2,0-3.7,1.6-3.7,3.6v12.3l-9.6-5.3
					c-1.8-1-4-0.4-5,1.4c-1,1.7-0.4,3.9,1.4,4.9l13.2,7.3v22.1L36.3,36.8l0.1-14.8c0-2-1.6-3.6-3.7-3.6c0,0,0,0,0,0
					c-2,0-3.7,1.6-3.7,3.5L29,32.7l-11-6.1c-1.8-1-4-0.4-5,1.3s-0.4,3.9,1.3,4.9l11,6.1l-9.5,5.4c-1.8,1-2.3,3.2-1.3,4.9
					c0.7,1.1,1.9,1.8,3.2,1.8c0.6,0,1.3-0.2,1.9-0.5L32.7,43l19.7,11.1L32.7,65.1l-13.1-7.5c-1.8-1-4-0.4-5,1.3
					c-1,1.7-0.5,3.9,1.3,4.9l9.5,5.4l-11,6.1c-1.8,1-2.4,3.2-1.3,4.9c0.7,1.1,1.9,1.8,3.2,1.8c0.6,0,1.3-0.2,1.8-0.5l11-6.1
					l0.1,10.7c0,2,1.7,3.5,3.7,3.5c0,0,0,0,0,0c2,0,3.7-1.6,3.7-3.6l-0.1-14.8l19.7-11.1v22.1l-13.2,7.3c-1.8,1-2.4,3.2-1.4,4.9
					c0.7,1.2,1.9,1.8,3.2,1.8c0.6,0,1.2-0.1,1.8-0.5l9.6-5.3v12.3c0,2,1.7,3.6,3.7,3.6c2,0,3.7-1.6,3.7-3.6V90.6l9.6,5.3
					c0.6,0.3,1.2,0.5,1.8,0.5c1.3,0,2.5-0.7,3.2-1.8c1-1.7,0.4-3.9-1.4-4.9l-13.2-7.3V60.3l19.7,11.1l-0.1,14.8c0,2,1.6,3.6,3.7,3.6
					c0,0,0,0,0,0c2,0,3.7-1.6,3.7-3.5l0.1-10.7l11,6.1c0.6,0.3,1.2,0.5,1.8,0.5c1.3,0,2.5-0.6,3.2-1.8
					C107.5,78.6,106.9,76.4,105.2,75.4z"/>
			</g>
			<text transform="matrix(1 0 0 1 195.1562 153.4717)" class="st0 st1 st2">-18ºC</text>
			<g id="refrigerator">
				<g id="Group">
					<g id="Path_1_" transform="translate(16.072727, 215.172816)">
						<polygon class="st3" points="21.7,-11.9 36.9,-11.9 36.9,1.6 21.7,1.6 						"/>
						<polygon class="st3" points="102.1,-11.9 117.3,-11.9 117.3,1.6 102.1,1.6 						"/>
					</g>
					<path id="Path_2_" class="st4" d="M135.5,202.8H35.6c-7.2,0-13.1-5.9-13.1-13.2V15.1c0-7.3,5.9-13.2,13.1-13.2h99.9
						c7.2,0,13.1,5.9,13.1,13.2v174.5C148.6,196.8,142.7,202.8,135.5,202.8z"/>
					<path id="Path_3_" class="st5" d="M149.8,15.1v174.5c0,7.3-6,13.2-13.2,13.2H86.2V1.9h50.4C143.8,1.9,149.8,7.8,149.8,15.1z"/>
					<polygon id="Path_4_" class="st6" points="22.5,73.9 148.6,73.9 148.6,89 22.5,89 					"/>
					<g id="Path_5_" transform="translate(68.000000, 35.986425)">
						<polygon class="st7" points="18.2,37.9 81.6,37.9 81.6,52.9 18.2,52.9 						"/>
						<polygon class="st7" points="55.6,-0.4 70.8,-0.4 70.8,25.9 55.6,25.9 						"/>
						<polygon class="st7" points="55.6,66.2 70.8,66.2 70.8,92.4 55.6,92.4 						"/>
					</g>
				</g>
			</g>
		</g>
	</g>
</g>
</svg>
