<?xml version="1.0" encoding="utf-8"?>
<!-- Generator: Adobe Illustrator 24.1.2, SVG Export Plug-In . SVG Version: 6.00 Build 0)  -->
<svg version="1.1" id="Capa_1" xmlns="http://www.w3.org/2000/svg" xmlns:xlink="http://www.w3.org/1999/xlink" x="0px" y="0px"
	 viewBox="0 0 300 225" style="enable-background:new 0 0 300 225;" xml:space="preserve">
<style type="text/css">
	.st0{fill:#FFFFFF;stroke:#000000;stroke-width:2;}
</style>
<desc>Created with Sketch.</desc>
<g id="Page-1">
	<g id="tips-sabropollo" transform="translate(-1363.000000, -3738.000000)">
		<g id="freezer-copy" transform="translate(1364.000000, 3739.000000)">
			<path id="Path" class="st0" d="M247.9,157.3L224,144.1l20.7-11.7c3.8-2.2,5.1-6.9,2.8-10.5c-2.3-3.7-7.2-4.9-11-2.7l-28.5,16.1
				l-43-23.7l43-23.7l28.5,16.1c1.3,0.7,2.7,1.1,4.1,1.1c2.7,0,5.4-1.4,6.9-3.8c2.3-3.7,1-8.4-2.8-10.5L224,78.9l23.9-13.2
				c3.8-2.1,5.2-6.8,2.9-10.5c-2.2-3.7-7.1-4.9-11-2.8L216,65.6l-0.2-23c0-4.2-3.7-7.7-8.1-7.6c-4.4,0-8,3.5-8,7.7l0.3,31.7
				l-43,23.7V50.7l28.8-15.6c3.9-2.1,5.2-6.8,3-10.5c-2.2-3.7-7.1-5-10.9-2.9L157,33.1V6.7c0-4.2-3.6-7.7-8-7.7c-4.4,0-8,3.4-8,7.7
				v26.4L120,21.8c-3.9-2.1-8.8-0.8-10.9,2.9c-2.2,3.7-0.8,8.4,3,10.5L141,50.7v47.5L98,74.5l0.3-31.7c0-4.2-3.5-7.7-8-7.7
				c0,0,0,0-0.1,0c-4.4,0-8,3.4-8,7.6l-0.2,23L58.1,52.4c-3.8-2.1-8.8-0.9-11,2.8s-0.9,8.4,2.9,10.5L74,78.9L53.2,90.6
				c-3.8,2.2-5.1,6.9-2.8,10.5c1.5,2.4,4.2,3.8,6.9,3.8c1.4,0,2.8-0.3,4.1-1.1l28.5-16.1l43,23.7l-43,23.7l-28.5-16.1
				c-3.8-2.2-8.7-0.9-11,2.7c-2.3,3.7-1,8.4,2.8,10.5L74,144.1l-23.9,13.2c-3.8,2.1-5.2,6.8-2.9,10.5c1.5,2.5,4.2,3.8,7,3.8
				c1.4,0,2.7-0.3,4-1L82,157.4l0.2,23c0,4.2,3.6,7.6,8,7.6c0,0,0,0,0.1,0c4.4,0,8-3.5,8-7.7L98,148.5l43-23.7v47.5l-28.8,15.6
				c-3.9,2.1-5.2,6.8-3,10.5c1.5,2.5,4.2,3.9,7,3.9c1.3,0,2.7-0.3,3.9-1l20.9-11.3v26.4c0,4.2,3.6,7.7,8,7.7c4.4,0,8-3.4,8-7.7
				v-26.4l20.9,11.3c1.2,0.7,2.6,1,3.9,1c2.8,0,5.5-1.4,7-3.9c2.2-3.7,0.8-8.4-3-10.5L157,172.3v-47.5l43,23.7l-0.3,31.7
				c0,4.2,3.5,7.7,8,7.7c0,0,0.1,0,0.1,0c4.4,0,8-3.4,8-7.6l0.2-23l23.9,13.2c1.3,0.7,2.6,1,4,1c2.8,0,5.5-1.4,7-3.8
				C253.1,164.1,251.8,159.4,247.9,157.3z"/>
		</g>
	</g>
</g>
</svg>
