<?xml version="1.0" encoding="utf-8"?>
<!-- Generator: Adobe Illustrator 24.1.2, SVG Export Plug-In . SVG Version: 6.00 Build 0)  -->
<svg version="1.1" id="Capa_1" xmlns="http://www.w3.org/2000/svg" xmlns:xlink="http://www.w3.org/1999/xlink" x="0px" y="0px"
	 viewBox="0 0 300 225" style="enable-background:new 0 0 300 225;" xml:space="preserve">
<style type="text/css">
	.st0{fill:#FFFFFF;}
	.st1{fill:#C62430;}
</style>
<desc>Created with Sketch.</desc>
<g id="Page-1">
	<g id="tips-sabropollo" transform="translate(-1365.000000, -4519.000000)">
		
			<g id="no-stopping" transform="translate(1440.000000, 4594.000000) scale(-1, 1) translate(-1440.000000, -4594.000000) translate(1365.000000, 4519.000000)">
			<path id="Shape" class="st0" d="M-0.7,7.4c-58.5,0-105.8,47.4-105.8,105.8S-59.2,219.1-0.7,219.1s105.8-47.4,105.8-105.8
				S57.7,7.4-0.7,7.4z M-83.4,113.2c0-18.6,6.1-35.8,16.5-49.6L48.9,179.4c-13.8,10.4-31,16.5-49.6,16.5
				C-46.4,195.9-83.4,158.9-83.4,113.2z M65.3,163L-50.5,47.2c13.9-10.5,31.1-16.7,49.8-16.7c45.7,0,82.7,37,82.7,82.7
				C82,131.9,75.7,149.2,65.3,163z"/>
			<path id="Path" class="st1" d="M0.6,7.4c-2.1,0-4.3,0.1-6.4,0.2c55.5,3.3,99.5,49.3,99.5,105.6c0,56.3-44,102.3-99.5,105.6
				c2.1,0.1,4.2,0.2,6.4,0.2c58.5,0,105.9-47.4,105.9-105.8S59.1,7.4,0.6,7.4z"/>
			<path id="Path_1_" d="M21.3,112.8c-1.2-1.2-3.2-1.2-4.5,0c-1.2,1.2-1.2,3.2,0,4.5l46.2,46.2c0.6,0.6,1.4,0.9,2.2,0.9
				c0.1,0,0.1,0,0.2,0c0.9-0.1,1.7-0.5,2.3-1.2C79,148.3,85,130.6,85,112c0-21.3-7.9-41.7-22.4-57.4C48.2,39,28.8,29.4,7.8,27.6
				c-1.7-0.2-3.3,1.1-3.4,2.9c-0.2,1.7,1.1,3.3,2.9,3.4c19.5,1.7,37.5,10.6,50.7,25.1C71.3,73.4,78.6,92.3,78.6,112
				c0,16-4.7,31.3-13.7,44.3L21.3,112.8z"/>
			<path id="Path_2_" d="M-5.7,30.4c-0.2-1.7-1.7-3-3.4-2.9c-15.6,1.4-30.5,7.3-43,16.9c-0.7,0.6-1.2,1.4-1.2,2.3
				c-0.1,0.9,0.3,1.8,0.9,2.5l57.1,58.1c0.6,0.6,1.4,0.9,2.2,0.9c0.8,0,1.6-0.3,2.2-0.9c1.2-1.2,1.2-3.2,0-4.5l-54.5-55.4
				c10.9-7.6,23.6-12.3,36.8-13.5C-6.8,33.7-5.5,32.2-5.7,30.4z"/>
			<path id="Shape_1_" d="M-65.7,60.7c-0.9,0.1-1.7,0.5-2.3,1.3C-79.1,76.7-85,94.2-85,112.7c0,46.7,38,84.7,84.7,84.7
				c18.5,0,36.1-5.9,50.8-16.9c0.7-0.6,1.2-1.4,1.3-2.3c0.1-0.9-0.3-1.8-0.9-2.5L-63.3,61.6C-63.9,60.9-64.8,60.6-65.7,60.7z
				 M-0.2,191.2c-43.2,0-78.4-35.2-78.4-78.4c0-15.9,4.7-31.1,13.5-44.1L43.8,177.6C30.8,186.5,15.7,191.2-0.2,191.2z"/>
			<path id="Path_3_" d="M76.4,36.2C56,15.7,28.8,4.5,0,4.5s-56,11.2-76.4,31.7C-96.8,56.6-108,83.7-108,112.6
				c0,27.6,10.4,53.8,29.2,73.9c18.7,20,44,32.1,71.2,34c1.7,0.1,3.3-1.2,3.4-2.9c0.1-1.7-1.2-3.3-2.9-3.4
				c-25.6-1.8-49.4-13.1-67.1-32c-17.7-18.9-27.4-43.6-27.4-69.6c0-27.2,10.6-52.7,29.8-72C-52.7,21.4-27.2,10.8,0,10.8
				s52.7,10.6,71.9,29.8c19.2,19.2,29.8,44.8,29.8,72c0,25.9-9.7,50.6-27.4,69.6c-17.6,18.8-41.4,30.2-67.1,32
				c-1.7,0.1-3.1,1.6-2.9,3.4c0.1,1.7,1.5,2.9,3.2,2.9c0.1,0,0.1,0,0.2,0c27.2-1.9,52.5-14,71.2-34c18.8-20.1,29.2-46.3,29.2-73.9
				C108,83.7,96.8,56.6,76.4,36.2z"/>
		</g>
	</g>
</g>
</svg>
