<?xml version="1.0" encoding="utf-8"?>
<!-- Generator: Adobe Illustrator 24.1.0, SVG Export Plug-In . SVG Version: 6.00 Build 0)  -->
<svg version="1.1" id="Capa_1" xmlns="http://www.w3.org/2000/svg" xmlns:xlink="http://www.w3.org/1999/xlink" x="0px" y="0px"
	 viewBox="0 0 300 225" style="enable-background:new 0 0 300 225;" xml:space="preserve">
<style type="text/css">
	.st0{fill:#CE8951;}
	.st1{fill:#EFD1B9;}
	.st2{fill:#E89C62;}
	.st3{fill:#C4773D;}
	.st4{fill:#E5B89A;}
	.st5{fill:#AAE1F9;}
	.st6{fill:#C4F236;}
	.st7{fill:#57B7EB;}
	.st8{fill:#A1D51C;}
	.st9{fill:#F9E109;}
	.st10{fill:#FCBC04;}
	.st11{fill:#E59730;}
	.st12{fill:#F89C8D;}
	.st13{fill:#F8664F;}
	.st14{fill:#D0D8DA;}
	.st15{fill:#CC5144;}
	.st16{fill:#93999A;}
	.st17{fill:#4891D3;}
	.st18{fill:#323232;}
</style>
<g id="Page-1">
	<g id="tips-sabrohuevo" transform="translate(-1245.000000, -4117.000000)">
		<g id="Group-2" transform="translate(1245.000000, 4117.000000)">
			<g id="egg-_x28_3_x29_" transform="translate(0.000000, 59.000000)">
				<path id="Path" class="st0" d="M131.1,65.3l-1.6,19.4c-0.2,2.1-1.8,3.7-3.8,3.7h-10.3c-0.6,0-1.1-0.4-1.3-1.1
					c-0.5-2.7-2.8-4.7-5.5-4.7c-2.7,0-5,2-5.5,4.7c-0.1,0.6-0.6,1.1-1.3,1.1H79.1c-0.6,0-1.1-0.4-1.3-1.1c-0.5-2.7-2.8-4.7-5.5-4.7
					c-2.7,0-5,2-5.5,4.7c-0.1,0.6-0.6,1.1-1.3,1.1H42.8c-0.6,0-1.1-0.4-1.3-1.1c-0.5-2.7-2.8-4.7-5.5-4.7c-2.7,0-5,2-5.5,4.7
					c-0.1,0.6-0.6,1.1-1.3,1.1H18.1c-2,0-3.7-1.6-3.8-3.7l-1.6-19.4h60.9H131.1z"/>
				<g id="Group" transform="translate(16.032787, 0.000000)">
					<path id="Path_1_" class="st1" d="M11.2,35.8C7,38.6,2.2,44.6,3,56.6h13.9h13.9c0.8-12-4-18-8.2-20.9
						C19.2,33.4,14.6,33.4,11.2,35.8z"/>
					<path id="Path_2_" class="st1" d="M49.1,35.8c-4.2,2.9-9,8.8-8.2,20.9h13.9h13.9c0.8-12-4-18-8.2-20.9
						C57.1,33.4,52.5,33.4,49.1,35.8z"/>
					<path id="Path_3_" class="st1" d="M86.5,36c-4.1,3-8.5,8.9-7.8,20.6h13.9h13.9C107.3,45,102.8,39,98.7,36
						C95.1,33.4,90.2,33.4,86.5,36z"/>
				</g>
				<path id="Path_4_" class="st2" d="M134.1,65.3H7.5c-0.7,0-1.3-0.5-1.3-1.2V58c0-0.6,0.6-1.2,1.3-1.2h126.5
					c0.7,0,1.3,0.5,1.3,1.2v6.1C135.3,64.7,134.8,65.3,134.1,65.3z"/>
				<path id="Path_5_" class="st3" d="M131.1,65.3l-1.5,19.4c-0.2,2.1-1.7,3.7-3.6,3.7h-9.6c0,0-0.1,0-0.1,0
					c1.8-0.1,3.3-1.6,3.5-3.7l1.5-19.4H131.1L131.1,65.3z"/>
				<path id="Path_6_" class="st0" d="M135.3,58v6c0,0.7-0.6,1.2-1.3,1.2h-13.5v-8.4h13.5C134.8,56.9,135.3,57.4,135.3,58z"/>
				<g id="Group_1_" transform="translate(29.393443, 0.000000)">
					<path id="Path_7_" class="st4" d="M17.4,56.6h-6.7c0.8-12-4-18-8.2-20.9c-0.7-0.5-1.5-0.9-2.3-1.2c3-1.1,6.4-0.7,9.1,1.2
						C13.4,38.6,18.2,44.6,17.4,56.6z"/>
					<path id="Path_8_" class="st4" d="M55.3,56.6h-6.7c0.8-12-4-18-8.2-20.9c-0.7-0.5-1.5-0.9-2.3-1.2c3-1.1,6.4-0.7,9.1,1.2
						C51.3,38.6,56.1,44.6,55.3,56.6z"/>
					<path id="Path_9_" class="st4" d="M93.2,56.6h-6.7C87.2,45,82.7,39,78.6,36c-0.9-0.6-1.8-1.1-2.7-1.4c3.1-1.1,6.7-0.6,9.5,1.4
						C89.5,39,93.9,45,93.2,56.6z"/>
				</g>
			</g>
			<g id="canned-food" transform="translate(211.000000, 0.000000)">
				<g id="Color" transform="translate(2.665308, 2.675085)">
					<g id="Group_2_">
						<g id="Path_10_" transform="translate(62.592582, 0.000000)">
							<path class="st5" d="M16.2,124.4h-63.4V90l0.3-2c1.1-8.1,1-16.3-0.3-24.3h63.4v0.4c0,2.4-0.2,4.8-0.7,7.2
								c-0.9,4.3-0.9,8.8-0.2,13.2l0.4,2.6c0.3,2,0.5,4,0.5,6V124.4z"/>
							<polygon class="st6" points="-47.3,55.6 16.2,55.6 16.2,63.7 -47.3,63.7 							"/>
							<path class="st5" d="M16.2,55.6h-63.4l-4-10.1l10.2,1.2c5.1,0.6,10.2,0.5,15.2-0.1l1-0.1c4.8-0.6,9.7-0.7,14.5-0.2l4.7,0.5
								c5.2,0.5,10.5,0.4,15.6-0.3l6.1-0.9V55.6z"/>
							<path class="st7" d="M-33.4,67.7v-4h-13.9c1.3,8,1.4,16.3,0.3,24.3l-0.3,2v34.4h63.4v-16.2H6.3
								C-15.6,108.2-33.4,90.1-33.4,67.7z"/>
							<polygon class="st8" points="-47.3,55.6 -33.4,55.6 -33.4,63.7 -47.3,63.7 							"/>
							<path class="st7" d="M-33.4,47c-2.5,0-5.1-0.1-7.6-0.4l-10.2-1.2l4,10.1h13.9V47z"/>
							<path class="st9" d="M-33.4,73.8c3.3,0,5.9,2.7,5.9,6.1v30.4h-11.9V79.9C-39.3,76.5-36.7,73.8-33.4,73.8z"/>
							<path class="st10" d="M-39.3,79.9v30.4h11.9V89c-2.8-4.6-4.7-9.8-5.4-15.1c-0.2,0-0.3-0.1-0.5-0.1
								C-36.7,73.8-39.3,76.5-39.3,79.9L-39.3,79.9z"/>
							<g transform="translate(30.044439, 35.783105)">
								<path class="st9" d="M-51.5,38c3.3,0,5.9,2.7,5.9,6.1v30.4h-11.9V44.1C-57.5,40.7-54.8,38-51.5,38z"/>
								<path class="st9" d="M-39.6,38c3.3,0,5.9,2.7,5.9,6.1v30.4h-11.9V44.1C-45.6,40.7-42.9,38-39.6,38z"/>
								<path class="st9" d="M-27.8,38c3.3,0,5.9,2.7,5.9,6.1v30.4h-11.9V44.1C-33.7,40.7-31,38-27.8,38z"/>
							</g>
							<path class="st10" d="M2.3,83.9V73.8c-3.3,0-5.9,2.7-5.9,6.1v30.4H8.2V90C5,90,2.3,87.3,2.3,83.9z"/>
							<path class="st10" d="M-9.6,83.9V73.8c-3.3,0-5.9,2.7-5.9,6.1v30.4h11.9V90C-6.9,90-9.6,87.3-9.6,83.9z"/>
							<path class="st10" d="M-21.5,85.9V73.8c-3.3,0-5.9,2.7-5.9,6.1v30.4h11.9V92C-18.8,92-21.5,89.3-21.5,85.9z"/>
							<path class="st11" d="M-27.4,110.2h11.9v-8.7c-4.8-3.3-8.9-7.5-11.9-12.5V110.2z"/>
							<path class="st11" d="M-33.4,88V73.8c-3.3,0-5.9,2.7-5.9,6.1v30.4h11.9V94C-30.7,94-33.4,91.3-33.4,88z"/>
							<path class="st6" d="M16.2,124.4h-63.4V94l3.5,1.2c9.2,3.1,19.3,2.7,28.2-1.2s19-4.3,28.2-1.2l3.5,1.2V124.4z"/>
							<path class="st8" d="M-21.9,96.2c-7.2,1.8-14.8,1.4-21.8-0.9l-3.5-1.2v30.4h63.4v-16.2H6.3C-4.3,108.2-14.5,103.9-21.9,96.2z
								"/>
						</g>
						<g transform="translate(0.000000, 51.118722)">
							<path id="Path_11_" class="st12" d="M-32.3,42.9h55.5v60.7c0,4.5-3.6,8.1-7.9,8.1h-39.7c-4.4,0-7.9-3.6-7.9-8.1V42.9z"/>
							<path id="Path_12_" class="st13" d="M-16.4,49h39.7v-6.1h-55.5v60.7c0,4.5,3.6,8.1,7.9,8.1h39.7c4.4,0,7.9-3.6,7.9-8.1v-4
								h-5.9c-23,0-41.6-19-41.6-42.5C-24.3,52.6-20.8,49-16.4,49z"/>
							<polygon id="Path_13_" class="st5" points="-32.3,55.1 23.3,55.1 23.3,95.5 -32.3,95.5 							"/>
							<ellipse id="Oval" class="st12" cx="-4.5" cy="81.4" rx="5.9" ry="6.1"/>
							<path id="Rectangle" class="st14" d="M-34.2,34.8h59.3c2.2,0,4,1.8,4,4l0,0c0,2.2-1.8,4-4,4h-59.3c-2.2,0-4-1.8-4-4l0,0
								C-38.2,36.6-36.4,34.8-34.2,34.8z"/>
							<path id="Path_14_" class="st13" d="M-0.5,81.4c-3.1,0-5.7-2.5-5.9-5.7c-2.9,1-4.5,4.1-3.8,7.1c0.7,3,3.5,5,6.5,4.7
								c3-0.3,5.3-2.9,5.3-6c0-0.1,0-0.2,0-0.4C0.8,81.2,0.1,81.4-0.5,81.4z"/>
							<ellipse id="Oval_1_" class="st12" cx="-12.4" cy="81.4" rx="5.9" ry="6.1"/>
							<path id="Path_15_" class="st13" d="M-10.4,83.4c-3.3,0-5.9-2.7-5.9-6.1c0-0.2,0-0.3,0-0.5c-2,1.8-2.6,4.8-1.4,7.2
								c1.2,2.5,3.8,3.8,6.4,3.3s4.6-2.8,4.8-5.5C-7.6,82.8-9,83.4-10.4,83.4L-10.4,83.4z"/>
							<path id="Path_16_" class="st7" d="M-24.3,57.1c0-0.7,0.1-1.4,0.3-2h-8.2v40.5h31.9C-15,88.6-24.3,73.6-24.3,57.1L-24.3,57.1
								z"/>
							<path id="Path_17_" class="st15" d="M-12.4,87.4c0.2,0,0.4,0,0.6-0.1c-2.4-2.4-4.5-5-6.2-7.9c-0.2,0.6-0.3,1.2-0.3,1.9
								C-18.4,84.7-15.7,87.4-12.4,87.4L-12.4,87.4z"/>
							<path id="Path_18_" class="st16" d="M-30.3,34.8h-4c-2.2,0-4,1.8-4,4c0,2.2,1.8,4,4,4h59.5c2.2,0,4-1.8,4-4h-55.5
								C-28.5,38.9-30.3,37.1-30.3,34.8z"/>
						</g>
						<g transform="translate(52.577769, 86.901827)">
							<path id="Rectangle_1_" class="st14" d="M-24.9,27.4H1.9c13.4,0,24.3,10.9,24.3,24.3l0,0c0,13.4-10.9,24.3-24.3,24.3h-26.8
								c-13.4,0-24.3-10.9-24.3-24.3l0,0C-49.1,38.2-38.3,27.4-24.9,27.4z"/>
							<path id="Path_19_" class="st16" d="M-9.5,63.8c-15.3,0-27.8-12.7-27.8-28.3v-8.1h-4c-4.4,0-7.9,3.6-7.9,8.1v32.4
								c0,4.5,3.6,8.1,7.9,8.1h59.5c4.4,0,7.9-3.6,7.9-8.1v-4H-9.5z"/>
							<g transform="translate(11.892591, 17.891553)">
								<ellipse id="Oval_2_" class="st9" cx="-33.3" cy="33.8" rx="18.3" ry="10.1"/>
								<path id="Path_20_" class="st9" d="M0.4,33.8c0-3.5,0.6-6.9,1.9-10.1c-7.3,0-14.1,3.8-18.1,10.1c4,6.3,10.8,10.1,18.1,10.1
									C1,40.7,0.4,37.2,0.4,33.8z"/>
								<path id="Path_21_" class="st10" d="M-29.3,37.8c-7,0-13.5-3.4-17.6-9.2c-1.8,1.5-3.4,3.2-4.6,5.2
									c4,6.3,10.9,10.1,18.3,10.1S-19,40.1-15,33.8c-0.2-0.3-0.4-0.6-0.7-0.9C-19.5,36.1-24.4,37.8-29.3,37.8L-29.3,37.8z"/>
								<path id="Path_22_" class="st11" d="M-33.3,43.9c0.5,0,0.9-0.1,1.4-0.1C-38.7,41-44.1,35.5-47,28.6
									c-1.8,1.5-3.3,3.2-4.6,5.1C-47.5,40.1-40.7,43.9-33.3,43.9L-33.3,43.9z"/>
								<path id="Path_23_" class="st10" d="M-13.3,30.5c-1,1-1.8,2.1-2.6,3.2c4,6.3,10.8,10.1,18.1,10.1C1.7,42.5,1.3,41,1,39.6
									C-4.7,38.6-9.9,35.4-13.3,30.5z"/>
								<path id="Path_24_" class="st5" d="M-51.6,33.8c4,6.3,10.9,10.1,18.3,10.1c0.1,0,0.3,0,0.4,0c2.1-6.6,2.1-13.6,0-20.2
									c-0.1,0-0.3,0-0.4,0C-40.7,23.6-47.5,27.5-51.6,33.8L-51.6,33.8z"/>
								<path id="Path_25_" class="st7" d="M-46.9,28.6c-1.8,1.5-3.4,3.2-4.6,5.2c4,6.3,10.9,10.1,18.3,10.1c0.1,0,0.3,0,0.4,0
									c0.6-2,1.1-4.1,1.3-6.2C-37.7,37-43.3,33.7-46.9,28.6L-46.9,28.6z"/>
								<path id="Path_26_" class="st7" d="M-33.3,43.9c0.1,0,0.3,0,0.4,0c0.2-0.7,0.4-1.5,0.6-2.2c-6.1-2.7-11.1-7.5-14-13.6
									c-2.1,1.6-3.9,3.5-5.3,5.7C-47.5,40.1-40.7,43.9-33.3,43.9L-33.3,43.9z"/>
								<path id="Path_27_" class="st17" d="M-33.3,43.9c0.1,0,0.3,0,0.4,0c0-0.1,0.1-0.3,0.1-0.5c-6.4-2.9-11.4-8.2-14.2-14.8
									c-1.8,1.5-3.3,3.2-4.6,5.1C-47.5,40.1-40.7,43.9-33.3,43.9L-33.3,43.9z"/>
							</g>
						</g>
					</g>
				</g>
				<g id="Outlines_copy">
					<g id="Group_3_">
						<path id="Shape" class="st18" d="M70.3,129.5c-0.4-0.5-1-0.8-1.6-0.9c-6.8,0.1-13.2,3.1-17.6,8.2c-4.9-5.7-12.1-8.7-19.5-8.2
							s-14.1,4.6-18.1,10.9c-0.4,0.7-0.4,1.5,0,2.2c4,6.3,10.7,10.4,18.1,10.9s14.6-2.5,19.4-8.2c4.4,5.2,10.9,8.2,17.6,8.2h0
							c0.6,0,1.3-0.3,1.6-0.9c0.4-0.5,0.4-1.2,0.2-1.9c-2.3-6-2.3-12.6,0-18.6C70.8,130.7,70.7,130,70.3,129.5L70.3,129.5z
							 M17.6,140.7c3.5-4.7,8.9-7.7,14.7-8c1.5,5.2,1.5,10.7,0,15.9C26.4,148.3,21.1,145.4,17.6,140.7L17.6,140.7z M36.4,148.4
							c1.2-5.1,1.2-10.4,0-15.5c5.1,0.8,9.6,3.6,12.7,7.8C46,144.8,41.4,147.6,36.4,148.4L36.4,148.4z M65.9,148.5
							c-5.1-0.8-9.7-3.6-12.8-7.8c3.1-4.2,7.7-7,12.8-7.8C64.6,138,64.6,143.3,65.9,148.5L65.9,148.5z"/>
						<ellipse id="Oval_3_" class="st18" cx="25.5" cy="138.6" rx="2" ry="2"/>
						<path id="Shape_1_" class="st18" d="M72.8,114.5H13.6c-5.4,0-9.9,4.5-9.9,10v4.8c-1.1-1.3-2.6-2.2-4.3-2.6
							c-0.3-2.5,0.1-5.1,1.2-7.4l0.9-1.9c0.4-0.7,0.3-1.6-0.3-2.2c-0.5-0.6-1.4-0.8-2.1-0.6c-5.5,1.9-9.6,6.5-11,12.2
							c-3.9,0.9-6.4,4.7-6,8.7s3.8,7.1,7.8,7.1c1.4,0,2.8-0.4,3.9-1.1c3.2,2,7.4,1.3,9.9-1.7v16.8c0,5.5,4.4,10,9.9,10h59.2
							c5.4,0,9.9-4.5,9.9-10v-20.1c0-1.1-0.9-2-2-2c-1.1,0-2,0.9-2,2v20.1c0,3.3-2.6,6-5.9,6H13.6c-3.3,0-5.9-2.7-5.9-6v-32.1
							c0-3.3,2.6-6,5.9-6h59.2c3.3,0,5.9,2.7,5.9,6v4c0,1.1,0.9,2,2,2c1.1,0,2-0.9,2-2v-4C82.6,119,78.2,114.6,72.8,114.5
							L72.8,114.5z M-4.2,121.2c-0.4,1.9-0.6,3.9-0.4,5.8c-0.5,0.2-1.1,0.4-1.5,0.7c-0.5-0.3-1.1-0.6-1.7-0.7
							C-7.1,124.8-5.9,122.8-4.2,121.2L-4.2,121.2z M-14,134.6c0-2.1,1.7-3.9,3.8-4l0.2,0c2.2,0,3.9,1.8,3.9,4c0,2.2-1.8,4-4,4
							C-12.2,138.6-14,136.8-14,134.6z M-2.2,138.6c-0.3,0-0.7-0.1-1-0.2c1.4-2.4,1.4-5.3,0-7.7c0.3-0.1,0.7-0.2,1-0.2
							c2.2,0,3.9,1.8,3.9,4C1.8,136.8,0,138.6-2.2,138.6L-2.2,138.6z"/>
						<path id="Shape_2_" class="st18" d="M-0.2,162.7h-21.7c-3.3,0-5.9-2.7-5.9-6v-6h25.6c1.1,0,2-0.9,2-2s-0.9-2-2-2h-25.6v-36.1
							h53.2c1.1,0,2-0.9,2-2v-10c3.3,0,5.9-2.7,5.9-6c0-3.3-2.6-6-5.9-6H-14c-1.1,0-2,0.9-2,2s0.9,2,2,2h41.4c1.1,0,2,0.9,2,2
							c0,1.1-0.9,2-2,2h-59.2c-1.1,0-2-0.9-2-2c0-1.1,0.9-2,2-2h9.9c1.1,0,2-0.9,2-2s-0.9-2-2-2h-9.9c-3.3,0-5.9,2.7-5.9,6
							c0,3.3,2.6,6,5.9,6v58.2c0,5.5,4.4,10,9.9,10h21.7c1.1,0,2-0.9,2-2C1.8,163.6,0.9,162.7-0.2,162.7z M23.5,98.5v8h-51.3v-8
							H23.5z"/>
						<path id="Shape_3_" class="st18" d="M82,46.8c-0.4-0.4-1-0.6-1.6-0.5l-6,0.9c-5,0.7-10.1,0.8-15.1,0.3L54.6,47
							c-4.9-0.5-9.9-0.4-14.9,0.2l-1,0.1c-4.9,0.6-9.8,0.7-14.7,0.1l-10.2-1.2c-0.7-0.1-1.4,0.2-1.8,0.8s-0.5,1.3-0.3,2l3.8,9.7v7.6
							c0,0.1,0,0.1,0,0.2c0,0.1,0,0.1,0,0.2c0.8,4.7,1.1,9.5,1,14.4c0,0.5,0.2,1,0.5,1.4s0.9,0.6,1.4,0.6h0c1.1,0,1.9-0.9,2-2
							c0.1-4.3-0.2-8.5-0.7-12.8h58.8c-0.1,1.7-0.3,3.4-0.6,5.1c-0.9,4.5-1,9.2-0.2,13.8l0.4,2.5c0.2,1.3,0.3,2.6,0.4,3.8l-0.8-0.3
							c-1-0.3-2-0.6-3-0.9V82.4c0-3.3-2-6.4-5.1-7.5c-3.1-1.2-6.6-0.3-8.7,2.3c-0.1-0.1-0.2-0.3-0.3-0.4c-1.5-1.6-3.7-2.4-5.8-2.4
							c-2.2,0.1-4.2,1.1-5.7,2.8c-0.1-0.1-0.2-0.3-0.3-0.4c-1.5-1.6-3.7-2.4-5.8-2.4c-2.2,0.1-4.2,1.1-5.7,2.8
							c-0.1-0.1-0.2-0.3-0.3-0.4c-2.3-2.3-5.6-3-8.6-1.7c-2.9,1.2-4.9,4.2-4.9,7.4c0,1.1,0.9,2,2,2s2-0.9,2-2c0-2.2,1.8-4,3.9-4
							c2.2,0,3.9,1.8,3.9,4v17.1c0,1.1,0.9,2,2,2c0.1,0,0.1,0,0.2,0h0.2c4.2-0.4,8.4-1.5,12.3-3.2c8.4-3.7,17.9-4.1,26.7-1.1
							l2.1,0.7v12.6c0,1.1,0.9,2,2,2c1.1,0,2-0.9,2-2V95.5c0-2.1-0.2-4.2-0.5-6.3l-0.4-2.5c-0.7-4.1-0.6-8.3,0.2-12.4
							c0.5-2.5,0.7-5,0.7-7.5V48.3C82.6,47.7,82.4,47.1,82,46.8L82,46.8z M55,78.4c2.2,0,3.9,1.8,3.9,4v9.2c-2.7,0.4-5.3,1-7.9,2
							V82.4C51.1,80.2,52.9,78.4,55,78.4z M43.2,78.4c2.2,0,3.9,1.8,3.9,4v12.7c-2.5,1-5.2,1.7-7.9,2.1V82.4
							C39.3,80.2,41,78.4,43.2,78.4z M62.9,91.3v-8.8c0-2.2,1.8-4,3.9-4c2.2,0,3.9,1.8,3.9,4v9.3C68.2,91.3,65.6,91.1,62.9,91.3
							L62.9,91.3z M19.5,60.3h59.2v4H19.5V60.3z M23.6,51.4C28.8,52,34,52,39.2,51.3l1-0.1c4.6-0.6,9.3-0.6,14-0.2l4.7,0.5
							c5.3,0.5,10.7,0.4,16-0.3l3.8-0.6v5.7H18.9l-2.2-5.7L23.6,51.4z"/>
						<path id="Path_28_" class="st18" d="M35.3,110.5H55c1.1,0,2-0.9,2-2s-0.9-2-2-2H35.3c-1.1,0-2,0.9-2,2S34.2,110.5,35.3,110.5z
							"/>
						<path id="Path_29_" class="st18" d="M72.8,110.5c1.1,0,2-0.9,2-2s-0.9-2-2-2h-9.9c-1.1,0-2,0.9-2,2s0.9,2,2,2H72.8z"/>
					</g>
				</g>
			</g>
			<polygon id="X" points="234.8,104.8 263.7,58.7 282.5,58.7 244.3,118.4 283.4,179 264.5,179 234.8,132.1 204.9,179 186,179 
				225.2,118.4 186.9,58.7 205.6,58.7 			"/>
		</g>
	</g>
</g>
</svg>
